<svg width="242" height="63" viewBox="0 0 242 63" fill="none" xmlns="http://www.w3.org/2000/svg">
<path d="M7.17035 7.14926V8.36926C7.17035 8.55926 7.24036 8.72926 7.38036 8.85926C7.52036 8.99926 7.68036 9.05926 7.88036 9.05926H15.8004C16.0004 9.05926 16.1604 9.12926 16.3004 9.26926C16.4404 9.40926 16.5103 9.56926 16.5103 9.76926V13.8793C16.5103 14.0793 16.4404 14.2393 16.3004 14.3793C16.1604 14.5193 16.0004 14.5893 15.8004 14.5893H7.88036C7.68036 14.5893 7.52036 14.6593 7.38036 14.7993C7.24036 14.9393 7.17035 15.0993 7.17035 15.2993V21.7793C7.17035 21.9793 7.10035 22.1393 6.97035 22.2793C6.83035 22.4193 6.67035 22.4893 6.47035 22.4893H2.06035C1.86035 22.4893 1.70035 22.4193 1.56035 22.2793C1.42035 22.1393 1.36035 21.9793 1.36035 21.7793V1.69926C1.36035 1.49926 1.43035 1.33926 1.56035 1.19926C1.70035 1.05926 1.86035 0.989258 2.06035 0.989258H16.9704C17.1704 0.989258 17.3304 1.05926 17.4704 1.19926C17.6104 1.33926 17.6803 1.49926 17.6803 1.69926V5.73926C17.6803 5.93926 17.6104 6.09926 17.4704 6.23926C17.3304 6.37926 17.1704 6.44926 16.9704 6.44926H7.87035C7.67035 6.44926 7.51035 6.51926 7.37035 6.64926C7.23035 6.78926 7.17035 6.95926 7.17035 7.14926Z" fill="white"/>
<path d="M44.4604 1.72953V21.7695C44.4604 21.9695 44.3904 22.1295 44.2504 22.2695C44.1104 22.4095 43.9504 22.4795 43.7504 22.4795H39.3403C39.1403 22.4795 38.9803 22.4095 38.8403 22.2695C38.7003 22.1295 38.6404 21.9695 38.6404 21.7695V12.3195C38.6404 12.1195 38.5504 12.0195 38.3804 11.9995C38.2104 11.9795 38.0604 12.0495 37.9404 12.2095L33.0004 20.1495C32.9004 20.3095 32.7503 20.3795 32.5303 20.3795C32.3103 20.3795 32.1503 20.2995 32.0303 20.1495L27.0903 12.1995C26.9903 12.0395 26.8503 11.9795 26.6803 11.9895C26.5103 11.9995 26.4203 12.1195 26.4203 12.3095V21.7595C26.4203 21.9595 26.3504 22.1195 26.2204 22.2595C26.0804 22.3995 25.9204 22.4695 25.7204 22.4695H21.3103C21.1103 22.4695 20.9503 22.3995 20.8103 22.2595C20.6703 22.1195 20.6104 21.9595 20.6104 21.7595V1.72953C20.6104 1.52953 20.6804 1.36953 20.8204 1.22953C20.9604 1.08953 21.1204 1.01953 21.3204 1.01953H25.4104C25.6004 1.01953 25.8104 1.07953 26.0204 1.19953C26.2304 1.31953 26.3904 1.44953 26.4904 1.60953L32.1404 9.87953C32.2604 10.0395 32.3904 10.1095 32.5504 10.1095C32.7104 10.1095 32.8303 10.0295 32.9303 9.87953L38.5804 1.60953C38.7004 1.44953 38.8604 1.31953 39.0804 1.19953C39.2904 1.07953 39.5004 1.01953 39.6904 1.01953H43.7803C43.9804 1.01953 44.1404 1.08953 44.2803 1.22953C44.3904 1.36953 44.4604 1.52953 44.4604 1.72953Z" fill="white"/>
<path d="M69.8599 16.7797C69.2899 17.6997 68.6699 18.5297 67.9799 19.2797C67.2899 20.0297 66.5299 20.6697 65.6799 21.1897C64.8299 21.7097 63.8899 22.1197 62.8499 22.4197C61.8099 22.7097 60.6699 22.8597 59.4199 22.8597C57.8499 22.8597 56.3899 22.5697 55.0199 21.9797C53.6499 21.3897 52.4499 20.5997 51.4299 19.5997C50.3999 18.5997 49.5999 17.4297 49.0099 16.0797C48.4199 14.7297 48.1299 13.2897 48.1299 11.7697C48.1299 10.2397 48.4199 8.80969 49.0099 7.45969C49.5999 6.10969 50.3999 4.93969 51.4299 3.93969C52.4599 2.93969 53.6499 2.14969 55.0199 1.55969C56.3899 0.969687 57.8599 0.679688 59.4199 0.679688C60.7099 0.679688 61.8699 0.829687 62.9099 1.11969C63.9499 1.40969 64.8899 1.81969 65.7299 2.34969C66.5699 2.87969 67.3299 3.51969 67.9999 4.26969C68.6699 5.01969 69.2899 5.84969 69.8599 6.74969C69.9599 6.90969 69.9799 7.06969 69.9199 7.24969C69.8599 7.42969 69.7399 7.54969 69.5699 7.62969L65.3999 9.26969C65.1999 9.34969 65.0099 9.34969 64.8099 9.26969C64.6099 9.18969 64.4699 9.06969 64.3699 8.91969C63.7999 8.01969 63.1199 7.32969 62.3199 6.84969C61.5199 6.36969 60.5499 6.12969 59.4199 6.12969C58.6799 6.12969 57.9799 6.28969 57.3199 6.59969C56.6599 6.90969 56.0899 7.32969 55.5999 7.84969C55.1099 8.36969 54.7299 8.96969 54.4599 9.65969C54.1899 10.3497 54.0499 11.0497 54.0499 11.7797C54.0499 12.5297 54.1899 13.2397 54.4599 13.9097C54.7299 14.5897 55.1199 15.1797 55.5999 15.6897C56.0799 16.1997 56.6599 16.6097 57.3199 16.9297C57.9699 17.2397 58.6699 17.3997 59.4199 17.3997C60.4999 17.3997 61.4699 17.1397 62.3399 16.6197C63.2099 16.0997 63.8999 15.4297 64.4099 14.6097C64.5099 14.4497 64.6499 14.3397 64.8399 14.2597C65.0299 14.1797 65.2199 14.1797 65.4099 14.2597L69.5799 15.8997C69.7599 15.9797 69.8699 16.0997 69.9299 16.2697C69.9799 16.4297 69.9599 16.5997 69.8599 16.7797Z" fill="white"/>
<path d="M80.5402 1.84926C80.4402 1.61926 80.4402 1.40926 80.5302 1.24926C80.6202 1.07926 80.7702 0.999258 80.9902 0.999258H85.7702C85.9702 0.999258 86.1502 1.05926 86.3302 1.18926C86.5102 1.31926 86.6202 1.46926 86.6802 1.64926L90.0202 11.4193C90.0802 11.6193 90.1802 11.7093 90.3302 11.7093C90.4802 11.7093 90.5802 11.6093 90.6402 11.4193L93.8702 1.67926C93.9302 1.47926 94.0502 1.31926 94.2202 1.19926C94.3902 1.05926 94.5902 0.999258 94.8002 0.999258H98.7002C98.9102 0.999258 99.1102 1.05926 99.2902 1.18926C99.4702 1.31926 99.5802 1.47926 99.6402 1.66926L102.87 11.4693C102.93 11.6693 103.03 11.7593 103.18 11.7593C103.33 11.7593 103.44 11.6593 103.52 11.4693L106.9 1.63926C106.98 1.45926 107.11 1.30926 107.28 1.17926C107.46 1.04926 107.65 0.989258 107.87 0.989258H112.62C112.83 0.989258 112.98 1.06926 113.06 1.23926C113.14 1.40926 113.15 1.57926 113.09 1.74926L105.99 21.7893C105.91 21.9893 105.78 22.1493 105.61 22.2693C105.43 22.3993 105.24 22.4593 105.02 22.4593H101.23C101.01 22.4593 100.82 22.3993 100.64 22.2693C100.46 22.1393 100.35 21.9793 100.29 21.7893L97.0602 12.0193C97.0002 11.8193 96.9002 11.7293 96.7502 11.7293C96.6002 11.7293 96.5002 11.8293 96.4402 12.0193L93.2102 21.7893C93.1502 21.9893 93.0302 22.1493 92.8602 22.2693C92.6802 22.3993 92.4902 22.4593 92.2702 22.4593H88.4802C88.2602 22.4593 88.0702 22.3893 87.8902 22.2393C87.7102 22.0893 87.6102 21.9393 87.5702 21.7893L80.5402 1.84926Z" fill="white"/>
<path d="M121.39 7.09926V8.32926C121.39 8.52926 121.46 8.68926 121.6 8.82926C121.74 8.96926 121.9 9.03926 122.1 9.03926H130.05C130.25 9.03926 130.41 9.10926 130.55 9.24926C130.69 9.38926 130.76 9.54926 130.76 9.74926V13.7993C130.76 13.9993 130.69 14.1593 130.55 14.2993C130.41 14.4393 130.25 14.5093 130.05 14.5093H122.1C121.9 14.5093 121.74 14.5793 121.6 14.7193C121.46 14.8593 121.39 15.0193 121.39 15.2193V16.3393C121.39 16.5393 121.46 16.6993 121.6 16.8393C121.74 16.9793 121.9 17.0493 122.1 17.0493H131.22C131.42 17.0493 131.58 17.1193 131.72 17.2593C131.86 17.3993 131.93 17.5593 131.93 17.7593V21.8093C131.93 22.0093 131.86 22.1693 131.72 22.3093C131.58 22.4493 131.42 22.5193 131.22 22.5193H116.29C116.09 22.5193 115.93 22.4493 115.79 22.3093C115.65 22.1693 115.58 22.0093 115.58 21.8093V1.69926C115.58 1.49926 115.65 1.33926 115.79 1.19926C115.93 1.05926 116.09 0.989258 116.29 0.989258H131.22C131.42 0.989258 131.58 1.05926 131.72 1.19926C131.86 1.33926 131.93 1.49926 131.93 1.69926V5.68926C131.93 5.88926 131.86 6.04926 131.72 6.18926C131.58 6.32926 131.42 6.39926 131.22 6.39926H122.1C121.9 6.39926 121.74 6.46926 121.6 6.60926C121.45 6.73926 121.39 6.89926 121.39 7.09926Z" fill="white"/>
<path d="M141.42 7.09926V8.32926C141.42 8.52926 141.49 8.68926 141.63 8.82926C141.77 8.96926 141.93 9.03926 142.13 9.03926H150.08C150.28 9.03926 150.44 9.10926 150.58 9.24926C150.72 9.38926 150.79 9.54926 150.79 9.74926V13.7993C150.79 13.9993 150.72 14.1593 150.58 14.2993C150.44 14.4393 150.28 14.5093 150.08 14.5093H142.13C141.93 14.5093 141.77 14.5793 141.63 14.7193C141.49 14.8593 141.42 15.0193 141.42 15.2193V16.3393C141.42 16.5393 141.49 16.6993 141.63 16.8393C141.77 16.9793 141.93 17.0493 142.13 17.0493H151.25C151.45 17.0493 151.61 17.1193 151.75 17.2593C151.89 17.3993 151.96 17.5593 151.96 17.7593V21.8093C151.96 22.0093 151.89 22.1693 151.75 22.3093C151.61 22.4493 151.45 22.5193 151.25 22.5193H136.32C136.12 22.5193 135.96 22.4493 135.82 22.3093C135.68 22.1693 135.61 22.0093 135.61 21.8093V1.69926C135.61 1.49926 135.68 1.33926 135.82 1.19926C135.96 1.05926 136.12 0.989258 136.32 0.989258H151.25C151.45 0.989258 151.61 1.05926 151.75 1.19926C151.89 1.33926 151.96 1.49926 151.96 1.69926V5.68926C151.96 5.88926 151.89 6.04926 151.75 6.18926C151.61 6.32926 151.45 6.39926 151.25 6.39926H142.13C141.93 6.39926 141.77 6.46926 141.63 6.60926C141.49 6.73926 141.42 6.89926 141.42 7.09926Z" fill="white"/>
<path d="M167.741 21.9393L162.051 15.5693C161.911 15.4093 161.801 15.3593 161.711 15.3893C161.621 15.4293 161.581 15.5493 161.581 15.7393V21.7493C161.581 21.9493 161.511 22.1093 161.371 22.2493C161.231 22.3893 161.071 22.4593 160.871 22.4593H156.471C156.251 22.4593 156.081 22.3893 155.961 22.2493C155.831 22.1093 155.771 21.9493 155.771 21.7493V1.69926C155.771 1.49926 155.831 1.33926 155.961 1.19926C156.091 1.05926 156.261 0.989258 156.471 0.989258H160.871C161.071 0.989258 161.231 1.05926 161.371 1.19926C161.511 1.33926 161.581 1.49926 161.581 1.69926V8.44926C161.581 8.64926 161.621 8.75926 161.701 8.78926C161.781 8.81926 161.881 8.75926 161.991 8.59926L167.271 1.58926C167.391 1.42926 167.551 1.29926 167.771 1.18926C167.991 1.07926 168.201 1.02926 168.421 1.02926H174.021C174.231 1.02926 174.371 1.11926 174.431 1.30926C174.491 1.49926 174.461 1.66926 174.341 1.81926L166.621 11.4693C166.501 11.6293 166.451 11.8093 166.461 12.0093C166.471 12.2193 166.541 12.3893 166.681 12.5193C167.351 13.2393 168.051 13.9993 168.791 14.7793C169.531 15.5593 170.271 16.3493 171.001 17.1393C171.731 17.9293 172.461 18.7093 173.171 19.4893C173.881 20.2593 174.561 20.9793 175.211 21.6493C175.351 21.8093 175.401 21.9793 175.361 22.1793C175.321 22.3793 175.191 22.4693 174.981 22.4693H168.911C168.701 22.4693 168.471 22.4193 168.251 22.3193C168.031 22.2193 167.861 22.0993 167.741 21.9393Z" fill="white"/>
<path d="M183.031 7.09926V8.32926C183.031 8.52926 183.101 8.68926 183.241 8.82926C183.381 8.96926 183.541 9.03926 183.741 9.03926H191.691C191.891 9.03926 192.051 9.10926 192.191 9.24926C192.331 9.38926 192.401 9.54926 192.401 9.74926V13.7993C192.401 13.9993 192.331 14.1593 192.191 14.2993C192.051 14.4393 191.891 14.5093 191.691 14.5093H183.741C183.541 14.5093 183.381 14.5793 183.241 14.7193C183.101 14.8593 183.031 15.0193 183.031 15.2193V16.3393C183.031 16.5393 183.101 16.6993 183.241 16.8393C183.381 16.9793 183.541 17.0493 183.741 17.0493H192.861C193.061 17.0493 193.221 17.1193 193.361 17.2593C193.501 17.3993 193.571 17.5593 193.571 17.7593V21.8093C193.571 22.0093 193.501 22.1693 193.361 22.3093C193.221 22.4493 193.061 22.5193 192.861 22.5193H177.931C177.731 22.5193 177.571 22.4493 177.431 22.3093C177.291 22.1693 177.221 22.0093 177.221 21.8093V1.69926C177.221 1.49926 177.291 1.33926 177.431 1.19926C177.571 1.05926 177.731 0.989258 177.931 0.989258H192.861C193.061 0.989258 193.221 1.05926 193.361 1.19926C193.501 1.33926 193.571 1.49926 193.571 1.69926V5.68926C193.571 5.88926 193.501 6.04926 193.361 6.18926C193.221 6.32926 193.061 6.39926 192.861 6.39926H183.741C183.541 6.39926 183.381 6.46926 183.241 6.60926C183.101 6.73926 183.031 6.89926 183.031 7.09926Z" fill="white"/>
<path d="M217.471 1.69926V21.7693C217.471 21.9693 217.401 22.1293 217.261 22.2693C217.121 22.4093 216.961 22.4793 216.761 22.4793H212.431C212.231 22.4793 212.031 22.4193 211.821 22.2993C211.611 22.1793 211.441 22.0493 211.321 21.8893L203.681 11.1193C203.561 10.9593 203.441 10.8993 203.311 10.9293C203.181 10.9593 203.121 11.0693 203.121 11.2693V21.7693C203.121 21.9693 203.051 22.1293 202.911 22.2693C202.771 22.4093 202.611 22.4793 202.411 22.4793H198.021C197.821 22.4793 197.661 22.4093 197.521 22.2693C197.381 22.1293 197.311 21.9693 197.311 21.7693V1.69926C197.311 1.49926 197.381 1.33926 197.521 1.19926C197.661 1.05926 197.821 0.989258 198.021 0.989258H202.421C202.621 0.989258 202.821 1.03926 203.041 1.14926C203.251 1.25926 203.421 1.38926 203.541 1.54926L211.171 12.3193C211.291 12.4793 211.411 12.5493 211.541 12.5293C211.671 12.5093 211.731 12.3993 211.731 12.2093V1.69926C211.731 1.49926 211.801 1.33926 211.941 1.19926C212.081 1.05926 212.241 0.989258 212.441 0.989258H216.781C216.981 0.989258 217.141 1.05926 217.281 1.19926C217.401 1.33926 217.471 1.49926 217.471 1.69926Z" fill="white"/>
<path d="M221.931 21.7693V1.69926C221.931 1.49926 222.001 1.33926 222.141 1.19926C222.281 1.05926 222.441 0.989258 222.641 0.989258H230.651C233.721 0.989258 236.231 1.88926 238.191 3.68926C239.251 4.66926 240.051 5.82926 240.601 7.17926C241.151 8.52926 241.421 10.0493 241.421 11.7293C241.421 13.4093 241.151 14.9293 240.601 16.2893C240.051 17.6493 239.251 18.8193 238.191 19.7993C237.211 20.6793 236.091 21.3493 234.831 21.7993C233.571 22.2493 232.171 22.4693 230.651 22.4693H222.641C222.441 22.4693 222.281 22.3993 222.141 22.2593C222.001 22.1293 221.931 21.9593 221.931 21.7693ZM228.451 17.0693H230.651C231.201 17.0693 231.761 16.9993 232.351 16.8593C232.941 16.7193 233.471 16.4593 233.931 16.0793C234.401 15.6993 234.791 15.1593 235.091 14.4693C235.391 13.7793 235.551 12.8693 235.551 11.7593C235.551 10.6493 235.401 9.73926 235.091 9.04926C234.791 8.35926 234.401 7.81926 233.921 7.43926C233.441 7.05926 232.911 6.79926 232.341 6.65926C231.771 6.51926 231.201 6.44926 230.651 6.44926H228.451C228.251 6.44926 228.091 6.51926 227.951 6.65926C227.811 6.79926 227.741 6.95926 227.741 7.15926V16.3693C227.741 16.5693 227.811 16.7293 227.951 16.8693C228.081 17.0093 228.251 17.0693 228.451 17.0693Z" fill="white"/>
<path d="M7.25031 40.4005H2.8703V44.7505H0.820312V34.5205H2.8703V38.7305H7.25031V34.5205H9.30031V44.7605H7.25031V40.4005Z" fill="white"/>
<path d="M14.5303 34.5205H16.5803V40.8505C16.5803 42.2605 17.3403 42.9905 18.6503 42.9905C19.9703 42.9905 20.7303 42.2605 20.7303 40.8505V34.5205H22.8003V40.8405C22.8003 43.5405 20.8603 44.8605 18.6203 44.8605C16.3803 44.8605 14.5303 43.5405 14.5303 40.8405V34.5205Z" fill="white"/>
<path d="M33.9507 36.18H30.0607V38.75H33.5107V40.38H30.0607V43.09H33.9507V44.76H28.0107V34.5H33.9507V36.18Z" fill="white"/>
<path d="M42.5803 44.8601C40.4503 44.8601 38.8103 43.7501 38.7803 41.8101H40.9803C41.0403 42.6301 41.5803 43.1701 42.5303 43.1701C43.5003 43.1701 44.0703 42.6601 44.0703 41.9201C44.0703 39.7101 38.7903 41.0401 38.8103 37.3301C38.8103 35.4801 40.3103 34.3701 42.4203 34.3701C44.5203 34.3701 45.9503 35.4401 46.0903 37.2901H43.8303C43.7903 36.6201 43.2403 36.0901 42.3603 36.0701C41.5503 36.0401 40.9503 36.4401 40.9503 37.2701C40.9503 39.3201 46.2003 38.1801 46.2003 41.7901C46.2003 43.4001 44.9103 44.8601 42.5803 44.8601Z" fill="white"/>
<path d="M57.9199 34.5205H59.9699V44.7605H57.9199V34.5205Z" fill="white"/>
<path d="M73.9805 34.5V44.75H71.9305L67.2805 37.73V44.75H65.2305V34.5H67.2805L71.9305 41.54V34.5H73.9805Z" fill="white"/>
<path d="M92.39 40.4005H88.0099V44.7505H85.96V34.5205H88.0099V38.7305H92.39V34.5205H94.44V44.7605H92.39V40.4005Z" fill="white"/>
<path d="M105.98 42.8H101.9L101.23 44.75H99.0703L102.75 34.5H105.14L108.82 44.75H106.65L105.98 42.8ZM103.94 36.88L102.46 41.16H105.42L103.94 36.88Z" fill="white"/>
<path d="M117.28 34.5205C119.74 34.5205 120.98 35.9405 120.98 37.6605C120.98 38.9105 120.29 40.1705 118.65 40.6105L121.1 44.7605H118.72L116.46 40.7705H115.49V44.7605H113.44V34.5205H117.28ZM117.2 36.2205H115.48V39.2305H117.2C118.34 39.2305 118.86 38.6305 118.86 37.7105C118.86 36.7905 118.35 36.2205 117.2 36.2205Z" fill="white"/>
<path d="M126.061 34.5205H128.391L131.641 42.1305L134.901 34.5205H137.221V44.7605H135.171V38.1005L132.431 44.7605H130.881L128.121 38.1005V44.7605H126.071V34.5205H126.061Z" fill="white"/>
<path d="M147.23 44.8599C144.34 44.8599 141.98 42.6899 141.98 39.6099C141.98 36.5499 144.34 34.3799 147.23 34.3799C150.15 34.3799 152.47 36.5499 152.47 39.6099C152.47 42.6899 150.13 44.8599 147.23 44.8599ZM147.23 43.0199C149.08 43.0199 150.35 41.6899 150.35 39.5999C150.35 37.5099 149.07 36.2099 147.23 36.2099C145.37 36.2099 144.09 37.5199 144.09 39.5999C144.09 41.6799 145.37 43.0199 147.23 43.0199Z" fill="white"/>
<path d="M165.98 34.5V44.75H163.93L159.28 37.73V44.75H157.23V34.5H159.28L163.93 41.54V34.5H165.98Z" fill="white"/>
<path d="M170.38 34.5205H172.7L174.9 39.2005L177.08 34.5205H179.37L175.91 41.1905V44.7505H173.86V41.1905L170.38 34.5205Z" fill="white"/>
<path d="M1.30995 55.3291H0.209961V53.8691H2.93996V62.1191H1.30995V55.3291Z" fill="white"/>
<path d="M9.47992 53.709C11.8099 53.709 12.5399 55.499 12.5399 57.889C12.5399 60.299 11.8199 62.099 9.47992 62.099C7.14992 62.099 6.41992 60.299 6.41992 57.889C6.42992 55.499 7.14992 53.709 9.47992 53.709ZM9.47992 55.179C8.13992 55.179 7.97992 56.469 7.97992 57.889C7.97992 59.359 8.13992 60.629 9.47992 60.629C10.8199 60.629 10.9699 59.359 10.9699 57.889C10.9799 56.469 10.8199 55.179 9.47992 55.179Z" fill="white"/>
<path d="M15.8701 57.4092H20.6701V58.7492H15.8701V57.4092Z" fill="white"/>
<path d="M25.1 55.3291H24V53.8691H26.73V62.1191H25.1V55.3291Z" fill="white"/>
<path d="M30.1203 60.8292C31.9903 59.2392 33.9503 57.7792 33.9503 56.2692C33.9503 55.5292 33.6203 55.0392 32.8403 55.0392C32.0803 55.0392 31.6603 55.5792 31.6503 56.4592H30.1104C30.1704 54.5692 31.3804 53.6992 32.8604 53.6992C34.6404 53.6992 35.5303 54.7492 35.5303 56.1892C35.5303 58.0992 33.6803 59.5992 32.3703 60.7092H35.7104V62.0192H30.1203V60.8292Z" fill="white"/>
<path d="M38.4004 54.2188H44.2004V55.4987H42.0904V62.1188H40.5104V55.4987H38.4004V54.2188Z" fill="white"/>
<path d="M52.2503 58.7587H48.8603V62.1188H47.2803V54.2188H48.8603V57.4688H52.2503V54.2188H53.8303V62.1188H52.2503V58.7587Z" fill="white"/>
<path d="M61.9404 54.2188H66.8204V55.4987H63.5304V57.5287H66.0504V58.7887H63.5304V62.1287H61.9504V54.2188H61.9404Z" fill="white"/>
<path d="M74.4501 55.499H71.4501V57.479H74.1101V58.739H71.4501V60.829H74.4501V62.119H69.8701V54.209H74.4501V55.499Z" fill="white"/>
<path d="M81.2196 62.1188H77.8096V54.2188H81.0696C82.7196 54.2188 83.6396 55.0787 83.6396 56.2587C83.6396 57.2187 83.0596 57.8187 82.2896 58.0687C83.1796 58.2287 83.8196 59.0487 83.8196 59.9787C83.8296 61.2387 82.8696 62.1188 81.2196 62.1188ZM80.8496 55.4987H79.3996V57.4787H80.8496C81.5996 57.4787 82.0296 57.1387 82.0296 56.4987C82.0296 55.8587 81.5996 55.4987 80.8496 55.4987ZM80.9596 58.6987H79.3996V60.8288H80.9996C81.7696 60.8288 82.2196 60.4587 82.2196 59.7887C82.2196 59.1087 81.7296 58.6987 80.9596 58.6987Z" fill="white"/>
<path d="M89.9903 54.2188C91.8903 54.2188 92.8403 55.3187 92.8403 56.6387C92.8403 57.5987 92.3103 58.5787 91.0403 58.9187L92.9303 62.1188H91.1003L89.3603 59.0387H88.6103V62.1188H87.0303V54.2188H89.9903ZM89.9303 55.5287H88.6003V57.8487H89.9303C90.8103 57.8487 91.2103 57.3887 91.2103 56.6687C91.2103 55.9687 90.8103 55.5287 89.9303 55.5287Z" fill="white"/>
<path d="M96.1797 54.2188H97.7597V59.1087C97.7597 60.1987 98.3497 60.7587 99.3597 60.7587C100.38 60.7587 100.97 60.1887 100.97 59.1087V54.2188H102.57V59.0987C102.57 61.1787 101.07 62.1987 99.3397 62.1987C97.6097 62.1987 96.1797 61.1787 96.1797 59.0987V54.2188Z" fill="white"/>
<path d="M110.87 60.609H107.72L107.2 62.119H105.53L108.37 54.209H110.22L113.06 62.119H111.38L110.87 60.609ZM109.29 56.039L108.15 59.349H110.44L109.29 56.039Z" fill="white"/>
<path d="M119.02 54.2188C120.92 54.2188 121.87 55.3187 121.87 56.6387C121.87 57.5987 121.34 58.5787 120.07 58.9187L121.96 62.1188H120.13L118.39 59.0387H117.64V62.1188H116.06V54.2188H119.02ZM118.96 55.5287H117.63V57.8487H118.96C119.84 57.8487 120.24 57.3887 120.24 56.6687C120.24 55.9687 119.85 55.5287 118.96 55.5287Z" fill="white"/>
<path d="M124.58 54.2188H126.37L128.07 57.8288L129.76 54.2188H131.53L128.86 59.3687V62.1188H127.28V59.3687L124.58 54.2188Z" fill="white"/>
</svg>
