<svg width="439" height="486" viewBox="0 0 439 486" fill="none" xmlns="http://www.w3.org/2000/svg">
<path d="M311.01 440.771C288.218 430.483 255.884 423.509 242.566 421.308C237.354 420.379 218.94 413.661 154.318 440.771C89.6959 467.88 67.4603 440.771 71.6294 413.661C75.7986 386.552 78.578 355.967 31.6748 299.663C-15.2284 243.358 -4.11064 216.249 48.0041 172.457C100.119 128.665 50.7835 107.116 99.4239 61.9336C148.064 16.7511 214.771 32.7388 271.75 45.5984C328.729 58.458 329.423 34.8241 365.209 68.5371C400.994 102.25 369.378 186.011 370.073 210.34C370.768 234.669 400.299 283.675 400.994 355.967C401.689 428.259 339.499 453.63 311.01 440.771Z" fill="#00B688" stroke="black" stroke-width="3"/>
<path d="M21.4473 402.377C10.1798 392.564 21.5136 378.982 31.303 370.232C42.2629 360.435 54.1443 364.07 68.7117 366.043C82.7521 367.944 92.862 368.847 102.516 379.218C114.784 392.396 108.138 413.259 110.072 424.698C112.005 436.137 126.001 446.605 117.264 463.58C108.527 480.555 73.4101 478.478 63.8419 475.004C54.2737 471.53 52.9808 451.575 51.7036 435.417C50.4264 419.259 35.5316 414.643 21.4473 402.377Z" fill="#F2FF00" stroke="black" stroke-width="3"/>
<path d="M61.8504 390.936C52.2263 395.926 45.9163 401.947 47.3388 405.059C47.5731 405.554 47.965 405.958 48.453 406.206C51.8074 408.075 61.0937 406.371 71.0529 401.818C81.0121 397.266 88.3814 391.355 89.1774 387.589C89.3086 387.057 89.2598 386.497 89.0386 385.996C87.5336 382.704 77.8999 383.841 67.0865 388.46" fill="#F2FF00"/>
<path d="M61.8504 390.936C52.2263 395.926 45.9163 401.947 47.3388 405.059C47.5731 405.554 47.965 405.958 48.453 406.206C51.8074 408.075 61.0937 406.371 71.0529 401.818C81.0121 397.266 88.3814 391.355 89.1774 387.589C89.3086 387.057 89.2598 386.497 89.0386 385.996C87.5336 382.704 77.8999 383.841 67.0865 388.46" stroke="black" stroke-width="2.5" stroke-miterlimit="10"/>
<path d="M47.3383 405.058L48.6872 408.009C48.9878 408.629 49.4764 409.138 50.0835 409.464C51.0202 409.963 52.0493 410.265 53.1073 410.352C57.6962 410.884 65.1222 409.264 72.8574 405.727C81.5924 401.734 88.2201 396.446 90.1162 392.377L90.1471 392.316C90.2667 392.06 90.3712 391.798 90.4601 391.53C90.7636 390.695 90.7452 389.776 90.4083 388.954L89.0594 386.003C89.2806 386.504 89.3294 387.064 89.1982 387.596C89.1723 387.72 89.1415 387.846 89.101 387.977C89.0377 388.179 88.9603 388.376 88.8692 388.566L88.8043 388.708L88.6677 388.977L88.5524 389.189C88.4113 389.439 88.2562 389.681 88.0879 389.914C87.6537 390.525 87.1747 391.103 86.655 391.642C86.5178 391.794 86.3685 391.944 86.217 392.09C85.8141 392.499 85.3578 392.919 84.8705 393.337C84.73 393.468 84.5897 393.591 84.4497 393.706C84.0266 394.07 83.5552 394.445 83.0696 394.815L82.3624 395.344L81.7004 395.818L81.2085 396.161L80.5424 396.613L79.8572 397.061L79.57 397.246L78.8339 397.712C78.3166 398.025 77.7847 398.345 77.2386 398.659C76.974 398.816 76.6974 398.972 76.4185 399.123C76.1397 399.274 75.8653 399.435 75.5794 399.583L74.8018 399.998C74.2029 400.313 73.5871 400.629 72.9549 400.936L72.2233 401.271L71.1065 401.781C61.1473 406.334 51.861 408.038 48.5066 406.169C48.0042 405.939 47.5929 405.548 47.3383 405.058Z" fill="#F2FF00" stroke="black" stroke-width="2.5" stroke-miterlimit="10"/>
<path d="M50.0787 409.466L75.033 455.024C75.4652 455.834 76.1713 456.464 77.0252 456.802C81.1329 458.332 87.2277 457.657 94.9629 454.121C101.576 451.098 104.727 446.756 105.844 444.878C106.008 444.593 106.111 444.278 106.146 443.951C106.18 443.624 106.146 443.294 106.044 442.982L90.4735 391.56C90.3924 391.82 90.2806 392.069 90.1405 392.302L90.1096 392.363C88.2135 396.432 81.5858 401.72 72.8508 405.713C65.1156 409.249 57.6919 410.874 53.1007 410.337C52.034 410.32 50.9911 410.019 50.0787 409.466Z" fill="#F2FF00" stroke="black" stroke-width="2.5" stroke-linejoin="round"/>
<path d="M83.0154 394.821L83.0234 394.817" stroke="black" stroke-width="2.5" stroke-miterlimit="10"/>
<path d="M40.5345 394.147C41.0139 393.544 42.1687 393.323 43.3735 393.663C44.7235 394.036 45.6456 394.983 45.5395 395.821L52.0258 380.344C52.113 380.133 52.2557 379.95 52.4387 379.814C52.6218 379.678 52.8382 379.594 53.0651 379.572C53.292 379.549 53.5207 379.588 53.727 379.686C53.9332 379.783 54.1093 379.934 54.2364 380.123L61.8162 390.951L64.5136 394.801C64.4761 394.858 64.4521 394.924 64.4435 394.992C64.4349 395.06 64.4419 395.13 64.4639 395.195C64.6868 395.683 66.1896 395.461 67.8234 394.714C69.4573 393.968 70.6006 392.973 70.3799 392.49C70.3085 392.334 70.0931 392.25 69.7815 392.239L67.067 388.468L56.0399 373.066C55.6245 372.504 55.0696 372.06 54.4301 371.778C53.7905 371.496 53.0885 371.386 52.3933 371.458C51.6981 371.531 51.0338 371.783 50.4662 372.191C49.8985 372.599 49.4471 373.148 49.1565 373.784L49.0995 373.904C47.5131 377.695 41.4688 391.921 40.5345 394.147Z" fill="#F2FF00" stroke="black" stroke-width="2.5" stroke-linejoin="round"/>
<path d="M53.3246 379.562C53.3246 379.562 55.0093 376.05 52.7555 371.455L53.3246 379.562Z" fill="#F2FF00"/>
<path d="M53.3246 379.562C53.3246 379.562 55.0093 376.05 52.7555 371.455" stroke="black" stroke-width="2.5" stroke-miterlimit="10"/>
<path d="M52.5784 379.732C52.5784 379.732 52.1311 375.219 49.5506 373.108L52.5784 379.732Z" fill="#F2FF00"/>
<path d="M52.5784 379.732C52.5784 379.732 52.1311 375.219 49.5506 373.108" stroke="black" stroke-width="2.5" stroke-miterlimit="10"/>
<path d="M54.2702 380.107C54.2702 380.107 56.608 378.166 56.8359 374.176L54.2702 380.107Z" fill="#F2FF00"/>
<path d="M54.2702 380.107C54.2702 380.107 56.608 378.166 56.8359 374.176" stroke="black" stroke-width="2.5" stroke-miterlimit="10"/>
<path d="M42.4771 396.849C43.9102 397.25 45.2723 396.863 45.5212 395.988C45.5378 395.932 45.5486 395.873 45.5536 395.814C45.6406 394.973 44.7376 394.029 43.3876 393.656C42.1828 393.316 41.0347 393.552 40.5486 394.14C40.4576 394.25 40.3895 394.378 40.3484 394.514C40.0822 395.403 41.0422 396.432 42.4771 396.849Z" fill="#F2FF00" stroke="black" stroke-width="2.5" stroke-miterlimit="10"/>
<path d="M339.818 10.2855C353.464 9.10088 353.332 22.7209 372.432 23.187C391.532 23.6531 387.582 40.807 388.789 49.2251C389.996 57.6432 407.954 66.732 413.758 73.5655C419.563 80.3991 419.641 88.087 418.641 95.632C417.642 103.177 412.269 106.723 404.142 107.195C396.015 107.667 386.793 103.736 384.853 108.64C382.913 113.544 382.24 116.681 375.902 124.099C369.564 131.518 357.797 127.155 351.841 119.686C347.763 114.572 345.376 106.636 348.4 103.294C351.423 99.9529 357.358 97.698 357.367 92.0951C357.382 83.2027 341.167 95.0888 334.829 88.8512C330.361 84.4536 333.671 78.1732 329.14 73.8393C323.55 68.4905 316.509 73.5859 309.733 69.8489C286.915 57.2628 313.856 12.5394 339.818 10.2855Z" fill="#F2FF00" stroke="black" stroke-width="3"/>
<path d="M347.025 63.6632C345.436 62.4614 344.346 60.7162 343.963 58.7614C343.581 56.8065 343.932 54.7791 344.95 53.0668C345.968 51.3545 347.581 50.0775 349.481 49.4799C351.381 48.8823 353.435 49.0061 355.25 49.8275C353.614 52.2326 352.076 54.6315 350.786 56.8414C349.624 58.85 348.344 61.199 347.025 63.6632Z" fill="#F2FF00" stroke="black" stroke-width="3" stroke-miterlimit="10"/>
<path d="M405.599 92.332C404.073 94.8542 401.609 96.6677 398.747 97.3741C395.886 98.0805 392.86 97.622 390.337 96.0994C390.025 95.9125 389.725 95.7067 389.438 95.4832C389.686 95.6327 389.906 95.766 390.116 95.8928C390.357 96.0433 390.626 96.1444 390.906 96.1901C391.187 96.2359 391.474 96.2254 391.75 96.1593C392.026 96.0932 392.287 95.9728 392.516 95.8051C392.746 95.6374 392.94 95.4257 393.087 95.1824L402.407 79.753C402.622 79.3977 402.732 78.9882 402.723 78.5727C402.713 78.1572 402.586 77.753 402.354 77.4076C404.699 79.0099 406.342 81.4491 406.946 84.2244C407.549 86.9997 407.067 89.9007 405.599 92.332Z" fill="#F2FF00" stroke="black" stroke-width="3" stroke-miterlimit="10"/>
<path d="M402.407 79.7527L393.08 95.1928C392.933 95.4361 392.74 95.6478 392.51 95.8155C392.281 95.9832 392.02 96.1036 391.744 96.1697C391.467 96.2358 391.18 96.2463 390.9 96.2005C390.619 96.1548 390.351 96.0537 390.11 95.9032C389.9 95.7764 389.679 95.6431 389.432 95.4936C389.432 95.4936 389.405 95.4773 389.389 95.4676C388.075 94.6744 386.31 93.6081 384.2 92.4438C382.55 91.5277 380.671 90.5032 378.643 89.4836C367.553 83.8501 352.02 77.7063 342.202 81.2149C341.8 81.3501 341.367 81.3629 340.957 81.2517C340.548 81.1405 340.181 80.9103 339.902 80.5902C339.624 80.2701 339.446 79.8746 339.393 79.4537C339.339 79.0328 339.411 78.6055 339.601 78.2258C341.738 73.8974 344.431 68.5389 347.007 63.6673C348.326 61.2031 349.605 58.8541 350.767 56.8455C352.058 54.6356 353.595 52.2367 355.232 49.8316C358.696 44.7406 362.557 39.6389 365.203 36.2427C365.453 35.9192 365.79 35.6738 366.174 35.5355C366.559 35.3971 366.975 35.3716 367.374 35.4618C367.772 35.5521 368.137 35.7544 368.424 36.0448C368.712 36.3353 368.91 36.7019 368.996 37.1014C370.697 45.048 377.171 61.4462 401.719 76.8177C401.96 76.967 402.169 77.163 402.333 77.3943C402.57 77.7389 402.703 78.1445 402.716 78.5626C402.729 78.9808 402.622 79.3938 402.407 79.7527Z" fill="#F2FF00" stroke="black" stroke-width="3" stroke-miterlimit="10"/>
<path d="M364.707 115.618C363.132 114.89 361.649 113.979 360.287 112.904C357.731 110.787 358.046 107.019 360.954 105.962C367.985 103.407 375.625 94.6977 379.441 89.9506C381.684 91.1002 383.767 92.2483 385.627 93.2911C381.296 101.362 373.519 110.65 369.883 114.808C369.227 115.489 368.366 115.936 367.431 116.083C366.497 116.229 365.54 116.066 364.707 115.618Z" fill="#F2FF00" stroke="black" stroke-width="3" stroke-miterlimit="10"/>
<path d="M371.1 85.7266C370.628 89.1605 369.423 92.3755 373.332 96.6238L371.1 85.7266Z" fill="#F2FF00"/>
<path d="M371.1 85.7266C370.628 89.1605 369.423 92.3755 373.332 96.6238" stroke="black" stroke-width="3" stroke-miterlimit="10"/>
<path d="M340.814 25.9844L343.323 36.1449" stroke="black" stroke-width="3" stroke-miterlimit="10" stroke-linecap="round"/>
<path d="M328.707 33.0889L335.276 41.244" stroke="black" stroke-width="3" stroke-miterlimit="10" stroke-linecap="round"/>
<path d="M320.734 44.6466L330.133 49.2593" stroke="black" stroke-width="3" stroke-miterlimit="10" stroke-linecap="round"/>
<path d="M318.401 58.4927L328.87 58.6974" stroke="black" stroke-width="3" stroke-miterlimit="10" stroke-linecap="round"/>
</svg>
