<svg width="91" height="98" viewBox="0 0 91 98" fill="none" xmlns="http://www.w3.org/2000/svg">
<path d="M41.7633 1.91204L5.04881 21.5592C3.82509 22.2144 2.80244 23.1875 2.08953 24.3753C1.37663 25.5631 1.00011 26.9211 1 28.3049V68.3582C0.999866 69.7074 1.35764 71.0326 2.0371 72.1998C2.71656 73.3669 3.69356 74.3344 4.86919 75.0044L41.6837 95.9892C42.821 96.6371 44.1057 96.9849 45.4159 96.9995C46.7261 97.0142 48.0183 96.6952 49.17 96.0729L85.744 76.3045C86.9613 75.6462 87.9775 74.6726 88.6851 73.4864C89.3927 72.3003 89.7654 70.9457 89.7638 69.566V28.2977C89.764 26.9142 89.3878 25.5564 88.6751 24.3688C87.9625 23.1813 86.94 22.2083 85.7165 21.5534L49.0425 1.91348C47.9238 1.3141 46.6734 1.00025 45.4031 1C44.1328 0.999748 42.8823 1.3131 41.7633 1.91204Z" fill="white" stroke="black" stroke-width="2" stroke-miterlimit="10"/>
<path d="M84.551 70.521L45.4043 91.9268V48.1866L84.551 26.7808V70.521Z" stroke="black" stroke-width="2" stroke-miterlimit="10"/>
<path d="M52.0684 52.1385L77.888 38.019V66.5708L52.0684 80.6887V52.1385Z" stroke="black" stroke-width="2" stroke-miterlimit="10"/>
<path d="M6.25879 70.521L45.4041 91.9268V48.1866L6.25879 26.7808V70.521Z" stroke="black" stroke-width="2" stroke-miterlimit="10"/>
<path d="M12.9219 66.5708V38.019L38.7401 52.1385V80.6887L12.9219 66.5708Z" stroke="black" stroke-width="2" stroke-miterlimit="10"/>
<path d="M84.5508 26.7809L45.4041 48.1824L6.25879 26.7809L45.4041 5.37939L84.5508 26.7809Z" stroke="black" stroke-width="2" stroke-miterlimit="10"/>
<path d="M20.1494 26.7811L45.4041 12.9731L70.6589 26.7811L45.4041 40.5876L20.1494 26.7811Z" stroke="black" stroke-width="2" stroke-miterlimit="10"/>
</svg>
