<svg width="96" height="86" viewBox="0 0 96 86" fill="none" xmlns="http://www.w3.org/2000/svg">
<path d="M35.9582 2.25089C20.9724 6.86208 20.3959 20.4069 21.5486 26.4591C23.8542 31.6465 24.8228 31.2622 24.7188 32.7992C24.7188 32.7992 16.265 29.437 14.632 29.6291C3.39246 28.4763 5.12161 65.6532 11.4618 69.6879C16.534 72.9156 25.6793 68.343 29.618 65.6532C27.0819 76.0281 37.7834 75.1635 43.4512 73.4344C41.1457 74.8753 37.9756 83.8093 44.3158 84.6739C49.388 85.3655 51.2324 82.0801 51.5206 80.351C54.5178 85.1926 58.7254 82.9447 60.4546 81.2156C60.7428 82.9447 64.2011 85.8266 69.6767 84.6739C74.0573 83.7516 71.5019 76.7966 69.6767 73.4344C90.6571 79.6593 88.025 51.4357 84.0863 36.5457C85.7194 35.6811 89.7926 32.4534 93.0203 26.4591C97.055 18.9661 95.0377 4.26817 78.6107 2.25089C65.4691 0.637067 60.4546 6.95806 59.59 10.3203C57.9568 5.70915 50.9441 -2.3603 35.9582 2.25089Z" fill="white" stroke="black"/>
<rect x="-1.05809" y="0.98661" width="44.4231" height="30.2996" rx="7" transform="matrix(-0.999932 -0.0116973 -0.0581585 0.998307 79.5077 37.1695)" stroke="#231F20" stroke-width="2"/>
<rect x="-1.04779" y="0.99707" width="27.5333" height="13.4878" rx="6.74388" transform="matrix(-0.999999 -0.00178688 -0.0477925 0.998857 71.8984 46.2976)" stroke="#231F20" stroke-width="2"/>
<path d="M68.4228 9.25917C61.4618 13.2781 58.9836 21.839 62.7384 28.3426C66.4932 34.8461 75.1463 36.9804 82.1073 32.9614C89.0684 28.9425 91.5465 20.3816 87.7917 13.8781C84.0369 7.37454 75.3839 5.2402 68.4228 9.25917Z" stroke="#231F20" stroke-width="2"/>
<path d="M41.9104 41.5216C40.4968 42.3377 40.0503 44.032 40.7638 45.2679C41.4774 46.5038 43.1679 46.9643 44.5815 46.1481C45.9952 45.3319 46.4416 43.6377 45.7281 42.4018C45.0146 41.1659 43.324 40.7054 41.9104 41.5216Z" stroke="#231F20" stroke-width="2"/>
<path d="M21.1276 35.8045L33.977 46.0959C34.74 46.7071 35.1574 47.6517 35.0955 48.6274L34.7181 54.5793C34.6485 55.6768 33.9839 56.6482 32.9863 57.1109L18.559 63.802C16.4691 64.7713 14.1119 63.121 14.3076 60.8256L16.263 37.8912C16.4668 35.5008 19.255 34.3048 21.1276 35.8045Z" stroke="#231F20" stroke-width="2"/>
<path d="M67.3336 81.0137C67.5149 81.5354 67.2389 82.1053 66.7172 82.2865C66.1955 82.4678 65.6256 82.1918 65.4444 81.6701L67.3336 81.0137ZM62.8353 68.0676L67.3336 81.0137L65.4444 81.6701L60.9461 68.724L62.8353 68.0676Z" fill="#231F20"/>
<path d="M45.9646 81.4749L50.9052 68.2681" stroke="#231F20" stroke-width="2" stroke-linecap="round"/>
<path d="M55.8539 79.4172L56.2677 68.9653" stroke="#231F20" stroke-width="2" stroke-linecap="round"/>
<path d="M89.1846 22.0229L83.0887 21.7743" stroke="#231F20" stroke-width="2" stroke-linecap="round"/>
<path d="M76.3828 8.05225L76.1323 14.0147" stroke="#231F20" stroke-width="2" stroke-linecap="round"/>
<path d="M74.2793 34.8667L74.808 28.9094" stroke="#231F20" stroke-width="2" stroke-linecap="round"/>
<path d="M67.2734 21.0137L61.1776 20.7651" stroke="#231F20" stroke-width="2" stroke-linecap="round"/>
<path d="M35.3027 8.59852C28.3417 12.6175 25.8635 21.1784 29.6183 27.6819C33.3731 34.1854 42.0262 36.3198 48.9872 32.3008C55.9483 28.2818 58.4264 19.7209 54.6716 13.2174C50.9168 6.71389 42.2638 4.57956 35.3027 8.59852Z" stroke="#231F20" stroke-width="2"/>
<path d="M56.0654 21.3613L49.9696 21.1127" stroke="#231F20" stroke-width="2" stroke-linecap="round"/>
<path d="M43.2646 7.3916L43.0141 13.3541" stroke="#231F20" stroke-width="2" stroke-linecap="round"/>
<path d="M41.1602 34.2061L41.6889 28.2487" stroke="#231F20" stroke-width="2" stroke-linecap="round"/>
<path d="M34.1533 20.353L28.0575 20.1044" stroke="#231F20" stroke-width="2" stroke-linecap="round"/>
</svg>
