<svg width="124" height="114" viewBox="0 0 124 114" fill="none" xmlns="http://www.w3.org/2000/svg">
<path d="M34.0915 112.294L2.37437 59.9075L62.3412 57.257L94.0583 109.643L34.0915 112.294Z" fill="#14F0B9" stroke="black" stroke-width="2" stroke-miterlimit="10"/>
<path d="M57.3159 66.6246L78.2373 101.187L39.1054 102.916L18.1841 68.3542L57.3159 66.6246Z" fill="#685EDA" stroke="black" stroke-width="2" stroke-miterlimit="10"/>
<path d="M29.3437 4.94639L2.37134 59.9085L62.3382 57.2581L89.3105 2.2959L29.3437 4.94639Z" fill="#14F0B9" stroke="black" stroke-width="2" stroke-miterlimit="10"/>
<path d="M35.1748 13.8341L74.3066 12.1045L56.5153 48.3593L17.3835 50.0889L35.1748 13.8341Z" fill="#685EDA" stroke="black" stroke-width="2" stroke-miterlimit="10"/>
<path d="M94.0613 109.645L62.3442 57.2584L89.3165 2.29619L121.015 54.6652L94.0613 109.645Z" fill="#14F0B9" stroke="black" stroke-width="2" stroke-miterlimit="10"/>
<path d="M90.1566 21.3444L110.604 55.1222L93.2172 90.5905L72.7505 56.7953L90.1566 21.3444Z" fill="#685EDA" stroke="black" stroke-width="2" stroke-miterlimit="10"/>
</svg>
