<svg width="241" height="23" viewBox="0 0 241 23" fill="none" xmlns="http://www.w3.org/2000/svg">
<path d="M6.17035 7.14926V8.36926C6.17035 8.55926 6.24036 8.72926 6.38036 8.85926C6.52036 8.99926 6.68036 9.05926 6.88036 9.05926H14.8004C15.0004 9.05926 15.1604 9.12926 15.3004 9.26926C15.4404 9.40926 15.5103 9.56926 15.5103 9.76926V13.8793C15.5103 14.0793 15.4404 14.2393 15.3004 14.3793C15.1604 14.5193 15.0004 14.5893 14.8004 14.5893H6.88036C6.68036 14.5893 6.52036 14.6593 6.38036 14.7993C6.24036 14.9393 6.17035 15.0993 6.17035 15.2993V21.7793C6.17035 21.9793 6.10035 22.1393 5.97035 22.2793C5.83035 22.4193 5.67035 22.4893 5.47035 22.4893H1.06035C0.860349 22.4893 0.700348 22.4193 0.560349 22.2793C0.420349 22.1393 0.360352 21.9793 0.360352 21.7793V1.69926C0.360352 1.49926 0.430349 1.33926 0.560349 1.19926C0.700348 1.05926 0.860349 0.989258 1.06035 0.989258H15.9704C16.1704 0.989258 16.3304 1.05926 16.4704 1.19926C16.6104 1.33926 16.6803 1.49926 16.6803 1.69926V5.73926C16.6803 5.93926 16.6104 6.09926 16.4704 6.23926C16.3304 6.37926 16.1704 6.44926 15.9704 6.44926H6.87035C6.67035 6.44926 6.51035 6.51926 6.37035 6.64926C6.23035 6.78926 6.17035 6.95926 6.17035 7.14926Z" fill="white"/>
<path d="M43.4604 1.72953V21.7695C43.4604 21.9695 43.3904 22.1295 43.2504 22.2695C43.1104 22.4095 42.9504 22.4795 42.7504 22.4795H38.3403C38.1403 22.4795 37.9803 22.4095 37.8403 22.2695C37.7003 22.1295 37.6404 21.9695 37.6404 21.7695V12.3195C37.6404 12.1195 37.5504 12.0195 37.3804 11.9995C37.2104 11.9795 37.0604 12.0495 36.9404 12.2095L32.0004 20.1495C31.9004 20.3095 31.7503 20.3795 31.5303 20.3795C31.3103 20.3795 31.1503 20.2995 31.0303 20.1495L26.0903 12.1995C25.9903 12.0395 25.8503 11.9795 25.6803 11.9895C25.5103 11.9995 25.4203 12.1195 25.4203 12.3095V21.7595C25.4203 21.9595 25.3504 22.1195 25.2204 22.2595C25.0804 22.3995 24.9204 22.4695 24.7204 22.4695H20.3103C20.1103 22.4695 19.9503 22.3995 19.8103 22.2595C19.6703 22.1195 19.6104 21.9595 19.6104 21.7595V1.72953C19.6104 1.52953 19.6804 1.36953 19.8204 1.22953C19.9604 1.08953 20.1204 1.01953 20.3204 1.01953H24.4104C24.6004 1.01953 24.8104 1.07953 25.0204 1.19953C25.2304 1.31953 25.3904 1.44953 25.4904 1.60953L31.1404 9.87953C31.2604 10.0395 31.3904 10.1095 31.5504 10.1095C31.7104 10.1095 31.8303 10.0295 31.9303 9.87953L37.5804 1.60953C37.7004 1.44953 37.8604 1.31953 38.0804 1.19953C38.2904 1.07953 38.5004 1.01953 38.6904 1.01953H42.7803C42.9804 1.01953 43.1404 1.08953 43.2803 1.22953C43.3904 1.36953 43.4604 1.52953 43.4604 1.72953Z" fill="white"/>
<path d="M68.8599 16.7797C68.2899 17.6997 67.6699 18.5297 66.9799 19.2797C66.2899 20.0297 65.5299 20.6697 64.6799 21.1897C63.8299 21.7097 62.8899 22.1197 61.8499 22.4197C60.8099 22.7097 59.6699 22.8597 58.4199 22.8597C56.8499 22.8597 55.3899 22.5697 54.0199 21.9797C52.6499 21.3897 51.4499 20.5997 50.4299 19.5997C49.3999 18.5997 48.5999 17.4297 48.0099 16.0797C47.4199 14.7297 47.1299 13.2897 47.1299 11.7697C47.1299 10.2397 47.4199 8.80969 48.0099 7.45969C48.5999 6.10969 49.3999 4.93969 50.4299 3.93969C51.4599 2.93969 52.6499 2.14969 54.0199 1.55969C55.3899 0.969687 56.8599 0.679688 58.4199 0.679688C59.7099 0.679688 60.8699 0.829687 61.9099 1.11969C62.9499 1.40969 63.8899 1.81969 64.7299 2.34969C65.5699 2.87969 66.3299 3.51969 66.9999 4.26969C67.6699 5.01969 68.2899 5.84969 68.8599 6.74969C68.9599 6.90969 68.9799 7.06969 68.9199 7.24969C68.8599 7.42969 68.7399 7.54969 68.5699 7.62969L64.3999 9.26969C64.1999 9.34969 64.0099 9.34969 63.8099 9.26969C63.6099 9.18969 63.4699 9.06969 63.3699 8.91969C62.7999 8.01969 62.1199 7.32969 61.3199 6.84969C60.5199 6.36969 59.5499 6.12969 58.4199 6.12969C57.6799 6.12969 56.9799 6.28969 56.3199 6.59969C55.6599 6.90969 55.0899 7.32969 54.5999 7.84969C54.1099 8.36969 53.7299 8.96969 53.4599 9.65969C53.1899 10.3497 53.0499 11.0497 53.0499 11.7797C53.0499 12.5297 53.1899 13.2397 53.4599 13.9097C53.7299 14.5897 54.1199 15.1797 54.5999 15.6897C55.0799 16.1997 55.6599 16.6097 56.3199 16.9297C56.9699 17.2397 57.6699 17.3997 58.4199 17.3997C59.4999 17.3997 60.4699 17.1397 61.3399 16.6197C62.2099 16.0997 62.8999 15.4297 63.4099 14.6097C63.5099 14.4497 63.6499 14.3397 63.8399 14.2597C64.0299 14.1797 64.2199 14.1797 64.4099 14.2597L68.5799 15.8997C68.7599 15.9797 68.8699 16.0997 68.9299 16.2697C68.9799 16.4297 68.9599 16.5997 68.8599 16.7797Z" fill="white"/>
<path d="M79.5402 1.84926C79.4402 1.61926 79.4402 1.40926 79.5302 1.24926C79.6202 1.07926 79.7702 0.999258 79.9902 0.999258H84.7702C84.9702 0.999258 85.1502 1.05926 85.3302 1.18926C85.5102 1.31926 85.6202 1.46926 85.6802 1.64926L89.0202 11.4193C89.0802 11.6193 89.1802 11.7093 89.3302 11.7093C89.4802 11.7093 89.5802 11.6093 89.6402 11.4193L92.8702 1.67926C92.9302 1.47926 93.0502 1.31926 93.2202 1.19926C93.3902 1.05926 93.5902 0.999258 93.8002 0.999258H97.7002C97.9102 0.999258 98.1102 1.05926 98.2902 1.18926C98.4702 1.31926 98.5802 1.47926 98.6402 1.66926L101.87 11.4693C101.93 11.6693 102.03 11.7593 102.18 11.7593C102.33 11.7593 102.44 11.6593 102.52 11.4693L105.9 1.63926C105.98 1.45926 106.11 1.30926 106.28 1.17926C106.46 1.04926 106.65 0.989258 106.87 0.989258H111.62C111.83 0.989258 111.98 1.06926 112.06 1.23926C112.14 1.40926 112.15 1.57926 112.09 1.74926L104.99 21.7893C104.91 21.9893 104.78 22.1493 104.61 22.2693C104.43 22.3993 104.24 22.4593 104.02 22.4593H100.23C100.01 22.4593 99.8202 22.3993 99.6402 22.2693C99.4602 22.1393 99.3502 21.9793 99.2902 21.7893L96.0602 12.0193C96.0002 11.8193 95.9002 11.7293 95.7502 11.7293C95.6002 11.7293 95.5002 11.8293 95.4402 12.0193L92.2102 21.7893C92.1502 21.9893 92.0302 22.1493 91.8602 22.2693C91.6802 22.3993 91.4902 22.4593 91.2702 22.4593H87.4802C87.2602 22.4593 87.0702 22.3893 86.8902 22.2393C86.7102 22.0893 86.6102 21.9393 86.5702 21.7893L79.5402 1.84926Z" fill="white"/>
<path d="M120.39 7.09926V8.32926C120.39 8.52926 120.46 8.68926 120.6 8.82926C120.74 8.96926 120.9 9.03926 121.1 9.03926H129.05C129.25 9.03926 129.41 9.10926 129.55 9.24926C129.69 9.38926 129.76 9.54926 129.76 9.74926V13.7993C129.76 13.9993 129.69 14.1593 129.55 14.2993C129.41 14.4393 129.25 14.5093 129.05 14.5093H121.1C120.9 14.5093 120.74 14.5793 120.6 14.7193C120.46 14.8593 120.39 15.0193 120.39 15.2193V16.3393C120.39 16.5393 120.46 16.6993 120.6 16.8393C120.74 16.9793 120.9 17.0493 121.1 17.0493H130.22C130.42 17.0493 130.58 17.1193 130.72 17.2593C130.86 17.3993 130.93 17.5593 130.93 17.7593V21.8093C130.93 22.0093 130.86 22.1693 130.72 22.3093C130.58 22.4493 130.42 22.5193 130.22 22.5193H115.29C115.09 22.5193 114.93 22.4493 114.79 22.3093C114.65 22.1693 114.58 22.0093 114.58 21.8093V1.69926C114.58 1.49926 114.65 1.33926 114.79 1.19926C114.93 1.05926 115.09 0.989258 115.29 0.989258H130.22C130.42 0.989258 130.58 1.05926 130.72 1.19926C130.86 1.33926 130.93 1.49926 130.93 1.69926V5.68926C130.93 5.88926 130.86 6.04926 130.72 6.18926C130.58 6.32926 130.42 6.39926 130.22 6.39926H121.1C120.9 6.39926 120.74 6.46926 120.6 6.60926C120.45 6.73926 120.39 6.89926 120.39 7.09926Z" fill="white"/>
<path d="M140.42 7.09926V8.32926C140.42 8.52926 140.49 8.68926 140.63 8.82926C140.77 8.96926 140.93 9.03926 141.13 9.03926H149.08C149.28 9.03926 149.44 9.10926 149.58 9.24926C149.72 9.38926 149.79 9.54926 149.79 9.74926V13.7993C149.79 13.9993 149.72 14.1593 149.58 14.2993C149.44 14.4393 149.28 14.5093 149.08 14.5093H141.13C140.93 14.5093 140.77 14.5793 140.63 14.7193C140.49 14.8593 140.42 15.0193 140.42 15.2193V16.3393C140.42 16.5393 140.49 16.6993 140.63 16.8393C140.77 16.9793 140.93 17.0493 141.13 17.0493H150.25C150.45 17.0493 150.61 17.1193 150.75 17.2593C150.89 17.3993 150.96 17.5593 150.96 17.7593V21.8093C150.96 22.0093 150.89 22.1693 150.75 22.3093C150.61 22.4493 150.45 22.5193 150.25 22.5193H135.32C135.12 22.5193 134.96 22.4493 134.82 22.3093C134.68 22.1693 134.61 22.0093 134.61 21.8093V1.69926C134.61 1.49926 134.68 1.33926 134.82 1.19926C134.96 1.05926 135.12 0.989258 135.32 0.989258H150.25C150.45 0.989258 150.61 1.05926 150.75 1.19926C150.89 1.33926 150.96 1.49926 150.96 1.69926V5.68926C150.96 5.88926 150.89 6.04926 150.75 6.18926C150.61 6.32926 150.45 6.39926 150.25 6.39926H141.13C140.93 6.39926 140.77 6.46926 140.63 6.60926C140.49 6.73926 140.42 6.89926 140.42 7.09926Z" fill="white"/>
<path d="M166.741 21.9393L161.051 15.5693C160.911 15.4093 160.801 15.3593 160.711 15.3893C160.621 15.4293 160.581 15.5493 160.581 15.7393V21.7493C160.581 21.9493 160.511 22.1093 160.371 22.2493C160.231 22.3893 160.071 22.4593 159.871 22.4593H155.471C155.251 22.4593 155.081 22.3893 154.961 22.2493C154.831 22.1093 154.771 21.9493 154.771 21.7493V1.69926C154.771 1.49926 154.831 1.33926 154.961 1.19926C155.091 1.05926 155.261 0.989258 155.471 0.989258H159.871C160.071 0.989258 160.231 1.05926 160.371 1.19926C160.511 1.33926 160.581 1.49926 160.581 1.69926V8.44926C160.581 8.64926 160.621 8.75926 160.701 8.78926C160.781 8.81926 160.881 8.75926 160.991 8.59926L166.271 1.58926C166.391 1.42926 166.551 1.29926 166.771 1.18926C166.991 1.07926 167.201 1.02926 167.421 1.02926H173.021C173.231 1.02926 173.371 1.11926 173.431 1.30926C173.491 1.49926 173.461 1.66926 173.341 1.81926L165.621 11.4693C165.501 11.6293 165.451 11.8093 165.461 12.0093C165.471 12.2193 165.541 12.3893 165.681 12.5193C166.351 13.2393 167.051 13.9993 167.791 14.7793C168.531 15.5593 169.271 16.3493 170.001 17.1393C170.731 17.9293 171.461 18.7093 172.171 19.4893C172.881 20.2593 173.561 20.9793 174.211 21.6493C174.351 21.8093 174.401 21.9793 174.361 22.1793C174.321 22.3793 174.191 22.4693 173.981 22.4693H167.911C167.701 22.4693 167.471 22.4193 167.251 22.3193C167.031 22.2193 166.861 22.0993 166.741 21.9393Z" fill="white"/>
<path d="M182.031 7.09926V8.32926C182.031 8.52926 182.101 8.68926 182.241 8.82926C182.381 8.96926 182.541 9.03926 182.741 9.03926H190.691C190.891 9.03926 191.051 9.10926 191.191 9.24926C191.331 9.38926 191.401 9.54926 191.401 9.74926V13.7993C191.401 13.9993 191.331 14.1593 191.191 14.2993C191.051 14.4393 190.891 14.5093 190.691 14.5093H182.741C182.541 14.5093 182.381 14.5793 182.241 14.7193C182.101 14.8593 182.031 15.0193 182.031 15.2193V16.3393C182.031 16.5393 182.101 16.6993 182.241 16.8393C182.381 16.9793 182.541 17.0493 182.741 17.0493H191.861C192.061 17.0493 192.221 17.1193 192.361 17.2593C192.501 17.3993 192.571 17.5593 192.571 17.7593V21.8093C192.571 22.0093 192.501 22.1693 192.361 22.3093C192.221 22.4493 192.061 22.5193 191.861 22.5193H176.931C176.731 22.5193 176.571 22.4493 176.431 22.3093C176.291 22.1693 176.221 22.0093 176.221 21.8093V1.69926C176.221 1.49926 176.291 1.33926 176.431 1.19926C176.571 1.05926 176.731 0.989258 176.931 0.989258H191.861C192.061 0.989258 192.221 1.05926 192.361 1.19926C192.501 1.33926 192.571 1.49926 192.571 1.69926V5.68926C192.571 5.88926 192.501 6.04926 192.361 6.18926C192.221 6.32926 192.061 6.39926 191.861 6.39926H182.741C182.541 6.39926 182.381 6.46926 182.241 6.60926C182.101 6.73926 182.031 6.89926 182.031 7.09926Z" fill="white"/>
<path d="M216.471 1.69926V21.7693C216.471 21.9693 216.401 22.1293 216.261 22.2693C216.121 22.4093 215.961 22.4793 215.761 22.4793H211.431C211.231 22.4793 211.031 22.4193 210.821 22.2993C210.611 22.1793 210.441 22.0493 210.321 21.8893L202.681 11.1193C202.561 10.9593 202.441 10.8993 202.311 10.9293C202.181 10.9593 202.121 11.0693 202.121 11.2693V21.7693C202.121 21.9693 202.051 22.1293 201.911 22.2693C201.771 22.4093 201.611 22.4793 201.411 22.4793H197.021C196.821 22.4793 196.661 22.4093 196.521 22.2693C196.381 22.1293 196.311 21.9693 196.311 21.7693V1.69926C196.311 1.49926 196.381 1.33926 196.521 1.19926C196.661 1.05926 196.821 0.989258 197.021 0.989258H201.421C201.621 0.989258 201.821 1.03926 202.041 1.14926C202.251 1.25926 202.421 1.38926 202.541 1.54926L210.171 12.3193C210.291 12.4793 210.411 12.5493 210.541 12.5293C210.671 12.5093 210.731 12.3993 210.731 12.2093V1.69926C210.731 1.49926 210.801 1.33926 210.941 1.19926C211.081 1.05926 211.241 0.989258 211.441 0.989258H215.781C215.981 0.989258 216.141 1.05926 216.281 1.19926C216.401 1.33926 216.471 1.49926 216.471 1.69926Z" fill="white"/>
<path d="M220.931 21.7693V1.69926C220.931 1.49926 221.001 1.33926 221.141 1.19926C221.281 1.05926 221.441 0.989258 221.641 0.989258H229.651C232.721 0.989258 235.231 1.88926 237.191 3.68926C238.251 4.66926 239.051 5.82926 239.601 7.17926C240.151 8.52926 240.421 10.0493 240.421 11.7293C240.421 13.4093 240.151 14.9293 239.601 16.2893C239.051 17.6493 238.251 18.8193 237.191 19.7993C236.211 20.6793 235.091 21.3493 233.831 21.7993C232.571 22.2493 231.171 22.4693 229.651 22.4693H221.641C221.441 22.4693 221.281 22.3993 221.141 22.2593C221.001 22.1293 220.931 21.9593 220.931 21.7693ZM227.451 17.0693H229.651C230.201 17.0693 230.761 16.9993 231.351 16.8593C231.941 16.7193 232.471 16.4593 232.931 16.0793C233.401 15.6993 233.791 15.1593 234.091 14.4693C234.391 13.7793 234.551 12.8693 234.551 11.7593C234.551 10.6493 234.401 9.73926 234.091 9.04926C233.791 8.35926 233.401 7.81926 232.921 7.43926C232.441 7.05926 231.911 6.79926 231.341 6.65926C230.771 6.51926 230.201 6.44926 229.651 6.44926H227.451C227.251 6.44926 227.091 6.51926 226.951 6.65926C226.811 6.79926 226.741 6.95926 226.741 7.15926V16.3693C226.741 16.5693 226.811 16.7293 226.951 16.8693C227.081 17.0093 227.251 17.0693 227.451 17.0693Z" fill="white"/>
</svg>
