<svg width="713" height="256" viewBox="0 0 713 256" fill="none" xmlns="http://www.w3.org/2000/svg">
<g clip-path="url(#clip0_2205_80)">
<path d="M542.798 0.000149421V92.8002C542.798 98.8002 545.798 101.9 551.898 102.2H582.498V112.6C582.498 113.8 581.898 114.6 580.598 114.6H530.998C515.698 114.6 513.398 106.2 513.398 98.5002V6.30015C513.398 1.90015 515.098 -0.0998506 520.198 0.000149421H542.798Z" fill="black"/>
<path d="M485.798 0V108.6C485.798 113.4 483.698 114.7 479.598 114.7H456.398V6C456.398 2.4 457.798 0 462.998 0H485.798Z" fill="black"/>
<path d="M0 15.8C0 7.1 0 0 14.4 0H77.5V11C77.5 11.8 77.1 12.5 76 12.5H38.2C33.1 12.5 30.6 15 30.6 20.1V49.2H75.1V60.8C75.1 61.8 74.4 62.4 73.4 62.4H30.5V108.6C30.4 113.1 28.2 114.8 23.3 114.7H0V15.8Z" fill="black"/>
<path d="M123.102 0V87.4C123.102 94.9 124.202 100.2 129.402 103.2C136.502 107.3 148.402 107.4 155.602 103.3C160.502 100.5 162.402 96.1 162.402 87.4V5.8C162.402 2.1 163.802 0 168.902 0H191.702V84.8C191.702 104.5 179.302 112.6 168.302 115.6C153.702 119.6 131.502 119.7 117.802 115.5C101.302 110.5 93.7016 100.8 93.6016 84.8V5.9C93.6016 2.1 95.0016 0 99.3016 0H123.102Z" fill="black"/>
<path d="M678.602 0C672.802 0 669.502 2.7 668.202 7.9L649.502 87H649.002L629.702 0H603.302C598.202 0 596.602 2.6 596.602 6.7V114.7H607.802C609.602 114.7 610.302 113.8 610.302 112V21.4H612.102L636.002 114.7H651.602C657.502 114.7 659.702 112.3 661.102 106.4L682.502 21.4H684.202V114.7L705.102 114.6C710.202 114.6 712.602 112.6 712.602 107.6V0H678.602Z" fill="black"/>
<path d="M331.4 62.3003H302V114.7H325.2C329.3 114.7 331.4 113.5 331.4 108.6C331.4 108.6 331.4 86.2003 331.4 62.3003Z" fill="black"/>
<path d="M329.598 39.9C330.598 39.1 331.198 38.5 331.298 36.6V0H308.498C303.398 0 301.898 2.5 301.898 6.1V61.6L329.598 39.9Z" fill="#ED2024"/>
<path d="M228.998 105.6C241.798 103.8 245.998 96.2 245.998 85.1V6.2C245.998 1.5 248.598 0 251.898 0H275.398V74.5C275.398 92.8 271.498 102.1 260.698 109.9C255.098 114 245.198 118.6 223.798 118.6C211.498 118.6 206.098 117.9 205.398 117.7C204.398 117.5 203.898 116.8 203.898 115.9V106.3C208.798 106.5 220.298 106.8 228.998 105.6Z" fill="black"/>
<path d="M375.898 0C361.498 0 361.498 7.1 361.498 15.8V45.3C361.498 45.9 361.198 46.2 360.998 46.4L340.898 62.2H361.498V114.5H384.798C389.698 114.6 391.898 112.8 391.998 108.4V62.3H434.898C435.898 62.3 436.598 61.8 436.598 60.7V49.2H391.998V20.1C391.998 15 394.598 12.5 399.598 12.5H437.398C438.498 12.5 438.898 11.8 438.898 11V0H375.898Z" fill="black"/>
<path d="M267.902 162.4C260.302 162.4 254.702 167 251.402 172.3V158.2L236.102 167.7V227.5C236.102 230.8 238.002 235.7 244.102 235.7C247.502 235.7 251.402 232.5 251.402 227.5V186.4L269.302 175.6V234.3H284.502V178.3C284.502 167.7 277.402 162.4 267.902 162.4Z" fill="black"/>
<path d="M213.898 161.5C209.598 161.5 205.898 165 205.898 170V234.2H221.898V170C221.898 165 218.298 161.5 213.898 161.5Z" fill="black"/>
<path d="M213.9 153.1C218.9 153.1 222.9 149.1 222.9 144.1C222.9 139.2 218.9 135.1 213.9 135.1C209 135.1 205 139.1 205 144.1C205 149.1 208.9 153.1 213.9 153.1Z" fill="black"/>
<path d="M323.3 192.9C313.7 188.9 311 186.2 311 182.4C311 178.6 314.4 175.2 319.1 175.2C324.2 175.2 328.1 177.5 330.8 180.1L337.2 168.5C332.3 164.7 326.6 161.8 317.4 161.8C305.7 161.8 295.2 170.2 295.2 182.6C295.2 193 302.7 199.8 313.6 203.9C322.3 207.1 324.7 209.6 324.7 214.8C324.7 218.4 321.9 221.8 316.8 221.8C312.2 221.8 308.9 218.9 306.1 216.3C303 213.4 297.7 213.4 295.2 216.1C293.1 218.4 292.3 222.4 295.4 226.6C298.3 230.5 305.6 235.9 316.7 235.9C328.7 235.9 340.2 228 340.2 214C340.3 202.2 334.7 197.6 323.3 192.9Z" fill="black"/>
<path d="M371.902 162.9V144.7L355.902 154.1V162.8H347.902C344.102 162.8 341.102 165.6 341.102 169.4C341.102 173 344.002 175.8 347.902 175.8H355.902V234.2H371.902V175.8H384.702V162.9H371.902Z" fill="black"/>
<path d="M435.702 159.1C431.002 159.1 428.302 162.7 427.702 167.2C425.402 164.8 421.602 161.5 414.602 161.5C399.002 161.5 388.102 176.1 388.102 197.9C388.102 220.1 398.402 234.2 414.602 234.2C421.102 234.2 425.302 230.5 428.202 226.9V234.2H444.002V167.2C444.002 163.3 441.402 159.1 435.702 159.1ZM416.702 220.1C409.002 220.1 403.902 212.1 403.902 197.9C403.902 183.7 408.802 175.7 416.702 175.7C423.702 175.7 428.902 182.7 428.902 197.9C429.002 213.1 422.802 220.1 416.702 220.1Z" fill="black"/>
<path d="M490.3 196.9L507.4 162.9H490.2L479.8 183.5L469.4 162.8H452.2L469.3 196.8L450.5 234.1H467.7L479.7 210.3L490.4 231.6C492.6 235.5 497.1 237 501 234.8C505 232.6 505.8 227.6 503.6 223.6L490.3 196.9Z" fill="black"/>
</g>
<defs>
<clipPath id="clip0_2205_80">
<rect width="712.6" height="255.9" fill="white"/>
</clipPath>
</defs>
</svg>
