<svg width="406" height="218" viewBox="0 0 406 218" fill="none" xmlns="http://www.w3.org/2000/svg">
<path d="M7.55371 215.955L185.888 216.531C188.223 216.538 190.097 214.635 190.593 212.353C191.66 207.456 194.717 201.765 201.787 201.788C209.003 201.811 212.424 207.76 213.752 212.729C214.327 214.88 216.152 216.619 218.378 216.614L397.167 216.198C399.937 216.191 401.325 212.845 399.372 210.88L390.765 202.216C389.119 200.56 389.128 197.884 390.784 196.239L397.509 189.557C399.165 187.912 399.174 185.235 397.528 183.579L390.847 176.854C389.201 175.198 389.21 172.522 390.866 170.877L397.591 164.195C399.247 162.55 399.255 159.873 397.61 158.217L390.929 151.492C389.283 149.836 389.292 147.16 390.948 145.515L397.673 138.833C399.329 137.188 399.337 134.511 397.692 132.855L391.011 126.13C389.365 124.474 389.374 121.798 391.03 120.153L397.755 113.471C399.411 111.826 399.419 109.149 397.774 107.493L391.092 100.768C389.447 99.1124 389.456 96.436 391.112 94.7906L397.836 88.1091C399.493 86.4637 399.501 83.7873 397.856 82.1312L391.174 75.4064C389.529 73.7503 389.538 71.074 391.194 69.4286L397.918 62.7471C399.574 61.1017 399.583 58.4253 397.938 56.7692L391.256 50.0444C389.611 48.3883 389.619 45.712 391.276 44.0665L398 37.3851C399.656 35.7396 399.665 33.0633 398.02 31.4072L391.651 24.9972C389.888 23.2232 390.043 20.3151 391.983 18.7378L399.566 12.5743C399.859 12.3367 400.078 12.0211 400.198 11.6641C400.632 10.375 399.676 9.03922 398.316 9.03483L218.263 8.45336C215.928 8.44582 214.061 10.3649 213.403 12.6047C212.211 16.6599 209.121 21.105 202.371 21.0832C195.45 21.0608 192.408 15.9782 191.311 11.492C190.757 9.22432 188.898 7.30178 186.564 7.29424L7.8909 6.71723C5.9866 6.71108 4.74157 8.71109 5.5877 10.4171C5.75766 10.7598 6.00221 11.0601 6.30338 11.2959L11.5626 15.4137C13.5645 16.9812 13.7396 19.9485 11.936 21.7405L6.66954 26.9731C5.01346 28.6185 5.00482 31.2949 6.65024 32.9509L12.2784 38.6155C13.9238 40.2716 13.9151 42.948 12.2591 44.5934L6.59446 50.2216C4.93838 51.867 4.92974 54.5434 6.57516 56.1995L12.2033 61.8641C13.8487 63.5201 13.8401 66.1965 12.184 67.8419L6.51938 73.4701C4.86331 75.1155 4.85466 77.7919 6.50008 79.448L12.1282 85.1126C13.7736 86.7687 13.765 89.445 12.1089 91.0904L6.4443 96.7186C4.78823 98.364 4.77958 101.04 6.425 102.696L12.0531 108.361C13.6986 110.017 13.6899 112.694 12.0338 114.339L6.36922 119.967C4.71315 121.613 4.7045 124.289 6.34992 125.945L11.9781 131.61C13.6235 133.266 13.6148 135.942 11.9588 137.587L6.29414 143.216C4.63807 144.861 4.62942 147.537 6.27484 149.193L11.903 154.858C13.5484 156.514 13.5398 159.191 11.8837 160.836L6.21907 166.464C4.56299 168.11 4.55434 170.786 6.19976 172.442L11.8279 178.107C13.4733 179.763 13.4647 182.439 11.8086 184.084L6.14399 189.713C4.48791 191.358 4.47926 194.034 6.12468 195.691L11.7528 201.355C13.3982 203.011 13.3896 205.688 11.7335 207.333L6.2508 212.78C5.07712 213.947 5.89922 215.95 7.55371 215.955Z" fill="black" stroke="black" stroke-width="2.11351"/>
<path d="M4.4834 211.251L182.818 211.827C185.152 211.834 187.026 209.93 187.523 207.649C188.589 202.752 191.647 197.061 198.717 197.083C205.932 197.107 209.354 203.056 210.682 208.025C211.257 210.176 213.081 211.915 215.308 211.91L394.096 211.494C396.867 211.487 398.255 208.141 396.302 206.176L387.694 197.512C386.049 195.856 386.058 193.18 387.714 191.535L394.439 184.853C396.095 183.208 396.103 180.531 394.458 178.875L387.776 172.15C386.131 170.494 386.14 167.818 387.796 166.172L394.52 159.491C396.177 157.846 396.185 155.169 394.54 153.513L387.858 146.788C386.213 145.132 386.221 142.456 387.878 140.81L394.602 134.129C396.258 132.484 396.267 129.807 394.622 128.151L387.94 121.426C386.295 119.77 386.303 117.094 387.959 115.448L394.684 108.767C396.34 107.122 396.349 104.445 394.704 102.789L388.022 96.0643C386.377 94.4083 386.385 91.7319 388.041 90.0864L394.766 83.405C396.422 81.7596 396.431 79.0832 394.785 77.4271L388.104 70.7023C386.459 69.0462 386.467 66.3698 388.123 64.7244L394.848 58.0429C396.504 56.3975 396.513 53.7211 394.867 52.0651L388.186 45.3403C386.54 43.6842 386.549 41.0078 388.205 39.3624L394.93 32.6809C396.586 31.0355 396.595 28.3591 394.949 26.7031L388.581 20.2931C386.818 18.5191 386.972 15.611 388.913 14.0337L396.496 7.8702C396.788 7.63259 397.007 7.31699 397.128 6.95999C397.562 5.67089 396.606 4.33509 395.245 4.3307L215.193 3.74923C212.858 3.74169 210.991 5.66079 210.333 7.90061C209.141 11.9558 206.051 16.4008 199.3 16.379C192.379 16.3567 189.338 11.274 188.241 6.78792C187.687 4.52021 185.828 2.59765 183.494 2.59011L4.82059 2.01309C2.91629 2.00694 1.67126 4.00698 2.51739 5.71298C2.68735 6.05566 2.93189 6.35594 3.23307 6.59175L8.49229 10.7096C10.4942 12.277 10.6693 15.2444 8.86568 17.0364L3.59923 22.2689C1.94315 23.9143 1.93451 26.5907 3.57992 28.2468L9.20806 33.9114C10.8535 35.5675 10.8448 38.2439 9.18876 39.8893L3.52415 45.5174C1.86807 47.1629 1.85943 49.8392 3.50484 51.4953L9.13299 57.16C10.7784 58.816 10.7698 61.4924 9.11368 63.1378L3.44907 68.766C1.79299 70.4114 1.78435 73.0878 3.42977 74.7438L9.0579 80.4085C10.7033 82.0645 10.6947 84.7409 9.0386 86.3863L3.37399 92.0145C1.71791 93.6599 1.70927 96.3363 3.35468 97.9924L8.98283 103.657C10.6282 105.313 10.6196 107.989 8.96352 109.635L3.29891 115.263C1.64283 116.908 1.63419 119.585 3.27961 121.241L8.90775 126.905C10.5532 128.562 10.5445 131.238 8.88844 132.883L3.22383 138.511C1.56775 140.157 1.55911 142.833 3.20453 144.489L8.83266 150.154C10.4781 151.81 10.4694 154.486 8.81336 156.132L3.14875 161.76C1.49267 163.405 1.48403 166.082 3.12945 167.738L8.75759 173.403C10.403 175.059 10.3944 177.735 8.73828 179.38L3.07367 185.009C1.4176 186.654 1.40895 189.33 3.05437 190.986L8.68251 196.651C10.3279 198.307 10.3193 200.983 8.6632 202.629L3.18049 208.076C2.00681 209.242 2.82891 211.245 4.4834 211.251Z" fill="#FF90E8" stroke="black" stroke-width="2.11351"/>
<line x1="198.35" y1="195.079" x2="198.35" y2="19.2908" stroke="black" stroke-width="2.13508" stroke-linecap="round" stroke-dasharray="10.68 10.68"/>
<path d="M259 64.9763C258.547 64.403 258.007 63.9497 257.38 63.6163C256.753 63.2697 256.133 63.0963 255.52 63.0963C254.813 63.0963 254.167 63.2763 253.58 63.6363C253.007 63.983 252.553 64.4697 252.22 65.0963C251.887 65.7097 251.72 66.3963 251.72 67.1563C251.72 67.9163 251.887 68.6097 252.22 69.2363C252.553 69.8497 253.007 70.3363 253.58 70.6963C254.167 71.043 254.813 71.2163 255.52 71.2163C256.093 71.2163 256.693 71.0697 257.32 70.7763C257.947 70.483 258.507 70.083 259 69.5763L261.14 71.8763C260.38 72.6763 259.473 73.3163 258.42 73.7963C257.38 74.263 256.347 74.4963 255.32 74.4963C253.933 74.4963 252.68 74.1763 251.56 73.5363C250.44 72.8963 249.56 72.023 248.92 70.9163C248.28 69.8097 247.96 68.5697 247.96 67.1963C247.96 65.8363 248.287 64.6097 248.94 63.5163C249.593 62.423 250.487 61.563 251.62 60.9363C252.767 60.3097 254.047 59.9963 255.46 59.9963C256.5 59.9963 257.527 60.2163 258.54 60.6563C259.553 61.083 260.413 61.6697 261.12 62.4163L259 64.9763ZM262.808 59.3963L266.368 59.3963L266.368 74.2363L262.808 74.2363L262.808 59.3963ZM279.752 63.4163L279.752 74.2363L276.192 74.2363L276.192 72.4763C275.459 73.7297 274.305 74.3697 272.732 74.3963C271.559 74.3963 270.619 74.023 269.912 73.2763C269.219 72.5163 268.872 71.5097 268.872 70.2563L268.872 63.4163L272.432 63.4163L272.432 69.2363C272.432 69.8497 272.585 70.3297 272.892 70.6763C273.212 71.023 273.639 71.1963 274.172 71.1963C274.799 71.183 275.292 70.9563 275.652 70.5163C276.012 70.063 276.192 69.4763 276.192 68.7563L276.192 63.4163L279.752 63.4163ZM289.313 63.2963C290.313 63.2963 291.193 63.5297 291.953 63.9963C292.713 64.4497 293.3 65.103 293.713 65.9563C294.14 66.7963 294.353 67.7697 294.353 68.8763C294.353 69.9697 294.147 70.9297 293.733 71.7563C293.333 72.583 292.753 73.223 291.993 73.6763C291.247 74.1297 290.38 74.3563 289.393 74.3563C288.713 74.3563 288.093 74.2297 287.533 73.9763C286.987 73.7097 286.52 73.3297 286.133 72.8363L286.133 74.2363L282.573 74.2363L282.573 59.3963L286.133 59.3963L286.133 64.8163C286.92 63.803 287.98 63.2963 289.313 63.2963ZM288.433 71.4763C289.127 71.4763 289.687 71.2297 290.113 70.7363C290.553 70.243 290.773 69.5963 290.773 68.7963C290.773 67.9963 290.553 67.3497 290.113 66.8563C289.687 66.3497 289.127 66.0963 288.433 66.0963C287.753 66.0963 287.2 66.3497 286.773 66.8563C286.347 67.3497 286.133 67.9963 286.133 68.7963C286.133 69.5963 286.347 70.243 286.773 70.7363C287.2 71.2297 287.753 71.4763 288.433 71.4763ZM306.778 60.2163C308.564 60.2163 309.951 60.6497 310.938 61.5163C311.924 62.3697 312.418 63.5763 312.418 65.1363C312.418 66.7897 311.924 68.0763 310.938 68.9963C309.951 69.903 308.564 70.3563 306.778 70.3563L304.278 70.3563L304.278 74.2363L300.618 74.2363L300.618 60.2163L306.778 60.2163ZM306.598 67.4363C307.344 67.4363 307.918 67.2497 308.318 66.8763C308.731 66.503 308.938 65.963 308.938 65.2563C308.938 64.5763 308.731 64.0563 308.318 63.6963C307.918 63.323 307.344 63.1363 306.598 63.1363L304.278 63.1363L304.278 67.4363L306.598 67.4363ZM319.092 63.2763C320.585 63.2763 321.745 63.623 322.572 64.3163C323.398 64.9963 323.818 65.9563 323.832 67.1963L323.832 74.2363L320.332 74.2363L320.332 73.0163C319.612 73.9363 318.525 74.3963 317.072 74.3963C315.925 74.3963 315.018 74.0897 314.352 73.4763C313.698 72.8497 313.372 72.0297 313.372 71.0163C313.372 69.9897 313.725 69.1897 314.432 68.6163C315.152 68.043 316.178 67.7497 317.512 67.7363L320.332 67.7363V67.6163C320.332 67.0963 320.152 66.6963 319.792 66.4163C319.445 66.1363 318.938 65.9963 318.272 65.9963C317.818 65.9963 317.305 66.0697 316.732 66.2163C316.172 66.363 315.605 66.5763 315.032 66.8563L314.052 64.4563C314.932 64.0563 315.772 63.763 316.572 63.5763C317.385 63.3763 318.225 63.2763 319.092 63.2763ZM318.172 71.9763C318.705 71.9763 319.172 71.8497 319.572 71.5963C319.972 71.3297 320.225 70.9897 320.332 70.5763V69.6363L318.212 69.6363C317.212 69.6363 316.712 70.0097 316.712 70.7563C316.712 71.1297 316.838 71.4297 317.092 71.6563C317.358 71.8697 317.718 71.9763 318.172 71.9763ZM333.443 66.8363C332.043 66.103 330.897 65.7363 330.003 65.7363C329.697 65.7363 329.45 65.7963 329.263 65.9163C329.077 66.023 328.983 66.1897 328.983 66.4163C328.983 66.6563 329.13 66.8497 329.423 66.9963C329.717 67.143 330.183 67.303 330.823 67.4763C331.597 67.703 332.237 67.9297 332.743 68.1563C333.263 68.3697 333.71 68.703 334.083 69.1563C334.457 69.5963 334.643 70.1763 334.643 70.8963C334.643 71.9897 334.217 72.8497 333.363 73.4763C332.523 74.0897 331.423 74.3963 330.063 74.3963C329.143 74.3963 328.263 74.2697 327.423 74.0163C326.583 73.7497 325.837 73.363 325.183 72.8563L326.303 70.5563C326.917 70.983 327.557 71.3163 328.223 71.5563C328.903 71.783 329.543 71.8963 330.143 71.8963C330.49 71.8963 330.763 71.843 330.963 71.7363C331.177 71.6163 331.283 71.4497 331.283 71.2363C331.283 70.9697 331.13 70.763 330.823 70.6163C330.53 70.4697 330.063 70.3097 329.423 70.1363C328.663 69.9097 328.037 69.6897 327.543 69.4763C327.05 69.2497 326.617 68.9163 326.243 68.4763C325.883 68.0363 325.703 67.463 325.703 66.7563C325.703 65.663 326.117 64.8097 326.943 64.1963C327.77 63.5697 328.837 63.2563 330.143 63.2563C330.93 63.2563 331.703 63.363 332.463 63.5763C333.237 63.7897 333.963 64.103 334.643 64.5163L333.443 66.8363ZM343.775 66.8363C342.375 66.103 341.229 65.7363 340.335 65.7363C340.029 65.7363 339.782 65.7963 339.595 65.9163C339.409 66.023 339.315 66.1897 339.315 66.4163C339.315 66.6563 339.462 66.8497 339.755 66.9963C340.049 67.143 340.515 67.303 341.155 67.4763C341.929 67.703 342.569 67.9297 343.075 68.1563C343.595 68.3697 344.042 68.703 344.415 69.1563C344.789 69.5963 344.975 70.1763 344.975 70.8963C344.975 71.9897 344.549 72.8497 343.695 73.4763C342.855 74.0897 341.755 74.3963 340.395 74.3963C339.475 74.3963 338.595 74.2697 337.755 74.0163C336.915 73.7497 336.169 73.363 335.515 72.8563L336.635 70.5563C337.249 70.983 337.889 71.3163 338.555 71.5563C339.235 71.783 339.875 71.8963 340.475 71.8963C340.822 71.8963 341.095 71.843 341.295 71.7363C341.509 71.6163 341.615 71.4497 341.615 71.2363C341.615 70.9697 341.462 70.763 341.155 70.6163C340.862 70.4697 340.395 70.3097 339.755 70.1363C338.995 69.9097 338.369 69.6897 337.875 69.4763C337.382 69.2497 336.949 68.9163 336.575 68.4763C336.215 68.0363 336.035 67.463 336.035 66.7563C336.035 65.663 336.449 64.8097 337.275 64.1963C338.102 63.5697 339.169 63.2563 340.475 63.2563C341.262 63.2563 342.035 63.363 342.795 63.5763C343.569 63.7897 344.295 64.103 344.975 64.5163L343.775 66.8363Z" fill="black"/>
<path d="M276.936 103.236L274.434 99.2763C274.146 99.3003 273.912 99.3123 273.732 99.3123L270.528 99.3123L270.528 103.236L268.8 103.236L268.8 90.6363L273.732 90.6363C275.328 90.6363 276.558 91.0083 277.422 91.7523C278.298 92.4843 278.736 93.5283 278.736 94.8843C278.736 95.9043 278.496 96.7623 278.016 97.4583C277.548 98.1543 276.87 98.6583 275.982 98.9703L278.916 103.236L276.936 103.236ZM273.732 97.7463C274.812 97.7463 275.64 97.5123 276.216 97.0443C276.792 96.5643 277.08 95.8623 277.08 94.9383C277.08 94.0383 276.792 93.3603 276.216 92.9043C275.64 92.4363 274.812 92.2023 273.732 92.2023L270.528 92.2023L270.528 97.7463L273.732 97.7463ZM286.848 95.8203C286.452 95.5803 286.014 95.3883 285.534 95.2443C285.066 95.1003 284.616 95.0283 284.184 95.0283C283.68 95.0283 283.272 95.1243 282.96 95.3163C282.66 95.4963 282.51 95.7783 282.51 96.1623C282.51 96.5463 282.678 96.8403 283.014 97.0443C283.362 97.2363 283.884 97.4343 284.58 97.6383C285.24 97.8303 285.78 98.0223 286.2 98.2143C286.62 98.4063 286.974 98.6883 287.262 99.0603C287.562 99.4323 287.712 99.9243 287.712 100.536C287.712 101.436 287.37 102.12 286.686 102.588C286.014 103.056 285.174 103.29 284.166 103.29C283.458 103.29 282.768 103.176 282.096 102.948C281.436 102.72 280.878 102.396 280.422 101.976L281.052 100.752C281.448 101.112 281.934 101.4 282.51 101.616C283.098 101.832 283.668 101.94 284.22 101.94C284.772 101.94 285.216 101.838 285.552 101.634C285.888 101.43 286.056 101.118 286.056 100.698C286.056 100.266 285.876 99.9423 285.516 99.7263C285.168 99.5103 284.634 99.2943 283.914 99.0783C283.278 98.8983 282.756 98.7183 282.348 98.5383C281.952 98.3463 281.61 98.0703 281.322 97.7103C281.046 97.3503 280.908 96.8823 280.908 96.3063C280.908 95.4183 281.232 94.7523 281.88 94.3083C282.528 93.8643 283.338 93.6423 284.31 93.6423C284.886 93.6423 285.45 93.7263 286.002 93.8943C286.566 94.0503 287.052 94.2663 287.46 94.5423L286.848 95.8203ZM298.488 95.9823C299.748 96.0543 300.75 96.3843 301.494 96.9723C302.238 97.5603 302.61 98.3523 302.61 99.3483C302.61 100.128 302.406 100.818 301.998 101.418C301.602 102.018 301.032 102.486 300.288 102.822C299.556 103.158 298.698 103.326 297.714 103.326C296.922 103.326 296.124 103.206 295.32 102.966C294.528 102.726 293.844 102.408 293.268 102.012L294.006 100.608C294.51 101.004 295.074 101.31 295.698 101.526C296.322 101.742 296.958 101.85 297.606 101.85C298.638 101.85 299.448 101.628 300.036 101.184C300.624 100.74 300.918 100.146 300.918 99.4023C300.918 98.6583 300.624 98.0943 300.036 97.7103C299.448 97.3143 298.62 97.1163 297.552 97.1163L295.824 97.1163V96.0183L299.694 92.2023L293.88 92.2023L293.862 90.6363L301.962 90.6363L301.962 91.7343L297.732 95.9283L298.488 95.9823ZM305.669 101.076C306.077 101.328 306.527 101.526 307.019 101.67C307.523 101.802 308.021 101.868 308.513 101.868C309.713 101.868 310.631 101.448 311.267 100.608C311.915 99.7563 312.239 98.5983 312.239 97.1343C312.239 96.9063 312.233 96.7323 312.221 96.6123C311.921 97.3083 311.459 97.8363 310.835 98.1963C310.223 98.5563 309.479 98.7363 308.603 98.7363C307.355 98.7363 306.371 98.3763 305.651 97.6563C304.931 96.9363 304.571 95.9643 304.571 94.7403C304.571 93.8883 304.751 93.1503 305.111 92.5263C305.471 91.8903 305.975 91.4043 306.623 91.0683C307.283 90.7323 308.045 90.5643 308.909 90.5643C309.941 90.5643 310.835 90.8043 311.591 91.2843C312.347 91.7643 312.923 92.4603 313.319 93.3723C313.727 94.2843 313.931 95.3763 313.931 96.6483C313.931 97.9803 313.715 99.1503 313.283 100.158C312.851 101.166 312.233 101.946 311.429 102.498C310.625 103.05 309.689 103.326 308.621 103.326C308.033 103.326 307.409 103.242 306.749 103.074C306.089 102.894 305.501 102.666 304.985 102.39L305.669 101.076ZM309.017 92.0583C308.165 92.0583 307.481 92.2983 306.965 92.7783C306.449 93.2583 306.191 93.9183 306.191 94.7583C306.191 95.5503 306.437 96.1803 306.929 96.6483C307.421 97.1163 308.081 97.3503 308.909 97.3503C309.521 97.3503 310.049 97.2303 310.493 96.9903C310.949 96.7383 311.297 96.4083 311.537 96.0003C311.777 95.5803 311.897 95.1303 311.897 94.6503C311.897 94.2423 311.789 93.8403 311.573 93.4443C311.369 93.0363 311.051 92.7063 310.619 92.4543C310.187 92.1903 309.653 92.0583 309.017 92.0583ZM317.078 101.076C317.486 101.328 317.936 101.526 318.428 101.67C318.932 101.802 319.43 101.868 319.922 101.868C321.122 101.868 322.04 101.448 322.676 100.608C323.324 99.7563 323.648 98.5983 323.648 97.1343C323.648 96.9063 323.642 96.7323 323.63 96.6123C323.33 97.3083 322.868 97.8363 322.244 98.1963C321.632 98.5563 320.888 98.7363 320.012 98.7363C318.764 98.7363 317.78 98.3763 317.06 97.6563C316.34 96.9363 315.98 95.9643 315.98 94.7403C315.98 93.8883 316.16 93.1503 316.52 92.5263C316.88 91.8903 317.384 91.4043 318.032 91.0683C318.692 90.7323 319.454 90.5643 320.318 90.5643C321.35 90.5643 322.244 90.8043 323 91.2843C323.756 91.7643 324.332 92.4603 324.728 93.3723C325.136 94.2843 325.34 95.3763 325.34 96.6483C325.34 97.9803 325.124 99.1503 324.692 100.158C324.26 101.166 323.642 101.946 322.838 102.498C322.034 103.05 321.098 103.326 320.03 103.326C319.442 103.326 318.818 103.242 318.158 103.074C317.498 102.894 316.91 102.666 316.394 102.39L317.078 101.076ZM320.426 92.0583C319.574 92.0583 318.89 92.2983 318.374 92.7783C317.858 93.2583 317.6 93.9183 317.6 94.7583C317.6 95.5503 317.846 96.1803 318.338 96.6483C318.83 97.1163 319.49 97.3503 320.318 97.3503C320.93 97.3503 321.458 97.2303 321.902 96.9903C322.358 96.7383 322.706 96.4083 322.946 96.0003C323.186 95.5803 323.306 95.1303 323.306 94.6503C323.306 94.2423 323.198 93.8403 322.982 93.4443C322.778 93.0363 322.46 92.7063 322.028 92.4543C321.596 92.1903 321.062 92.0583 320.426 92.0583Z" fill="black"/>
<path d="M258.417 121.892C259.581 122 260.505 122.354 261.189 122.954C261.885 123.554 262.233 124.34 262.233 125.312C262.233 126.104 262.029 126.806 261.621 127.418C261.213 128.018 260.631 128.492 259.875 128.84C259.119 129.176 258.237 129.344 257.229 129.344C256.377 129.344 255.531 129.218 254.691 128.966C253.863 128.702 253.155 128.354 252.567 127.922L253.521 126.05C254.025 126.47 254.583 126.794 255.195 127.022C255.807 127.238 256.431 127.346 257.067 127.346C257.943 127.346 258.627 127.166 259.119 126.806C259.623 126.446 259.875 125.96 259.875 125.348C259.875 124.724 259.629 124.25 259.137 123.926C258.645 123.59 257.943 123.422 257.031 123.422L255.123 123.422V121.964L258.507 118.688L253.197 118.688L253.179 116.636L261.603 116.636L261.603 118.13L257.751 121.82L258.417 121.892ZM278.125 120.272C277.681 119.756 277.153 119.354 276.541 119.066C275.941 118.778 275.329 118.634 274.705 118.634C273.925 118.634 273.211 118.82 272.563 119.192C271.915 119.564 271.405 120.08 271.033 120.74C270.661 121.388 270.475 122.102 270.475 122.882C270.475 123.662 270.661 124.382 271.033 125.042C271.405 125.69 271.915 126.206 272.563 126.59C273.211 126.962 273.925 127.148 274.705 127.148C275.305 127.148 275.905 127.016 276.505 126.752C277.117 126.488 277.657 126.122 278.125 125.654L279.547 127.238C278.887 127.91 278.119 128.444 277.243 128.84C276.367 129.224 275.479 129.416 274.579 129.416C273.367 129.416 272.257 129.128 271.249 128.552C270.241 127.976 269.449 127.196 268.873 126.212C268.297 125.216 268.009 124.118 268.009 122.918C268.009 121.718 268.303 120.626 268.891 119.642C269.479 118.658 270.277 117.884 271.285 117.32C272.305 116.756 273.433 116.474 274.669 116.474C275.569 116.474 276.451 116.654 277.315 117.014C278.179 117.374 278.917 117.872 279.529 118.508L278.125 120.272ZM285.408 119.534C286.404 119.534 287.28 119.738 288.036 120.146C288.804 120.554 289.398 121.13 289.818 121.874C290.25 122.606 290.466 123.452 290.466 124.412C290.466 125.384 290.25 126.242 289.818 126.986C289.398 127.73 288.804 128.306 288.036 128.714C287.28 129.122 286.404 129.326 285.408 129.326C284.4 129.326 283.512 129.122 282.744 128.714C281.976 128.306 281.376 127.73 280.944 126.986C280.524 126.242 280.314 125.384 280.314 124.412C280.314 123.452 280.524 122.606 280.944 121.874C281.376 121.13 281.976 120.554 282.744 120.146C283.512 119.738 284.4 119.534 285.408 119.534ZM285.408 121.532C284.592 121.532 283.932 121.802 283.428 122.342C282.924 122.882 282.672 123.584 282.672 124.448C282.672 125.312 282.924 126.014 283.428 126.554C283.932 127.094 284.592 127.364 285.408 127.364C286.2 127.364 286.848 127.094 287.352 126.554C287.856 126.014 288.108 125.312 288.108 124.448C288.108 123.584 287.856 122.882 287.352 122.342C286.848 121.802 286.2 121.532 285.408 121.532ZM298.295 119.516C299.399 119.516 300.269 119.852 300.905 120.524C301.541 121.184 301.859 122.084 301.859 123.224L301.859 129.236L299.501 129.236L299.501 123.908C299.501 123.236 299.309 122.708 298.925 122.324C298.541 121.928 298.019 121.73 297.359 121.73C296.579 121.742 295.961 122.006 295.505 122.522C295.061 123.038 294.839 123.698 294.839 124.502L294.839 129.236L292.499 129.236L292.499 119.606L294.839 119.606L294.839 121.406C295.499 120.17 296.651 119.54 298.295 119.516ZM310.121 128.642C309.353 129.11 308.549 129.344 307.709 129.344C306.881 129.344 306.203 129.104 305.675 128.624C305.147 128.132 304.883 127.412 304.883 126.464L304.883 121.712L303.533 121.712L303.515 120.002L304.883 120.002L304.883 117.356L307.205 117.356L307.205 120.002L309.959 120.002L309.959 121.712L307.205 121.712L307.205 126.05C307.205 126.494 307.289 126.812 307.457 127.004C307.625 127.184 307.877 127.274 308.213 127.274C308.573 127.274 309.029 127.142 309.581 126.878L310.121 128.642ZM315.884 119.534C317.42 119.534 318.572 119.972 319.34 120.848C320.12 121.724 320.51 122.954 320.51 124.538C320.51 124.85 320.504 125.084 320.492 125.24L313.382 125.24C313.538 125.924 313.856 126.464 314.336 126.86C314.828 127.244 315.428 127.436 316.136 127.436C316.628 127.436 317.096 127.346 317.54 127.166C317.996 126.974 318.392 126.704 318.728 126.356L319.988 127.67C319.508 128.198 318.92 128.606 318.224 128.894C317.54 129.182 316.778 129.326 315.938 129.326C314.954 129.326 314.084 129.122 313.328 128.714C312.584 128.306 312.008 127.736 311.6 127.004C311.192 126.26 310.988 125.408 310.988 124.448C310.988 123.488 311.192 122.636 311.6 121.892C312.02 121.148 312.602 120.572 313.346 120.164C314.09 119.744 314.936 119.534 315.884 119.534ZM318.368 123.674C318.344 122.966 318.11 122.402 317.666 121.982C317.222 121.562 316.634 121.352 315.902 121.352C315.218 121.352 314.642 121.562 314.174 121.982C313.718 122.39 313.436 122.954 313.328 123.674L318.368 123.674ZM328.228 122.216C327.76 121.94 327.274 121.724 326.77 121.568C326.278 121.412 325.822 121.334 325.402 121.334C325.006 121.334 324.688 121.406 324.448 121.55C324.22 121.682 324.106 121.892 324.106 122.18C324.106 122.48 324.25 122.714 324.538 122.882C324.838 123.038 325.306 123.206 325.942 123.386C326.614 123.59 327.166 123.794 327.598 123.998C328.03 124.19 328.402 124.484 328.714 124.88C329.038 125.264 329.2 125.774 329.2 126.41C329.2 127.346 328.84 128.066 328.12 128.57C327.4 129.074 326.494 129.326 325.402 129.326C324.658 129.326 323.932 129.212 323.224 128.984C322.516 128.744 321.916 128.408 321.424 127.976L322.234 126.338C322.666 126.71 323.182 127.004 323.782 127.22C324.382 127.424 324.952 127.526 325.492 127.526C325.924 127.526 326.266 127.454 326.518 127.31C326.782 127.154 326.914 126.926 326.914 126.626C326.914 126.29 326.764 126.038 326.464 125.87C326.164 125.702 325.678 125.516 325.006 125.312C324.358 125.12 323.83 124.934 323.422 124.754C323.014 124.562 322.66 124.28 322.36 123.908C322.06 123.524 321.91 123.026 321.91 122.414C321.91 121.466 322.252 120.746 322.936 120.254C323.632 119.75 324.502 119.498 325.546 119.498C326.182 119.498 326.806 119.588 327.418 119.768C328.042 119.948 328.594 120.2 329.074 120.524L328.228 122.216ZM336.84 128.642C336.072 129.11 335.268 129.344 334.428 129.344C333.6 129.344 332.922 129.104 332.394 128.624C331.866 128.132 331.602 127.412 331.602 126.464L331.602 121.712L330.252 121.712L330.234 120.002L331.602 120.002L331.602 117.356L333.924 117.356L333.924 120.002L336.678 120.002L336.678 121.712L333.924 121.712L333.924 126.05C333.924 126.494 334.008 126.812 334.176 127.004C334.344 127.184 334.596 127.274 334.932 127.274C335.292 127.274 335.748 127.142 336.3 126.878L336.84 128.642ZM298.691 137.576V139.196L295.559 139.196L295.559 142.292L294.029 142.292L294.029 139.196L290.915 139.196V137.576L294.029 137.576L294.029 134.462L295.559 134.462L295.559 137.576L298.691 137.576ZM241.049 146.636L246.107 146.636L246.107 159.236L243.695 159.236L243.695 148.76L241.049 148.76L241.049 146.636ZM269.146 146.636L271.648 146.636L267.382 159.236L264.88 159.236L262 149.678L259.066 159.236L256.6 159.236L252.352 146.636L254.944 146.636L257.914 156.626L260.866 146.636L263.242 146.636L266.212 156.662L269.146 146.636ZM276.356 149.534C277.352 149.534 278.228 149.738 278.984 150.146C279.752 150.554 280.346 151.13 280.766 151.874C281.198 152.606 281.414 153.452 281.414 154.412C281.414 155.384 281.198 156.242 280.766 156.986C280.346 157.73 279.752 158.306 278.984 158.714C278.228 159.122 277.352 159.326 276.356 159.326C275.348 159.326 274.46 159.122 273.692 158.714C272.924 158.306 272.324 157.73 271.892 156.986C271.472 156.242 271.262 155.384 271.262 154.412C271.262 153.452 271.472 152.606 271.892 151.874C272.324 151.13 272.924 150.554 273.692 150.146C274.46 149.738 275.348 149.534 276.356 149.534ZM276.356 151.532C275.54 151.532 274.88 151.802 274.376 152.342C273.872 152.882 273.62 153.584 273.62 154.448C273.62 155.312 273.872 156.014 274.376 156.554C274.88 157.094 275.54 157.364 276.356 157.364C277.148 157.364 277.796 157.094 278.3 156.554C278.804 156.014 279.056 155.312 279.056 154.448C279.056 153.584 278.804 152.882 278.3 152.342C277.796 151.802 277.148 151.532 276.356 151.532ZM285.786 151.46C286.11 150.836 286.548 150.362 287.1 150.038C287.664 149.702 288.318 149.528 289.062 149.516L289.062 151.784C288.066 151.724 287.268 151.958 286.668 152.486C286.08 153.002 285.786 153.704 285.786 154.592L285.786 159.236L283.446 159.236L283.446 149.606L285.786 149.606L285.786 151.46ZM297.222 159.236L294.612 155.024L293.136 156.572L293.136 159.236L290.796 159.236L290.796 145.88L293.136 145.88L293.136 153.62L297.096 149.624L299.796 149.624L296.232 153.332L300.012 159.236L297.222 159.236ZM307.117 152.216C306.649 151.94 306.163 151.724 305.659 151.568C305.167 151.412 304.711 151.334 304.291 151.334C303.895 151.334 303.577 151.406 303.337 151.55C303.109 151.682 302.995 151.892 302.995 152.18C302.995 152.48 303.139 152.714 303.427 152.882C303.727 153.038 304.195 153.206 304.831 153.386C305.503 153.59 306.055 153.794 306.487 153.998C306.919 154.19 307.291 154.484 307.603 154.88C307.927 155.264 308.089 155.774 308.089 156.41C308.089 157.346 307.729 158.066 307.009 158.57C306.289 159.074 305.383 159.326 304.291 159.326C303.547 159.326 302.821 159.212 302.113 158.984C301.405 158.744 300.805 158.408 300.313 157.976L301.123 156.338C301.555 156.71 302.071 157.004 302.671 157.22C303.271 157.424 303.841 157.526 304.381 157.526C304.813 157.526 305.155 157.454 305.407 157.31C305.671 157.154 305.803 156.926 305.803 156.626C305.803 156.29 305.653 156.038 305.353 155.87C305.053 155.702 304.567 155.516 303.895 155.312C303.247 155.12 302.719 154.934 302.311 154.754C301.903 154.562 301.549 154.28 301.249 153.908C300.949 153.524 300.799 153.026 300.799 152.414C300.799 151.466 301.141 150.746 301.825 150.254C302.521 149.75 303.391 149.498 304.435 149.498C305.071 149.498 305.695 149.588 306.307 149.768C306.931 149.948 307.483 150.2 307.963 150.524L307.117 152.216ZM315.999 149.516C317.103 149.516 317.973 149.852 318.609 150.524C319.245 151.184 319.563 152.084 319.563 153.224L319.563 159.236L317.205 159.236L317.205 153.908C317.205 153.236 317.013 152.708 316.629 152.324C316.245 151.928 315.723 151.73 315.063 151.73C314.283 151.742 313.665 152.006 313.209 152.522C312.753 153.038 312.525 153.698 312.525 154.502L312.525 159.236L310.185 159.236L310.185 145.88L312.525 145.88L312.525 151.442C313.185 150.182 314.343 149.54 315.999 149.516ZM326.4 149.534C327.396 149.534 328.272 149.738 329.028 150.146C329.796 150.554 330.39 151.13 330.81 151.874C331.242 152.606 331.458 153.452 331.458 154.412C331.458 155.384 331.242 156.242 330.81 156.986C330.39 157.73 329.796 158.306 329.028 158.714C328.272 159.122 327.396 159.326 326.4 159.326C325.392 159.326 324.504 159.122 323.736 158.714C322.968 158.306 322.368 157.73 321.936 156.986C321.516 156.242 321.306 155.384 321.306 154.412C321.306 153.452 321.516 152.606 321.936 151.874C322.368 151.13 322.968 150.554 323.736 150.146C324.504 149.738 325.392 149.534 326.4 149.534ZM326.4 151.532C325.584 151.532 324.924 151.802 324.42 152.342C323.916 152.882 323.664 153.584 323.664 154.448C323.664 155.312 323.916 156.014 324.42 156.554C324.924 157.094 325.584 157.364 326.4 157.364C327.192 157.364 327.84 157.094 328.344 156.554C328.848 156.014 329.1 155.312 329.1 154.448C329.1 153.584 328.848 152.882 328.344 152.342C327.84 151.802 327.192 151.532 326.4 151.532ZM339.161 149.534C340.061 149.534 340.853 149.744 341.537 150.164C342.233 150.572 342.767 151.148 343.139 151.892C343.523 152.636 343.715 153.494 343.715 154.466C343.715 155.426 343.529 156.272 343.157 157.004C342.785 157.736 342.257 158.306 341.573 158.714C340.889 159.122 340.097 159.326 339.197 159.326C338.477 159.326 337.841 159.188 337.289 158.912C336.737 158.624 336.281 158.21 335.921 157.67L335.921 162.728L333.581 162.728L333.581 149.606L335.921 149.606L335.921 151.19C336.269 150.65 336.713 150.242 337.253 149.966C337.805 149.678 338.441 149.534 339.161 149.534ZM338.639 157.31C339.431 157.31 340.079 157.04 340.583 156.5C341.087 155.948 341.339 155.246 341.339 154.394C341.339 153.542 341.087 152.846 340.583 152.306C340.079 151.766 339.431 151.496 338.639 151.496C337.835 151.496 337.181 151.766 336.677 152.306C336.173 152.846 335.921 153.542 335.921 154.394C335.921 155.258 336.173 155.96 336.677 156.5C337.181 157.04 337.835 157.31 338.639 157.31ZM351.449 152.216C350.981 151.94 350.495 151.724 349.991 151.568C349.499 151.412 349.043 151.334 348.623 151.334C348.227 151.334 347.909 151.406 347.669 151.55C347.441 151.682 347.327 151.892 347.327 152.18C347.327 152.48 347.471 152.714 347.759 152.882C348.059 153.038 348.527 153.206 349.163 153.386C349.835 153.59 350.387 153.794 350.819 153.998C351.251 154.19 351.623 154.484 351.935 154.88C352.259 155.264 352.421 155.774 352.421 156.41C352.421 157.346 352.061 158.066 351.341 158.57C350.621 159.074 349.715 159.326 348.623 159.326C347.879 159.326 347.153 159.212 346.445 158.984C345.737 158.744 345.137 158.408 344.645 157.976L345.455 156.338C345.887 156.71 346.403 157.004 347.003 157.22C347.603 157.424 348.173 157.526 348.713 157.526C349.145 157.526 349.487 157.454 349.739 157.31C350.003 157.154 350.135 156.926 350.135 156.626C350.135 156.29 349.985 156.038 349.685 155.87C349.385 155.702 348.899 155.516 348.227 155.312C347.579 155.12 347.051 154.934 346.643 154.754C346.235 154.562 345.881 154.28 345.581 153.908C345.281 153.524 345.131 153.026 345.131 152.414C345.131 151.466 345.473 150.746 346.157 150.254C346.853 149.75 347.723 149.498 348.767 149.498C349.403 149.498 350.027 149.588 350.639 149.768C351.263 149.948 351.815 150.2 352.295 150.524L351.449 152.216Z" fill="black"/>
</svg>
