<svg width="123" height="112" viewBox="0 0 123 112" fill="none" xmlns="http://www.w3.org/2000/svg">
<path d="M45.0778 7.5927C55.8221 6.65993 55.7187 17.3841 70.7574 17.7511C85.7962 18.1181 82.6861 31.6248 83.6367 38.2531C84.5874 44.8814 98.7268 52.0377 103.297 57.4184C107.867 62.799 107.929 68.8523 107.142 74.7932C106.355 80.7341 102.124 83.5263 95.7251 83.8978C89.326 84.2692 82.0653 81.1737 80.5378 85.0353C79.0102 88.8969 78.4798 91.3666 73.4896 97.2078C68.4994 103.049 59.2343 99.6138 54.5446 93.7328C51.3336 89.7062 49.4544 83.4574 51.8349 80.8264C54.2154 78.1954 58.8888 76.4199 58.8959 72.0083C58.9071 65.0066 46.1399 74.3654 41.1496 69.4541C37.6314 65.9915 40.2373 61.0464 36.6704 57.634C32.2682 53.4224 26.7243 57.4344 21.3896 54.492C3.42242 44.5819 24.6357 9.36741 45.0778 7.5927Z" fill="#FFC900" stroke="black" stroke-width="2.36215"/>
<path d="M50.7532 49.622C49.5023 48.6757 48.6441 47.3015 48.3427 45.7623C48.0412 44.223 48.3177 42.6267 49.1192 41.2785C49.9207 39.9302 51.191 38.9247 52.6873 38.4542C54.1835 37.9837 55.8007 38.0811 57.2296 38.7279C55.9411 40.6217 54.7307 42.5105 53.7144 44.2505C52.7995 45.8321 51.7922 47.6816 50.7532 49.622Z" fill="#FFC900" stroke="black" stroke-width="2.36215" stroke-miterlimit="10"/>
<path d="M96.8732 72.1945C95.672 74.1804 93.7317 75.6083 91.4784 76.1646C89.2251 76.7208 86.8432 76.3598 84.8559 75.1609C84.6104 75.0137 84.3742 74.8517 84.1484 74.6757C84.3433 74.7934 84.5171 74.8984 84.6823 74.9982C84.8722 75.1167 85.0837 75.1963 85.3045 75.2323C85.5254 75.2683 85.7512 75.2601 85.9689 75.208C86.1865 75.156 86.3917 75.0612 86.5723 74.9291C86.753 74.7971 86.9056 74.6304 87.0213 74.4389L94.3598 62.29C94.5295 62.0102 94.6159 61.6878 94.6086 61.3607C94.6013 61.0335 94.5006 60.7152 94.3186 60.4433C96.165 61.7049 97.4585 63.6254 97.9336 65.8107C98.4086 67.9959 98.0292 70.2801 96.8732 72.1945Z" fill="#FFC900" stroke="black" stroke-width="2.36215" stroke-miterlimit="10"/>
<path d="M94.3606 62.2909L87.017 74.4482C86.9013 74.6397 86.7487 74.8064 86.568 74.9385C86.3873 75.0705 86.1822 75.1653 85.9645 75.2173C85.7469 75.2694 85.521 75.2777 85.3002 75.2416C85.0793 75.2056 84.8678 75.126 84.678 75.0075C84.5127 74.9077 84.339 74.8027 84.144 74.685C84.144 74.685 84.1228 74.6722 84.1101 74.6645C83.0762 74.04 81.6863 73.2004 80.0249 72.2836C78.7255 71.5624 77.2464 70.7556 75.6493 69.9528C66.9176 65.5171 54.6866 60.6796 46.9566 63.4422C46.6399 63.5487 46.2987 63.5587 45.9763 63.4712C45.6539 63.3836 45.3647 63.2023 45.1454 62.9503C44.9261 62.6983 44.7864 62.3869 44.7442 62.0555C44.7019 61.7241 44.759 61.3876 44.9081 61.0886C46.5908 57.6806 48.7114 53.4613 50.7392 49.6255C51.7783 47.6852 52.7856 45.8357 53.7004 44.2541C54.7168 42.5141 55.9272 40.6252 57.2156 38.7315C59.9436 34.7229 62.9831 30.7059 65.0669 28.0318C65.2635 27.7771 65.5289 27.5839 65.8317 27.4749C66.1344 27.366 66.462 27.3459 66.7759 27.4169C67.0897 27.488 67.3767 27.6473 67.6031 27.876C67.8294 28.1047 67.9856 28.3934 68.0534 28.708C69.3924 34.9649 74.4906 47.8767 93.819 59.9799C94.0088 60.0975 94.1732 60.2518 94.3024 60.4339C94.4891 60.7053 94.5939 61.0246 94.6042 61.3538C94.6145 61.6831 94.5299 62.0083 94.3606 62.2909Z" fill="#FFC900" stroke="black" stroke-width="2.36215" stroke-miterlimit="10"/>
<path d="M64.678 90.5305C63.4379 89.9571 62.2697 89.2398 61.1974 88.3934C59.1851 86.7267 59.4333 83.7593 61.7231 82.9273C67.2587 80.9154 73.2748 74.058 76.2787 70.3202C78.0453 71.2254 79.6855 72.1294 81.1502 72.9505C77.7395 79.3054 71.6159 86.6185 68.7534 89.8923C68.2365 90.4283 67.5586 90.7808 66.8229 90.896C66.0872 91.0113 65.334 90.8829 64.678 90.5305Z" fill="#FFC900" stroke="black" stroke-width="2.36215" stroke-miterlimit="10"/>
<path d="M69.7109 66.9941C69.3396 69.698 68.3909 72.2294 71.4684 75.5744L69.7109 66.9941Z" fill="#FFC900"/>
<path d="M69.7109 66.9941C69.3396 69.698 68.3909 72.2294 71.4684 75.5744" stroke="black" stroke-width="2.36215" stroke-miterlimit="10"/>
<path d="M45.8652 19.9541L47.84 27.9543" stroke="black" stroke-width="2.36215" stroke-miterlimit="10" stroke-linecap="round"/>
<path d="M36.3301 25.5479L41.5027 31.969" stroke="black" stroke-width="2.36215" stroke-miterlimit="10" stroke-linecap="round"/>
<path d="M30.0527 34.6486L37.4538 38.2806" stroke="black" stroke-width="2.36215" stroke-miterlimit="10" stroke-linecap="round"/>
<path d="M28.2155 45.5513L36.4581 45.7125" stroke="black" stroke-width="2.36215" stroke-miterlimit="10" stroke-linecap="round"/>
</svg>
