<svg width="144" height="130" viewBox="0 0 144 130" fill="none" xmlns="http://www.w3.org/2000/svg">
<path d="M-0.0222158 118.335C-7.18118 113.247 -6.16098 105.399 -1.14935 96.0433C0.740693 92.2518 5.13585 81.5961 2.62874 78.8908C-8.17219 59.0596 8.83185 39.4427 30.6401 44.1955C41.099 20.6661 59.8928 24.4015 67.9824 29.2104C82.413 8.49389 105.095 27.8219 105.103 34.9262C105.111 42.0305 113.934 46.3078 122.634 48.5029C131.333 50.698 147.643 68.3182 136.866 69.8001C126.089 71.2819 99.2739 80.6208 94.751 88.8325C90.228 97.0443 67.6986 104.664 48.1013 105.42C28.5041 106.177 8.92649 124.694 -0.0222158 118.335Z" fill="#FE6263" stroke="black" stroke-width="2"/>
<path d="M98.844 75.592L40.109 99.1617C39.7542 96.9435 39.6297 94.6955 39.7374 92.4542C39.9651 87.7506 41.1931 83.1571 43.3383 78.9838C43.5325 78.6062 43.7339 78.2351 43.9429 77.8656C46.0573 74.1274 48.886 70.8501 52.2669 68.2212C52.873 67.7378 53.505 67.288 54.16 66.8739C54.8001 66.486 55.5272 66.124 55.6146 65.2953C55.7102 64.4236 55.0505 63.67 54.2961 63.3337C53.5416 62.9973 52.7261 63.0694 51.9205 62.9409C51.1071 62.8068 50.3051 62.6081 49.5221 62.3466C47.9511 61.8278 46.4778 61.044 45.1652 60.0288C43.1406 58.463 41.5614 56.3873 40.5887 54.0135C39.616 51.6397 39.2846 49.0526 39.6282 46.516C39.9719 43.9794 40.9783 41.5841 42.5449 39.5743C44.1114 37.5645 46.1821 36.0121 48.5458 35.0754C50.9095 34.1387 53.4816 33.8512 55.9998 34.2422C58.518 34.6333 60.8923 35.6889 62.8806 37.3013C64.8688 38.9138 66.3999 41.0255 67.3177 43.4211C68.2355 45.8167 68.5071 48.4105 68.105 50.938C67.9016 52.2372 67.5248 53.5018 66.985 54.6976C66.7074 55.2969 66.3938 55.8785 66.0459 56.4392C65.2905 57.6787 63.6456 58.5518 63.7826 60.194C63.861 61.1293 64.5327 62.0631 65.472 62.2128C66.4871 62.372 67.4084 61.9157 68.3935 61.7919C69.6533 61.6543 70.9204 61.5883 72.1885 61.594C74.7158 61.5483 77.2408 61.82 79.7052 62.4027C79.7709 62.4161 79.8354 62.4324 79.9 62.4486C84.4842 63.6092 88.7713 65.7512 92.4681 68.7283C94.9095 70.6966 97.057 73.0084 98.844 75.592Z" stroke="black" stroke-width="2" stroke-miterlimit="10"/>
<path d="M127.084 64.259L99.7636 75.2223C99.5048 75.3266 99.2185 75.3414 98.9495 75.2642C98.6804 75.187 98.4439 75.0223 98.277 74.7959C96.6129 72.5309 94.6645 70.4917 92.4808 68.7295C88.7841 65.7524 84.497 63.6103 79.9127 62.4498C79.8482 62.4335 79.7837 62.4173 79.718 62.4039C81.1654 60.6564 82.7992 59.0745 84.5902 57.6864C85.1722 57.2176 85.7814 56.7839 86.4146 56.3878C87.0324 56.0135 87.7346 55.6591 87.8246 54.8598C87.9167 54.0199 87.2804 53.2898 86.5528 52.9684C85.8253 52.647 85.0373 52.7127 84.2622 52.5907C83.4756 52.4622 82.7001 52.27 81.9435 52.016C79.2709 51.1337 76.9228 49.4564 75.2105 47.2064C73.4982 44.9564 72.5025 42.24 72.3555 39.4172C72.2085 36.5944 72.9171 33.7987 74.3873 31.4005C75.8575 29.0024 78.0199 27.1152 80.5879 25.989C83.1559 24.8629 86.0081 24.5511 88.7665 25.0948C91.5248 25.6386 94.0591 27.0123 96.0332 29.0338C98.0073 31.0554 99.328 33.6293 99.8203 36.4143C100.313 39.1993 99.9533 42.0639 98.7898 44.6283C98.5243 45.2078 98.2229 45.7697 97.8874 46.3108C97.159 47.502 95.5696 48.3458 95.7023 49.9312C95.7802 50.8363 96.4257 51.7337 97.3326 51.8778C98.3084 52.0316 99.203 51.5954 100.151 51.4724C101.369 51.3394 102.594 51.2769 103.821 51.2851C106.327 51.2389 108.83 51.5166 111.27 52.1114C115.693 53.2303 119.828 55.2978 123.393 58.1718C124.909 59.3916 126.309 60.7508 127.574 62.2316C127.708 62.3866 127.803 62.5715 127.852 62.7708C127.9 62.9701 127.9 63.1778 127.852 63.3765C127.804 63.5753 127.709 63.7592 127.576 63.9128C127.442 64.0663 127.273 64.1851 127.084 64.259V64.259Z" stroke="black" stroke-width="2" stroke-miterlimit="10"/>
<path d="M42.6698 77.6837C42.8112 77.6994 42.9467 77.7501 43.0643 77.8312C43.1819 77.9123 43.2779 78.0213 43.3439 78.1484C43.4098 78.2755 43.4436 78.4169 43.4423 78.56C43.4409 78.703 43.4044 78.8433 43.3361 78.9683L43.3261 78.9723C41.1809 83.1456 39.9529 87.7391 39.7252 92.4427C39.6316 94.4525 39.7243 96.4679 40.0018 98.4627C40.0299 98.6576 39.9926 98.8559 39.8957 99.0262C39.7989 99.1966 39.6481 99.3291 39.4673 99.4028L8.49423 111.832C8.36742 111.885 8.22959 111.907 8.09227 111.896C7.95496 111.884 7.82214 111.84 7.70495 111.766C7.58776 111.693 7.4896 111.592 7.41868 111.473C7.34776 111.354 7.30614 111.219 7.29732 111.081C7.19928 109.802 7.18026 108.519 7.24038 107.239C7.45743 102.685 8.65016 98.2377 10.7369 94.2023C12.8236 90.1669 15.755 86.6386 19.3303 83.8588C19.9123 83.39 20.5215 82.9563 21.1547 82.5602C21.7725 82.1859 22.4748 81.8315 22.5647 81.0323C22.6568 80.1923 22.0205 79.4622 21.2929 79.1408C20.5654 78.8194 19.7774 78.8851 19.0023 78.7631C18.2157 78.6346 17.4402 78.4424 16.6836 78.1884C14.0109 77.3057 11.6628 75.6279 9.95074 73.3774C8.23867 71.1269 7.24347 68.4099 7.09709 65.5869C6.95071 62.7638 7.66009 59.968 9.13113 57.5701C10.6022 55.1722 12.7654 53.2854 15.334 52.1601C17.9026 51.0348 20.7552 50.7239 23.5136 51.2689C26.2721 51.8138 28.8059 53.1887 30.7793 55.2113C32.7527 57.2339 34.0724 59.8087 34.5633 62.5942C35.0543 65.3797 34.6933 68.2444 33.5284 70.8084C33.2628 71.3878 32.9614 71.9498 32.6259 72.4909C31.9007 73.6901 30.3154 74.5323 30.4561 76.1145C30.5359 77.0188 31.1794 77.917 32.0864 78.0611C33.0622 78.2149 33.9567 77.7787 34.905 77.6557C37.4881 77.3984 40.0921 77.406 42.677 77.6784L42.6698 77.6837Z" stroke="black" stroke-width="2" stroke-miterlimit="10"/>
<path d="M16.3166 108.708C16.3166 108.708 12.7823 101.404 15.9683 91.8081" stroke="black" stroke-width="2" stroke-linecap="round" stroke-linejoin="round"/>
<path d="M119.008 67.4998C117.891 64.8374 116.174 62.4702 113.993 60.5864C111.812 58.7026 109.228 57.3542 106.445 56.6484" stroke="black" stroke-width="2" stroke-linecap="round" stroke-linejoin="round"/>
</svg>
