<svg width="443" height="281" viewBox="0 0 443 281" fill="none" xmlns="http://www.w3.org/2000/svg">
<g filter="url(#filter0_d_921_1079)">
<mask id="path-1-inside-1_921_1079" fill="white">
<path fill-rule="evenodd" clip-rule="evenodd" d="M371.607 24H71.3933C71.3933 36.9197 60.9197 47.3932 48 47.3932V91.8404C60.9197 91.8404 71.3933 102.314 71.3933 115.234C71.3933 128.153 60.9197 138.627 48 138.627V185.413C60.9197 185.413 71.3933 195.887 71.3933 208.807H371.607C371.607 195.887 382.08 185.413 395 185.413V138.627C382.08 138.627 371.607 128.153 371.607 115.234C371.607 102.314 382.08 91.8404 395 91.8404V47.3932C382.08 47.3932 371.607 36.9197 371.607 24Z"/>
</mask>
<path fill-rule="evenodd" clip-rule="evenodd" d="M371.607 24H71.3933C71.3933 36.9197 60.9197 47.3932 48 47.3932V91.8404C60.9197 91.8404 71.3933 102.314 71.3933 115.234C71.3933 128.153 60.9197 138.627 48 138.627V185.413C60.9197 185.413 71.3933 195.887 71.3933 208.807H371.607C371.607 195.887 382.08 185.413 395 185.413V138.627C382.08 138.627 371.607 128.153 371.607 115.234C371.607 102.314 382.08 91.8404 395 91.8404V47.3932C382.08 47.3932 371.607 36.9197 371.607 24Z" fill="#27094B"/>
<path d="M71.3933 24V23H70.3933V24H71.3933ZM371.607 24H372.607V23H371.607V24ZM48 47.3932V46.3932H47V47.3932H48ZM48 91.8404H47V92.8404H48V91.8404ZM48 138.627V137.627H47V138.627H48ZM48 185.413H47V186.413H48V185.413ZM71.3933 208.807H70.3933V209.807H71.3933V208.807ZM371.607 208.807V209.807H372.607V208.807H371.607ZM395 185.413V186.413H396V185.413H395ZM395 138.627H396V137.627H395V138.627ZM395 91.8404V92.8404H396V91.8404H395ZM395 47.3932H396V46.3932H395V47.3932ZM71.3933 25H371.607V23H71.3933V25ZM48 48.3932C61.472 48.3932 72.3933 37.472 72.3933 24H70.3933C70.3933 36.3675 60.3675 46.3932 48 46.3932V48.3932ZM49 91.8404V47.3932H47V91.8404H49ZM72.3933 115.234C72.3933 101.762 61.472 90.8404 48 90.8404V92.8404C60.3675 92.8404 70.3933 102.866 70.3933 115.234H72.3933ZM48 139.627C61.472 139.627 72.3933 128.706 72.3933 115.234H70.3933C70.3933 127.601 60.3675 137.627 48 137.627V139.627ZM49 185.413V138.627H47V185.413H49ZM72.3933 208.807C72.3933 195.335 61.472 184.413 48 184.413V186.413C60.3675 186.413 70.3933 196.439 70.3933 208.807H72.3933ZM371.607 207.807H71.3933V209.807H371.607V207.807ZM372.607 208.807C372.607 196.439 382.632 186.413 395 186.413V184.413C381.528 184.413 370.607 195.335 370.607 208.807H372.607ZM394 138.627V185.413H396V138.627H394ZM370.607 115.234C370.607 128.706 381.528 139.627 395 139.627V137.627C382.632 137.627 372.607 127.601 372.607 115.234H370.607ZM395 90.8404C381.528 90.8404 370.607 101.762 370.607 115.234H372.607C372.607 102.866 382.632 92.8404 395 92.8404V90.8404ZM394 47.3932V91.8404H396V47.3932H394ZM370.607 24C370.607 37.472 381.528 48.3932 395 48.3932V46.3932C382.632 46.3932 372.607 36.3675 372.607 24H370.607Z" fill="#6F5700" mask="url(#path-1-inside-1_921_1079)"/>
</g>
<rect x="106.5" y="47.4033" width="231" height="136" stroke="#6F5700"/>
<path d="M90.8867 41.1553V192.432M352.891 41.1553V192.432" stroke="#6F5700" stroke-width="2" stroke-dasharray="6 10"/>
<path d="M193.487 159V158.02H195.741V150.516L193.963 151.636L193.473 150.782L196.063 149.13H196.889V158.02H199.003V159H193.487ZM209.229 159.126C208.259 159.126 207.428 158.921 206.737 158.51C206.047 158.099 205.515 157.516 205.141 156.76C204.777 156.004 204.595 155.103 204.595 154.058C204.595 153.022 204.777 152.126 205.141 151.37C205.515 150.614 206.047 150.031 206.737 149.62C207.428 149.209 208.259 149.004 209.229 149.004C209.911 149.004 210.536 149.111 211.105 149.326C211.684 149.541 212.174 149.853 212.575 150.264L212.127 151.202C211.698 150.801 211.25 150.511 210.783 150.334C210.326 150.147 209.817 150.054 209.257 150.054C208.147 150.054 207.297 150.404 206.709 151.104C206.121 151.804 205.827 152.789 205.827 154.058C205.827 155.337 206.121 156.326 206.709 157.026C207.297 157.726 208.147 158.076 209.257 158.076C209.817 158.076 210.326 157.987 210.783 157.81C211.25 157.623 211.698 157.329 212.127 156.928L212.575 157.866C212.174 158.267 211.684 158.58 211.105 158.804C210.536 159.019 209.911 159.126 209.229 159.126ZM216.561 159.126C215.898 159.126 215.324 158.981 214.839 158.692C214.354 158.403 213.976 157.997 213.705 157.474C213.444 156.942 213.313 156.317 213.313 155.598C213.313 154.879 213.444 154.259 213.705 153.736C213.976 153.204 214.354 152.793 214.839 152.504C215.324 152.215 215.898 152.07 216.561 152.07C217.214 152.07 217.784 152.215 218.269 152.504C218.764 152.793 219.142 153.204 219.403 153.736C219.674 154.259 219.809 154.879 219.809 155.598C219.809 156.317 219.674 156.942 219.403 157.474C219.142 157.997 218.764 158.403 218.269 158.692C217.784 158.981 217.214 159.126 216.561 159.126ZM216.561 158.216C217.196 158.216 217.704 157.992 218.087 157.544C218.47 157.087 218.661 156.438 218.661 155.598C218.661 154.749 218.47 154.1 218.087 153.652C217.704 153.204 217.196 152.98 216.561 152.98C215.917 152.98 215.404 153.204 215.021 153.652C214.648 154.1 214.461 154.749 214.461 155.598C214.461 156.438 214.648 157.087 215.021 157.544C215.404 157.992 215.917 158.216 216.561 158.216ZM221.512 159V152.196H222.618V153.358C222.842 152.929 223.16 152.607 223.57 152.392C223.981 152.177 224.443 152.07 224.956 152.07C226.571 152.07 227.378 152.966 227.378 154.758V159H226.244V154.828C226.244 154.193 226.118 153.731 225.866 153.442C225.624 153.143 225.232 152.994 224.69 152.994C224.065 152.994 223.566 153.19 223.192 153.582C222.828 153.965 222.646 154.478 222.646 155.122V159H221.512ZM232.199 159.126C231.397 159.126 230.795 158.916 230.393 158.496C229.992 158.067 229.791 157.451 229.791 156.648V153.078H228.461V152.196H229.791V150.11H230.925V152.196H233.081V153.078H230.925V156.536C230.925 157.068 231.037 157.474 231.261 157.754C231.485 158.025 231.849 158.16 232.353 158.16C232.503 158.16 232.652 158.141 232.801 158.104C232.951 158.067 233.086 158.029 233.207 157.992L233.403 158.86C233.282 158.925 233.105 158.986 232.871 159.042C232.638 159.098 232.414 159.126 232.199 159.126ZM237.361 159.126C236.288 159.126 235.439 158.813 234.813 158.188C234.188 157.553 233.875 156.695 233.875 155.612C233.875 154.912 234.015 154.296 234.295 153.764C234.575 153.223 234.958 152.807 235.443 152.518C235.938 152.219 236.507 152.07 237.151 152.07C238.075 152.07 238.799 152.369 239.321 152.966C239.844 153.554 240.105 154.366 240.105 155.402V155.836H234.981C235.019 156.611 235.243 157.203 235.653 157.614C236.064 158.015 236.633 158.216 237.361 158.216C237.772 158.216 238.164 158.155 238.537 158.034C238.911 157.903 239.265 157.693 239.601 157.404L239.993 158.202C239.685 158.491 239.293 158.72 238.817 158.888C238.341 159.047 237.856 159.126 237.361 159.126ZM237.179 152.91C236.535 152.91 236.027 153.111 235.653 153.512C235.28 153.913 235.061 154.441 234.995 155.094H239.125C239.097 154.403 238.915 153.867 238.579 153.484C238.253 153.101 237.786 152.91 237.179 152.91ZM244.043 159.126C243.511 159.126 243.007 159.051 242.531 158.902C242.055 158.753 241.663 158.543 241.355 158.272L241.719 157.474C242.055 157.745 242.423 157.945 242.825 158.076C243.235 158.197 243.651 158.258 244.071 158.258C244.603 158.258 245.004 158.16 245.275 157.964C245.545 157.768 245.681 157.502 245.681 157.166C245.681 156.905 245.592 156.699 245.415 156.55C245.237 156.391 244.957 156.27 244.575 156.186L243.301 155.906C242.143 155.654 241.565 155.057 241.565 154.114C241.565 153.498 241.807 153.003 242.293 152.63C242.787 152.257 243.431 152.07 244.225 152.07C244.691 152.07 245.135 152.145 245.555 152.294C245.984 152.434 246.339 152.644 246.619 152.924L246.241 153.722C245.97 153.47 245.653 153.279 245.289 153.148C244.934 153.008 244.579 152.938 244.225 152.938C243.702 152.938 243.305 153.041 243.035 153.246C242.764 153.451 242.629 153.722 242.629 154.058C242.629 154.581 242.974 154.917 243.665 155.066L244.939 155.332C245.536 155.463 245.989 155.673 246.297 155.962C246.605 156.242 246.759 156.625 246.759 157.11C246.759 157.735 246.511 158.23 246.017 158.594C245.522 158.949 244.864 159.126 244.043 159.126ZM251.148 159.126C250.346 159.126 249.744 158.916 249.342 158.496C248.941 158.067 248.74 157.451 248.74 156.648V153.078H247.41V152.196H248.74V150.11H249.874V152.196H252.03V153.078H249.874V156.536C249.874 157.068 249.986 157.474 250.21 157.754C250.434 158.025 250.798 158.16 251.302 158.16C251.452 158.16 251.601 158.141 251.75 158.104C251.9 158.067 252.035 158.029 252.156 157.992L252.352 158.86C252.231 158.925 252.054 158.986 251.82 159.042C251.587 159.098 251.363 159.126 251.148 159.126Z" fill="white"/>
<path d="M169.539 75.1953C170.516 75.1953 171.484 75.1914 172.445 75.1836C173.414 75.1758 174.301 75.168 175.105 75.1602C175.91 75.1445 176.598 75.125 177.168 75.1016C177.738 75.0781 178.125 75.0469 178.328 75.0078L177.754 76.5664C177.496 76.4961 177.195 76.4336 176.852 76.3789C176.555 76.332 176.191 76.2891 175.762 76.25C175.34 76.2031 174.852 76.1797 174.297 76.1797C174.109 76.1797 173.883 76.1875 173.617 76.2031C173.359 76.2109 173.109 76.2227 172.867 76.2383C172.586 76.2539 172.301 76.2695 172.012 76.2852V82.6836C172.816 82.6758 173.543 82.6523 174.191 82.6133C174.84 82.5742 175.391 82.5352 175.844 82.4961C176.375 82.4492 176.844 82.3945 177.25 82.332L176.887 84.0312C176.348 83.9609 175.797 83.8945 175.234 83.832C174.75 83.7773 174.223 83.7305 173.652 83.6914C173.082 83.6445 172.535 83.6211 172.012 83.6211V90.9688C172.934 90.9688 173.781 90.9297 174.555 90.8516C175.328 90.7734 176.004 90.6836 176.582 90.582C177.254 90.4727 177.867 90.3438 178.422 90.1953L178.082 92.0938C177.988 92.0859 177.848 92.0781 177.66 92.0703C177.473 92.0625 177.262 92.0547 177.027 92.0469C176.801 92.0391 176.559 92.0312 176.301 92.0234C176.051 92.0234 175.812 92.0195 175.586 92.0117C175.359 92.0117 175.156 92.0078 174.977 92C174.805 92 174.68 92 174.602 92H169.539V91.9531C169.586 91.7891 169.629 91.5859 169.668 91.3438C169.715 91.1016 169.754 90.8008 169.785 90.4414C169.816 90.082 169.84 89.6562 169.855 89.1641C169.871 88.6641 169.879 88.082 169.879 87.418V79.7891C169.879 79.125 169.871 78.5469 169.855 78.0547C169.84 77.5547 169.816 77.125 169.785 76.7656C169.754 76.3984 169.715 76.0938 169.668 75.8516C169.629 75.6094 169.586 75.4062 169.539 75.2422V75.1953ZM182.535 80V80.0469C182.52 80.0859 182.508 80.1445 182.5 80.2227C182.492 80.3008 182.488 80.3711 182.488 80.4336C182.488 80.6758 182.523 80.9453 182.594 81.2422C182.664 81.5312 182.789 81.8945 182.969 82.332L185.77 89L188.605 82.4258C188.723 82.1367 188.848 81.8203 188.98 81.4766C189.113 81.1328 189.18 80.7852 189.18 80.4336C189.18 80.332 189.172 80.25 189.156 80.1875C189.141 80.1172 189.125 80.0703 189.109 80.0469V80H191.219V80.0469C191.078 80.1953 190.898 80.4609 190.68 80.8438C190.469 81.2188 190.242 81.6914 190 82.2617L185.676 92.1641H184.984L180.977 82.8359C180.836 82.4922 180.684 82.1641 180.52 81.8516C180.363 81.5312 180.211 81.2461 180.062 80.9961C179.922 80.7461 179.797 80.5391 179.688 80.375C179.578 80.2031 179.504 80.0938 179.465 80.0469V80H182.535ZM198.121 92.2109C197.254 92.2109 196.441 92.0742 195.684 91.8008C194.926 91.5273 194.266 91.1289 193.703 90.6055C193.141 90.0742 192.695 89.4219 192.367 88.6484C192.047 87.8672 191.887 86.9766 191.887 85.9766C191.887 85.0938 192.035 84.2773 192.332 83.5273C192.629 82.7695 193.039 82.1133 193.562 81.5586C194.086 81.0039 194.695 80.5703 195.391 80.2578C196.094 79.9453 196.852 79.7891 197.664 79.7891C198.469 79.7891 199.215 79.9297 199.902 80.2109C200.59 80.4844 201.184 80.8867 201.684 81.418C202.191 81.9414 202.59 82.5938 202.879 83.375C203.176 84.1484 203.336 85.0312 203.359 86.0234C202.477 86.0078 201.594 85.9961 200.711 85.9883C199.828 85.9805 198.91 85.9766 197.957 85.9766C197.277 85.9766 196.613 85.9805 195.965 85.9883C195.324 85.9961 194.746 86.0078 194.23 86.0234C194.277 86.8359 194.402 87.5703 194.605 88.2266C194.816 88.8828 195.102 89.4453 195.461 89.9141C195.828 90.375 196.27 90.7305 196.785 90.9805C197.309 91.2305 197.898 91.3555 198.555 91.3555C199.008 91.3555 199.434 91.3047 199.832 91.2031C200.238 91.0938 200.605 90.9453 200.934 90.7578C201.262 90.5703 201.555 90.3516 201.812 90.1016C202.07 89.8438 202.289 89.5664 202.469 89.2695L202.609 89.3398L201.742 91.4258C201.32 91.6445 200.816 91.832 200.23 91.9883C199.645 92.1367 198.941 92.2109 198.121 92.2109ZM196.562 85.0625C197.344 85.0625 198.125 85.0625 198.906 85.0625C199.695 85.0547 200.41 85.0391 201.051 85.0156C200.98 84.3359 200.848 83.7266 200.652 83.1875C200.457 82.6484 200.207 82.1914 199.902 81.8164C199.598 81.4414 199.238 81.1523 198.824 80.9492C198.41 80.7461 197.953 80.6445 197.453 80.6445C197 80.6445 196.582 80.7461 196.199 80.9492C195.824 81.1445 195.496 81.4297 195.215 81.8047C194.934 82.1797 194.707 82.6406 194.535 83.1875C194.363 83.7266 194.262 84.3438 194.23 85.0391C194.582 85.0547 194.953 85.0625 195.344 85.0625C195.734 85.0625 196.141 85.0625 196.562 85.0625ZM213.941 84.1016C213.941 83.0703 213.734 82.3125 213.32 81.8281C212.906 81.3438 212.352 81.1016 211.656 81.1016C211.406 81.1016 211.125 81.1562 210.812 81.2656C210.5 81.3672 210.18 81.5078 209.852 81.6875C209.523 81.8594 209.195 82.0625 208.867 82.2969C208.539 82.5312 208.23 82.7812 207.941 83.0469L207.918 84.582V87.418C207.918 88.082 207.926 88.6641 207.941 89.1641C207.957 89.6562 207.98 90.082 208.012 90.4414C208.043 90.8008 208.078 91.1016 208.117 91.3438C208.156 91.5859 208.199 91.7891 208.246 91.9531V92H205.539V91.9531C205.586 91.7891 205.629 91.5859 205.668 91.3438C205.715 91.1016 205.75 90.8008 205.773 90.4414C205.805 90.082 205.828 89.6562 205.844 89.1641C205.867 88.6641 205.879 88.082 205.879 87.418V84.582C205.879 83.918 205.867 83.3398 205.844 82.8477C205.828 82.3477 205.805 81.918 205.773 81.5586C205.75 81.1992 205.715 80.8984 205.668 80.6562C205.629 80.4141 205.586 80.2109 205.539 80.0469V80H208.246V80.0469C208.184 80.2422 208.133 80.4922 208.094 80.7969C208.062 81.0938 208.027 81.4844 207.988 81.9688C208.309 81.7031 208.652 81.4375 209.02 81.1719C209.395 80.9062 209.781 80.6719 210.18 80.4688C210.578 80.2578 210.984 80.0898 211.398 79.9648C211.812 79.832 212.219 79.7656 212.617 79.7656C213.227 79.7656 213.742 79.8711 214.164 80.082C214.594 80.293 214.941 80.5703 215.207 80.9141C215.48 81.2578 215.676 81.6523 215.793 82.0977C215.918 82.5352 215.98 82.9805 215.98 83.4336V87.418C215.98 88.082 215.988 88.6641 216.004 89.1641C216.02 89.6562 216.043 90.082 216.074 90.4414C216.105 90.8008 216.141 91.1016 216.18 91.3438C216.219 91.5859 216.262 91.7891 216.309 91.9531V92H213.602V91.9531C213.648 91.7891 213.691 91.5859 213.73 91.3438C213.777 91.1016 213.812 90.8008 213.836 90.4414C213.867 90.082 213.891 89.6562 213.906 89.1641C213.93 88.6641 213.941 88.082 213.941 87.418V84.1016ZM223.762 91.3086C223.996 91.3086 224.227 91.2656 224.453 91.1797C224.688 91.0938 224.91 90.9766 225.121 90.8281C225.34 90.6797 225.547 90.5117 225.742 90.3242C225.945 90.1289 226.133 89.9258 226.305 89.7148L226.422 89.7734L225.66 91.6602C225.566 91.707 225.449 91.7656 225.309 91.8359C225.176 91.8984 225.012 91.957 224.816 92.0117C224.629 92.0742 224.406 92.125 224.148 92.1641C223.891 92.2109 223.586 92.2344 223.234 92.2344C222.188 92.2344 221.371 91.9531 220.785 91.3906C220.207 90.8203 219.918 89.9336 219.918 88.7305V80.9141L217.949 80.9844V79.9531C218.191 79.9688 218.48 79.9805 218.816 79.9883C219.152 79.9961 219.52 80 219.918 80C219.91 79.4453 219.895 78.957 219.871 78.5352C219.855 78.1055 219.832 77.7344 219.801 77.4219C219.777 77.1016 219.746 76.832 219.707 76.6133C219.668 76.3945 219.629 76.2109 219.59 76.0625V76.0156H222.297V76.0625C222.25 76.2109 222.207 76.3945 222.168 76.6133C222.129 76.832 222.094 77.0977 222.062 77.4102C222.039 77.7227 222.016 78.0938 221.992 78.5234C221.977 78.9453 221.965 79.4375 221.957 80C222.449 79.9922 222.93 79.9844 223.398 79.9766C223.875 79.9609 224.305 79.9453 224.688 79.9297C225.078 79.9062 225.406 79.8867 225.672 79.8711C225.945 79.8477 226.125 79.8281 226.211 79.8125L226 81.0078C225.602 81 225.184 80.9883 224.746 80.9727C224.371 80.957 223.941 80.9453 223.457 80.9375C222.973 80.9297 222.473 80.9219 221.957 80.9141V88.9766C221.957 89.4609 222.008 89.8555 222.109 90.1602C222.219 90.457 222.355 90.6914 222.52 90.8633C222.691 91.0352 222.883 91.1523 223.094 91.2148C223.312 91.2773 223.535 91.3086 223.762 91.3086ZM238.27 84.5586C239.035 84.6992 239.734 84.7148 240.367 84.6055C241.008 84.4883 241.555 84.2461 242.008 83.8789C242.469 83.5039 242.824 83 243.074 82.3672C243.332 81.7344 243.461 80.9609 243.461 80.0469C243.461 79.4141 243.395 78.8398 243.262 78.3242C243.129 77.8008 242.93 77.3594 242.664 77C242.406 76.6328 242.078 76.3516 241.68 76.1562C241.281 75.9531 240.816 75.8516 240.285 75.8516C239.949 75.8516 239.656 75.8672 239.406 75.8984C239.156 75.9219 238.945 75.9492 238.773 75.9805C238.57 76.0195 238.402 76.0625 238.27 76.1094V84.5586ZM235.797 75.1953C235.953 75.2109 236.117 75.2266 236.289 75.2422C236.438 75.2578 236.602 75.2695 236.781 75.2773C236.969 75.2773 237.16 75.2773 237.355 75.2773C237.66 75.2773 238.07 75.2422 238.586 75.1719C239.109 75.0938 239.773 75.0547 240.578 75.0547C241.328 75.0547 242.02 75.1641 242.652 75.3828C243.293 75.6016 243.848 75.9219 244.316 76.3438C244.785 76.7656 245.148 77.2812 245.406 77.8906C245.672 78.4922 245.805 79.1797 245.805 79.9531C245.805 80.9922 245.598 81.8906 245.184 82.6484C244.77 83.4062 244.215 84.0195 243.52 84.4883C242.824 84.957 242.023 85.2773 241.117 85.4492C240.211 85.6133 239.262 85.6211 238.27 85.4727V87.418C238.27 88.082 238.277 88.6641 238.293 89.1641C238.316 89.6562 238.34 90.082 238.363 90.4414C238.395 90.8008 238.43 91.1016 238.469 91.3438C238.516 91.5859 238.562 91.7891 238.609 91.9531V92H235.797V91.9531C235.844 91.7891 235.887 91.5859 235.926 91.3438C235.973 91.1016 236.012 90.8008 236.043 90.4414C236.074 90.082 236.098 89.6562 236.113 89.1641C236.129 88.6641 236.137 88.082 236.137 87.418V79.7891C236.137 79.125 236.129 78.5469 236.113 78.0547C236.098 77.5547 236.074 77.125 236.043 76.7656C236.012 76.3984 235.973 76.0938 235.926 75.8516C235.887 75.6094 235.844 75.4062 235.797 75.2422V75.1953ZM246.566 88.543C246.566 87.9258 246.691 87.3906 246.941 86.9375C247.199 86.4844 247.539 86.0977 247.961 85.7773C248.383 85.457 248.863 85.1992 249.402 85.0039C249.941 84.8008 250.5 84.6445 251.078 84.5352C251.656 84.418 252.227 84.3398 252.789 84.3008C253.352 84.2539 253.867 84.2266 254.336 84.2188V83.6211C254.336 83.1055 254.27 82.6602 254.137 82.2852C254.004 81.9102 253.816 81.6016 253.574 81.3594C253.332 81.1094 253.039 80.9258 252.695 80.8086C252.359 80.6836 251.988 80.6211 251.582 80.6211C251.301 80.6211 251.023 80.6445 250.75 80.6914C250.477 80.7383 250.191 80.8164 249.895 80.9258C249.605 81.0352 249.297 81.1836 248.969 81.3711C248.648 81.5586 248.301 81.7969 247.926 82.0859L247.809 82.0156L248.605 80.3633C248.863 80.2461 249.117 80.1523 249.367 80.082C249.617 80.0039 249.871 79.9414 250.129 79.8945C250.387 79.8477 250.648 79.8164 250.914 79.8008C251.188 79.7773 251.473 79.7656 251.77 79.7656C252.59 79.7656 253.289 79.8672 253.867 80.0703C254.453 80.2656 254.93 80.5391 255.297 80.8906C255.672 81.2344 255.945 81.6406 256.117 82.1094C256.289 82.5703 256.375 83.0664 256.375 83.5977V87.418C256.375 88.082 256.383 88.6641 256.398 89.1641C256.422 89.6562 256.445 90.082 256.469 90.4414C256.5 90.8008 256.535 91.1016 256.574 91.3438C256.621 91.5859 256.668 91.7891 256.715 91.9531V92H254.125V91.9531C254.164 91.8281 254.191 91.6875 254.207 91.5312C254.23 91.375 254.25 91.1875 254.266 90.9688C254.102 91.1094 253.906 91.2539 253.68 91.4023C253.461 91.5508 253.207 91.6875 252.918 91.8125C252.637 91.9297 252.32 92.0234 251.969 92.0938C251.625 92.1719 251.246 92.2109 250.832 92.2109C249.473 92.2109 248.422 91.8945 247.68 91.2617C246.938 90.6211 246.566 89.7148 246.566 88.543ZM254.336 85.1328C253.625 85.1406 252.941 85.1836 252.285 85.2617C251.629 85.332 251.047 85.4844 250.539 85.7188C250.039 85.9531 249.637 86.2891 249.332 86.7266C249.035 87.1562 248.887 87.7305 248.887 88.4492C248.887 89.3711 249.117 90.0742 249.578 90.5586C250.039 91.043 250.676 91.2852 251.488 91.2852C251.863 91.2852 252.203 91.2344 252.508 91.1328C252.82 91.0234 253.094 90.8906 253.328 90.7344C253.57 90.5703 253.773 90.3945 253.938 90.207C254.102 90.0117 254.227 89.8242 254.312 89.6445C254.328 89.3477 254.336 89.0195 254.336 88.6602C254.336 88.293 254.336 87.8789 254.336 87.418V85.1328ZM265.223 82.3555L265.059 82.3789C265.004 82.1992 264.914 82.0078 264.789 81.8047C264.672 81.6016 264.516 81.4141 264.32 81.2422C264.133 81.0703 263.902 80.9297 263.629 80.8203C263.363 80.7031 263.055 80.6445 262.703 80.6445C262.461 80.6445 262.23 80.6797 262.012 80.75C261.801 80.8203 261.613 80.9258 261.449 81.0664C261.293 81.1992 261.168 81.3672 261.074 81.5703C260.98 81.7734 260.934 82.0117 260.934 82.2852C260.934 82.668 261.051 83.0352 261.285 83.3867C261.527 83.7305 261.828 84.0742 262.188 84.418C262.547 84.7539 262.934 85.0938 263.348 85.4375C263.77 85.7812 264.16 86.1406 264.52 86.5156C264.879 86.8906 265.176 87.293 265.41 87.7227C265.652 88.1445 265.773 88.6016 265.773 89.0938C265.773 89.4922 265.703 89.8828 265.562 90.2656C265.422 90.6406 265.203 90.9766 264.906 91.2734C264.617 91.5703 264.242 91.8125 263.781 92C263.328 92.1797 262.785 92.2695 262.152 92.2695C261.777 92.2695 261.426 92.2344 261.098 92.1641C260.777 92.0938 260.48 92.0078 260.207 91.9062C259.941 91.7969 259.699 91.6797 259.48 91.5547C259.27 91.4219 259.082 91.2969 258.918 91.1797L259.035 88.9531H259.223C259.301 89.3203 259.418 89.6562 259.574 89.9609C259.73 90.2656 259.922 90.5273 260.148 90.7461C260.383 90.957 260.648 91.125 260.945 91.25C261.242 91.3672 261.566 91.4258 261.918 91.4258C262.496 91.4258 262.953 91.2656 263.289 90.9453C263.633 90.625 263.805 90.207 263.805 89.6914C263.805 89.2773 263.688 88.8984 263.453 88.5547C263.227 88.2031 262.938 87.8672 262.586 87.5469C262.234 87.2266 261.855 86.9062 261.449 86.5859C261.051 86.2656 260.676 85.9258 260.324 85.5664C259.973 85.1992 259.68 84.8008 259.445 84.3711C259.219 83.9336 259.105 83.4375 259.105 82.8828C259.105 82.4297 259.188 82.0156 259.352 81.6406C259.523 81.2578 259.758 80.9336 260.055 80.668C260.359 80.3945 260.719 80.1836 261.133 80.0352C261.547 79.8867 262 79.8125 262.492 79.8125C263.141 79.8125 263.68 79.8828 264.109 80.0234C264.547 80.1562 264.879 80.2852 265.105 80.4102L265.223 82.3555ZM273.73 82.3555L273.566 82.3789C273.512 82.1992 273.422 82.0078 273.297 81.8047C273.18 81.6016 273.023 81.4141 272.828 81.2422C272.641 81.0703 272.41 80.9297 272.137 80.8203C271.871 80.7031 271.562 80.6445 271.211 80.6445C270.969 80.6445 270.738 80.6797 270.52 80.75C270.309 80.8203 270.121 80.9258 269.957 81.0664C269.801 81.1992 269.676 81.3672 269.582 81.5703C269.488 81.7734 269.441 82.0117 269.441 82.2852C269.441 82.668 269.559 83.0352 269.793 83.3867C270.035 83.7305 270.336 84.0742 270.695 84.418C271.055 84.7539 271.441 85.0938 271.855 85.4375C272.277 85.7812 272.668 86.1406 273.027 86.5156C273.387 86.8906 273.684 87.293 273.918 87.7227C274.16 88.1445 274.281 88.6016 274.281 89.0938C274.281 89.4922 274.211 89.8828 274.07 90.2656C273.93 90.6406 273.711 90.9766 273.414 91.2734C273.125 91.5703 272.75 91.8125 272.289 92C271.836 92.1797 271.293 92.2695 270.66 92.2695C270.285 92.2695 269.934 92.2344 269.605 92.1641C269.285 92.0938 268.988 92.0078 268.715 91.9062C268.449 91.7969 268.207 91.6797 267.988 91.5547C267.777 91.4219 267.59 91.2969 267.426 91.1797L267.543 88.9531H267.73C267.809 89.3203 267.926 89.6562 268.082 89.9609C268.238 90.2656 268.43 90.5273 268.656 90.7461C268.891 90.957 269.156 91.125 269.453 91.25C269.75 91.3672 270.074 91.4258 270.426 91.4258C271.004 91.4258 271.461 91.2656 271.797 90.9453C272.141 90.625 272.312 90.207 272.312 89.6914C272.312 89.2773 272.195 88.8984 271.961 88.5547C271.734 88.2031 271.445 87.8672 271.094 87.5469C270.742 87.2266 270.363 86.9062 269.957 86.5859C269.559 86.2656 269.184 85.9258 268.832 85.5664C268.48 85.1992 268.188 84.8008 267.953 84.3711C267.727 83.9336 267.613 83.4375 267.613 82.8828C267.613 82.4297 267.695 82.0156 267.859 81.6406C268.031 81.2578 268.266 80.9336 268.562 80.668C268.867 80.3945 269.227 80.1836 269.641 80.0352C270.055 79.8867 270.508 79.8125 271 79.8125C271.648 79.8125 272.188 79.8828 272.617 80.0234C273.055 80.1562 273.387 80.2852 273.613 80.4102L273.73 82.3555Z" fill="#FCC907"/>
<path d="M191.547 128V115.31H196.569C197.937 115.31 198.981 115.628 199.701 116.264C200.433 116.9 200.799 117.806 200.799 118.982C200.799 119.918 200.541 120.686 200.025 121.286C199.521 121.886 198.801 122.276 197.865 122.456C198.417 122.648 198.891 123.116 199.287 123.86L201.519 128H199.899L197.703 123.932C197.427 123.428 197.109 123.086 196.749 122.906C196.389 122.726 195.915 122.636 195.327 122.636H193.023V128H191.547ZM193.023 121.466H196.353C198.345 121.466 199.341 120.638 199.341 118.982C199.341 117.35 198.345 116.534 196.353 116.534H193.023V121.466ZM207.692 128.162C206.696 128.162 205.796 128.036 204.992 127.784C204.188 127.52 203.492 127.142 202.904 126.65L203.426 125.462C204.038 125.93 204.68 126.278 205.352 126.506C206.024 126.734 206.804 126.848 207.692 126.848C208.772 126.848 209.57 126.65 210.086 126.254C210.614 125.846 210.878 125.312 210.878 124.652C210.878 124.124 210.686 123.704 210.302 123.392C209.93 123.08 209.3 122.834 208.412 122.654L206.54 122.276C205.412 122.036 204.566 121.646 204.002 121.106C203.45 120.554 203.174 119.822 203.174 118.91C203.174 118.154 203.366 117.494 203.75 116.93C204.146 116.366 204.692 115.928 205.388 115.616C206.084 115.304 206.888 115.148 207.8 115.148C208.652 115.148 209.444 115.286 210.176 115.562C210.908 115.826 211.526 116.21 212.03 116.714L211.508 117.866C210.968 117.374 210.398 117.02 209.798 116.804C209.198 116.576 208.526 116.462 207.782 116.462C206.834 116.462 206.078 116.684 205.514 117.128C204.95 117.56 204.668 118.136 204.668 118.856C204.668 119.432 204.842 119.888 205.19 120.224C205.55 120.56 206.132 120.806 206.936 120.962L208.808 121.358C210.02 121.61 210.914 121.994 211.49 122.51C212.078 123.014 212.372 123.704 212.372 124.58C212.372 125.288 212.18 125.912 211.796 126.452C211.424 126.992 210.884 127.412 210.176 127.712C209.48 128.012 208.652 128.162 207.692 128.162ZM214.055 128V126.164H215.891V128H214.055ZM223.872 128V126.74H226.77V117.092L224.484 118.532L223.854 117.434L227.184 115.31H228.246V126.74H230.964V128H223.872ZM234.053 128V126.884L238.391 122.204C239.003 121.532 239.441 120.92 239.705 120.368C239.981 119.816 240.119 119.252 240.119 118.676C240.119 117.2 239.261 116.462 237.545 116.462C236.261 116.462 235.127 116.942 234.143 117.902L233.585 116.75C234.053 116.27 234.647 115.886 235.367 115.598C236.099 115.298 236.867 115.148 237.671 115.148C238.943 115.148 239.915 115.448 240.587 116.048C241.271 116.636 241.613 117.476 241.613 118.568C241.613 119.324 241.427 120.068 241.055 120.8C240.683 121.52 240.113 122.288 239.345 123.104L235.943 126.74H242.135V128H234.053ZM247.762 128.162C247.114 128.162 246.46 128.024 245.8 127.748C245.14 127.472 244.6 127.1 244.18 126.632L244.738 125.462C245.17 125.93 245.644 126.278 246.16 126.506C246.688 126.734 247.228 126.848 247.78 126.848C248.956 126.848 249.862 126.41 250.498 125.534C251.134 124.658 251.452 123.356 251.452 121.628V120.728C251.212 121.52 250.78 122.144 250.156 122.6C249.544 123.044 248.818 123.266 247.978 123.266C247.234 123.266 246.574 123.098 245.998 122.762C245.422 122.414 244.972 121.94 244.648 121.34C244.324 120.74 244.162 120.05 244.162 119.27C244.162 118.466 244.33 117.758 244.666 117.146C245.014 116.522 245.488 116.036 246.088 115.688C246.7 115.328 247.402 115.148 248.194 115.148C249.694 115.148 250.846 115.694 251.65 116.786C252.466 117.866 252.874 119.384 252.874 121.34C252.874 123.524 252.424 125.21 251.524 126.398C250.624 127.574 249.37 128.162 247.762 128.162ZM248.284 122.024C249.088 122.024 249.742 121.766 250.246 121.25C250.75 120.722 251.002 120.044 251.002 119.216C251.002 118.376 250.75 117.698 250.246 117.182C249.742 116.654 249.088 116.39 248.284 116.39C247.492 116.39 246.844 116.654 246.34 117.182C245.836 117.698 245.584 118.376 245.584 119.216C245.584 120.044 245.836 120.722 246.34 121.25C246.844 121.766 247.492 122.024 248.284 122.024Z" fill="#FCC907"/>
<defs>
<filter id="filter0_d_921_1079" x="0" y="0" width="443" height="280.807" filterUnits="userSpaceOnUse" color-interpolation-filters="sRGB">
<feFlood flood-opacity="0" result="BackgroundImageFix"/>
<feColorMatrix in="SourceAlpha" type="matrix" values="0 0 0 0 0 0 0 0 0 0 0 0 0 0 0 0 0 0 127 0" result="hardAlpha"/>
<feOffset dy="24"/>
<feGaussianBlur stdDeviation="24"/>
<feComposite in2="hardAlpha" operator="out"/>
<feColorMatrix type="matrix" values="0 0 0 0 0 0 0 0 0 0 0 0 0 0 0 0 0 0 0.36 0"/>
<feBlend mode="normal" in2="BackgroundImageFix" result="effect1_dropShadow_921_1079"/>
<feBlend mode="normal" in="SourceGraphic" in2="effect1_dropShadow_921_1079" result="shape"/>
</filter>
</defs>
</svg>
