<svg width="443" height="281" viewBox="0 0 443 281" fill="none" xmlns="http://www.w3.org/2000/svg">
<g filter="url(#filter0_d_921_1038)">
<mask id="path-1-inside-1_921_1038" fill="white">
<path fill-rule="evenodd" clip-rule="evenodd" d="M371.607 24H71.3933C71.3933 36.9197 60.9197 47.3932 48 47.3932V91.8403C60.9197 91.8403 71.3933 102.314 71.3933 115.234C71.3933 128.153 60.9197 138.627 48 138.627V185.414C60.9197 185.414 71.3933 195.887 71.3933 208.807H371.607C371.607 195.887 382.08 185.414 395 185.414V138.627C382.08 138.627 371.607 128.153 371.607 115.234C371.607 102.314 382.08 91.8403 395 91.8403V47.3932C382.08 47.3932 371.607 36.9197 371.607 24Z"/>
</mask>
<path fill-rule="evenodd" clip-rule="evenodd" d="M371.607 24H71.3933C71.3933 36.9197 60.9197 47.3932 48 47.3932V91.8403C60.9197 91.8403 71.3933 102.314 71.3933 115.234C71.3933 128.153 60.9197 138.627 48 138.627V185.414C60.9197 185.414 71.3933 195.887 71.3933 208.807H371.607C371.607 195.887 382.08 185.414 395 185.414V138.627C382.08 138.627 371.607 128.153 371.607 115.234C371.607 102.314 382.08 91.8403 395 91.8403V47.3932C382.08 47.3932 371.607 36.9197 371.607 24Z" fill="#27094B"/>
<path d="M71.3933 24V23H70.3933V24H71.3933ZM371.607 24H372.607V23H371.607V24ZM48 47.3932V46.3932H47V47.3932H48ZM48 91.8403H47V92.8403H48V91.8403ZM48 138.627V137.627H47V138.627H48ZM48 185.414H47V186.414H48V185.414ZM71.3933 208.807H70.3933V209.807H71.3933V208.807ZM371.607 208.807V209.807H372.607V208.807H371.607ZM395 185.414V186.414H396V185.414H395ZM395 138.627H396V137.627H395V138.627ZM395 91.8403V92.8403H396V91.8403H395ZM395 47.3932H396V46.3932H395V47.3932ZM71.3933 25H371.607V23H71.3933V25ZM48 48.3932C61.472 48.3932 72.3933 37.472 72.3933 24H70.3933C70.3933 36.3675 60.3675 46.3932 48 46.3932V48.3932ZM49 91.8403V47.3932H47V91.8403H49ZM72.3933 115.234C72.3933 101.762 61.472 90.8403 48 90.8403V92.8403C60.3675 92.8403 70.3933 102.866 70.3933 115.234H72.3933ZM48 139.627C61.472 139.627 72.3933 128.706 72.3933 115.234H70.3933C70.3933 127.601 60.3675 137.627 48 137.627V139.627ZM49 185.414V138.627H47V185.414H49ZM72.3933 208.807C72.3933 195.335 61.472 184.414 48 184.414V186.414C60.3675 186.414 70.3933 196.439 70.3933 208.807H72.3933ZM371.607 207.807H71.3933V209.807H371.607V207.807ZM372.607 208.807C372.607 196.439 382.633 186.414 395 186.414V184.414C381.528 184.414 370.607 195.335 370.607 208.807H372.607ZM394 138.627V185.414H396V138.627H394ZM370.607 115.234C370.607 128.706 381.528 139.627 395 139.627V137.627C382.633 137.627 372.607 127.601 372.607 115.234H370.607ZM395 90.8403C381.528 90.8403 370.607 101.762 370.607 115.234H372.607C372.607 102.866 382.633 92.8403 395 92.8403V90.8403ZM394 47.3932V91.8403H396V47.3932H394ZM370.607 24C370.607 37.472 381.528 48.3932 395 48.3932V46.3932C382.633 46.3932 372.607 36.3675 372.607 24H370.607Z" fill="#6F5700" mask="url(#path-1-inside-1_921_1038)"/>
</g>
<rect x="106.5" y="47.4033" width="231" height="136" stroke="#6F5700"/>
<path d="M90.8867 41.1548V192.431M352.891 41.1548V192.431" stroke="#6F5700" stroke-width="2" stroke-dasharray="6 10"/>
<path d="M140.051 158.126C139.398 158.126 138.777 158.028 138.189 157.832C137.601 157.627 137.106 157.333 136.705 156.95L137.125 156.04C137.582 156.413 138.044 156.684 138.511 156.852C138.978 157.02 139.482 157.104 140.023 157.104C140.732 157.104 141.274 156.95 141.647 156.642C142.03 156.325 142.221 155.863 142.221 155.256C142.221 154.677 142.03 154.239 141.647 153.94C141.264 153.641 140.709 153.492 139.981 153.492H138.525V152.498H139.883C140.518 152.498 141.017 152.335 141.381 152.008C141.754 151.672 141.941 151.215 141.941 150.636C141.941 150.123 141.768 149.726 141.423 149.446C141.087 149.166 140.606 149.026 139.981 149.026C138.954 149.026 138.058 149.399 137.293 150.146L136.873 149.25C137.237 148.858 137.699 148.555 138.259 148.34C138.828 148.116 139.426 148.004 140.051 148.004C141.003 148.004 141.745 148.228 142.277 148.676C142.818 149.124 143.089 149.745 143.089 150.538C143.089 151.089 142.949 151.574 142.669 151.994C142.389 152.405 142.002 152.703 141.507 152.89C142.095 153.049 142.552 153.343 142.879 153.772C143.206 154.192 143.369 154.715 143.369 155.34C143.369 156.189 143.07 156.866 142.473 157.37C141.885 157.874 141.078 158.126 140.051 158.126ZM153.441 158.126C152.47 158.126 151.64 157.921 150.949 157.51C150.258 157.099 149.726 156.516 149.353 155.76C148.989 155.004 148.807 154.103 148.807 153.058C148.807 152.022 148.989 151.126 149.353 150.37C149.726 149.614 150.258 149.031 150.949 148.62C151.64 148.209 152.47 148.004 153.441 148.004C154.122 148.004 154.748 148.111 155.317 148.326C155.896 148.541 156.386 148.853 156.787 149.264L156.339 150.202C155.91 149.801 155.462 149.511 154.995 149.334C154.538 149.147 154.029 149.054 153.469 149.054C152.358 149.054 151.509 149.404 150.921 150.104C150.333 150.804 150.039 151.789 150.039 153.058C150.039 154.337 150.333 155.326 150.921 156.026C151.509 156.726 152.358 157.076 153.469 157.076C154.029 157.076 154.538 156.987 154.995 156.81C155.462 156.623 155.91 156.329 156.339 155.928L156.787 156.866C156.386 157.267 155.896 157.58 155.317 157.804C154.748 158.019 154.122 158.126 153.441 158.126ZM160.773 158.126C160.11 158.126 159.536 157.981 159.051 157.692C158.566 157.403 158.188 156.997 157.917 156.474C157.656 155.942 157.525 155.317 157.525 154.598C157.525 153.879 157.656 153.259 157.917 152.736C158.188 152.204 158.566 151.793 159.051 151.504C159.536 151.215 160.11 151.07 160.773 151.07C161.426 151.07 161.996 151.215 162.481 151.504C162.976 151.793 163.354 152.204 163.615 152.736C163.886 153.259 164.021 153.879 164.021 154.598C164.021 155.317 163.886 155.942 163.615 156.474C163.354 156.997 162.976 157.403 162.481 157.692C161.996 157.981 161.426 158.126 160.773 158.126ZM160.773 157.216C161.408 157.216 161.916 156.992 162.299 156.544C162.682 156.087 162.873 155.438 162.873 154.598C162.873 153.749 162.682 153.1 162.299 152.652C161.916 152.204 161.408 151.98 160.773 151.98C160.129 151.98 159.616 152.204 159.233 152.652C158.86 153.1 158.673 153.749 158.673 154.598C158.673 155.438 158.86 156.087 159.233 156.544C159.616 156.992 160.129 157.216 160.773 157.216ZM165.724 158V151.196H166.83V152.358C167.054 151.929 167.371 151.607 167.782 151.392C168.193 151.177 168.655 151.07 169.168 151.07C170.783 151.07 171.59 151.966 171.59 153.758V158H170.456V153.828C170.456 153.193 170.33 152.731 170.078 152.442C169.835 152.143 169.443 151.994 168.902 151.994C168.277 151.994 167.777 152.19 167.404 152.582C167.04 152.965 166.858 153.478 166.858 154.122V158H165.724ZM176.411 158.126C175.609 158.126 175.007 157.916 174.605 157.496C174.204 157.067 174.003 156.451 174.003 155.648V152.078H172.673V151.196H174.003V149.11H175.137V151.196H177.293V152.078H175.137V155.536C175.137 156.068 175.249 156.474 175.473 156.754C175.697 157.025 176.061 157.16 176.565 157.16C176.715 157.16 176.864 157.141 177.013 157.104C177.163 157.067 177.298 157.029 177.419 156.992L177.615 157.86C177.494 157.925 177.317 157.986 177.083 158.042C176.85 158.098 176.626 158.126 176.411 158.126ZM181.573 158.126C180.5 158.126 179.651 157.813 179.025 157.188C178.4 156.553 178.087 155.695 178.087 154.612C178.087 153.912 178.227 153.296 178.507 152.764C178.787 152.223 179.17 151.807 179.655 151.518C180.15 151.219 180.719 151.07 181.363 151.07C182.287 151.07 183.011 151.369 183.533 151.966C184.056 152.554 184.317 153.366 184.317 154.402V154.836H179.193C179.231 155.611 179.455 156.203 179.865 156.614C180.276 157.015 180.845 157.216 181.573 157.216C181.984 157.216 182.376 157.155 182.749 157.034C183.123 156.903 183.477 156.693 183.813 156.404L184.205 157.202C183.897 157.491 183.505 157.72 183.029 157.888C182.553 158.047 182.068 158.126 181.573 158.126ZM181.391 151.91C180.747 151.91 180.239 152.111 179.865 152.512C179.492 152.913 179.273 153.441 179.207 154.094H183.337C183.309 153.403 183.127 152.867 182.791 152.484C182.465 152.101 181.998 151.91 181.391 151.91ZM188.255 158.126C187.723 158.126 187.219 158.051 186.743 157.902C186.267 157.753 185.875 157.543 185.567 157.272L185.931 156.474C186.267 156.745 186.635 156.945 187.037 157.076C187.447 157.197 187.863 157.258 188.283 157.258C188.815 157.258 189.216 157.16 189.487 156.964C189.757 156.768 189.893 156.502 189.893 156.166C189.893 155.905 189.804 155.699 189.627 155.55C189.449 155.391 189.169 155.27 188.787 155.186L187.513 154.906C186.355 154.654 185.777 154.057 185.777 153.114C185.777 152.498 186.019 152.003 186.505 151.63C186.999 151.257 187.643 151.07 188.437 151.07C188.903 151.07 189.347 151.145 189.767 151.294C190.196 151.434 190.551 151.644 190.831 151.924L190.453 152.722C190.182 152.47 189.865 152.279 189.501 152.148C189.146 152.008 188.791 151.938 188.437 151.938C187.914 151.938 187.517 152.041 187.247 152.246C186.976 152.451 186.841 152.722 186.841 153.058C186.841 153.581 187.186 153.917 187.877 154.066L189.151 154.332C189.748 154.463 190.201 154.673 190.509 154.962C190.817 155.242 190.971 155.625 190.971 156.11C190.971 156.735 190.723 157.23 190.229 157.594C189.734 157.949 189.076 158.126 188.255 158.126ZM195.36 158.126C194.558 158.126 193.956 157.916 193.554 157.496C193.153 157.067 192.952 156.451 192.952 155.648V152.078H191.622V151.196H192.952V149.11H194.086V151.196H196.242V152.078H194.086V155.536C194.086 156.068 194.198 156.474 194.422 156.754C194.646 157.025 195.01 157.16 195.514 157.16C195.664 157.16 195.813 157.141 195.962 157.104C196.112 157.067 196.247 157.029 196.368 156.992L196.564 157.86C196.443 157.925 196.266 157.986 196.032 158.042C195.799 158.098 195.575 158.126 195.36 158.126ZM203.809 157.44V154.416H200.841V153.548H203.809V150.608H204.705V153.548H207.673V154.416H204.705V157.44H203.809ZM213.783 158V157.02H216.037V149.516L214.259 150.636L213.769 149.782L216.359 148.13H217.185V157.02H219.299V158H213.783ZM221.071 158.882L220.175 158.616L223.759 147.472L224.669 147.738L221.071 158.882ZM225.666 158V157.132L229.04 153.492C229.516 152.969 229.857 152.493 230.062 152.064C230.277 151.635 230.384 151.196 230.384 150.748C230.384 149.6 229.717 149.026 228.382 149.026C227.384 149.026 226.502 149.399 225.736 150.146L225.302 149.25C225.666 148.877 226.128 148.578 226.688 148.354C227.258 148.121 227.855 148.004 228.48 148.004C229.47 148.004 230.226 148.237 230.748 148.704C231.28 149.161 231.546 149.815 231.546 150.664C231.546 151.252 231.402 151.831 231.112 152.4C230.823 152.96 230.38 153.557 229.782 154.192L227.136 157.02H231.952V158H225.666ZM240.274 158L236.816 148.13H238.02L240.806 156.32L243.662 148.13H244.586L247.414 156.39L250.256 148.13H251.404L247.946 158H246.924L244.11 149.88L241.268 158H240.274ZM254.876 158.126C254.214 158.126 253.64 157.981 253.154 157.692C252.669 157.403 252.291 156.997 252.02 156.474C251.759 155.942 251.628 155.317 251.628 154.598C251.628 153.879 251.759 153.259 252.02 152.736C252.291 152.204 252.669 151.793 253.154 151.504C253.64 151.215 254.214 151.07 254.876 151.07C255.53 151.07 256.099 151.215 256.584 151.504C257.079 151.793 257.457 152.204 257.718 152.736C257.989 153.259 258.124 153.879 258.124 154.598C258.124 155.317 257.989 155.942 257.718 156.474C257.457 156.997 257.079 157.403 256.584 157.692C256.099 157.981 255.53 158.126 254.876 158.126ZM254.876 157.216C255.511 157.216 256.02 156.992 256.402 156.544C256.785 156.087 256.976 155.438 256.976 154.598C256.976 153.749 256.785 153.1 256.402 152.652C256.02 152.204 255.511 151.98 254.876 151.98C254.232 151.98 253.719 152.204 253.336 152.652C252.963 153.1 252.776 153.749 252.776 154.598C252.776 155.438 252.963 156.087 253.336 156.544C253.719 156.992 254.232 157.216 254.876 157.216ZM259.828 158V151.196H260.934V152.414C261.298 151.593 262.044 151.14 263.174 151.056L263.58 151.014L263.664 151.994L262.95 152.078C262.306 152.134 261.816 152.339 261.48 152.694C261.144 153.039 260.976 153.515 260.976 154.122V158H259.828ZM264.845 158V148.13H265.979V154.22H266.007L269.157 151.196H270.599L267.183 154.472L270.893 158H269.451L266.007 154.808H265.979V158H264.845ZM274.018 158.126C273.486 158.126 272.982 158.051 272.506 157.902C272.03 157.753 271.638 157.543 271.33 157.272L271.694 156.474C272.03 156.745 272.399 156.945 272.8 157.076C273.211 157.197 273.626 157.258 274.046 157.258C274.578 157.258 274.98 157.16 275.25 156.964C275.521 156.768 275.656 156.502 275.656 156.166C275.656 155.905 275.568 155.699 275.39 155.55C275.213 155.391 274.933 155.27 274.55 155.186L273.276 154.906C272.119 154.654 271.54 154.057 271.54 153.114C271.54 152.498 271.783 152.003 272.268 151.63C272.763 151.257 273.407 151.07 274.2 151.07C274.667 151.07 275.11 151.145 275.53 151.294C275.96 151.434 276.314 151.644 276.594 151.924L276.216 152.722C275.946 152.47 275.628 152.279 275.264 152.148C274.91 152.008 274.555 151.938 274.2 151.938C273.678 151.938 273.281 152.041 273.01 152.246C272.74 152.451 272.604 152.722 272.604 153.058C272.604 153.581 272.95 153.917 273.64 154.066L274.914 154.332C275.512 154.463 275.964 154.673 276.272 154.962C276.58 155.242 276.734 155.625 276.734 156.11C276.734 156.735 276.487 157.23 275.992 157.594C275.498 157.949 274.84 158.126 274.018 158.126ZM278.462 158V148.13H279.596V152.316C279.82 151.905 280.133 151.597 280.534 151.392C280.945 151.177 281.402 151.07 281.906 151.07C283.521 151.07 284.328 151.966 284.328 153.758V158H283.194V153.828C283.194 153.193 283.068 152.731 282.816 152.442C282.574 152.143 282.182 151.994 281.64 151.994C281.015 151.994 280.516 152.19 280.142 152.582C279.778 152.965 279.596 153.478 279.596 154.122V158H278.462ZM289.247 158.126C288.585 158.126 288.011 157.981 287.525 157.692C287.04 157.403 286.662 156.997 286.391 156.474C286.13 155.942 285.999 155.317 285.999 154.598C285.999 153.879 286.13 153.259 286.391 152.736C286.662 152.204 287.04 151.793 287.525 151.504C288.011 151.215 288.585 151.07 289.247 151.07C289.901 151.07 290.47 151.215 290.955 151.504C291.45 151.793 291.828 152.204 292.089 152.736C292.36 153.259 292.495 153.879 292.495 154.598C292.495 155.317 292.36 155.942 292.089 156.474C291.828 156.997 291.45 157.403 290.955 157.692C290.47 157.981 289.901 158.126 289.247 158.126ZM289.247 157.216C289.882 157.216 290.391 156.992 290.773 156.544C291.156 156.087 291.347 155.438 291.347 154.598C291.347 153.749 291.156 153.1 290.773 152.652C290.391 152.204 289.882 151.98 289.247 151.98C288.603 151.98 288.09 152.204 287.707 152.652C287.334 153.1 287.147 153.749 287.147 154.598C287.147 155.438 287.334 156.087 287.707 156.544C288.09 156.992 288.603 157.216 289.247 157.216ZM294.199 160.52V151.196H295.305V152.414C295.51 151.994 295.813 151.667 296.215 151.434C296.625 151.191 297.101 151.07 297.643 151.07C298.249 151.07 298.777 151.215 299.225 151.504C299.682 151.784 300.032 152.19 300.275 152.722C300.527 153.245 300.653 153.87 300.653 154.598C300.653 155.317 300.527 155.942 300.275 156.474C300.032 156.997 299.682 157.403 299.225 157.692C298.777 157.981 298.249 158.126 297.643 158.126C297.12 158.126 296.653 158.009 296.243 157.776C295.832 157.543 295.529 157.221 295.333 156.81V160.52H294.199ZM297.405 157.216C298.039 157.216 298.548 156.992 298.931 156.544C299.313 156.087 299.505 155.438 299.505 154.598C299.505 153.749 299.313 153.1 298.931 152.652C298.548 152.204 298.039 151.98 297.405 151.98C296.77 151.98 296.261 152.204 295.879 152.652C295.496 153.1 295.305 153.749 295.305 154.598C295.305 155.438 295.496 156.087 295.879 156.544C296.261 156.992 296.77 157.216 297.405 157.216ZM304.657 158.126C304.125 158.126 303.621 158.051 303.145 157.902C302.669 157.753 302.277 157.543 301.969 157.272L302.333 156.474C302.669 156.745 303.038 156.945 303.439 157.076C303.85 157.197 304.265 157.258 304.685 157.258C305.217 157.258 305.618 157.16 305.889 156.964C306.16 156.768 306.295 156.502 306.295 156.166C306.295 155.905 306.206 155.699 306.029 155.55C305.852 155.391 305.572 155.27 305.189 155.186L303.915 154.906C302.758 154.654 302.179 154.057 302.179 153.114C302.179 152.498 302.422 152.003 302.907 151.63C303.402 151.257 304.046 151.07 304.839 151.07C305.306 151.07 305.749 151.145 306.169 151.294C306.598 151.434 306.953 151.644 307.233 151.924L306.855 152.722C306.584 152.47 306.267 152.279 305.903 152.148C305.548 152.008 305.194 151.938 304.839 151.938C304.316 151.938 303.92 152.041 303.649 152.246C303.378 152.451 303.243 152.722 303.243 153.058C303.243 153.581 303.588 153.917 304.279 154.066L305.553 154.332C306.15 154.463 306.603 154.673 306.911 154.962C307.219 155.242 307.373 155.625 307.373 156.11C307.373 156.735 307.126 157.23 306.631 157.594C306.136 157.949 305.478 158.126 304.657 158.126Z" fill="white"/>
<path d="M187.82 76.7734L187.715 76.8203C187.105 76.2578 186.371 75.8086 185.512 75.4727C184.66 75.1367 183.723 74.9688 182.699 74.9688C181.715 74.9688 180.812 75.125 179.992 75.4375C179.172 75.7422 178.465 76.1875 177.871 76.7734C177.285 77.3594 176.828 78.0781 176.5 78.9297C176.172 79.7812 176.008 80.75 176.008 81.8359C176.008 83.0312 176.164 84.1484 176.477 85.1875C176.789 86.2188 177.254 87.1133 177.871 87.8711C178.488 88.6289 179.258 89.2266 180.18 89.6641C181.109 90.0938 182.191 90.3086 183.426 90.3086C183.871 90.3086 184.316 90.2617 184.762 90.168C185.207 90.0742 185.633 89.9375 186.039 89.7578C186.453 89.5703 186.84 89.3477 187.199 89.0898C187.566 88.8242 187.898 88.5234 188.195 88.1875L188.324 88.2695L187.387 90.6602C186.801 90.8867 186.152 91.0586 185.441 91.1758C184.738 91.3008 184.027 91.3633 183.309 91.3633C181.863 91.3633 180.539 91.1562 179.336 90.7422C178.141 90.3203 177.109 89.7266 176.242 88.9609C175.383 88.1953 174.711 87.2773 174.227 86.207C173.75 85.1289 173.512 83.9336 173.512 82.6211C173.512 81.8789 173.605 81.1484 173.793 80.4297C173.988 79.7109 174.27 79.0273 174.637 78.3789C175.004 77.7305 175.457 77.1367 175.996 76.5977C176.535 76.0508 177.148 75.5781 177.836 75.1797C178.531 74.7812 179.293 74.4727 180.121 74.2539C180.957 74.0273 181.859 73.9141 182.828 73.9141C184.336 73.9141 185.734 74.1445 187.023 74.6055L187.82 76.7734ZM190.668 78.0625C190.668 77.3984 190.656 76.8203 190.633 76.3281C190.617 75.8281 190.594 75.3984 190.562 75.0391C190.539 74.6797 190.504 74.3789 190.457 74.1367C190.418 73.8945 190.375 73.6914 190.328 73.5273V73.4805H193.035V73.5273C192.988 73.6914 192.945 73.8945 192.906 74.1367C192.867 74.3789 192.832 74.6797 192.801 75.0391C192.77 75.3984 192.746 75.8281 192.73 76.3281C192.715 76.8203 192.707 77.3984 192.707 78.0625V86.418C192.707 87.082 192.715 87.6641 192.73 88.1641C192.746 88.6562 192.77 89.082 192.801 89.4414C192.832 89.8008 192.867 90.1016 192.906 90.3438C192.945 90.5859 192.988 90.7891 193.035 90.9531V91H190.328V90.9531C190.375 90.7891 190.418 90.5859 190.457 90.3438C190.504 90.1016 190.539 89.8008 190.562 89.4414C190.594 89.082 190.617 88.6562 190.633 88.1641C190.656 87.6641 190.668 87.082 190.668 86.418V78.0625ZM198.355 86.8984C198.355 87.9297 198.559 88.6875 198.965 89.1719C199.379 89.6562 199.934 89.8984 200.629 89.8984C200.879 89.8984 201.16 89.8477 201.473 89.7461C201.785 89.6367 202.105 89.4961 202.434 89.3242C202.77 89.1445 203.102 88.9375 203.43 88.7031C203.766 88.4688 204.074 88.2188 204.355 87.9531C204.371 87.7266 204.379 87.4883 204.379 87.2383C204.379 86.9805 204.379 86.707 204.379 86.418V83.582C204.379 82.918 204.367 82.3398 204.344 81.8477C204.328 81.3477 204.305 80.918 204.273 80.5586C204.25 80.1992 204.215 79.8984 204.168 79.6562C204.129 79.4141 204.086 79.2109 204.039 79.0469V79H206.746V79.0469C206.699 79.2109 206.656 79.4141 206.617 79.6562C206.578 79.8984 206.543 80.1992 206.512 80.5586C206.48 80.918 206.457 81.3477 206.441 81.8477C206.426 82.3398 206.418 82.918 206.418 83.582V86.418C206.418 87.082 206.426 87.6641 206.441 88.1641C206.457 88.6562 206.48 89.082 206.512 89.4414C206.543 89.8008 206.578 90.1016 206.617 90.3438C206.656 90.5859 206.699 90.7891 206.746 90.9531V91H204.039V90.9531C204.086 90.7578 204.133 90.5078 204.18 90.2031C204.234 89.8984 204.273 89.5 204.297 89.0078C203.977 89.2812 203.629 89.5508 203.254 89.8164C202.887 90.082 202.5 90.3203 202.094 90.5312C201.695 90.7422 201.289 90.9102 200.875 91.0352C200.469 91.168 200.066 91.2344 199.668 91.2344C199.059 91.2344 198.539 91.1289 198.109 90.918C197.688 90.707 197.34 90.4297 197.066 90.0859C196.801 89.7422 196.605 89.3516 196.48 88.9141C196.363 88.4766 196.305 88.0273 196.305 87.5664V83.582C196.305 82.918 196.297 82.3398 196.281 81.8477C196.266 81.3477 196.242 80.918 196.211 80.5586C196.18 80.1992 196.145 79.8984 196.105 79.6562C196.066 79.4141 196.023 79.2109 195.977 79.0469V79H198.684V79.0469C198.637 79.2109 198.594 79.4141 198.555 79.6562C198.516 79.8984 198.48 80.1992 198.449 80.5586C198.418 80.918 198.395 81.3477 198.379 81.8477C198.363 82.3398 198.355 82.918 198.355 83.582V86.8984ZM212.066 79.5977C212.559 79.332 213.086 79.1328 213.648 79C214.211 78.8594 214.785 78.7891 215.371 78.7891C216.238 78.7891 217.039 78.9375 217.773 79.2344C218.516 79.5234 219.156 79.9375 219.695 80.4766C220.234 81.0156 220.656 81.6719 220.961 82.4453C221.266 83.2188 221.418 84.0859 221.418 85.0469C221.418 85.8516 221.277 86.625 220.996 87.3672C220.723 88.1094 220.309 88.7656 219.754 89.3359C219.207 89.9062 218.523 90.3633 217.703 90.707C216.891 91.043 215.945 91.2109 214.867 91.2109C214.742 91.2109 214.574 91.207 214.363 91.1992C214.16 91.1914 213.934 91.1758 213.684 91.1523C213.434 91.1289 213.168 91.0977 212.887 91.0586C212.605 91.0195 212.332 90.9688 212.066 90.9062C211.691 90.8203 211.312 90.7266 210.93 90.625C210.555 90.5156 210.195 90.3945 209.852 90.2617C209.883 90.1445 209.91 89.9492 209.934 89.6758C209.957 89.3945 209.973 89.0938 209.98 88.7734C209.996 88.4531 210.008 88.1406 210.016 87.8359C210.023 87.5234 210.027 87.2734 210.027 87.0859V78.0625C210.027 77.3984 210.016 76.8203 209.992 76.3281C209.977 75.8281 209.953 75.3984 209.922 75.0391C209.898 74.6797 209.863 74.3789 209.816 74.1367C209.777 73.8945 209.734 73.6914 209.688 73.5273V73.4805H212.395V73.5273C212.348 73.6914 212.305 73.8945 212.266 74.1367C212.227 74.3789 212.191 74.6797 212.16 75.0391C212.129 75.3984 212.105 75.8281 212.09 76.3281C212.074 76.8203 212.066 77.3984 212.066 78.0625V79.5977ZM212.066 86.8984C212.066 87.5312 212.07 88.0547 212.078 88.4688C212.094 88.8828 212.113 89.2148 212.137 89.4648C212.465 89.7148 212.91 89.9258 213.473 90.0977C214.035 90.2695 214.652 90.3555 215.324 90.3555C215.879 90.3555 216.387 90.2461 216.848 90.0273C217.309 89.8086 217.703 89.4922 218.031 89.0781C218.359 88.6641 218.613 88.1602 218.793 87.5664C218.98 86.9727 219.074 86.3008 219.074 85.5508C219.074 84.707 218.996 83.9258 218.84 83.207C218.684 82.4805 218.441 81.8555 218.113 81.332C217.785 80.8008 217.367 80.3867 216.859 80.0898C216.352 79.793 215.746 79.6445 215.043 79.6445C214.449 79.6445 213.895 79.7656 213.379 80.0078C212.863 80.25 212.426 80.6016 212.066 81.0625V86.8984ZM233.582 83.5586C234.348 83.6992 235.047 83.7148 235.68 83.6055C236.32 83.4883 236.867 83.2461 237.32 82.8789C237.781 82.5039 238.137 82 238.387 81.3672C238.645 80.7344 238.773 79.9609 238.773 79.0469C238.773 78.4141 238.707 77.8398 238.574 77.3242C238.441 76.8008 238.242 76.3594 237.977 76C237.719 75.6328 237.391 75.3516 236.992 75.1562C236.594 74.9531 236.129 74.8516 235.598 74.8516C235.262 74.8516 234.969 74.8672 234.719 74.8984C234.469 74.9219 234.258 74.9492 234.086 74.9805C233.883 75.0195 233.715 75.0625 233.582 75.1094V83.5586ZM231.109 74.1953C231.266 74.2109 231.43 74.2266 231.602 74.2422C231.75 74.2578 231.914 74.2695 232.094 74.2773C232.281 74.2773 232.473 74.2773 232.668 74.2773C232.973 74.2773 233.383 74.2422 233.898 74.1719C234.422 74.0938 235.086 74.0547 235.891 74.0547C236.641 74.0547 237.332 74.1641 237.965 74.3828C238.605 74.6016 239.16 74.9219 239.629 75.3438C240.098 75.7656 240.461 76.2812 240.719 76.8906C240.984 77.4922 241.117 78.1797 241.117 78.9531C241.117 79.9922 240.91 80.8906 240.496 81.6484C240.082 82.4062 239.527 83.0195 238.832 83.4883C238.137 83.957 237.336 84.2773 236.43 84.4492C235.523 84.6133 234.574 84.6211 233.582 84.4727V86.418C233.582 87.082 233.59 87.6641 233.605 88.1641C233.629 88.6562 233.652 89.082 233.676 89.4414C233.707 89.8008 233.742 90.1016 233.781 90.3438C233.828 90.5859 233.875 90.7891 233.922 90.9531V91H231.109V90.9531C231.156 90.7891 231.199 90.5859 231.238 90.3438C231.285 90.1016 231.324 89.8008 231.355 89.4414C231.387 89.082 231.41 88.6562 231.426 88.1641C231.441 87.6641 231.449 87.082 231.449 86.418V78.7891C231.449 78.125 231.441 77.5469 231.426 77.0547C231.41 76.5547 231.387 76.125 231.355 75.7656C231.324 75.3984 231.285 75.0938 231.238 74.8516C231.199 74.6094 231.156 74.4062 231.109 74.2422V74.1953ZM241.879 87.543C241.879 86.9258 242.004 86.3906 242.254 85.9375C242.512 85.4844 242.852 85.0977 243.273 84.7773C243.695 84.457 244.176 84.1992 244.715 84.0039C245.254 83.8008 245.812 83.6445 246.391 83.5352C246.969 83.418 247.539 83.3398 248.102 83.3008C248.664 83.2539 249.18 83.2266 249.648 83.2188V82.6211C249.648 82.1055 249.582 81.6602 249.449 81.2852C249.316 80.9102 249.129 80.6016 248.887 80.3594C248.645 80.1094 248.352 79.9258 248.008 79.8086C247.672 79.6836 247.301 79.6211 246.895 79.6211C246.613 79.6211 246.336 79.6445 246.062 79.6914C245.789 79.7383 245.504 79.8164 245.207 79.9258C244.918 80.0352 244.609 80.1836 244.281 80.3711C243.961 80.5586 243.613 80.7969 243.238 81.0859L243.121 81.0156L243.918 79.3633C244.176 79.2461 244.43 79.1523 244.68 79.082C244.93 79.0039 245.184 78.9414 245.441 78.8945C245.699 78.8477 245.961 78.8164 246.227 78.8008C246.5 78.7773 246.785 78.7656 247.082 78.7656C247.902 78.7656 248.602 78.8672 249.18 79.0703C249.766 79.2656 250.242 79.5391 250.609 79.8906C250.984 80.2344 251.258 80.6406 251.43 81.1094C251.602 81.5703 251.688 82.0664 251.688 82.5977V86.418C251.688 87.082 251.695 87.6641 251.711 88.1641C251.734 88.6562 251.758 89.082 251.781 89.4414C251.812 89.8008 251.848 90.1016 251.887 90.3438C251.934 90.5859 251.98 90.7891 252.027 90.9531V91H249.438V90.9531C249.477 90.8281 249.504 90.6875 249.52 90.5312C249.543 90.375 249.562 90.1875 249.578 89.9688C249.414 90.1094 249.219 90.2539 248.992 90.4023C248.773 90.5508 248.52 90.6875 248.23 90.8125C247.949 90.9297 247.633 91.0234 247.281 91.0938C246.938 91.1719 246.559 91.2109 246.145 91.2109C244.785 91.2109 243.734 90.8945 242.992 90.2617C242.25 89.6211 241.879 88.7148 241.879 87.543ZM249.648 84.1328C248.938 84.1406 248.254 84.1836 247.598 84.2617C246.941 84.332 246.359 84.4844 245.852 84.7188C245.352 84.9531 244.949 85.2891 244.645 85.7266C244.348 86.1562 244.199 86.7305 244.199 87.4492C244.199 88.3711 244.43 89.0742 244.891 89.5586C245.352 90.043 245.988 90.2852 246.801 90.2852C247.176 90.2852 247.516 90.2344 247.82 90.1328C248.133 90.0234 248.406 89.8906 248.641 89.7344C248.883 89.5703 249.086 89.3945 249.25 89.207C249.414 89.0117 249.539 88.8242 249.625 88.6445C249.641 88.3477 249.648 88.0195 249.648 87.6602C249.648 87.293 249.648 86.8789 249.648 86.418V84.1328ZM260.535 81.3555L260.371 81.3789C260.316 81.1992 260.227 81.0078 260.102 80.8047C259.984 80.6016 259.828 80.4141 259.633 80.2422C259.445 80.0703 259.215 79.9297 258.941 79.8203C258.676 79.7031 258.367 79.6445 258.016 79.6445C257.773 79.6445 257.543 79.6797 257.324 79.75C257.113 79.8203 256.926 79.9258 256.762 80.0664C256.605 80.1992 256.48 80.3672 256.387 80.5703C256.293 80.7734 256.246 81.0117 256.246 81.2852C256.246 81.668 256.363 82.0352 256.598 82.3867C256.84 82.7305 257.141 83.0742 257.5 83.418C257.859 83.7539 258.246 84.0938 258.66 84.4375C259.082 84.7812 259.473 85.1406 259.832 85.5156C260.191 85.8906 260.488 86.293 260.723 86.7227C260.965 87.1445 261.086 87.6016 261.086 88.0938C261.086 88.4922 261.016 88.8828 260.875 89.2656C260.734 89.6406 260.516 89.9766 260.219 90.2734C259.93 90.5703 259.555 90.8125 259.094 91C258.641 91.1797 258.098 91.2695 257.465 91.2695C257.09 91.2695 256.738 91.2344 256.41 91.1641C256.09 91.0938 255.793 91.0078 255.52 90.9062C255.254 90.7969 255.012 90.6797 254.793 90.5547C254.582 90.4219 254.395 90.2969 254.23 90.1797L254.348 87.9531H254.535C254.613 88.3203 254.73 88.6562 254.887 88.9609C255.043 89.2656 255.234 89.5273 255.461 89.7461C255.695 89.957 255.961 90.125 256.258 90.25C256.555 90.3672 256.879 90.4258 257.23 90.4258C257.809 90.4258 258.266 90.2656 258.602 89.9453C258.945 89.625 259.117 89.207 259.117 88.6914C259.117 88.2773 259 87.8984 258.766 87.5547C258.539 87.2031 258.25 86.8672 257.898 86.5469C257.547 86.2266 257.168 85.9062 256.762 85.5859C256.363 85.2656 255.988 84.9258 255.637 84.5664C255.285 84.1992 254.992 83.8008 254.758 83.3711C254.531 82.9336 254.418 82.4375 254.418 81.8828C254.418 81.4297 254.5 81.0156 254.664 80.6406C254.836 80.2578 255.07 79.9336 255.367 79.668C255.672 79.3945 256.031 79.1836 256.445 79.0352C256.859 78.8867 257.312 78.8125 257.805 78.8125C258.453 78.8125 258.992 78.8828 259.422 79.0234C259.859 79.1562 260.191 79.2852 260.418 79.4102L260.535 81.3555ZM269.043 81.3555L268.879 81.3789C268.824 81.1992 268.734 81.0078 268.609 80.8047C268.492 80.6016 268.336 80.4141 268.141 80.2422C267.953 80.0703 267.723 79.9297 267.449 79.8203C267.184 79.7031 266.875 79.6445 266.523 79.6445C266.281 79.6445 266.051 79.6797 265.832 79.75C265.621 79.8203 265.434 79.9258 265.27 80.0664C265.113 80.1992 264.988 80.3672 264.895 80.5703C264.801 80.7734 264.754 81.0117 264.754 81.2852C264.754 81.668 264.871 82.0352 265.105 82.3867C265.348 82.7305 265.648 83.0742 266.008 83.418C266.367 83.7539 266.754 84.0938 267.168 84.4375C267.59 84.7812 267.98 85.1406 268.34 85.5156C268.699 85.8906 268.996 86.293 269.23 86.7227C269.473 87.1445 269.594 87.6016 269.594 88.0938C269.594 88.4922 269.523 88.8828 269.383 89.2656C269.242 89.6406 269.023 89.9766 268.727 90.2734C268.438 90.5703 268.062 90.8125 267.602 91C267.148 91.1797 266.605 91.2695 265.973 91.2695C265.598 91.2695 265.246 91.2344 264.918 91.1641C264.598 91.0938 264.301 91.0078 264.027 90.9062C263.762 90.7969 263.52 90.6797 263.301 90.5547C263.09 90.4219 262.902 90.2969 262.738 90.1797L262.855 87.9531H263.043C263.121 88.3203 263.238 88.6562 263.395 88.9609C263.551 89.2656 263.742 89.5273 263.969 89.7461C264.203 89.957 264.469 90.125 264.766 90.25C265.062 90.3672 265.387 90.4258 265.738 90.4258C266.316 90.4258 266.773 90.2656 267.109 89.9453C267.453 89.625 267.625 89.207 267.625 88.6914C267.625 88.2773 267.508 87.8984 267.273 87.5547C267.047 87.2031 266.758 86.8672 266.406 86.5469C266.055 86.2266 265.676 85.9062 265.27 85.5859C264.871 85.2656 264.496 84.9258 264.145 84.5664C263.793 84.1992 263.5 83.8008 263.266 83.3711C263.039 82.9336 262.926 82.4375 262.926 81.8828C262.926 81.4297 263.008 81.0156 263.172 80.6406C263.344 80.2578 263.578 79.9336 263.875 79.668C264.18 79.3945 264.539 79.1836 264.953 79.0352C265.367 78.8867 265.82 78.8125 266.312 78.8125C266.961 78.8125 267.5 78.8828 267.93 79.0234C268.367 79.1562 268.699 79.2852 268.926 79.4102L269.043 81.3555Z" fill="#FCC907"/>
<path d="M191.547 127V114.31H196.569C197.937 114.31 198.981 114.628 199.701 115.264C200.433 115.9 200.799 116.806 200.799 117.982C200.799 118.918 200.541 119.686 200.025 120.286C199.521 120.886 198.801 121.276 197.865 121.456C198.417 121.648 198.891 122.116 199.287 122.86L201.519 127H199.899L197.703 122.932C197.427 122.428 197.109 122.086 196.749 121.906C196.389 121.726 195.915 121.636 195.327 121.636H193.023V127H191.547ZM193.023 120.466H196.353C198.345 120.466 199.341 119.638 199.341 117.982C199.341 116.35 198.345 115.534 196.353 115.534H193.023V120.466ZM207.692 127.162C206.696 127.162 205.796 127.036 204.992 126.784C204.188 126.52 203.492 126.142 202.904 125.65L203.426 124.462C204.038 124.93 204.68 125.278 205.352 125.506C206.024 125.734 206.804 125.848 207.692 125.848C208.772 125.848 209.57 125.65 210.086 125.254C210.614 124.846 210.878 124.312 210.878 123.652C210.878 123.124 210.686 122.704 210.302 122.392C209.93 122.08 209.3 121.834 208.412 121.654L206.54 121.276C205.412 121.036 204.566 120.646 204.002 120.106C203.45 119.554 203.174 118.822 203.174 117.91C203.174 117.154 203.366 116.494 203.75 115.93C204.146 115.366 204.692 114.928 205.388 114.616C206.084 114.304 206.888 114.148 207.8 114.148C208.652 114.148 209.444 114.286 210.176 114.562C210.908 114.826 211.526 115.21 212.03 115.714L211.508 116.866C210.968 116.374 210.398 116.02 209.798 115.804C209.198 115.576 208.526 115.462 207.782 115.462C206.834 115.462 206.078 115.684 205.514 116.128C204.95 116.56 204.668 117.136 204.668 117.856C204.668 118.432 204.842 118.888 205.19 119.224C205.55 119.56 206.132 119.806 206.936 119.962L208.808 120.358C210.02 120.61 210.914 120.994 211.49 121.51C212.078 122.014 212.372 122.704 212.372 123.58C212.372 124.288 212.18 124.912 211.796 125.452C211.424 125.992 210.884 126.412 210.176 126.712C209.48 127.012 208.652 127.162 207.692 127.162ZM214.055 127V125.164H215.891V127H214.055ZM226.896 127.162C226.056 127.162 225.258 127.036 224.502 126.784C223.746 126.52 223.11 126.142 222.594 125.65L223.134 124.48C223.722 124.96 224.316 125.308 224.916 125.524C225.516 125.74 226.164 125.848 226.86 125.848C227.772 125.848 228.468 125.65 228.948 125.254C229.44 124.846 229.686 124.252 229.686 123.472C229.686 122.728 229.44 122.164 228.948 121.78C228.456 121.396 227.742 121.204 226.806 121.204H224.934V119.926H226.68C227.496 119.926 228.138 119.716 228.606 119.296C229.086 118.864 229.326 118.276 229.326 117.532C229.326 116.872 229.104 116.362 228.66 116.002C228.228 115.642 227.61 115.462 226.806 115.462C225.486 115.462 224.334 115.942 223.35 116.902L222.81 115.75C223.278 115.246 223.872 114.856 224.592 114.58C225.324 114.292 226.092 114.148 226.896 114.148C228.12 114.148 229.074 114.436 229.758 115.012C230.454 115.588 230.802 116.386 230.802 117.406C230.802 118.114 230.622 118.738 230.262 119.278C229.902 119.806 229.404 120.19 228.768 120.43C229.524 120.634 230.112 121.012 230.532 121.564C230.952 122.104 231.162 122.776 231.162 123.58C231.162 124.672 230.778 125.542 230.01 126.19C229.254 126.838 228.216 127.162 226.896 127.162ZM236.969 127.162C236.321 127.162 235.667 127.024 235.007 126.748C234.347 126.472 233.807 126.1 233.387 125.632L233.945 124.462C234.377 124.93 234.851 125.278 235.367 125.506C235.895 125.734 236.435 125.848 236.987 125.848C238.163 125.848 239.069 125.41 239.705 124.534C240.341 123.658 240.659 122.356 240.659 120.628V119.728C240.419 120.52 239.987 121.144 239.363 121.6C238.751 122.044 238.025 122.266 237.185 122.266C236.441 122.266 235.781 122.098 235.205 121.762C234.629 121.414 234.179 120.94 233.855 120.34C233.531 119.74 233.369 119.05 233.369 118.27C233.369 117.466 233.537 116.758 233.873 116.146C234.221 115.522 234.695 115.036 235.295 114.688C235.907 114.328 236.609 114.148 237.401 114.148C238.901 114.148 240.053 114.694 240.857 115.786C241.673 116.866 242.081 118.384 242.081 120.34C242.081 122.524 241.631 124.21 240.731 125.398C239.831 126.574 238.577 127.162 236.969 127.162ZM237.491 121.024C238.295 121.024 238.949 120.766 239.453 120.25C239.957 119.722 240.209 119.044 240.209 118.216C240.209 117.376 239.957 116.698 239.453 116.182C238.949 115.654 238.295 115.39 237.491 115.39C236.699 115.39 236.051 115.654 235.547 116.182C235.043 116.698 234.791 117.376 234.791 118.216C234.791 119.044 235.043 119.722 235.547 120.25C236.051 120.766 236.699 121.024 237.491 121.024ZM247.762 127.162C247.114 127.162 246.46 127.024 245.8 126.748C245.14 126.472 244.6 126.1 244.18 125.632L244.738 124.462C245.17 124.93 245.644 125.278 246.16 125.506C246.688 125.734 247.228 125.848 247.78 125.848C248.956 125.848 249.862 125.41 250.498 124.534C251.134 123.658 251.452 122.356 251.452 120.628V119.728C251.212 120.52 250.78 121.144 250.156 121.6C249.544 122.044 248.818 122.266 247.978 122.266C247.234 122.266 246.574 122.098 245.998 121.762C245.422 121.414 244.972 120.94 244.648 120.34C244.324 119.74 244.162 119.05 244.162 118.27C244.162 117.466 244.33 116.758 244.666 116.146C245.014 115.522 245.488 115.036 246.088 114.688C246.7 114.328 247.402 114.148 248.194 114.148C249.694 114.148 250.846 114.694 251.65 115.786C252.466 116.866 252.874 118.384 252.874 120.34C252.874 122.524 252.424 124.21 251.524 125.398C250.624 126.574 249.37 127.162 247.762 127.162ZM248.284 121.024C249.088 121.024 249.742 120.766 250.246 120.25C250.75 119.722 251.002 119.044 251.002 118.216C251.002 117.376 250.75 116.698 250.246 116.182C249.742 115.654 249.088 115.39 248.284 115.39C247.492 115.39 246.844 115.654 246.34 116.182C245.836 116.698 245.584 117.376 245.584 118.216C245.584 119.044 245.836 119.722 246.34 120.25C246.844 120.766 247.492 121.024 248.284 121.024Z" fill="#FCC907"/>
<defs>
<filter id="filter0_d_921_1038" x="0" y="0" width="443" height="280.807" filterUnits="userSpaceOnUse" color-interpolation-filters="sRGB">
<feFlood flood-opacity="0" result="BackgroundImageFix"/>
<feColorMatrix in="SourceAlpha" type="matrix" values="0 0 0 0 0 0 0 0 0 0 0 0 0 0 0 0 0 0 127 0" result="hardAlpha"/>
<feOffset dy="24"/>
<feGaussianBlur stdDeviation="24"/>
<feComposite in2="hardAlpha" operator="out"/>
<feColorMatrix type="matrix" values="0 0 0 0 0 0 0 0 0 0 0 0 0 0 0 0 0 0 0.36 0"/>
<feBlend mode="normal" in2="BackgroundImageFix" result="effect1_dropShadow_921_1038"/>
<feBlend mode="normal" in="SourceGraphic" in2="effect1_dropShadow_921_1038" result="shape"/>
</filter>
</defs>
</svg>
