<svg width="64" height="64" viewBox="0 0 64 64" fill="none" xmlns="http://www.w3.org/2000/svg">
<circle cx="32" cy="32" r="30.5" fill="white" stroke="black" stroke-width="3"/>
<path d="M15.4414 29.9863C14.3368 29.9863 13.4414 30.8818 13.4414 31.9863C13.4414 33.0909 14.3368 33.9863 15.4414 33.9863V29.9863ZM51.0474 33.4005C51.8284 32.6195 51.8284 31.3532 51.0474 30.5721L38.3195 17.8442C37.5384 17.0631 36.2721 17.0631 35.4911 17.8442C34.71 18.6252 34.71 19.8916 35.4911 20.6726L46.8048 31.9863L35.4911 43.3C34.71 44.0811 34.71 45.3474 35.4911 46.1285C36.2721 46.9095 37.5384 46.9095 38.3195 46.1285L51.0474 33.4005ZM15.4414 33.9863H49.6332V29.9863H15.4414V33.9863Z" fill="black"/>
</svg>
