<svg width="459" height="156" viewBox="0 0 459 156" fill="none" xmlns="http://www.w3.org/2000/svg">
<path d="M85 77.9583C50.9809 80.4943 42.8836 105.709 43.0873 118C40.5027 85.9666 13.9522 77.9583 1 77.9583C34.2507 76.5568 42.8545 50.7355 43 38C45.6545 71.0344 72.106 78.4032 85 77.9583Z" fill="#FFC900" stroke="black" stroke-width="3"/>
<g filter="url(#filter0_d_238_3)">
<path d="M118.672 48.352V75.616H161.936V89.696H118.672V124H102.032V34.4H167.44V48.352H118.672ZM237.769 103.264H192.969L184.137 124H166.985L207.305 34.4H223.689L264.137 124H246.729L237.769 103.264ZM232.265 90.208L215.369 51.04L198.601 90.208H232.265ZM368.874 132.96C365.887 136.459 362.389 139.104 358.378 140.896C354.453 142.688 350.143 143.584 345.45 143.584C339.306 143.584 333.674 142.176 328.554 139.36C323.434 136.629 317.589 131.851 311.018 125.024C302.741 124.341 295.317 121.952 288.746 117.856C282.175 113.675 277.055 108.256 273.386 101.6C269.717 94.8587 267.882 87.392 267.882 79.2C267.882 70.496 269.973 62.6453 274.154 55.648C278.335 48.5653 284.095 43.0613 291.434 39.136C298.773 35.1253 307.007 33.12 316.138 33.12C325.269 33.12 333.503 35.1253 340.842 39.136C348.181 43.0613 353.941 48.5227 358.122 55.52C362.303 62.5173 364.394 70.4107 364.394 79.2C364.394 86.2827 362.986 92.8533 360.17 98.912C357.354 104.885 353.429 110.005 348.394 114.272C343.359 118.453 337.514 121.483 330.858 123.36C333.333 126.005 335.765 127.925 338.154 129.12C340.543 130.315 343.103 130.912 345.834 130.912C351.722 130.912 356.842 128.523 361.194 123.744L368.874 132.96ZM284.65 79.2C284.65 85.1733 286.015 90.592 288.746 95.456C291.477 100.235 295.231 103.989 300.01 106.72C304.789 109.365 310.165 110.688 316.138 110.688C322.111 110.688 327.487 109.365 332.266 106.72C337.045 103.989 340.799 100.235 343.53 95.456C346.261 90.592 347.626 85.1733 347.626 79.2C347.626 73.2267 346.261 67.8507 343.53 63.072C340.799 58.208 337.045 54.4533 332.266 51.808C327.487 49.0773 322.111 47.712 316.138 47.712C310.165 47.712 304.789 49.0773 300.01 51.808C295.231 54.4533 291.477 58.208 288.746 63.072C286.015 67.8507 284.65 73.2267 284.65 79.2Z" fill="white"/>
<path d="M118.672 48.352V45.352H115.672V48.352H118.672ZM118.672 75.616H115.672V78.616H118.672V75.616ZM161.936 75.616H164.936V72.616H161.936V75.616ZM161.936 89.696V92.696H164.936V89.696H161.936ZM118.672 89.696V86.696H115.672V89.696H118.672ZM118.672 124V127H121.672V124H118.672ZM102.032 124H99.032V127H102.032V124ZM102.032 34.4V31.4H99.032V34.4H102.032ZM167.44 34.4H170.44V31.4H167.44V34.4ZM167.44 48.352V51.352H170.44V48.352H167.44ZM115.672 48.352V75.616H121.672V48.352H115.672ZM118.672 78.616H161.936V72.616H118.672V78.616ZM158.936 75.616V89.696H164.936V75.616H158.936ZM161.936 86.696H118.672V92.696H161.936V86.696ZM115.672 89.696V124H121.672V89.696H115.672ZM118.672 121H102.032V127H118.672V121ZM105.032 124V34.4H99.032V124H105.032ZM102.032 37.4H167.44V31.4H102.032V37.4ZM164.44 34.4V48.352H170.44V34.4H164.44ZM167.44 45.352H118.672V51.352H167.44V45.352ZM237.769 103.264L240.523 102.074L239.741 100.264H237.769V103.264ZM192.969 103.264V100.264H190.986L190.209 102.088L192.969 103.264ZM184.137 124V127H186.12L186.897 125.176L184.137 124ZM166.985 124L164.249 122.769L162.345 127H166.985V124ZM207.305 34.4V31.4H205.365L204.569 33.1689L207.305 34.4ZM223.689 34.4L226.423 33.1657L225.626 31.4H223.689V34.4ZM264.137 124V127H268.783L266.871 122.766L264.137 124ZM246.729 124L243.975 125.19L244.757 127H246.729V124ZM232.265 90.208V93.208H236.826L235.02 89.0197L232.265 90.208ZM215.369 51.04L218.124 49.8517L215.359 43.4417L212.611 49.8593L215.369 51.04ZM198.601 90.208L195.843 89.0273L194.053 93.208H198.601V90.208ZM237.769 100.264H192.969V106.264H237.769V100.264ZM190.209 102.088L181.377 122.824L186.897 125.176L195.729 104.44L190.209 102.088ZM184.137 121H166.985V127H184.137V121ZM169.721 125.231L210.041 35.6311L204.569 33.1689L164.249 122.769L169.721 125.231ZM207.305 37.4H223.689V31.4H207.305V37.4ZM220.955 35.6343L261.403 125.234L266.871 122.766L226.423 33.1657L220.955 35.6343ZM264.137 121H246.729V127H264.137V121ZM249.483 122.81L240.523 102.074L235.015 104.454L243.975 125.19L249.483 122.81ZM235.02 89.0197L218.124 49.8517L212.614 52.2283L229.51 91.3963L235.02 89.0197ZM212.611 49.8593L195.843 89.0273L201.359 91.3887L218.127 52.2207L212.611 49.8593ZM198.601 93.208H232.265V87.208H198.601V93.208ZM368.874 132.96L371.156 134.908L372.799 132.983L371.179 131.039L368.874 132.96ZM358.378 140.896L357.154 138.157L357.143 138.162L357.132 138.167L358.378 140.896ZM328.554 139.36L330 136.731L329.983 136.722L329.966 136.713L328.554 139.36ZM311.018 125.024L313.179 122.944L312.394 122.127L311.265 122.034L311.018 125.024ZM288.746 117.856L287.135 120.387L287.147 120.394L287.159 120.402L288.746 117.856ZM273.386 101.6L270.751 103.034L270.755 103.041L270.759 103.048L273.386 101.6ZM274.154 55.648L276.729 57.1869L276.733 57.18L276.737 57.1731L274.154 55.648ZM291.434 39.136L292.849 41.7813L292.861 41.775L292.873 41.7685L291.434 39.136ZM340.842 39.136L339.403 41.7685L339.415 41.775L339.427 41.7813L340.842 39.136ZM358.122 55.52L355.547 57.0589V57.0589L358.122 55.52ZM360.17 98.912L362.884 100.191L362.887 100.184L362.891 100.176L360.17 98.912ZM348.394 114.272L350.311 116.58L350.322 116.57L350.334 116.561L348.394 114.272ZM330.858 123.36L330.044 120.473L325.3 121.81L328.667 125.409L330.858 123.36ZM338.154 129.12L339.496 126.437V126.437L338.154 129.12ZM361.194 123.744L363.499 121.823L361.294 119.178L358.976 121.724L361.194 123.744ZM288.746 95.456L286.13 96.9246L286.136 96.9345L286.141 96.9444L288.746 95.456ZM300.01 106.72L298.522 109.325L298.539 109.335L298.557 109.345L300.01 106.72ZM332.266 106.72L333.719 109.345L333.737 109.335L333.754 109.325L332.266 106.72ZM343.53 95.456L346.135 96.9444L346.14 96.9345L346.146 96.9246L343.53 95.456ZM343.53 63.072L340.914 64.5406L340.92 64.5505L340.925 64.5604L343.53 63.072ZM332.266 51.808L330.778 54.4127L330.795 54.4228L330.813 54.4327L332.266 51.808ZM300.01 51.808L301.463 54.4327L301.481 54.4228L301.498 54.4127L300.01 51.808ZM288.746 63.072L291.351 64.5604L291.356 64.5505L291.362 64.5406L288.746 63.072ZM366.592 131.012C363.881 134.188 360.739 136.555 357.154 138.157L359.602 143.635C364.039 141.653 367.894 138.729 371.156 134.908L366.592 131.012ZM357.132 138.167C353.631 139.765 349.752 140.584 345.45 140.584V146.584C350.535 146.584 355.274 145.611 359.624 143.625L357.132 138.167ZM345.45 140.584C339.785 140.584 334.654 139.291 330 136.731L327.108 141.989C332.694 145.061 338.827 146.584 345.45 146.584V140.584ZM329.966 136.713C325.244 134.194 319.651 129.668 313.179 122.944L308.857 127.104C315.526 134.034 321.624 139.064 327.142 142.007L329.966 136.713ZM311.265 122.034C303.428 121.388 296.469 119.135 290.333 115.31L287.159 120.402C294.164 124.769 302.054 127.295 310.771 128.014L311.265 122.034ZM290.357 115.325C284.199 111.407 279.434 106.356 276.013 100.152L270.759 103.048C274.677 110.156 280.151 115.943 287.135 120.387L290.357 115.325ZM276.021 100.166C272.607 93.8941 270.882 86.9257 270.882 79.2H264.882C264.882 87.8583 266.826 95.8232 270.751 103.034L276.021 100.166ZM270.882 79.2C270.882 70.9997 272.845 63.6873 276.729 57.1869L271.579 54.1091C267.101 61.6033 264.882 69.9923 264.882 79.2H270.882ZM276.737 57.1731C280.636 50.5698 285.989 45.4506 292.849 41.7813L290.019 36.4906C282.202 40.672 276.035 46.5609 271.571 54.1229L276.737 57.1731ZM292.873 41.7685C299.73 38.0207 307.463 36.12 316.138 36.12V30.12C306.552 30.12 297.815 32.23 289.995 36.5035L292.873 41.7685ZM316.138 36.12C324.813 36.12 332.546 38.0207 339.403 41.7685L342.281 36.5035C334.461 32.23 325.724 30.12 316.138 30.12V36.12ZM339.427 41.7813C346.296 45.4556 351.651 50.539 355.547 57.0589L360.697 53.9811C356.231 46.5063 350.065 40.667 342.257 36.4906L339.427 41.7813ZM355.547 57.0589C359.428 63.5547 361.394 70.9086 361.394 79.2H367.394C367.394 69.9127 365.178 61.48 360.697 53.9811L355.547 57.0589ZM361.394 79.2C361.394 85.8727 360.07 92.0086 357.449 97.6475L362.891 100.176C365.902 93.6981 367.394 86.6927 367.394 79.2H361.394ZM357.456 97.6327C354.823 103.218 351.162 107.994 346.454 111.983L350.334 116.561C355.696 112.017 359.885 106.552 362.884 100.191L357.456 97.6327ZM346.477 111.964C341.784 115.862 336.319 118.703 330.044 120.473L331.672 126.247C338.709 124.263 344.935 121.044 350.311 116.58L346.477 111.964ZM328.667 125.409C331.304 128.228 334.014 130.404 336.812 131.803L339.496 126.437C337.516 125.447 335.361 123.782 333.049 121.311L328.667 125.409ZM336.812 131.803C339.628 133.211 342.648 133.912 345.834 133.912V127.912C343.558 127.912 341.459 127.418 339.496 126.437L336.812 131.803ZM345.834 133.912C352.654 133.912 358.554 131.099 363.412 125.764L358.976 121.724C355.13 125.947 350.79 127.912 345.834 127.912V133.912ZM358.889 125.665L366.569 134.881L371.179 131.039L363.499 121.823L358.889 125.665ZM281.65 79.2C281.65 85.6501 283.13 91.5804 286.13 96.9246L291.362 93.9874C288.901 89.6036 287.65 84.6966 287.65 79.2H281.65ZM286.141 96.9444C289.138 102.188 293.278 106.328 298.522 109.325L301.498 104.115C297.185 101.65 293.816 98.2812 291.351 93.9676L286.141 96.9444ZM298.557 109.345C303.821 112.259 309.705 113.688 316.138 113.688V107.688C310.624 107.688 305.756 106.472 301.463 104.095L298.557 109.345ZM316.138 113.688C322.571 113.688 328.455 112.259 333.719 109.345L330.813 104.095C326.52 106.472 321.652 107.688 316.138 107.688V113.688ZM333.754 109.325C338.998 106.328 343.138 102.188 346.135 96.9444L340.925 93.9676C338.46 98.2812 335.091 101.65 330.778 104.115L333.754 109.325ZM346.146 96.9246C349.146 91.5804 350.626 85.6501 350.626 79.2H344.626C344.626 84.6966 343.375 89.6036 340.914 93.9874L346.146 96.9246ZM350.626 79.2C350.626 72.7505 349.146 66.8538 346.135 61.5836L340.925 64.5604C343.375 68.8475 344.626 73.7029 344.626 79.2H350.626ZM346.146 61.6034C343.149 56.2644 338.996 52.1045 333.719 49.1833L330.813 54.4327C335.093 56.8022 338.45 60.1516 340.914 64.5406L346.146 61.6034ZM333.754 49.2033C328.484 46.1917 322.588 44.712 316.138 44.712V50.712C321.635 50.712 326.49 51.9629 330.778 54.4127L333.754 49.2033ZM316.138 44.712C309.688 44.712 303.792 46.1917 298.522 49.2033L301.498 54.4127C305.786 51.9629 310.641 50.712 316.138 50.712V44.712ZM298.557 49.1833C293.28 52.1045 289.127 56.2644 286.13 61.6034L291.362 64.5406C293.826 60.1516 297.183 56.8022 301.463 54.4327L298.557 49.1833ZM286.141 61.5836C283.13 66.8538 281.65 72.7505 281.65 79.2H287.65C287.65 73.7029 288.901 68.8475 291.351 64.5604L286.141 61.5836Z" fill="black"/>
</g>
<path d="M458 77.9583C423.981 80.4943 415.884 105.709 416.087 118C413.503 85.9666 386.952 77.9583 374 77.9583C407.251 76.5568 415.854 50.7355 416 38C418.654 71.0344 445.106 78.4032 458 77.9583Z" fill="#14F0B9" stroke="black" stroke-width="3"/>
<defs>
<filter id="filter0_d_238_3" x="102.032" y="33.1201" width="270.842" height="118.464" filterUnits="userSpaceOnUse" color-interpolation-filters="sRGB">
<feFlood flood-opacity="0" result="BackgroundImageFix"/>
<feColorMatrix in="SourceAlpha" type="matrix" values="0 0 0 0 0 0 0 0 0 0 0 0 0 0 0 0 0 0 127 0" result="hardAlpha"/>
<feOffset dx="4" dy="8"/>
<feComposite in2="hardAlpha" operator="out"/>
<feColorMatrix type="matrix" values="0 0 0 0 0 0 0 0 0 0 0 0 0 0 0 0 0 0 1 0"/>
<feBlend mode="normal" in2="BackgroundImageFix" result="effect1_dropShadow_238_3"/>
<feBlend mode="normal" in="SourceGraphic" in2="effect1_dropShadow_238_3" result="shape"/>
</filter>
</defs>
</svg>
