<svg width="443" height="281" viewBox="0 0 443 281" fill="none" xmlns="http://www.w3.org/2000/svg">
<g filter="url(#filter0_d_921_1019)">
<mask id="path-1-inside-1_921_1019" fill="white">
<path fill-rule="evenodd" clip-rule="evenodd" d="M371.607 24H71.3933C71.3933 36.9197 60.9197 47.3932 48 47.3932V91.8403C60.9197 91.8403 71.3933 102.314 71.3933 115.234C71.3933 128.153 60.9197 138.627 48 138.627V185.414C60.9197 185.414 71.3933 195.887 71.3933 208.807H371.607C371.607 195.887 382.08 185.414 395 185.414V138.627C382.08 138.627 371.607 128.153 371.607 115.234C371.607 102.314 382.08 91.8403 395 91.8403V47.3932C382.08 47.3932 371.607 36.9197 371.607 24Z"/>
</mask>
<path fill-rule="evenodd" clip-rule="evenodd" d="M371.607 24H71.3933C71.3933 36.9197 60.9197 47.3932 48 47.3932V91.8403C60.9197 91.8403 71.3933 102.314 71.3933 115.234C71.3933 128.153 60.9197 138.627 48 138.627V185.414C60.9197 185.414 71.3933 195.887 71.3933 208.807H371.607C371.607 195.887 382.08 185.414 395 185.414V138.627C382.08 138.627 371.607 128.153 371.607 115.234C371.607 102.314 382.08 91.8403 395 91.8403V47.3932C382.08 47.3932 371.607 36.9197 371.607 24Z" fill="#27094B"/>
<path d="M71.3933 24V23H70.3933V24H71.3933ZM371.607 24H372.607V23H371.607V24ZM48 47.3932V46.3932H47V47.3932H48ZM48 91.8403H47V92.8403H48V91.8403ZM48 138.627V137.627H47V138.627H48ZM48 185.414H47V186.414H48V185.414ZM71.3933 208.807H70.3933V209.807H71.3933V208.807ZM371.607 208.807V209.807H372.607V208.807H371.607ZM395 185.414V186.414H396V185.414H395ZM395 138.627H396V137.627H395V138.627ZM395 91.8403V92.8403H396V91.8403H395ZM395 47.3932H396V46.3932H395V47.3932ZM71.3933 25H371.607V23H71.3933V25ZM48 48.3932C61.472 48.3932 72.3933 37.472 72.3933 24H70.3933C70.3933 36.3675 60.3675 46.3932 48 46.3932V48.3932ZM49 91.8403V47.3932H47V91.8403H49ZM72.3933 115.234C72.3933 101.762 61.472 90.8403 48 90.8403V92.8403C60.3675 92.8403 70.3933 102.866 70.3933 115.234H72.3933ZM48 139.627C61.472 139.627 72.3933 128.706 72.3933 115.234H70.3933C70.3933 127.601 60.3675 137.627 48 137.627V139.627ZM49 185.414V138.627H47V185.414H49ZM72.3933 208.807C72.3933 195.335 61.472 184.414 48 184.414V186.414C60.3675 186.414 70.3933 196.439 70.3933 208.807H72.3933ZM371.607 207.807H71.3933V209.807H371.607V207.807ZM372.607 208.807C372.607 196.439 382.632 186.414 395 186.414V184.414C381.528 184.414 370.607 195.335 370.607 208.807H372.607ZM394 138.627V185.414H396V138.627H394ZM370.607 115.234C370.607 128.706 381.528 139.627 395 139.627V137.627C382.632 137.627 372.607 127.601 372.607 115.234H370.607ZM395 90.8403C381.528 90.8403 370.607 101.762 370.607 115.234H372.607C372.607 102.866 382.632 92.8403 395 92.8403V90.8403ZM394 47.3932V91.8403H396V47.3932H394ZM370.607 24C370.607 37.472 381.528 48.3932 395 48.3932V46.3932C382.632 46.3932 372.607 36.3675 372.607 24H370.607Z" fill="#6F5700" mask="url(#path-1-inside-1_921_1019)"/>
</g>
<rect x="106.5" y="47.4033" width="231" height="136" stroke="#6F5700"/>
<path d="M90.8867 41.1548V192.431M352.891 41.1548V192.431" stroke="#6F5700" stroke-width="2" stroke-dasharray="6 10"/>
<path d="M185.463 159V156.886H180.913V156.018L185.659 149.13H186.625V155.906H188.095V156.886H186.625V159H185.463ZM185.463 155.906V151.02L182.103 155.906H185.463ZM196.053 159L192.595 149.13H193.799L196.585 157.32L199.441 149.13H200.365L203.193 157.39L206.035 149.13H207.183L203.725 159H202.703L199.889 150.88L197.047 159H196.053ZM210.655 159.126C209.992 159.126 209.418 158.981 208.933 158.692C208.447 158.403 208.069 157.997 207.799 157.474C207.537 156.942 207.407 156.317 207.407 155.598C207.407 154.879 207.537 154.259 207.799 153.736C208.069 153.204 208.447 152.793 208.933 152.504C209.418 152.215 209.992 152.07 210.655 152.07C211.308 152.07 211.877 152.215 212.363 152.504C212.857 152.793 213.235 153.204 213.497 153.736C213.767 154.259 213.903 154.879 213.903 155.598C213.903 156.317 213.767 156.942 213.497 157.474C213.235 157.997 212.857 158.403 212.363 158.692C211.877 158.981 211.308 159.126 210.655 159.126ZM210.655 158.216C211.289 158.216 211.798 157.992 212.181 157.544C212.563 157.087 212.755 156.438 212.755 155.598C212.755 154.749 212.563 154.1 212.181 153.652C211.798 153.204 211.289 152.98 210.655 152.98C210.011 152.98 209.497 153.204 209.115 153.652C208.741 154.1 208.555 154.749 208.555 155.598C208.555 156.438 208.741 157.087 209.115 157.544C209.497 157.992 210.011 158.216 210.655 158.216ZM215.606 159V152.196H216.712V153.414C217.076 152.593 217.823 152.14 218.952 152.056L219.358 152.014L219.442 152.994L218.728 153.078C218.084 153.134 217.594 153.339 217.258 153.694C216.922 154.039 216.754 154.515 216.754 155.122V159H215.606ZM220.624 159V149.13H221.758V155.22H221.786L224.936 152.196H226.378L222.962 155.472L226.672 159H225.23L221.786 155.808H221.758V159H220.624ZM229.797 159.126C229.265 159.126 228.761 159.051 228.285 158.902C227.809 158.753 227.417 158.543 227.109 158.272L227.473 157.474C227.809 157.745 228.177 157.945 228.579 158.076C228.989 158.197 229.405 158.258 229.825 158.258C230.357 158.258 230.758 158.16 231.029 157.964C231.299 157.768 231.435 157.502 231.435 157.166C231.435 156.905 231.346 156.699 231.169 156.55C230.991 156.391 230.711 156.27 230.329 156.186L229.055 155.906C227.897 155.654 227.319 155.057 227.319 154.114C227.319 153.498 227.561 153.003 228.047 152.63C228.541 152.257 229.185 152.07 229.979 152.07C230.445 152.07 230.889 152.145 231.309 152.294C231.738 152.434 232.093 152.644 232.373 152.924L231.995 153.722C231.724 153.47 231.407 153.279 231.043 153.148C230.688 153.008 230.333 152.938 229.979 152.938C229.456 152.938 229.059 153.041 228.789 153.246C228.518 153.451 228.383 153.722 228.383 154.058C228.383 154.581 228.728 154.917 229.419 155.066L230.693 155.332C231.29 155.463 231.743 155.673 232.051 155.962C232.359 156.242 232.513 156.625 232.513 157.11C232.513 157.735 232.265 158.23 231.771 158.594C231.276 158.949 230.618 159.126 229.797 159.126ZM234.241 159V149.13H235.375V153.316C235.599 152.905 235.911 152.597 236.313 152.392C236.723 152.177 237.181 152.07 237.685 152.07C239.299 152.07 240.107 152.966 240.107 154.758V159H238.973V154.828C238.973 154.193 238.847 153.731 238.595 153.442C238.352 153.143 237.96 152.994 237.419 152.994C236.793 152.994 236.294 153.19 235.921 153.582C235.557 153.965 235.375 154.478 235.375 155.122V159H234.241ZM245.026 159.126C244.363 159.126 243.789 158.981 243.304 158.692C242.818 158.403 242.44 157.997 242.17 157.474C241.908 156.942 241.778 156.317 241.778 155.598C241.778 154.879 241.908 154.259 242.17 153.736C242.44 153.204 242.818 152.793 243.304 152.504C243.789 152.215 244.363 152.07 245.026 152.07C245.679 152.07 246.248 152.215 246.734 152.504C247.228 152.793 247.606 153.204 247.868 153.736C248.138 154.259 248.274 154.879 248.274 155.598C248.274 156.317 248.138 156.942 247.868 157.474C247.606 157.997 247.228 158.403 246.734 158.692C246.248 158.981 245.679 159.126 245.026 159.126ZM245.026 158.216C245.66 158.216 246.169 157.992 246.552 157.544C246.934 157.087 247.126 156.438 247.126 155.598C247.126 154.749 246.934 154.1 246.552 153.652C246.169 153.204 245.66 152.98 245.026 152.98C244.382 152.98 243.868 153.204 243.486 153.652C243.112 154.1 242.926 154.749 242.926 155.598C242.926 156.438 243.112 157.087 243.486 157.544C243.868 157.992 244.382 158.216 245.026 158.216ZM249.977 161.52V152.196H251.083V153.414C251.288 152.994 251.592 152.667 251.993 152.434C252.404 152.191 252.88 152.07 253.421 152.07C254.028 152.07 254.555 152.215 255.003 152.504C255.46 152.784 255.81 153.19 256.053 153.722C256.305 154.245 256.431 154.87 256.431 155.598C256.431 156.317 256.305 156.942 256.053 157.474C255.81 157.997 255.46 158.403 255.003 158.692C254.555 158.981 254.028 159.126 253.421 159.126C252.898 159.126 252.432 159.009 252.021 158.776C251.61 158.543 251.307 158.221 251.111 157.81V161.52H249.977ZM253.183 158.216C253.818 158.216 254.326 157.992 254.709 157.544C255.092 157.087 255.283 156.438 255.283 155.598C255.283 154.749 255.092 154.1 254.709 153.652C254.326 153.204 253.818 152.98 253.183 152.98C252.548 152.98 252.04 153.204 251.657 153.652C251.274 154.1 251.083 154.749 251.083 155.598C251.083 156.438 251.274 157.087 251.657 157.544C252.04 157.992 252.548 158.216 253.183 158.216ZM260.435 159.126C259.903 159.126 259.399 159.051 258.923 158.902C258.447 158.753 258.055 158.543 257.747 158.272L258.111 157.474C258.447 157.745 258.816 157.945 259.217 158.076C259.628 158.197 260.043 158.258 260.463 158.258C260.995 158.258 261.397 158.16 261.667 157.964C261.938 157.768 262.073 157.502 262.073 157.166C262.073 156.905 261.985 156.699 261.807 156.55C261.63 156.391 261.35 156.27 260.967 156.186L259.693 155.906C258.536 155.654 257.957 155.057 257.957 154.114C257.957 153.498 258.2 153.003 258.685 152.63C259.18 152.257 259.824 152.07 260.617 152.07C261.084 152.07 261.527 152.145 261.947 152.294C262.377 152.434 262.731 152.644 263.011 152.924L262.633 153.722C262.363 153.47 262.045 153.279 261.681 153.148C261.327 153.008 260.972 152.938 260.617 152.938C260.095 152.938 259.698 153.041 259.427 153.246C259.157 153.451 259.021 153.722 259.021 154.058C259.021 154.581 259.367 154.917 260.057 155.066L261.331 155.332C261.929 155.463 262.381 155.673 262.689 155.962C262.997 156.242 263.151 156.625 263.151 157.11C263.151 157.735 262.904 158.23 262.409 158.594C261.915 158.949 261.257 159.126 260.435 159.126Z" fill="white"/>
<path d="M142.984 74.9141V74.9609C142.945 75.125 142.91 75.3281 142.879 75.5703C142.848 75.8125 142.82 76.1133 142.797 76.4727C142.781 76.832 142.766 77.2617 142.75 77.7617C142.742 78.2539 142.738 78.832 142.738 79.4961V86.7148C143.449 86.6992 144.027 86.6758 144.473 86.6445C144.926 86.6133 145.285 86.5664 145.551 86.5039H145.598V88.1797H145.551C145.285 88.1328 144.926 88.0898 144.473 88.0508C144.027 88.0117 143.449 87.9844 142.738 87.9688C142.746 88.5391 142.758 89.0391 142.773 89.4688C142.789 89.8984 142.812 90.2734 142.844 90.5938C142.875 90.9062 142.91 91.1758 142.949 91.4023C142.988 91.6211 143.031 91.8047 143.078 91.9531V92H140.266V91.9531C140.312 91.8047 140.355 91.6211 140.395 91.4023C140.434 91.1758 140.465 90.9062 140.488 90.5938C140.52 90.2734 140.543 89.8984 140.559 89.4688C140.582 89.0391 140.598 88.5391 140.605 87.9688H132.566V87.4414L142.738 74.9141H142.984ZM140.605 86.7148V79.3555L134.676 86.7148H140.605ZM165.754 77.4102L170.441 88.7891L175 77.6211C175.18 77.1602 175.312 76.7695 175.398 76.4492C175.484 76.1289 175.527 75.8555 175.527 75.6289C175.527 75.5586 175.523 75.4883 175.516 75.418C175.508 75.3398 175.496 75.2812 175.48 75.2422V75.1953H177.801V75.2422C177.645 75.4141 177.473 75.6875 177.285 76.0625C177.105 76.4375 176.895 76.9023 176.652 77.457L170.395 92.3633H169.504L164.945 81.3008L160.785 92.3633H159.906L154.164 78.0312C154.023 77.6953 153.879 77.3711 153.73 77.0586C153.59 76.7461 153.453 76.4648 153.32 76.2148C153.195 75.9648 153.082 75.7539 152.98 75.582C152.871 75.4102 152.793 75.2969 152.746 75.2422V75.1953H155.992V75.2422C155.977 75.3281 155.969 75.3945 155.969 75.4414C155.969 75.4883 155.969 75.543 155.969 75.6055C155.969 75.8711 155.996 76.1523 156.051 76.4492C156.113 76.7461 156.23 77.1055 156.402 77.5273L160.809 88.6602L165.016 77.457L165.754 77.4102ZM177.32 85.9766C177.32 85.0938 177.484 84.2773 177.812 83.5273C178.141 82.7695 178.59 82.1133 179.16 81.5586C179.738 81.0039 180.418 80.5703 181.199 80.2578C181.98 79.9453 182.82 79.7891 183.719 79.7891C184.602 79.7891 185.43 79.9375 186.203 80.2344C186.984 80.5234 187.664 80.9375 188.242 81.4766C188.82 82.0156 189.273 82.6719 189.602 83.4453C189.938 84.2188 190.105 85.0859 190.105 86.0469C190.105 86.8516 189.965 87.625 189.684 88.3672C189.402 89.1094 188.988 89.7656 188.441 90.3359C187.895 90.9062 187.223 91.3633 186.426 91.707C185.637 92.043 184.727 92.2109 183.695 92.2109C182.82 92.2109 181.996 92.0664 181.223 91.7773C180.449 91.4883 179.773 91.0742 179.195 90.5352C178.617 89.9961 178.16 89.3438 177.824 88.5781C177.488 87.8047 177.32 86.9375 177.32 85.9766ZM183.965 91.3555C184.52 91.3555 185.027 91.2461 185.488 91.0273C185.957 90.8086 186.359 90.4922 186.695 90.0781C187.031 89.6641 187.293 89.1602 187.48 88.5664C187.668 87.9727 187.762 87.3008 187.762 86.5508C187.762 85.707 187.672 84.9258 187.492 84.207C187.312 83.4805 187.043 82.8555 186.684 82.332C186.332 81.8008 185.887 81.3867 185.348 81.0898C184.809 80.793 184.18 80.6445 183.461 80.6445C182.906 80.6445 182.398 80.7539 181.938 80.9727C181.477 81.1836 181.074 81.4922 180.73 81.8984C180.395 82.3047 180.133 82.8047 179.945 83.3984C179.758 83.9844 179.664 84.6523 179.664 85.4023C179.664 86.2461 179.754 87.0312 179.934 87.7578C180.121 88.4844 180.395 89.1172 180.754 89.6562C181.113 90.1875 181.559 90.6055 182.09 90.9102C182.629 91.207 183.254 91.3555 183.965 91.3555ZM192.742 84.582C192.742 83.918 192.73 83.3398 192.707 82.8477C192.691 82.3477 192.668 81.918 192.637 81.5586C192.613 81.1992 192.578 80.8984 192.531 80.6562C192.492 80.4141 192.449 80.2109 192.402 80.0469V80H195.109V80.0469C195.047 80.2266 194.992 80.4453 194.945 80.7031C194.906 80.9609 194.875 81.293 194.852 81.6992C195.141 81.457 195.441 81.2188 195.754 80.9844C196.066 80.75 196.387 80.543 196.715 80.3633C197.043 80.1836 197.375 80.0391 197.711 79.9297C198.055 79.8203 198.398 79.7656 198.742 79.7656C198.953 79.7656 199.137 79.7773 199.293 79.8008C199.449 79.8164 199.59 79.8438 199.715 79.8828C199.84 79.9141 199.953 79.9531 200.055 80C200.156 80.0391 200.254 80.0781 200.348 80.1172L199.773 82.3555L199.574 82.3086C199.48 81.9648 199.305 81.6914 199.047 81.4883C198.789 81.2773 198.438 81.1719 197.992 81.1719C197.75 81.1719 197.496 81.2148 197.23 81.3008C196.965 81.3867 196.695 81.5078 196.422 81.6641C196.148 81.8125 195.875 81.9883 195.602 82.1914C195.328 82.3867 195.062 82.5938 194.805 82.8125C194.789 83.0391 194.781 83.2852 194.781 83.5508C194.781 83.8164 194.781 84.0977 194.781 84.3945V87.418C194.781 88.082 194.789 88.6641 194.805 89.1641C194.82 89.6562 194.844 90.082 194.875 90.4414C194.906 90.8008 194.941 91.1016 194.98 91.3438C195.02 91.5859 195.062 91.7891 195.109 91.9531V92H192.402V91.9531C192.449 91.7891 192.492 91.5859 192.531 91.3438C192.578 91.1016 192.613 90.8008 192.637 90.4414C192.668 90.082 192.691 89.6562 192.707 89.1641C192.73 88.6641 192.742 88.082 192.742 87.418V84.582ZM202.164 79.0625C202.164 78.3984 202.152 77.8203 202.129 77.3281C202.113 76.8281 202.09 76.3984 202.059 76.0391C202.035 75.6797 202 75.3789 201.953 75.1367C201.914 74.8945 201.871 74.6914 201.824 74.5273V74.4805H204.531V74.5273C204.484 74.6914 204.441 74.8945 204.402 75.1367C204.363 75.3789 204.328 75.6797 204.297 76.0391C204.266 76.3984 204.242 76.8281 204.227 77.3281C204.211 77.8203 204.203 78.3984 204.203 79.0625V84.8984L208.035 81.4648C208.707 80.8789 209.043 80.3906 209.043 80H211.762V80.0469C211.559 80.1094 211.363 80.1914 211.176 80.293C210.996 80.3867 210.812 80.5 210.625 80.6328C210.445 80.7656 210.254 80.918 210.051 81.0898C209.855 81.2539 209.641 81.4414 209.406 81.6523L205.973 84.7812L210.684 90.3477C210.824 90.5195 210.977 90.6953 211.141 90.875C211.305 91.0469 211.469 91.207 211.633 91.3555C211.797 91.5039 211.957 91.6328 212.113 91.7422C212.27 91.8516 212.414 91.9219 212.547 91.9531V92H209.148C209.148 91.7969 209.094 91.5859 208.984 91.3672C208.883 91.1484 208.695 90.8711 208.422 90.5352L204.203 85.5195V87.418C204.203 88.082 204.211 88.6641 204.227 89.1641C204.242 89.6562 204.266 90.082 204.297 90.4414C204.328 90.8008 204.363 91.1016 204.402 91.3438C204.441 91.5859 204.484 91.7891 204.531 91.9531V92H201.824V91.9531C201.871 91.7891 201.914 91.5859 201.953 91.3438C202 91.1016 202.035 90.8008 202.059 90.4414C202.09 90.082 202.113 89.6562 202.129 89.1641C202.152 88.6641 202.164 88.082 202.164 87.418V79.0625ZM219.133 82.3555L218.969 82.3789C218.914 82.1992 218.824 82.0078 218.699 81.8047C218.582 81.6016 218.426 81.4141 218.23 81.2422C218.043 81.0703 217.812 80.9297 217.539 80.8203C217.273 80.7031 216.965 80.6445 216.613 80.6445C216.371 80.6445 216.141 80.6797 215.922 80.75C215.711 80.8203 215.523 80.9258 215.359 81.0664C215.203 81.1992 215.078 81.3672 214.984 81.5703C214.891 81.7734 214.844 82.0117 214.844 82.2852C214.844 82.668 214.961 83.0352 215.195 83.3867C215.438 83.7305 215.738 84.0742 216.098 84.418C216.457 84.7539 216.844 85.0938 217.258 85.4375C217.68 85.7812 218.07 86.1406 218.43 86.5156C218.789 86.8906 219.086 87.293 219.32 87.7227C219.562 88.1445 219.684 88.6016 219.684 89.0938C219.684 89.4922 219.613 89.8828 219.473 90.2656C219.332 90.6406 219.113 90.9766 218.816 91.2734C218.527 91.5703 218.152 91.8125 217.691 92C217.238 92.1797 216.695 92.2695 216.062 92.2695C215.688 92.2695 215.336 92.2344 215.008 92.1641C214.688 92.0938 214.391 92.0078 214.117 91.9062C213.852 91.7969 213.609 91.6797 213.391 91.5547C213.18 91.4219 212.992 91.2969 212.828 91.1797L212.945 88.9531H213.133C213.211 89.3203 213.328 89.6562 213.484 89.9609C213.641 90.2656 213.832 90.5273 214.059 90.7461C214.293 90.957 214.559 91.125 214.855 91.25C215.152 91.3672 215.477 91.4258 215.828 91.4258C216.406 91.4258 216.863 91.2656 217.199 90.9453C217.543 90.625 217.715 90.207 217.715 89.6914C217.715 89.2773 217.598 88.8984 217.363 88.5547C217.137 88.2031 216.848 87.8672 216.496 87.5469C216.145 87.2266 215.766 86.9062 215.359 86.5859C214.961 86.2656 214.586 85.9258 214.234 85.5664C213.883 85.1992 213.59 84.8008 213.355 84.3711C213.129 83.9336 213.016 83.4375 213.016 82.8828C213.016 82.4297 213.098 82.0156 213.262 81.6406C213.434 81.2578 213.668 80.9336 213.965 80.668C214.27 80.3945 214.629 80.1836 215.043 80.0352C215.457 79.8867 215.91 79.8125 216.402 79.8125C217.051 79.8125 217.59 79.8828 218.02 80.0234C218.457 80.1562 218.789 80.2852 219.016 80.4102L219.133 82.3555ZM230.406 84.1016C230.406 83.0703 230.199 82.3125 229.785 81.8281C229.371 81.3438 228.816 81.1016 228.121 81.1016C227.863 81.1016 227.574 81.1562 227.254 81.2656C226.941 81.3672 226.617 81.5078 226.281 81.6875C225.953 81.8672 225.625 82.0781 225.297 82.3203C224.969 82.5547 224.664 82.8047 224.383 83.0703V87.418C224.383 88.082 224.391 88.6641 224.406 89.1641C224.422 89.6562 224.445 90.082 224.477 90.4414C224.508 90.8008 224.543 91.1016 224.582 91.3438C224.621 91.5859 224.664 91.7891 224.711 91.9531V92H222.004V91.9531C222.051 91.7891 222.094 91.5859 222.133 91.3438C222.18 91.1016 222.215 90.8008 222.238 90.4414C222.27 90.082 222.293 89.6562 222.309 89.1641C222.332 88.6641 222.344 88.082 222.344 87.418V79.0625C222.344 78.3984 222.332 77.8203 222.309 77.3281C222.293 76.8281 222.27 76.3984 222.238 76.0391C222.215 75.6797 222.18 75.3789 222.133 75.1367C222.094 74.8945 222.051 74.6914 222.004 74.5273V74.4805H224.711V74.5273C224.664 74.6914 224.621 74.8945 224.582 75.1367C224.543 75.3789 224.508 75.6797 224.477 76.0391C224.445 76.3984 224.422 76.8281 224.406 77.3281C224.391 77.8203 224.383 78.3984 224.383 79.0625V82.0625C224.695 81.7812 225.039 81.5039 225.414 81.2305C225.797 80.957 226.191 80.7109 226.598 80.4922C227.004 80.2734 227.418 80.0977 227.84 79.9648C228.262 79.832 228.676 79.7656 229.082 79.7656C229.691 79.7656 230.207 79.8711 230.629 80.082C231.059 80.293 231.406 80.5703 231.672 80.9141C231.945 81.2578 232.141 81.6523 232.258 82.0977C232.383 82.5352 232.445 82.9805 232.445 83.4336V87.418C232.445 88.082 232.453 88.6641 232.469 89.1641C232.484 89.6562 232.508 90.082 232.539 90.4414C232.57 90.8008 232.605 91.1016 232.645 91.3438C232.684 91.5859 232.727 91.7891 232.773 91.9531V92H230.066V91.9531C230.113 91.7891 230.156 91.5859 230.195 91.3438C230.242 91.1016 230.277 90.8008 230.301 90.4414C230.332 90.082 230.355 89.6562 230.371 89.1641C230.395 88.6641 230.406 88.082 230.406 87.418V84.1016ZM235 85.9766C235 85.0938 235.164 84.2773 235.492 83.5273C235.82 82.7695 236.27 82.1133 236.84 81.5586C237.418 81.0039 238.098 80.5703 238.879 80.2578C239.66 79.9453 240.5 79.7891 241.398 79.7891C242.281 79.7891 243.109 79.9375 243.883 80.2344C244.664 80.5234 245.344 80.9375 245.922 81.4766C246.5 82.0156 246.953 82.6719 247.281 83.4453C247.617 84.2188 247.785 85.0859 247.785 86.0469C247.785 86.8516 247.645 87.625 247.363 88.3672C247.082 89.1094 246.668 89.7656 246.121 90.3359C245.574 90.9062 244.902 91.3633 244.105 91.707C243.316 92.043 242.406 92.2109 241.375 92.2109C240.5 92.2109 239.676 92.0664 238.902 91.7773C238.129 91.4883 237.453 91.0742 236.875 90.5352C236.297 89.9961 235.84 89.3438 235.504 88.5781C235.168 87.8047 235 86.9375 235 85.9766ZM241.645 91.3555C242.199 91.3555 242.707 91.2461 243.168 91.0273C243.637 90.8086 244.039 90.4922 244.375 90.0781C244.711 89.6641 244.973 89.1602 245.16 88.5664C245.348 87.9727 245.441 87.3008 245.441 86.5508C245.441 85.707 245.352 84.9258 245.172 84.207C244.992 83.4805 244.723 82.8555 244.363 82.332C244.012 81.8008 243.566 81.3867 243.027 81.0898C242.488 80.793 241.859 80.6445 241.141 80.6445C240.586 80.6445 240.078 80.7539 239.617 80.9727C239.156 81.1836 238.754 81.4922 238.41 81.8984C238.074 82.3047 237.812 82.8047 237.625 83.3984C237.438 83.9844 237.344 84.6523 237.344 85.4023C237.344 86.2461 237.434 87.0312 237.613 87.7578C237.801 88.4844 238.074 89.1172 238.434 89.6562C238.793 90.1875 239.238 90.6055 239.77 90.9102C240.309 91.207 240.934 91.3555 241.645 91.3555ZM250.422 84.3477C250.422 83.6836 250.41 83.1055 250.387 82.6133C250.371 82.1133 250.348 81.6836 250.316 81.3242C250.293 80.9648 250.258 80.6641 250.211 80.4219C250.172 80.1797 250.129 79.9766 250.082 79.8125V79.7656H252.789V79.8125C252.75 79.9297 252.715 80.0625 252.684 80.2109C252.652 80.3594 252.625 80.5273 252.602 80.7148C253.062 80.4492 253.57 80.2266 254.125 80.0469C254.688 79.8594 255.309 79.7656 255.988 79.7656C256.855 79.7656 257.645 79.9141 258.355 80.2109C259.074 80.5 259.688 80.918 260.195 81.4648C260.711 82.0117 261.109 82.6719 261.391 83.4453C261.672 84.2188 261.812 85.0859 261.812 86.0469C261.812 86.8516 261.672 87.625 261.391 88.3672C261.117 89.1094 260.711 89.7656 260.172 90.3359C259.641 90.9062 258.984 91.3633 258.203 91.707C257.422 92.043 256.523 92.2109 255.508 92.2109C254.898 92.2109 254.344 92.1641 253.844 92.0703C253.344 91.9766 252.883 91.8555 252.461 91.707V93.418C252.461 94.082 252.469 94.6602 252.484 95.1523C252.5 95.6523 252.523 96.082 252.555 96.4414C252.586 96.8008 252.621 97.1016 252.66 97.3438C252.699 97.5859 252.742 97.7891 252.789 97.9531V98H250.082V97.9531C250.129 97.7891 250.172 97.5859 250.211 97.3438C250.258 97.1016 250.293 96.8008 250.316 96.4414C250.348 96.082 250.371 95.6523 250.387 95.1523C250.41 94.6602 250.422 94.082 250.422 93.418V84.3477ZM255.578 80.6445C255.312 80.6445 255.039 80.6797 254.758 80.75C254.484 80.8125 254.211 80.9062 253.938 81.0312C253.672 81.1484 253.414 81.3008 253.164 81.4883C252.922 81.668 252.703 81.875 252.508 82.1094C252.492 82.4062 252.48 82.7422 252.473 83.1172C252.465 83.4922 252.461 83.9023 252.461 84.3477V90.4883C252.617 90.6055 252.793 90.7148 252.988 90.8164C253.184 90.918 253.402 91.0117 253.645 91.0977C253.895 91.1758 254.172 91.2383 254.477 91.2852C254.789 91.332 255.133 91.3555 255.508 91.3555C256.117 91.3555 256.668 91.2461 257.16 91.0273C257.652 90.8086 258.066 90.4922 258.402 90.0781C258.746 89.6641 259.008 89.1602 259.188 88.5664C259.375 87.9727 259.469 87.3008 259.469 86.5508C259.469 85.707 259.398 84.9258 259.258 84.207C259.117 83.4805 258.891 82.8555 258.578 82.332C258.273 81.8008 257.875 81.3867 257.383 81.0898C256.891 80.793 256.289 80.6445 255.578 80.6445ZM273.977 84.5586C274.742 84.6992 275.441 84.7148 276.074 84.6055C276.715 84.4883 277.262 84.2461 277.715 83.8789C278.176 83.5039 278.531 83 278.781 82.3672C279.039 81.7344 279.168 80.9609 279.168 80.0469C279.168 79.4141 279.102 78.8398 278.969 78.3242C278.836 77.8008 278.637 77.3594 278.371 77C278.113 76.6328 277.785 76.3516 277.387 76.1562C276.988 75.9531 276.523 75.8516 275.992 75.8516C275.656 75.8516 275.363 75.8672 275.113 75.8984C274.863 75.9219 274.652 75.9492 274.48 75.9805C274.277 76.0195 274.109 76.0625 273.977 76.1094V84.5586ZM271.504 75.1953C271.66 75.2109 271.824 75.2266 271.996 75.2422C272.145 75.2578 272.309 75.2695 272.488 75.2773C272.676 75.2773 272.867 75.2773 273.062 75.2773C273.367 75.2773 273.777 75.2422 274.293 75.1719C274.816 75.0938 275.48 75.0547 276.285 75.0547C277.035 75.0547 277.727 75.1641 278.359 75.3828C279 75.6016 279.555 75.9219 280.023 76.3438C280.492 76.7656 280.855 77.2812 281.113 77.8906C281.379 78.4922 281.512 79.1797 281.512 79.9531C281.512 80.9922 281.305 81.8906 280.891 82.6484C280.477 83.4062 279.922 84.0195 279.227 84.4883C278.531 84.957 277.73 85.2773 276.824 85.4492C275.918 85.6133 274.969 85.6211 273.977 85.4727V87.418C273.977 88.082 273.984 88.6641 274 89.1641C274.023 89.6562 274.047 90.082 274.07 90.4414C274.102 90.8008 274.137 91.1016 274.176 91.3438C274.223 91.5859 274.27 91.7891 274.316 91.9531V92H271.504V91.9531C271.551 91.7891 271.594 91.5859 271.633 91.3438C271.68 91.1016 271.719 90.8008 271.75 90.4414C271.781 90.082 271.805 89.6562 271.82 89.1641C271.836 88.6641 271.844 88.082 271.844 87.418V79.7891C271.844 79.125 271.836 78.5469 271.82 78.0547C271.805 77.5547 271.781 77.125 271.75 76.7656C271.719 76.3984 271.68 76.0938 271.633 75.8516C271.594 75.6094 271.551 75.4062 271.504 75.2422V75.1953ZM282.273 88.543C282.273 87.9258 282.398 87.3906 282.648 86.9375C282.906 86.4844 283.246 86.0977 283.668 85.7773C284.09 85.457 284.57 85.1992 285.109 85.0039C285.648 84.8008 286.207 84.6445 286.785 84.5352C287.363 84.418 287.934 84.3398 288.496 84.3008C289.059 84.2539 289.574 84.2266 290.043 84.2188V83.6211C290.043 83.1055 289.977 82.6602 289.844 82.2852C289.711 81.9102 289.523 81.6016 289.281 81.3594C289.039 81.1094 288.746 80.9258 288.402 80.8086C288.066 80.6836 287.695 80.6211 287.289 80.6211C287.008 80.6211 286.73 80.6445 286.457 80.6914C286.184 80.7383 285.898 80.8164 285.602 80.9258C285.312 81.0352 285.004 81.1836 284.676 81.3711C284.355 81.5586 284.008 81.7969 283.633 82.0859L283.516 82.0156L284.312 80.3633C284.57 80.2461 284.824 80.1523 285.074 80.082C285.324 80.0039 285.578 79.9414 285.836 79.8945C286.094 79.8477 286.355 79.8164 286.621 79.8008C286.895 79.7773 287.18 79.7656 287.477 79.7656C288.297 79.7656 288.996 79.8672 289.574 80.0703C290.16 80.2656 290.637 80.5391 291.004 80.8906C291.379 81.2344 291.652 81.6406 291.824 82.1094C291.996 82.5703 292.082 83.0664 292.082 83.5977V87.418C292.082 88.082 292.09 88.6641 292.105 89.1641C292.129 89.6562 292.152 90.082 292.176 90.4414C292.207 90.8008 292.242 91.1016 292.281 91.3438C292.328 91.5859 292.375 91.7891 292.422 91.9531V92H289.832V91.9531C289.871 91.8281 289.898 91.6875 289.914 91.5312C289.938 91.375 289.957 91.1875 289.973 90.9688C289.809 91.1094 289.613 91.2539 289.387 91.4023C289.168 91.5508 288.914 91.6875 288.625 91.8125C288.344 91.9297 288.027 92.0234 287.676 92.0938C287.332 92.1719 286.953 92.2109 286.539 92.2109C285.18 92.2109 284.129 91.8945 283.387 91.2617C282.645 90.6211 282.273 89.7148 282.273 88.543ZM290.043 85.1328C289.332 85.1406 288.648 85.1836 287.992 85.2617C287.336 85.332 286.754 85.4844 286.246 85.7188C285.746 85.9531 285.344 86.2891 285.039 86.7266C284.742 87.1562 284.594 87.7305 284.594 88.4492C284.594 89.3711 284.824 90.0742 285.285 90.5586C285.746 91.043 286.383 91.2852 287.195 91.2852C287.57 91.2852 287.91 91.2344 288.215 91.1328C288.527 91.0234 288.801 90.8906 289.035 90.7344C289.277 90.5703 289.48 90.3945 289.645 90.207C289.809 90.0117 289.934 89.8242 290.02 89.6445C290.035 89.3477 290.043 89.0195 290.043 88.6602C290.043 88.293 290.043 87.8789 290.043 87.418V85.1328ZM300.93 82.3555L300.766 82.3789C300.711 82.1992 300.621 82.0078 300.496 81.8047C300.379 81.6016 300.223 81.4141 300.027 81.2422C299.84 81.0703 299.609 80.9297 299.336 80.8203C299.07 80.7031 298.762 80.6445 298.41 80.6445C298.168 80.6445 297.938 80.6797 297.719 80.75C297.508 80.8203 297.32 80.9258 297.156 81.0664C297 81.1992 296.875 81.3672 296.781 81.5703C296.688 81.7734 296.641 82.0117 296.641 82.2852C296.641 82.668 296.758 83.0352 296.992 83.3867C297.234 83.7305 297.535 84.0742 297.895 84.418C298.254 84.7539 298.641 85.0938 299.055 85.4375C299.477 85.7812 299.867 86.1406 300.227 86.5156C300.586 86.8906 300.883 87.293 301.117 87.7227C301.359 88.1445 301.48 88.6016 301.48 89.0938C301.48 89.4922 301.41 89.8828 301.27 90.2656C301.129 90.6406 300.91 90.9766 300.613 91.2734C300.324 91.5703 299.949 91.8125 299.488 92C299.035 92.1797 298.492 92.2695 297.859 92.2695C297.484 92.2695 297.133 92.2344 296.805 92.1641C296.484 92.0938 296.188 92.0078 295.914 91.9062C295.648 91.7969 295.406 91.6797 295.188 91.5547C294.977 91.4219 294.789 91.2969 294.625 91.1797L294.742 88.9531H294.93C295.008 89.3203 295.125 89.6562 295.281 89.9609C295.438 90.2656 295.629 90.5273 295.855 90.7461C296.09 90.957 296.355 91.125 296.652 91.25C296.949 91.3672 297.273 91.4258 297.625 91.4258C298.203 91.4258 298.66 91.2656 298.996 90.9453C299.34 90.625 299.512 90.207 299.512 89.6914C299.512 89.2773 299.395 88.8984 299.16 88.5547C298.934 88.2031 298.645 87.8672 298.293 87.5469C297.941 87.2266 297.562 86.9062 297.156 86.5859C296.758 86.2656 296.383 85.9258 296.031 85.5664C295.68 85.1992 295.387 84.8008 295.152 84.3711C294.926 83.9336 294.812 83.4375 294.812 82.8828C294.812 82.4297 294.895 82.0156 295.059 81.6406C295.23 81.2578 295.465 80.9336 295.762 80.668C296.066 80.3945 296.426 80.1836 296.84 80.0352C297.254 79.8867 297.707 79.8125 298.199 79.8125C298.848 79.8125 299.387 79.8828 299.816 80.0234C300.254 80.1562 300.586 80.2852 300.812 80.4102L300.93 82.3555ZM309.438 82.3555L309.273 82.3789C309.219 82.1992 309.129 82.0078 309.004 81.8047C308.887 81.6016 308.73 81.4141 308.535 81.2422C308.348 81.0703 308.117 80.9297 307.844 80.8203C307.578 80.7031 307.27 80.6445 306.918 80.6445C306.676 80.6445 306.445 80.6797 306.227 80.75C306.016 80.8203 305.828 80.9258 305.664 81.0664C305.508 81.1992 305.383 81.3672 305.289 81.5703C305.195 81.7734 305.148 82.0117 305.148 82.2852C305.148 82.668 305.266 83.0352 305.5 83.3867C305.742 83.7305 306.043 84.0742 306.402 84.418C306.762 84.7539 307.148 85.0938 307.562 85.4375C307.984 85.7812 308.375 86.1406 308.734 86.5156C309.094 86.8906 309.391 87.293 309.625 87.7227C309.867 88.1445 309.988 88.6016 309.988 89.0938C309.988 89.4922 309.918 89.8828 309.777 90.2656C309.637 90.6406 309.418 90.9766 309.121 91.2734C308.832 91.5703 308.457 91.8125 307.996 92C307.543 92.1797 307 92.2695 306.367 92.2695C305.992 92.2695 305.641 92.2344 305.312 92.1641C304.992 92.0938 304.695 92.0078 304.422 91.9062C304.156 91.7969 303.914 91.6797 303.695 91.5547C303.484 91.4219 303.297 91.2969 303.133 91.1797L303.25 88.9531H303.438C303.516 89.3203 303.633 89.6562 303.789 89.9609C303.945 90.2656 304.137 90.5273 304.363 90.7461C304.598 90.957 304.863 91.125 305.16 91.25C305.457 91.3672 305.781 91.4258 306.133 91.4258C306.711 91.4258 307.168 91.2656 307.504 90.9453C307.848 90.625 308.02 90.207 308.02 89.6914C308.02 89.2773 307.902 88.8984 307.668 88.5547C307.441 88.2031 307.152 87.8672 306.801 87.5469C306.449 87.2266 306.07 86.9062 305.664 86.5859C305.266 86.2656 304.891 85.9258 304.539 85.5664C304.188 85.1992 303.895 84.8008 303.66 84.3711C303.434 83.9336 303.32 83.4375 303.32 82.8828C303.32 82.4297 303.402 82.0156 303.566 81.6406C303.738 81.2578 303.973 80.9336 304.27 80.668C304.574 80.3945 304.934 80.1836 305.348 80.0352C305.762 79.8867 306.215 79.8125 306.707 79.8125C307.355 79.8125 307.895 79.8828 308.324 80.0234C308.762 80.1562 309.094 80.2852 309.32 80.4102L309.438 82.3555Z" fill="#FCC907"/>
<path d="M191.547 128V115.31H196.569C197.937 115.31 198.981 115.628 199.701 116.264C200.433 116.9 200.799 117.806 200.799 118.982C200.799 119.918 200.541 120.686 200.025 121.286C199.521 121.886 198.801 122.276 197.865 122.456C198.417 122.648 198.891 123.116 199.287 123.86L201.519 128H199.899L197.703 123.932C197.427 123.428 197.109 123.086 196.749 122.906C196.389 122.726 195.915 122.636 195.327 122.636H193.023V128H191.547ZM193.023 121.466H196.353C198.345 121.466 199.341 120.638 199.341 118.982C199.341 117.35 198.345 116.534 196.353 116.534H193.023V121.466ZM207.692 128.162C206.696 128.162 205.796 128.036 204.992 127.784C204.188 127.52 203.492 127.142 202.904 126.65L203.426 125.462C204.038 125.93 204.68 126.278 205.352 126.506C206.024 126.734 206.804 126.848 207.692 126.848C208.772 126.848 209.57 126.65 210.086 126.254C210.614 125.846 210.878 125.312 210.878 124.652C210.878 124.124 210.686 123.704 210.302 123.392C209.93 123.08 209.3 122.834 208.412 122.654L206.54 122.276C205.412 122.036 204.566 121.646 204.002 121.106C203.45 120.554 203.174 119.822 203.174 118.91C203.174 118.154 203.366 117.494 203.75 116.93C204.146 116.366 204.692 115.928 205.388 115.616C206.084 115.304 206.888 115.148 207.8 115.148C208.652 115.148 209.444 115.286 210.176 115.562C210.908 115.826 211.526 116.21 212.03 116.714L211.508 117.866C210.968 117.374 210.398 117.02 209.798 116.804C209.198 116.576 208.526 116.462 207.782 116.462C206.834 116.462 206.078 116.684 205.514 117.128C204.95 117.56 204.668 118.136 204.668 118.856C204.668 119.432 204.842 119.888 205.19 120.224C205.55 120.56 206.132 120.806 206.936 120.962L208.808 121.358C210.02 121.61 210.914 121.994 211.49 122.51C212.078 123.014 212.372 123.704 212.372 124.58C212.372 125.288 212.18 125.912 211.796 126.452C211.424 126.992 210.884 127.412 210.176 127.712C209.48 128.012 208.652 128.162 207.692 128.162ZM214.055 128V126.164H215.891V128H214.055ZM228.426 128V125.282H222.576V124.166L228.678 115.31H229.92V124.022H231.81V125.282H229.92V128H228.426ZM228.426 124.022V117.74L224.106 124.022H228.426ZM236.969 128.162C236.321 128.162 235.667 128.024 235.007 127.748C234.347 127.472 233.807 127.1 233.387 126.632L233.945 125.462C234.377 125.93 234.851 126.278 235.367 126.506C235.895 126.734 236.435 126.848 236.987 126.848C238.163 126.848 239.069 126.41 239.705 125.534C240.341 124.658 240.659 123.356 240.659 121.628V120.728C240.419 121.52 239.987 122.144 239.363 122.6C238.751 123.044 238.025 123.266 237.185 123.266C236.441 123.266 235.781 123.098 235.205 122.762C234.629 122.414 234.179 121.94 233.855 121.34C233.531 120.74 233.369 120.05 233.369 119.27C233.369 118.466 233.537 117.758 233.873 117.146C234.221 116.522 234.695 116.036 235.295 115.688C235.907 115.328 236.609 115.148 237.401 115.148C238.901 115.148 240.053 115.694 240.857 116.786C241.673 117.866 242.081 119.384 242.081 121.34C242.081 123.524 241.631 125.21 240.731 126.398C239.831 127.574 238.577 128.162 236.969 128.162ZM237.491 122.024C238.295 122.024 238.949 121.766 239.453 121.25C239.957 120.722 240.209 120.044 240.209 119.216C240.209 118.376 239.957 117.698 239.453 117.182C238.949 116.654 238.295 116.39 237.491 116.39C236.699 116.39 236.051 116.654 235.547 117.182C235.043 117.698 234.791 118.376 234.791 119.216C234.791 120.044 235.043 120.722 235.547 121.25C236.051 121.766 236.699 122.024 237.491 122.024ZM247.762 128.162C247.114 128.162 246.46 128.024 245.8 127.748C245.14 127.472 244.6 127.1 244.18 126.632L244.738 125.462C245.17 125.93 245.644 126.278 246.16 126.506C246.688 126.734 247.228 126.848 247.78 126.848C248.956 126.848 249.862 126.41 250.498 125.534C251.134 124.658 251.452 123.356 251.452 121.628V120.728C251.212 121.52 250.78 122.144 250.156 122.6C249.544 123.044 248.818 123.266 247.978 123.266C247.234 123.266 246.574 123.098 245.998 122.762C245.422 122.414 244.972 121.94 244.648 121.34C244.324 120.74 244.162 120.05 244.162 119.27C244.162 118.466 244.33 117.758 244.666 117.146C245.014 116.522 245.488 116.036 246.088 115.688C246.7 115.328 247.402 115.148 248.194 115.148C249.694 115.148 250.846 115.694 251.65 116.786C252.466 117.866 252.874 119.384 252.874 121.34C252.874 123.524 252.424 125.21 251.524 126.398C250.624 127.574 249.37 128.162 247.762 128.162ZM248.284 122.024C249.088 122.024 249.742 121.766 250.246 121.25C250.75 120.722 251.002 120.044 251.002 119.216C251.002 118.376 250.75 117.698 250.246 117.182C249.742 116.654 249.088 116.39 248.284 116.39C247.492 116.39 246.844 116.654 246.34 117.182C245.836 117.698 245.584 118.376 245.584 119.216C245.584 120.044 245.836 120.722 246.34 121.25C246.844 121.766 247.492 122.024 248.284 122.024Z" fill="#FCC907"/>
<defs>
<filter id="filter0_d_921_1019" x="0" y="0" width="443" height="280.807" filterUnits="userSpaceOnUse" color-interpolation-filters="sRGB">
<feFlood flood-opacity="0" result="BackgroundImageFix"/>
<feColorMatrix in="SourceAlpha" type="matrix" values="0 0 0 0 0 0 0 0 0 0 0 0 0 0 0 0 0 0 127 0" result="hardAlpha"/>
<feOffset dy="24"/>
<feGaussianBlur stdDeviation="24"/>
<feComposite in2="hardAlpha" operator="out"/>
<feColorMatrix type="matrix" values="0 0 0 0 0 0 0 0 0 0 0 0 0 0 0 0 0 0 0.36 0"/>
<feBlend mode="normal" in2="BackgroundImageFix" result="effect1_dropShadow_921_1019"/>
<feBlend mode="normal" in="SourceGraphic" in2="effect1_dropShadow_921_1019" result="shape"/>
</filter>
</defs>
</svg>
