<?xml version="1.0" encoding="UTF-8"?>
<svg width="234" height="188" version="1.1" xmlns="http://www.w3.org/2000/svg" xmlns:cc="http://creativecommons.org/ns#" xmlns:dc="http://purl.org/dc/elements/1.1/" xmlns:rdf="http://www.w3.org/1999/02/22-rdf-syntax-ns#" xmlns:xlink="http://www.w3.org/1999/xlink">
 <metadata>
  <rdf:RDF>
   <cc:Work rdf:about="">
    <dc:format>image/svg+xml</dc:format>
    <dc:type rdf:resource="http://purl.org/dc/dcmitype/StillImage"/>
    <dc:title/>
   </cc:Work>
  </rdf:RDF>
 </metadata>
 <defs></defs>
 <g transform="matrix(1.8496 0 0 1.8496 -433.49 -447.31)">
  <g fill="#211e1e">
   <g>
    <path d="m358.28 342.64h-7.1641l-10.344-11.219v11.219h-5.2109v-16.441h7.1875l10.324 11.641v-11.609c0.8711 0 0.74219-0.0234 2.4648-0.0312 1.7188-0.0117 1.8711 0 2.7422 0z"/>
    <path d="m300.62 342.61h-5.3164v-16.41h5.3164z"/>
    <path d="m291.02 342.57h-5.2852l-0.0312-2.1055c-4.668 1.8242-13.277 2.5625-19.629 1.4492v-15.723h5.3164v12.035c1.4609 1.0078 12.887 0.97265 14.312 4e-3v-12.039h5.3164z"/>
    <path d="m261.91 342.61h-5.3164v-6.2461h-14.312v6.2461h-5.3164v-16.41h5.3164v6.3398h14.312v-6.3398h5.3164z"/>
   </g>
   <path d="m311.44 338.99h14.902v-9.2578h-14.902zm-4.9883-10.938 3.1797-1.2031c1.0938-0.41406 2.207-0.66406 3.418-0.66406h11.484c1.0117 0 1.9766 0.17969 2.9023 0.49219l3.9258 1.3125v12.914l-3.0273 0.98437c-1.1641 0.37891-2.2969 0.64844-3.4805 0.64844h-10.02c-1.625 0-3.1914-0.35547-4.7539-0.73828l-3.6289-0.89453z" fill-rule="evenodd"/>
  </g>
  <g fill="#3fbfcc" fill-rule="evenodd">
   <path d="m339.26 307.04-14.809-0.0117c-0.92578 0-1.418-0.48828-1.418-1.4141l0.0312-20.051c-0.0352-1.7109 1.1914-2.3555 2.7773-3.0195 5.0195-2.1094 9.2773-3.7695 13.418-5.3594v3.4375l-13.434 5.457c-0.23828 0.0937-0.42968 0.27734-0.15234 0.5625l13.586 13.539zm21.105-35.578-13.734 34.41c-0.3789 0.75781-0.95312 1.1484-1.7344 1.1719l-5.6367-4e-3v-6.8594l4.1797 4.168c0.27734 0.27734 0.51562 0.21094 0.67187-0.17969l8.8125-22.051c0.12891-0.32422 0.0312-0.53125-0.19922-0.75781l-4-4.0117c-0.23437-0.23828-0.55078-0.34375-0.86719-0.21484l-8.5976 3.4883v-3.4375c5.9688-2.2969 11.691-4.4492 19.109-7.6172 1.4024-0.59766 2.6445 0.27734 1.9961 1.8945"/>
   <path d="m234.87 271.46 13.738 34.41c0.375 0.76172 0.95313 1.1484 1.7305 1.1719l5.6602-0.0039v-6.8789l-4.043 4.0273c-0.27344 0.28125-0.72266 0.25391-0.87891-0.13672l-8.6406-21.949c-0.14844-0.3711-0.15234-0.60547 0.15234-0.91016l3.9062-3.9062c0.23438-0.23438 0.51172-0.30078 0.82813-0.17188l8.6758 3.5195v-3.4414c-5.9766-2.2969-11.703-4.4531-19.133-7.625-1.4024-0.59766-2.6406 0.27734-1.9961 1.8945m21.129 35.578 14.789-0.0117c0.92188 0 1.4141-0.48828 1.4141-1.4141l-0.0312-20.051c0.0352-1.7109-1.1914-2.3555-2.7734-3.0195-5.0156-2.1055-9.2656-3.7656-13.398-5.3516v3.4414l13.414 5.4414c0.22266 0.0977 0.34766 0.36719 0.15625 0.5625l-13.57 13.523z"/>
   <path d="m297.6 307.09h-21.379c-0.73829 0-1.2109-0.37109-1.207-1.2773l0.0625-20.977c4e-3 -1.0312 0.25391-1.4062 0.53125-1.9414 6.9024-13.211 13.617-26.07 20.516-39.281 0.34766-0.63672 0.90625-0.94922 1.4766-0.9375v15.309h-3.8398c-0.44922 0-0.78906 0.19141-0.97266 0.5625l-12.727 24.328c-0.34375 0.65625-0.16797 1.1211 0.63672 1.1211l16.902-0.0117zm1.5078-63.453 20.523 39.309c0.34375 0.66015 0.5 1.4102 0.5 2.3203v20.656c-0.0117 0.74609-0.40625 1.1367-1.1758 1.168h-21.355v-23.105l17.199-8e-3c0.51563 0.0273 0.61719-0.32031 0.40625-0.73438l-13.246-24.594c-0.24219-0.44922-0.46485-0.66406-0.99219-0.66406h-3.3672v-15.309c0.5586 8e-3 1.125 0.32812 1.5078 0.96093"/>
   <path d="m250.77 309.79h93.801c1.0195 0 1.8594 0.83593 1.8594 1.8594s-0.83984 1.8594-1.8594 1.8594h-93.801c-1.0234 0-1.8594-0.83594-1.8594-1.8594s0.83594-1.8594 1.8594-1.8594"/>
  </g>
 </g>
</svg>
