<svg width="120" height="104" viewBox="0 0 120 104" fill="none" xmlns="http://www.w3.org/2000/svg">
<path d="M46.7183 13.0395C31.81 3.21541 19.814 12.7827 15.6795 18.7944C5.6731 35.5544 19.7276 45.3353 23.3502 48.501C26.2484 51.0336 32.6496 49.3527 35.488 48.1957C32.9843 51.9951 44.917 58.3015 50.4598 60.916C56.0026 63.5306 56.0352 58.362 58.7981 58.107C61.5611 57.852 80.1799 67.0069 77.2442 68.7054C74.3084 70.404 69.2478 79.2649 76.9377 90.041C84.6275 100.817 89.981 101.75 94.2364 99.624C98.4919 97.4978 85.2676 85.6696 82.6112 83.4001C79.9549 81.1307 80.4109 76.5008 82.6312 75.888C84.8515 75.2752 90.7979 85.9404 96.825 77.9755C101.647 71.6036 95.8947 65.0799 92.4159 62.6145C93.6358 56.9831 68.6937 43.0902 69.454 39.1799C71.4809 36.1042 70.4683 33.3202 69.0927 31.065C53.5442 19.6137 55.3424 22.0039 51.9409 23.228C52.5458 19.4748 48.9497 14.5099 46.7183 13.0395Z" fill="white" stroke="black" stroke-width="0.5"/>
<path d="M27.3291 44.7295L45.2313 17.5624C47.4195 19.7415 48.9507 22.4936 49.6505 25.5051L36.3723 45.6552C33.3287 46.201 30.1952 45.8802 27.3291 44.7295V44.7295Z" stroke="black" stroke-width="2" stroke-miterlimit="10"/>
<path d="M41.1361 14.5754C41.1186 14.5977 41.1029 14.6215 41.0893 14.6463L22.9714 42.1407C19.8193 39.541 17.7417 35.8639 17.1382 31.8167C16.5347 27.7696 17.4479 23.6382 19.7021 20.2173C21.9564 16.7964 25.3925 14.3276 29.3496 13.2857C33.3066 12.2438 37.505 12.7024 41.1374 14.5734L41.1361 14.5754Z" stroke="black" stroke-width="2" stroke-miterlimit="10"/>
<path d="M43.0028 14.2471L44.9258 15.5143C45.2315 15.7164 45.4443 16.0318 45.5177 16.3913C45.591 16.7508 45.519 17.1251 45.3174 17.4322L27.1449 45.0094C26.9422 45.3158 26.6267 45.5297 26.2674 45.604C25.9081 45.6784 25.5343 45.6073 25.2281 45.4062L23.305 44.139C22.9989 43.9372 22.7857 43.6219 22.7123 43.2622C22.6389 42.9025 22.7112 42.528 22.9135 42.221L41.086 14.6439C41.0996 14.619 41.1153 14.5952 41.1328 14.5729C41.3445 14.2898 41.6562 14.0983 42.004 14.0378C42.3517 13.9772 42.7091 14.0521 43.0028 14.2471V14.2471Z" stroke="black" stroke-width="2" stroke-miterlimit="10"/>
<path d="M52.08 26.0804L38.4237 46.8042C37.7226 47.868 38.0144 49.2972 39.0753 49.9964L50.578 57.5763C51.639 58.2754 53.0673 57.9797 53.7684 56.9159L67.4247 36.1921C68.1258 35.1282 67.834 33.699 66.773 32.9999L55.2704 25.42C54.2094 24.7209 52.781 25.0165 52.08 26.0804Z" stroke="black" stroke-width="2" stroke-miterlimit="10"/>
<path d="M56.5518 52.6924L81.8132 66.6581C82.3098 66.9327 82.8921 67.0093 83.4437 66.8727C83.9953 66.7361 84.4757 66.3964 84.7888 65.9213L87.8706 61.2446C88.1816 60.7721 88.3046 60.2006 88.2153 59.6428C88.126 59.085 87.8309 58.5816 87.3883 58.2319L64.7058 40.3184L56.5518 52.6924ZM73.3929 52.3037L71.2115 55.614C71.0943 55.7918 70.9115 55.9159 70.7033 55.959C70.4951 56.0021 70.2785 55.9607 70.1012 55.8439L64.2142 51.9645C63.9115 51.7651 63.7006 51.4534 63.6277 51.0978C63.5548 50.7423 63.6259 50.372 63.8253 50.0682L65.3844 47.7022C65.4835 47.5519 65.6112 47.4225 65.7601 47.3215C65.9091 47.2204 66.0764 47.1498 66.2525 47.1135C66.4286 47.0772 66.61 47.076 66.7864 47.11C66.9628 47.1439 67.1306 47.2124 67.2804 47.3115L73.1674 51.1908C73.2553 51.2488 73.331 51.3236 73.3899 51.4109C73.4489 51.4983 73.49 51.5964 73.511 51.6998C73.5319 51.8032 73.5323 51.9097 73.512 52.0134C73.4917 52.117 73.4513 52.2156 73.3929 52.3037Z" stroke="black" stroke-width="2" stroke-miterlimit="10"/>
<path d="M67.3531 47.2914L70.1668 49.1455L67.1019 53.7966L64.2882 51.9425C63.9753 51.7363 63.7573 51.4139 63.6823 51.0463C63.6072 50.6786 63.6812 50.2958 63.8879 49.9821L65.3925 47.6989C65.4947 47.5432 65.6265 47.4092 65.7804 47.3044C65.9343 47.1996 66.1073 47.1262 66.2894 47.0884C66.4715 47.0505 66.6592 47.049 66.8417 47.0838C67.0242 47.1187 67.198 47.1892 67.3531 47.2914V47.2914Z" stroke="black" stroke-width="2" stroke-miterlimit="10"/>
<path d="M70.1674 49.1453L73.1306 51.0979C73.3262 51.2268 73.4624 51.4283 73.5093 51.6581C73.5562 51.8878 73.51 52.1271 73.3807 52.3232L71.2903 55.4955C71.161 55.6916 70.9594 55.8285 70.7298 55.876C70.5001 55.9236 70.2613 55.8779 70.0657 55.749L67.1025 53.7964L70.1674 49.1453Z" stroke="black" stroke-width="2" stroke-miterlimit="10"/>
<path d="M87.9018 61.2113L90.6369 63.0136C90.7548 63.0913 90.8369 63.2127 90.8651 63.3512C90.8934 63.4896 90.8655 63.6338 90.7877 63.752L88.6205 67.0407C88.5427 67.1589 88.4212 67.2414 88.2828 67.27C88.1444 67.2986 88.0004 67.2711 87.8825 67.1934L85.1475 65.3911L87.9018 61.2113Z" stroke="black" stroke-width="2" stroke-miterlimit="10"/>
<path d="M83.1992 87.4845L88.2014 92.0561C88.6086 92.4292 88.8644 92.9393 88.9202 93.4896C88.9761 94.0398 88.8282 94.592 88.5045 95.0412L88.4642 95.1024C88.4247 95.1541 88.3826 95.2037 88.338 95.2511C88.1373 95.4709 87.8953 95.6489 87.6259 95.775C87.3565 95.901 87.065 95.9726 86.7682 95.9857C86.4714 95.9987 86.175 95.9529 85.8962 95.8509C85.6174 95.7489 85.3616 95.5927 85.1435 95.3913L80.1564 90.8183L81.5086 89.3397L81.7338 89.0921L83.1992 87.4845Z" stroke="black" stroke-width="2" stroke-miterlimit="10"/>
<path d="M88.4763 95.4528C89.3374 96.2087 90.1957 96.9675 91.0512 97.7292" stroke="black" stroke-width="2" stroke-miterlimit="10" stroke-linecap="round"/>
<path d="M89.7732 65.7697C91.2004 66.6339 92.64 67.509 93.839 68.6724C95.038 69.8357 95.9828 71.3293 96.1837 72.9887C96.3846 74.6481 95.7247 76.467 94.3092 77.361C93.1259 78.1082 91.5885 78.1131 90.2695 77.6455C88.9505 77.1778 87.8479 76.2533 86.8868 75.2383C86.0734 74.3799 85.344 73.4326 84.4408 72.6678C83.5376 71.9029 82.4037 71.3254 81.2214 71.3692C79.8869 71.4258 78.6753 72.293 77.9517 73.4167C77.2282 74.5404 76.9343 75.8936 76.8319 77.2258C76.6796 79.4653 77.019 81.7098 77.8261 83.8016C78.6333 85.8934 79.8887 87.7817 81.5041 89.3338" stroke="black" stroke-width="2" stroke-miterlimit="10"/>
</svg>
