<svg width="154" height="80" viewBox="0 0 154 80" fill="none" xmlns="http://www.w3.org/2000/svg">
<path d="M1.37748 64.2812C1.37748 64.2812 4.67515 43.8269 25.2736 39.8217C25.2736 39.8217 17.2696 34.1436 17.9379 23.7635C18.6062 13.3835 28.3092 4.85979 38.1782 4.85979C48.0472 4.85979 55.4789 10.2147 56.1953 13.7264C56.1953 13.7264 60.5936 0.511671 76.4858 1.01396C92.3779 1.51626 94.7169 11.0424 95.3873 12.2195C94.4417 10.5597 102.122 6.14173 102.974 5.78358C108.34 3.53199 114.782 4.07359 119.875 6.82529C127.071 10.7148 132.053 19.8915 131.197 28.1007C131.031 29.7015 127.89 39.3215 125.331 38.4829C133.608 41.1931 141.983 48.6817 147.403 55.2661C149.805 58.1794 154.293 63.8007 152.644 67.9501C150.825 72.5363 142.293 73.2133 138.126 73.7134C101.075 78.1482 63.7101 79.386 26.4463 77.4129C20.1196 77.0657 -2.15605 75.0587 1.37748 64.2812Z" fill="white" stroke="black" stroke-width="2" stroke-miterlimit="10"/>
<path d="M109.41 64.281H45.2168C45.7218 62.0791 46.4536 59.9354 47.4007 57.8844C49.3905 53.5814 52.2817 49.7563 55.8785 46.668C56.2039 46.3884 56.5337 46.1176 56.87 45.849C60.2691 43.1536 64.1669 41.1557 68.3398 39.97C69.0932 39.7419 69.8588 39.556 70.6329 39.4131C71.382 39.293 72.2031 39.2253 72.5984 38.4849C73.0177 37.7097 72.6814 36.7575 72.0983 36.1635C71.5152 35.5695 70.7202 35.327 70.0105 34.9077C69.2951 34.4786 68.6152 33.993 67.9773 33.4554C66.6949 32.3822 65.6036 31.0996 64.7495 29.662C63.4346 27.443 62.7318 24.915 62.7127 22.3358C62.6935 19.7565 63.3588 17.2183 64.6406 14.9801C65.9223 12.7418 67.7748 10.8835 70.009 9.59469C72.2433 8.30588 74.7793 7.63266 77.3586 7.64369C79.9379 7.65472 82.4681 8.3496 84.6913 9.65747C86.9144 10.9653 88.7509 12.8394 90.0135 15.0886C91.2761 17.3377 91.9196 19.8815 91.8784 22.4605C91.8372 25.0394 91.1128 27.5614 89.779 29.7691C89.0986 30.9057 88.2686 31.9458 87.3112 32.8614C86.8229 33.3153 86.3081 33.7397 85.7694 34.1325C84.5901 35.006 82.712 35.2047 82.2206 36.7902C81.9411 37.6922 82.2206 38.8125 83.0483 39.3039C83.9437 39.8346 84.9832 39.7407 85.9572 40.0071C87.1976 40.352 88.4174 40.7669 89.6109 41.2497C92.0071 42.1533 94.2813 43.352 96.3809 44.8182C96.4377 44.8532 96.4923 44.8947 96.5469 44.934C100.423 47.7322 103.65 51.3348 106.005 55.4953C107.558 58.2443 108.705 61.2035 109.41 64.281Z" fill="white" stroke="black" stroke-width="2" stroke-miterlimit="10"/>
<path d="M140.277 64.2811H110.415C110.132 64.2821 109.857 64.1891 109.633 64.0167C109.409 63.8444 109.248 63.6024 109.177 63.3289C108.464 60.5927 107.401 57.9603 106.012 55.4975C103.657 51.337 100.43 47.7344 96.5537 44.9362C96.4991 44.8969 96.4445 44.8554 96.3877 44.8204C98.4106 43.7351 100.546 42.8739 102.756 42.2522C103.481 42.033 104.218 41.8558 104.964 41.7215C105.687 41.6036 106.482 41.5381 106.866 40.8261C107.272 40.077 106.949 39.1576 106.386 38.5855C105.822 38.0133 105.056 37.7796 104.372 37.3734C103.68 36.9599 103.023 36.491 102.406 35.9713C100.226 34.1473 98.6509 31.7037 97.8905 28.9643C97.1302 26.2249 97.2204 23.3191 98.149 20.6321C99.0777 17.9451 100.801 15.6037 103.091 13.9184C105.38 12.2331 108.128 11.2834 110.969 11.1952C113.811 11.107 116.612 11.8845 119.002 13.4246C121.392 14.9647 123.257 17.1946 124.351 19.8188C125.444 22.4431 125.714 25.3377 125.125 28.119C124.536 30.9003 123.116 33.4369 121.053 35.3926C120.583 35.8325 120.087 36.2431 119.567 36.6221C118.427 37.4629 116.617 37.6573 116.143 39.1838C115.872 40.0574 116.143 41.1362 116.942 41.6101C117.803 42.1212 118.81 42.0469 119.747 42.2871C120.944 42.6208 122.121 43.021 123.274 43.4861C125.649 44.3807 127.901 45.5755 129.974 47.0415C133.713 49.7388 136.826 53.2126 139.098 57.2249C140.064 58.931 140.868 60.7238 141.5 62.5798C141.566 62.7739 141.585 62.9809 141.555 63.1837C141.525 63.3865 141.447 63.5791 141.327 63.7456C141.208 63.9121 141.05 64.0475 140.867 64.1406C140.685 64.2338 140.482 64.2819 140.277 64.2811Z" fill="white" stroke="black" stroke-width="2" stroke-miterlimit="10"/>
<path d="M55.7406 45.2092C55.868 45.2769 55.9767 45.3752 56.0568 45.4951C56.137 45.6151 56.1862 45.753 56.2001 45.8967C56.2139 46.0403 56.192 46.1851 56.1362 46.3182C56.0804 46.4513 55.9925 46.5685 55.8804 46.6593C52.2835 49.7476 49.3923 53.5727 47.4025 57.8757C46.556 59.7159 45.8819 61.6306 45.389 63.5953C45.3421 63.7878 45.2322 63.9591 45.0766 64.0818C44.921 64.2045 44.7289 64.2716 44.5307 64.2723H10.6805C10.541 64.2746 10.403 64.2433 10.278 64.1813C10.1531 64.1193 10.0448 64.0282 9.96226 63.9157C9.87972 63.8032 9.82532 63.6726 9.80361 63.5348C9.7819 63.397 9.79351 63.256 9.83748 63.1236C10.2282 61.8947 10.695 60.6912 11.2352 59.5202C13.1593 55.3571 15.9601 51.6589 19.4459 48.6785C22.9317 45.6982 27.0203 43.5061 31.4318 42.2522C32.1569 42.033 32.8941 41.8558 33.6397 41.7215C34.3625 41.6036 35.1575 41.5381 35.5418 40.8261C35.948 40.077 35.6248 39.1576 35.0614 38.5855C34.4979 38.0133 33.7314 37.7796 33.0478 37.3734C32.3559 36.9599 31.6986 36.491 31.0823 35.9713C28.9016 34.1473 27.3267 31.7037 26.5664 28.9643C25.8061 26.2249 25.8962 23.3191 26.8249 20.6321C27.7535 17.9451 29.4769 15.6037 31.7665 13.9184C34.0561 12.2331 36.8038 11.2834 39.6453 11.1952C42.4869 11.107 45.2882 11.8845 47.6779 13.4246C50.0676 14.9647 51.9329 17.1946 53.0264 19.8188C54.1199 22.4431 54.3901 25.3377 53.8011 28.119C53.2121 30.9003 51.7918 33.4369 49.7284 35.3926C49.2591 35.8325 48.7631 36.2431 48.2433 36.6221C47.1033 37.4629 45.2929 37.6573 44.819 39.1838C44.5526 40.0574 44.819 41.1362 45.6183 41.6101C46.4787 42.1212 47.4833 42.0469 48.4224 42.2871C49.623 42.6175 50.8042 43.0149 51.9603 43.4773C53.2559 43.9738 54.5186 44.5522 55.7406 45.2092Z" fill="white" stroke="black" stroke-width="2" stroke-miterlimit="10"/>
<path d="M19.2182 64.2813C19.2182 64.2813 18.6504 56.1441 25.2741 48.3848L19.2182 64.2813Z" fill="white"/>
<path d="M19.2182 64.2813C19.2182 64.2813 18.6504 56.1441 25.2741 48.3848" stroke="black" stroke-width="2" stroke-linecap="round" stroke-linejoin="round"/>
<path d="M131.453 64.2815C131.406 61.3795 130.682 58.5286 129.339 55.9555C127.996 53.3824 126.071 51.1581 123.718 49.4595" fill="white"/>
<path d="M131.453 64.2815C131.406 61.3795 130.682 58.5286 129.339 55.9555C127.996 53.3824 126.071 51.1581 123.718 49.4595" stroke="black" stroke-width="2" stroke-linecap="round" stroke-linejoin="round"/>
</svg>
