<svg width="406" height="218" viewBox="0 0 406 218" fill="none" xmlns="http://www.w3.org/2000/svg">
<g id="pass">
<path id="Vector 112" d="M7.55371 215.389L185.888 215.964C188.223 215.972 190.097 214.068 190.593 211.787C191.66 206.89 194.717 201.198 201.787 201.221C209.003 201.244 212.424 207.193 213.752 212.162C214.327 214.314 216.152 216.053 218.378 216.047L397.167 215.631C399.937 215.625 401.325 212.279 399.372 210.313L390.765 201.65C389.119 199.994 389.128 197.318 390.784 195.672L397.509 188.991C399.165 187.345 399.174 184.669 397.528 183.013L390.847 176.288C389.201 174.632 389.21 171.956 390.866 170.31L397.591 163.629C399.247 161.983 399.255 159.307 397.61 157.651L390.929 150.926C389.283 149.27 389.292 146.594 390.948 144.948L397.673 138.267C399.329 136.621 399.337 133.945 397.692 132.289L391.011 125.564C389.365 123.908 389.374 121.232 391.03 119.586L397.755 112.905C399.411 111.259 399.419 108.583 397.774 106.927L391.092 100.202C389.447 98.546 389.456 95.8696 391.112 94.2242L397.836 87.5427C399.493 85.8973 399.501 83.2209 397.856 81.5648L391.174 74.84C389.529 73.1839 389.538 70.5075 391.194 68.8621L397.918 62.1807C399.574 60.5353 399.583 57.8589 397.938 56.2028L391.256 49.478C389.611 47.8219 389.619 45.1455 391.276 43.5001L398 36.8187C399.656 35.1732 399.665 32.4968 398.02 30.8408L391.651 24.4308C389.888 22.6568 390.043 19.7487 391.983 18.1714L399.566 12.0079C399.859 11.7703 400.078 11.4547 400.198 11.0977C400.632 9.8086 399.676 8.47282 398.316 8.46842L218.263 7.88696C215.928 7.87942 214.061 9.79852 213.403 12.0383C212.211 16.0935 209.121 20.5386 202.371 20.5168C195.45 20.4944 192.408 15.4118 191.311 10.9256C190.757 8.65792 188.898 6.73537 186.564 6.72783L7.8909 6.15082C5.9866 6.14467 4.74157 8.14469 5.5877 9.85071C5.75766 10.1934 6.00221 10.4937 6.30338 10.7295L11.5626 14.8473C13.5645 16.4148 13.7396 19.3821 11.936 21.1741L6.66954 26.4067C5.01346 28.0521 5.00482 30.7284 6.65024 32.3845L12.2784 38.0491C13.9238 39.7052 13.9151 42.3816 12.2591 44.027L6.59446 49.6552C4.93838 51.3006 4.92974 53.977 6.57516 55.633L12.2033 61.2976C13.8487 62.9537 13.8401 65.6301 12.184 67.2755L6.51938 72.9037C4.86331 74.5491 4.85466 77.2255 6.50008 78.8816L12.1282 84.5462C13.7736 86.2022 13.765 88.8786 12.1089 90.524L6.4443 96.1522C4.78823 97.7976 4.77958 100.474 6.425 102.13L12.0531 107.795C13.6986 109.451 13.6899 112.127 12.0338 113.773L6.36922 119.401C4.71315 121.046 4.7045 123.722 6.34992 125.379L11.9781 131.043C13.6235 132.699 13.6148 135.376 11.9588 137.021L6.29414 142.649C4.63807 144.295 4.62942 146.971 6.27484 148.627L11.903 154.292C13.5484 155.948 13.5398 158.624 11.8837 160.27L6.21907 165.898C4.56299 167.543 4.55434 170.22 6.19976 171.876L11.8279 177.54C13.4733 179.196 13.4647 181.873 11.8086 183.518L6.14399 189.146C4.48791 190.792 4.47926 193.468 6.12468 195.124L11.7528 200.789C13.3982 202.445 13.3896 205.121 11.7335 206.767L6.2508 212.214C5.07712 213.38 5.89922 215.383 7.55371 215.389Z" fill="black" stroke="black" stroke-width="2.11351"/>
<path id="Vector 111" d="M4.4834 211.251L182.818 211.827C185.152 211.834 187.026 209.93 187.523 207.649C188.589 202.752 191.647 197.061 198.717 197.083C205.932 197.107 209.354 203.056 210.682 208.025C211.257 210.176 213.081 211.915 215.308 211.91L394.096 211.494C396.867 211.487 398.255 208.141 396.302 206.176L387.694 197.512C386.049 195.856 386.058 193.18 387.714 191.535L394.439 184.853C396.095 183.208 396.103 180.531 394.458 178.875L387.776 172.15C386.131 170.494 386.14 167.818 387.796 166.172L394.52 159.491C396.177 157.846 396.185 155.169 394.54 153.513L387.858 146.788C386.213 145.132 386.222 142.456 387.878 140.81L394.602 134.129C396.258 132.484 396.267 129.807 394.622 128.151L387.94 121.426C386.295 119.77 386.303 117.094 387.96 115.448L394.684 108.767C396.34 107.122 396.349 104.445 394.704 102.789L388.022 96.0643C386.377 94.4083 386.385 91.7319 388.041 90.0865L394.766 83.405C396.422 81.7596 396.431 79.0832 394.785 77.4271L388.104 70.7023C386.459 69.0462 386.467 66.3699 388.123 64.7245L394.848 58.043C396.504 56.3976 396.513 53.7212 394.867 52.0651L388.186 45.3403C386.541 43.6842 386.549 41.0079 388.205 39.3624L394.93 32.681C396.586 31.0355 396.595 28.3592 394.949 26.7031L388.581 20.2931C386.818 18.5191 386.972 15.611 388.913 14.0337L396.496 7.87022C396.788 7.63262 397.007 7.31702 397.128 6.96002C397.562 5.6709 396.606 4.33512 395.245 4.33073L215.193 3.74926C212.858 3.74172 210.991 5.66083 210.333 7.90062C209.141 11.9558 206.051 16.4009 199.3 16.3791C192.379 16.3567 189.338 11.2741 188.241 6.78794C187.687 4.52022 185.828 2.59768 183.494 2.59014L4.82059 2.01313C2.91629 2.00698 1.67126 4.00699 2.51739 5.71301C2.68735 6.0557 2.93189 6.35596 3.23307 6.59178L8.49229 10.7096C10.4942 12.2771 10.6693 15.2444 8.86568 17.0364L3.59923 22.269C1.94315 23.9144 1.93451 26.5908 3.57992 28.2468L9.20806 33.9114C10.8535 35.5675 10.8448 38.2439 9.18876 39.8893L3.52415 45.5175C1.86807 47.1629 1.85943 49.8393 3.50484 51.4954L9.13298 57.16C10.7784 58.816 10.7698 61.4924 9.11368 63.1378L3.44907 68.766C1.79299 70.4114 1.78435 73.0878 3.42977 74.7439L9.0579 80.4085C10.7033 82.0646 10.6947 84.7409 9.0386 86.3863L3.37399 92.0145C1.71791 93.6599 1.70927 96.3363 3.35469 97.9924L8.98282 103.657C10.6282 105.313 10.6196 107.989 8.96352 109.635L3.29891 115.263C1.64283 116.908 1.63419 119.585 3.27961 121.241L8.90774 126.905C10.5532 128.562 10.5445 131.238 8.88844 132.883L3.22383 138.512C1.56775 140.157 1.55911 142.833 3.20453 144.489L8.83266 150.154C10.4781 151.81 10.4694 154.486 8.81336 156.132L3.14875 161.76C1.49268 163.405 1.48403 166.082 3.12945 167.738L8.75759 173.403C10.403 175.059 10.3944 177.735 8.73828 179.38L3.07367 185.009C1.4176 186.654 1.40895 189.33 3.05437 190.986L8.68251 196.651C10.3279 198.307 10.3193 200.983 8.6632 202.629L3.18049 208.076C2.00681 209.242 2.82891 211.245 4.4834 211.251Z" fill="#FFEA00" stroke="black" stroke-width="2.11351"/>
<line id="Line 38" x1="198.35" y1="194.513" x2="198.35" y2="18.7244" stroke="black" stroke-width="2.13508" stroke-linecap="round" stroke-dasharray="10.68 10.68"/>
<path id="Rs 800" d="M270.052 137V124.4H274.768C275.836 124.4 276.754 124.574 277.522 124.922C278.29 125.258 278.878 125.75 279.286 126.398C279.706 127.034 279.916 127.808 279.916 128.72C279.916 129.608 279.706 130.376 279.286 131.024C278.878 131.66 278.29 132.152 277.522 132.5C276.754 132.836 275.836 133.004 274.768 133.004H270.79L271.384 132.392V137H270.052ZM278.656 137L275.416 132.428H276.856L280.114 137H278.656ZM271.384 132.5L270.79 131.87H274.732C275.992 131.87 276.946 131.594 277.594 131.042C278.254 130.49 278.584 129.716 278.584 128.72C278.584 127.712 278.254 126.932 277.594 126.38C276.946 125.828 275.992 125.552 274.732 125.552H270.79L271.384 124.922V132.5ZM285.328 137.09C284.548 137.09 283.81 136.982 283.114 136.766C282.418 136.538 281.872 136.256 281.476 135.92L282.052 134.912C282.436 135.2 282.928 135.452 283.528 135.668C284.128 135.872 284.758 135.974 285.418 135.974C286.318 135.974 286.966 135.836 287.362 135.56C287.758 135.272 287.956 134.894 287.956 134.426C287.956 134.078 287.842 133.808 287.614 133.616C287.398 133.412 287.11 133.262 286.75 133.166C286.39 133.058 285.988 132.968 285.544 132.896C285.1 132.824 284.656 132.74 284.212 132.644C283.78 132.548 283.384 132.41 283.024 132.23C282.664 132.038 282.37 131.78 282.142 131.456C281.926 131.132 281.818 130.7 281.818 130.16C281.818 129.644 281.962 129.182 282.25 128.774C282.538 128.366 282.958 128.048 283.51 127.82C284.074 127.58 284.758 127.46 285.562 127.46C286.174 127.46 286.786 127.544 287.398 127.712C288.01 127.868 288.514 128.078 288.91 128.342L288.352 129.368C287.932 129.08 287.482 128.876 287.002 128.756C286.522 128.624 286.042 128.558 285.562 128.558C284.71 128.558 284.08 128.708 283.672 129.008C283.276 129.296 283.078 129.668 283.078 130.124C283.078 130.484 283.186 130.766 283.402 130.97C283.63 131.174 283.924 131.336 284.284 131.456C284.656 131.564 285.058 131.654 285.49 131.726C285.934 131.798 286.372 131.888 286.804 131.996C287.248 132.092 287.65 132.23 288.01 132.41C288.382 132.578 288.676 132.824 288.892 133.148C289.12 133.46 289.234 133.874 289.234 134.39C289.234 134.942 289.078 135.422 288.766 135.83C288.466 136.226 288.022 136.538 287.434 136.766C286.858 136.982 286.156 137.09 285.328 137.09ZM300.232 137.108C299.224 137.108 298.354 136.964 297.622 136.676C296.902 136.388 296.344 135.974 295.948 135.434C295.564 134.882 295.372 134.234 295.372 133.49C295.372 132.77 295.558 132.158 295.93 131.654C296.314 131.138 296.866 130.742 297.586 130.466C298.318 130.19 299.2 130.052 300.232 130.052C301.252 130.052 302.128 130.19 302.86 130.466C303.592 130.742 304.15 131.138 304.534 131.654C304.93 132.158 305.128 132.77 305.128 133.49C305.128 134.234 304.93 134.882 304.534 135.434C304.138 135.974 303.574 136.388 302.842 136.676C302.11 136.964 301.24 137.108 300.232 137.108ZM300.232 136.01C301.348 136.01 302.218 135.782 302.842 135.326C303.478 134.87 303.796 134.252 303.796 133.472C303.796 132.692 303.478 132.08 302.842 131.636C302.218 131.18 301.348 130.952 300.232 130.952C299.116 130.952 298.246 131.18 297.622 131.636C296.998 132.08 296.686 132.692 296.686 133.472C296.686 134.252 296.998 134.87 297.622 135.326C298.246 135.782 299.116 136.01 300.232 136.01ZM300.232 130.79C299.296 130.79 298.498 130.664 297.838 130.412C297.19 130.16 296.692 129.8 296.344 129.332C295.996 128.852 295.822 128.282 295.822 127.622C295.822 126.926 296.002 126.332 296.362 125.84C296.734 125.336 297.25 124.952 297.91 124.688C298.57 124.424 299.344 124.292 300.232 124.292C301.12 124.292 301.894 124.424 302.554 124.688C303.226 124.952 303.748 125.336 304.12 125.84C304.492 126.332 304.678 126.926 304.678 127.622C304.678 128.282 304.504 128.852 304.156 129.332C303.808 129.8 303.298 130.16 302.626 130.412C301.966 130.664 301.168 130.79 300.232 130.79ZM300.232 129.926C301.216 129.926 301.984 129.722 302.536 129.314C303.088 128.906 303.364 128.36 303.364 127.676C303.364 126.956 303.076 126.398 302.5 126.002C301.936 125.594 301.18 125.39 300.232 125.39C299.284 125.39 298.528 125.594 297.964 126.002C297.4 126.398 297.118 126.95 297.118 127.658C297.118 128.354 297.388 128.906 297.928 129.314C298.48 129.722 299.248 129.926 300.232 129.926ZM311.944 137.108C310.972 137.108 310.108 136.856 309.352 136.352C308.596 135.836 308.002 135.104 307.57 134.156C307.138 133.196 306.922 132.044 306.922 130.7C306.922 129.356 307.138 128.21 307.57 127.262C308.002 126.302 308.596 125.57 309.352 125.066C310.108 124.55 310.972 124.292 311.944 124.292C312.916 124.292 313.78 124.55 314.536 125.066C315.292 125.57 315.886 126.302 316.318 127.262C316.762 128.21 316.984 129.356 316.984 130.7C316.984 132.044 316.762 133.196 316.318 134.156C315.886 135.104 315.292 135.836 314.536 136.352C313.78 136.856 312.916 137.108 311.944 137.108ZM311.944 135.92C312.688 135.92 313.336 135.722 313.888 135.326C314.44 134.918 314.872 134.33 315.184 133.562C315.496 132.782 315.652 131.828 315.652 130.7C315.652 129.572 315.496 128.624 315.184 127.856C314.872 127.076 314.44 126.488 313.888 126.092C313.336 125.684 312.688 125.48 311.944 125.48C311.224 125.48 310.582 125.684 310.018 126.092C309.454 126.488 309.016 127.076 308.704 127.856C308.392 128.624 308.236 129.572 308.236 130.7C308.236 131.828 308.392 132.782 308.704 133.562C309.016 134.33 309.454 134.918 310.018 135.326C310.582 135.722 311.224 135.92 311.944 135.92ZM323.862 137.108C322.89 137.108 322.026 136.856 321.27 136.352C320.514 135.836 319.92 135.104 319.488 134.156C319.056 133.196 318.84 132.044 318.84 130.7C318.84 129.356 319.056 128.21 319.488 127.262C319.92 126.302 320.514 125.57 321.27 125.066C322.026 124.55 322.89 124.292 323.862 124.292C324.834 124.292 325.698 124.55 326.454 125.066C327.21 125.57 327.804 126.302 328.236 127.262C328.68 128.21 328.902 129.356 328.902 130.7C328.902 132.044 328.68 133.196 328.236 134.156C327.804 135.104 327.21 135.836 326.454 136.352C325.698 136.856 324.834 137.108 323.862 137.108ZM323.862 135.92C324.606 135.92 325.254 135.722 325.806 135.326C326.358 134.918 326.79 134.33 327.102 133.562C327.414 132.782 327.57 131.828 327.57 130.7C327.57 129.572 327.414 128.624 327.102 127.856C326.79 127.076 326.358 126.488 325.806 126.092C325.254 125.684 324.606 125.48 323.862 125.48C323.142 125.48 322.5 125.684 321.936 126.092C321.372 126.488 320.934 127.076 320.622 127.856C320.31 128.624 320.154 129.572 320.154 130.7C320.154 131.828 320.31 132.782 320.622 133.562C320.934 134.33 321.372 134.918 321.936 135.326C322.5 135.722 323.142 135.92 323.862 135.92Z" fill="black"/>
<path id="Accommodation" d="M230.908 99L233.968 99L228.334 86.4L225.454 86.4L219.838 99L222.826 99L223.942 96.3L229.792 96.3L230.908 99ZM224.878 94.086L226.876 89.262L228.874 94.086L224.878 94.086ZM239.669 99.144C241.703 99.144 243.305 98.244 244.007 96.696L241.829 95.508C241.307 96.444 240.533 96.84 239.651 96.84C238.229 96.84 237.113 95.85 237.113 94.158C237.113 92.466 238.229 91.476 239.651 91.476C240.533 91.476 241.307 91.89 241.829 92.808L244.007 91.638C243.305 90.054 241.703 89.172 239.669 89.172C236.519 89.172 234.269 91.242 234.269 94.158C234.269 97.074 236.519 99.144 239.669 99.144ZM250.181 99.144C252.215 99.144 253.817 98.244 254.519 96.696L252.341 95.508C251.819 96.444 251.045 96.84 250.163 96.84C248.741 96.84 247.625 95.85 247.625 94.158C247.625 92.466 248.741 91.476 250.163 91.476C251.045 91.476 251.819 91.89 252.341 92.808L254.519 91.638C253.817 90.054 252.215 89.172 250.181 89.172C247.031 89.172 244.781 91.242 244.781 94.158C244.781 97.074 247.031 99.144 250.181 99.144ZM260.621 99.144C263.699 99.144 265.931 97.074 265.931 94.158C265.931 91.242 263.699 89.172 260.621 89.172C257.543 89.172 255.293 91.242 255.293 94.158C255.293 97.074 257.543 99.144 260.621 99.144ZM260.621 96.84C259.217 96.84 258.137 95.832 258.137 94.158C258.137 92.484 259.217 91.476 260.621 91.476C262.025 91.476 263.087 92.484 263.087 94.158C263.087 95.832 262.025 96.84 260.621 96.84ZM280.21 89.172C278.752 89.172 277.492 89.766 276.718 90.756C276.034 89.694 274.882 89.172 273.532 89.172C272.29 89.172 271.21 89.604 270.49 90.432V89.316L267.808 89.316L267.808 99L270.616 99V94.14C270.616 92.412 271.498 91.602 272.74 91.602C273.91 91.602 274.576 92.322 274.576 93.888V99L277.384 99V94.14C277.384 92.412 278.266 91.602 279.526 91.602C280.66 91.602 281.362 92.322 281.362 93.888V99L284.17 99V93.456C284.17 90.504 282.514 89.172 280.21 89.172ZM299.089 89.172C297.631 89.172 296.371 89.766 295.597 90.756C294.913 89.694 293.761 89.172 292.411 89.172C291.169 89.172 290.089 89.604 289.369 90.432V89.316L286.687 89.316L286.687 99L289.495 99V94.14C289.495 92.412 290.377 91.602 291.619 91.602C292.789 91.602 293.455 92.322 293.455 93.888V99L296.263 99V94.14C296.263 92.412 297.145 91.602 298.405 91.602C299.539 91.602 300.241 92.322 300.241 93.888V99L303.049 99V93.456C303.049 90.504 301.393 89.172 299.089 89.172ZM310.279 99.144C313.357 99.144 315.589 97.074 315.589 94.158C315.589 91.242 313.357 89.172 310.279 89.172C307.201 89.172 304.951 91.242 304.951 94.158C304.951 97.074 307.201 99.144 310.279 99.144ZM310.279 96.84C308.875 96.84 307.795 95.832 307.795 94.158C307.795 92.484 308.875 91.476 310.279 91.476C311.683 91.476 312.745 92.484 312.745 94.158C312.745 95.832 311.683 96.84 310.279 96.84ZM324.522 85.644L324.522 90.342C323.82 89.55 322.812 89.172 321.624 89.172C318.888 89.172 316.782 91.116 316.782 94.158C316.782 97.2 318.888 99.144 321.624 99.144C322.92 99.144 323.946 98.73 324.648 97.884V99L327.33 99L327.33 85.644L324.522 85.644ZM322.11 96.84C320.706 96.84 319.626 95.832 319.626 94.158C319.626 92.484 320.706 91.476 322.11 91.476C323.496 91.476 324.576 92.484 324.576 94.158C324.576 95.832 323.496 96.84 322.11 96.84ZM333.835 89.172C332.287 89.172 330.721 89.586 329.659 90.342L330.667 92.304C331.369 91.746 332.431 91.404 333.457 91.404C334.969 91.404 335.689 92.106 335.689 93.312L333.457 93.312C330.505 93.312 329.299 94.5 329.299 96.21C329.299 97.884 330.649 99.144 332.917 99.144C334.339 99.144 335.347 98.676 335.869 97.794V99L338.497 99V93.474C338.497 90.54 336.787 89.172 333.835 89.172ZM333.619 97.254C332.629 97.254 332.035 96.786 332.035 96.084C332.035 95.436 332.449 94.95 333.763 94.95L335.689 94.95V95.94C335.365 96.822 334.555 97.254 333.619 97.254ZM346.528 96.552C346.222 96.786 345.808 96.912 345.394 96.912C344.638 96.912 344.188 96.462 344.188 95.634L344.188 91.692L346.6 91.692V89.532L344.188 89.532V87.174L341.38 87.174V89.532L339.886 89.532V91.692L341.38 91.692L341.38 95.67C341.38 97.974 342.712 99.144 344.998 99.144C345.862 99.144 346.708 98.946 347.284 98.532L346.528 96.552ZM350.264 87.966C351.308 87.966 352.01 87.282 352.01 86.346C352.01 85.482 351.308 84.834 350.264 84.834C349.22 84.834 348.518 85.518 348.518 86.4C348.518 87.282 349.22 87.966 350.264 87.966ZM348.86 99L351.668 99L351.668 89.316L348.86 89.316L348.86 99ZM358.883 99.144C361.961 99.144 364.193 97.074 364.193 94.158C364.193 91.242 361.961 89.172 358.883 89.172C355.805 89.172 353.555 91.242 353.555 94.158C353.555 97.074 355.805 99.144 358.883 99.144ZM358.883 96.84C357.479 96.84 356.399 95.832 356.399 94.158C356.399 92.484 357.479 91.476 358.883 91.476C360.287 91.476 361.349 92.484 361.349 94.158C361.349 95.832 360.287 96.84 358.883 96.84ZM371.955 89.172C370.641 89.172 369.507 89.622 368.751 90.45V89.316L366.069 89.316L366.069 99L368.877 99V94.212C368.877 92.43 369.849 91.602 371.199 91.602C372.441 91.602 373.161 92.322 373.161 93.888V99L375.969 99V93.456C375.969 90.504 374.241 89.172 371.955 89.172Z" fill="black"/>
<g id="Black">
<path id="Vector" d="M66.7626 57.0203C49.1228 70.7867 34.3095 82.407 33.8646 82.852C33.1056 83.5586 33.0009 83.8465 33.0009 84.9719V86.2805L38.3138 91.5672C43.9931 97.2203 44.281 97.4297 46.1392 96.7754L47.1337 96.4352V128.6V160.766H40.7478H34.388L33.6813 161.446C32.713 162.441 32.713 164.325 33.6813 165.32L34.388 166H100.001H165.614L166.32 165.32C167.289 164.325 167.289 162.441 166.32 161.446L165.614 160.766H159.254H152.868V147.968V135.196L152.188 134.489C151.193 133.521 149.309 133.521 148.314 134.489L147.634 135.196V147.968V160.766H106.282H64.9306V147.837V134.934L64.2501 134.227C63.2556 133.259 61.3712 133.259 60.3767 134.227L59.6962 134.934V147.837V160.766H56.0321H52.3681L52.3942 126.402V92.0645L76.0798 73.6133C89.0872 63.4586 99.87 55.1621 100.001 55.1621C100.132 55.1621 110.915 63.4586 123.922 73.6133L147.608 92.0645V105.046L147.634 118.027L148.314 118.734C149.309 119.702 151.193 119.702 152.188 118.734L152.868 118.027V107.244V96.4352L153.863 96.7754C155.721 97.4297 156.009 97.2203 161.714 91.5672L167.001 86.2805V84.9457C167.001 83.2969 167.21 83.5063 157.5 75.9688L150.251 70.3418V56.7063V43.0707L149.57 42.3641L148.864 41.6836H140.044H131.224L130.543 42.3641L129.837 43.0445L129.784 48.6715L129.706 54.2723L115.442 43.1231C101.467 32.2356 101.152 32 100.001 32C98.8493 32 98.4567 32.2879 66.7626 57.0203ZM129.863 61.4434C146.037 74.0844 159.463 84.5793 159.673 84.7625C160.013 85.0766 159.725 85.4691 157.448 87.7461C156.009 89.1855 154.752 90.3633 154.622 90.3633C154.517 90.3633 142.661 81.2031 128.319 70.0016C113.977 58.8 101.938 49.4305 101.571 49.1949C100.76 48.6191 99.2419 48.6191 98.4306 49.1949C98.0642 49.4305 86.0251 58.8 71.6829 70.0016C57.3407 81.2031 45.511 90.3633 45.3802 90.3633C45.2493 90.3633 43.9931 89.1855 42.5536 87.7199L39.9364 85.1027L40.8524 84.3699C48.0497 78.5336 99.9485 38.3074 100.158 38.3859C100.315 38.4383 113.689 48.8285 129.863 61.4434ZM145.017 56.4707C145.017 61.7313 144.964 66.0234 144.886 66.0234C144.807 66.0234 142.635 64.3746 140.044 62.3332L135.333 58.6691V52.7805V46.918H140.175H145.017V56.4707Z" fill="black"/>
<path id="Vector_2" d="M72.9383 89.7352L72.2578 90.4418V116.797V143.152L72.9383 143.859L73.6449 144.539H100H126.355L127.062 143.859L127.742 143.152V116.797V90.4418L127.062 89.7352L126.355 89.0547H100H73.6449L72.9383 89.7352ZM97.3828 104.234V114.18H87.4375H77.4922V104.234V94.2891H87.4375H97.3828V104.234ZM122.508 104.234V114.18H112.562H102.617V104.234V94.2891H112.562H122.508V104.234ZM97.3828 129.359V139.305H87.4375H77.4922V129.359V119.414H87.4375H97.3828V129.359ZM122.508 129.359V139.305H112.562H102.617V129.359V119.414H112.562H122.508V129.359Z" fill="black"/>
<path id="Vector_3" d="M61.1086 123.313C60.2187 123.706 59.6953 124.674 59.6953 125.904C59.6953 126.82 59.8523 127.187 60.4543 127.815C62.1816 129.542 64.9297 128.338 64.9297 125.852C64.9297 124.282 64.1445 123.34 62.7051 123.209C62.1293 123.13 61.3965 123.183 61.1086 123.313Z" fill="black"/>
<path id="Vector_4" d="M148.313 125.329C147.764 125.879 147.633 126.271 147.633 127.266C147.633 128.26 147.764 128.653 148.313 129.202C148.863 129.752 149.255 129.883 150.25 129.883C151.245 129.883 151.637 129.752 152.187 129.202C152.736 128.653 152.867 128.26 152.867 127.266C152.867 126.271 152.736 125.879 152.187 125.329C151.637 124.779 151.245 124.648 150.25 124.648C149.255 124.648 148.863 124.779 148.313 125.329Z" fill="black"/>
</g>
</g>
</svg>
