<svg width="587" height="156" viewBox="0 0 587 156" fill="none" xmlns="http://www.w3.org/2000/svg">
<path d="M85 77.9583C50.9809 80.4943 42.8836 105.709 43.0873 118C40.5027 85.9666 13.9522 77.9583 1 77.9583C34.2507 76.5568 42.8545 50.7355 43 38C45.6545 71.0344 72.106 78.4032 85 77.9583Z" fill="#FFC900" stroke="black" stroke-width="3"/>
<g filter="url(#filter0_d_1277_173)">
<path d="M190.752 62.432C187.68 58.7627 184.053 55.904 179.872 53.856C175.776 51.7227 171.637 50.656 167.456 50.656C162.421 50.656 157.813 51.8933 153.632 54.368C149.451 56.8427 146.165 60.2133 143.776 64.48C141.387 68.7467 140.192 73.4827 140.192 78.688C140.192 83.8933 141.387 88.672 143.776 93.024C146.165 97.2907 149.451 100.704 153.632 103.264C157.813 105.739 162.421 106.976 167.456 106.976C171.467 106.976 175.52 106.037 179.616 104.16C183.797 102.197 187.509 99.5947 190.752 96.352L202.656 109.28C197.877 114.229 192.245 118.155 185.76 121.056C179.36 123.957 172.917 125.408 166.432 125.408C157.643 125.408 149.664 123.403 142.496 119.392C135.328 115.296 129.696 109.707 125.6 102.624C121.504 95.5413 119.456 87.648 119.456 78.944C119.456 70.3253 121.547 62.5173 125.728 55.52C129.909 48.5227 135.627 43.0187 142.88 39.008C150.219 34.9973 158.325 32.992 167.2 32.992C173.685 32.992 180.085 34.3573 186.4 37.088C192.715 39.7333 198.091 43.36 202.528 47.968L190.752 62.432ZM280.032 124L272.992 106.592H231.52L224.48 124H203.616L242.528 34.4H263.392L301.664 124H280.032ZM238.176 90.336H266.464L252.384 55.52L238.176 90.336ZM366.021 124L351.813 98.4H349.893H331.205V124H310.981V34.4H349.893C361.584 34.4 370.629 37.1307 377.029 42.592C383.429 47.968 386.629 55.6053 386.629 65.504C386.629 72.416 385.178 78.3467 382.277 83.296C379.461 88.16 375.322 91.872 369.861 94.432L388.933 124H366.021ZM331.205 81.504H349.893C355.525 81.504 359.834 80.224 362.821 77.664C365.893 75.0187 367.429 71.1787 367.429 66.144C367.429 61.1947 365.893 57.4827 362.821 55.008C359.834 52.448 355.525 51.168 349.893 51.168H331.205V81.504ZM394.774 34.4H469.654V51.552H442.262V124H422.038V51.552H394.774V34.4Z" fill="white"/>
<path d="M190.752 62.432L188.452 64.3578L190.784 67.1439L193.078 64.3261L190.752 62.432ZM179.872 53.856L178.486 56.5167L178.519 56.5339L178.552 56.5502L179.872 53.856ZM153.632 54.368L152.104 51.7863L153.632 54.368ZM143.776 93.024L141.146 94.4678L141.152 94.4788L141.158 94.4898L143.776 93.024ZM153.632 103.264L152.066 105.823L152.085 105.834L152.104 105.846L153.632 103.264ZM179.616 104.16L180.866 106.887L180.878 106.882L180.891 106.876L179.616 104.16ZM190.752 96.352L192.959 94.3199L190.841 92.0201L188.631 94.2307L190.752 96.352ZM202.656 109.28L204.814 111.364L206.779 109.329L204.863 107.248L202.656 109.28ZM185.76 121.056L184.535 118.318L184.528 118.321L184.521 118.324L185.76 121.056ZM142.496 119.392L141.008 121.997L141.019 122.003L141.031 122.01L142.496 119.392ZM125.6 102.624L128.197 101.122L125.6 102.624ZM125.728 55.52L128.303 57.0589V57.0589L125.728 55.52ZM142.88 39.008L141.441 36.3755L141.435 36.379L141.428 36.3826L142.88 39.008ZM186.4 37.088L185.209 39.8416L185.225 39.8484L185.241 39.855L186.4 37.088ZM202.528 47.968L204.854 49.8621L206.532 47.8013L204.689 45.8871L202.528 47.968ZM193.052 60.5062C189.718 56.5241 185.761 53.3997 181.192 51.1618L178.552 56.5502C182.346 58.4083 185.642 61.0012 188.452 64.3578L193.052 60.5062ZM181.258 51.1953C176.779 48.8627 172.169 47.656 167.456 47.656V53.656C171.106 53.656 174.773 54.5826 178.486 56.5167L181.258 51.1953ZM167.456 47.656C161.904 47.656 156.765 49.0276 152.104 51.7863L155.16 56.9497C158.861 54.7591 162.939 53.656 167.456 53.656V47.656ZM152.104 51.7863C147.464 54.5322 143.805 58.2891 141.158 63.0142L146.394 65.9458C148.526 62.1375 151.437 59.1532 155.16 56.9497L152.104 51.7863ZM141.158 63.0142C138.502 67.7576 137.192 73.0036 137.192 78.688H143.192C143.192 73.9617 144.271 69.7357 146.394 65.9458L141.158 63.0142ZM137.192 78.688C137.192 84.3727 138.502 89.6516 141.146 94.4678L146.406 91.5802C144.271 87.6924 143.192 83.4139 143.192 78.688H137.192ZM141.158 94.4898C143.8 99.2059 147.447 102.995 152.066 105.823L155.198 100.705C151.454 98.413 148.531 95.3754 146.394 91.5582L141.158 94.4898ZM152.104 105.846C156.765 108.604 161.904 109.976 167.456 109.976V103.976C162.939 103.976 158.861 102.873 155.16 100.682L152.104 105.846ZM167.456 109.976C171.949 109.976 176.426 108.922 180.866 106.887L178.366 101.433C174.614 103.153 170.985 103.976 167.456 103.976V109.976ZM180.891 106.876C185.384 104.767 189.383 101.963 192.873 98.4733L188.631 94.2307C185.635 97.2259 182.21 99.6281 178.341 101.444L180.891 106.876ZM188.545 98.3841L200.449 111.312L204.863 107.248L192.959 94.3199L188.545 98.3841ZM200.498 107.196C195.994 111.861 190.682 115.568 184.535 118.318L186.985 123.794C193.809 120.742 199.76 116.598 204.814 111.364L200.498 107.196ZM184.521 118.324C178.478 121.064 172.455 122.408 166.432 122.408V128.408C173.379 128.408 180.242 126.851 186.999 123.788L184.521 118.324ZM166.432 122.408C158.118 122.408 150.65 120.517 143.961 116.774L141.031 122.01C148.678 126.289 157.167 128.408 166.432 128.408V122.408ZM143.984 116.787C137.273 112.952 132.025 107.741 128.197 101.122L123.003 104.126C127.367 111.672 133.383 117.64 141.008 121.997L143.984 116.787ZM128.197 101.122C124.382 94.5253 122.456 87.1556 122.456 78.944H116.456C116.456 88.1404 118.626 96.5574 123.003 104.126L128.197 101.122ZM122.456 78.944C122.456 70.8349 124.416 63.564 128.303 57.0589L123.153 53.9811C118.677 61.4707 116.456 69.8158 116.456 78.944H122.456ZM128.303 57.0589C132.208 50.5246 137.534 45.392 144.332 41.6334L141.428 36.3826C133.719 40.6453 127.611 46.5208 123.153 53.9811L128.303 57.0589ZM144.319 41.6405C151.189 37.8857 158.796 35.992 167.2 35.992V29.992C157.854 29.992 149.248 32.1089 141.441 36.3755L144.319 41.6405ZM167.2 35.992C173.251 35.992 179.247 37.2634 185.209 39.8416L187.591 34.3344C180.923 31.4512 174.119 29.992 167.2 29.992V35.992ZM185.241 39.855C191.205 42.3536 196.233 45.7558 200.367 50.0489L204.689 45.8871C199.948 40.9642 194.224 37.1131 187.559 34.321L185.241 39.855ZM200.202 46.0739L188.426 60.5379L193.078 64.3261L204.854 49.8621L200.202 46.0739ZM280.032 124L277.251 125.125L278.009 127H280.032V124ZM272.992 106.592L275.773 105.467L275.015 103.592H272.992V106.592ZM231.52 106.592V103.592H229.497L228.739 105.467L231.52 106.592ZM224.48 124V127H226.503L227.261 125.125L224.48 124ZM203.616 124L200.864 122.805L199.042 127H203.616V124ZM242.528 34.4V31.4H240.56L239.776 33.205L242.528 34.4ZM263.392 34.4L266.151 33.2216L265.373 31.4H263.392V34.4ZM301.664 124V127H306.208L304.423 122.822L301.664 124ZM238.176 90.336L235.398 89.2025L233.712 93.336H238.176V90.336ZM266.464 90.336V93.336H270.913L269.245 89.2113L266.464 90.336ZM252.384 55.52L255.165 54.3953L252.397 47.5493L249.606 54.3865L252.384 55.52ZM282.813 122.875L275.773 105.467L270.211 107.717L277.251 125.125L282.813 122.875ZM272.992 103.592H231.52V109.592H272.992V103.592ZM228.739 105.467L221.699 122.875L227.261 125.125L234.301 107.717L228.739 105.467ZM224.48 121H203.616V127H224.48V121ZM206.368 125.195L245.28 35.595L239.776 33.205L200.864 122.805L206.368 125.195ZM242.528 37.4H263.392V31.4H242.528V37.4ZM260.633 35.5784L298.905 125.178L304.423 122.822L266.151 33.2216L260.633 35.5784ZM301.664 121H280.032V127H301.664V121ZM238.176 93.336H266.464V87.336H238.176V93.336ZM269.245 89.2113L255.165 54.3953L249.603 56.6447L263.683 91.4607L269.245 89.2113ZM249.606 54.3865L235.398 89.2025L240.954 91.4695L255.162 56.6535L249.606 54.3865ZM366.021 124L363.398 125.456L364.255 127H366.021V124ZM351.813 98.4L354.436 96.9442L353.579 95.4H351.813V98.4ZM331.205 98.4V95.4H328.205V98.4H331.205ZM331.205 124V127H334.205V124H331.205ZM310.981 124H307.981V127H310.981V124ZM310.981 34.4V31.4H307.981V34.4H310.981ZM377.029 42.592L375.082 44.8741L375.091 44.8816L375.099 44.8891L377.029 42.592ZM382.277 83.296L379.689 81.7788L379.685 81.7859L379.681 81.7929L382.277 83.296ZM369.861 94.432L368.588 91.7156L365.479 93.1729L367.34 96.0581L369.861 94.432ZM388.933 124V127H394.438L391.454 122.374L388.933 124ZM331.205 81.504H328.205V84.504H331.205V81.504ZM362.821 77.664L364.773 79.9418L364.779 79.9373L362.821 77.664ZM362.821 55.008L360.869 57.2858L360.903 57.3155L360.939 57.3443L362.821 55.008ZM331.205 51.168V48.168H328.205V51.168H331.205ZM368.644 122.544L354.436 96.9442L349.19 99.8558L363.398 125.456L368.644 122.544ZM351.813 95.4H349.893V101.4H351.813V95.4ZM349.893 95.4H331.205V101.4H349.893V95.4ZM328.205 98.4V124H334.205V98.4H328.205ZM331.205 121H310.981V127H331.205V121ZM313.981 124V34.4H307.981V124H313.981ZM310.981 37.4H349.893V31.4H310.981V37.4ZM349.893 37.4C361.146 37.4 369.403 40.0286 375.082 44.8741L378.976 40.3099C371.855 34.2327 362.021 31.4 349.893 31.4V37.4ZM375.099 44.8891C380.694 49.5883 383.629 56.3109 383.629 65.504H389.629C389.629 54.8998 386.164 46.3477 378.959 40.2949L375.099 44.8891ZM383.629 65.504C383.629 71.992 382.27 77.3756 379.689 81.7788L384.865 84.8132C388.087 79.3177 389.629 72.84 389.629 65.504H383.629ZM379.681 81.7929C377.194 86.0875 373.537 89.3955 368.588 91.7156L371.134 97.1484C377.107 94.3485 381.728 90.2325 384.873 84.7991L379.681 81.7929ZM367.34 96.0581L386.412 125.626L391.454 122.374L372.382 92.8059L367.34 96.0581ZM388.933 121H366.021V127H388.933V121ZM331.205 84.504H349.893V78.504H331.205V84.504ZM349.893 84.504C355.937 84.504 361.05 83.1336 364.773 79.9418L360.869 75.3862C358.619 77.3144 355.113 78.504 349.893 78.504V84.504ZM364.779 79.9373C368.668 76.5878 370.429 71.8229 370.429 66.144H364.429C364.429 70.5345 363.118 73.4495 360.863 75.3907L364.779 79.9373ZM370.429 66.144C370.429 60.5397 368.658 55.8576 364.703 52.6717L360.939 57.3443C363.128 59.1078 364.429 61.8496 364.429 66.144H370.429ZM364.773 52.7302C361.05 49.5384 355.937 48.168 349.893 48.168V54.168C355.113 54.168 358.619 55.3576 360.869 57.2858L364.773 52.7302ZM349.893 48.168H331.205V54.168H349.893V48.168ZM328.205 51.168V81.504H334.205V51.168H328.205ZM394.774 34.4V31.4H391.774V34.4H394.774ZM469.654 34.4H472.654V31.4H469.654V34.4ZM469.654 51.552V54.552H472.654V51.552H469.654ZM442.262 51.552V48.552H439.262V51.552H442.262ZM442.262 124V127H445.262V124H442.262ZM422.038 124H419.038V127H422.038V124ZM422.038 51.552H425.038V48.552H422.038V51.552ZM394.774 51.552H391.774V54.552H394.774V51.552ZM394.774 37.4H469.654V31.4H394.774V37.4ZM466.654 34.4V51.552H472.654V34.4H466.654ZM469.654 48.552H442.262V54.552H469.654V48.552ZM439.262 51.552V124H445.262V51.552H439.262ZM442.262 121H422.038V127H442.262V121ZM425.038 124V51.552H419.038V124H425.038ZM422.038 48.552H394.774V54.552H422.038V48.552ZM397.774 51.552V34.4H391.774V51.552H397.774Z" fill="black"/>
</g>
<path d="M586 77.9583C551.981 80.4943 543.884 105.709 544.087 118C541.503 85.9666 514.952 77.9583 502 77.9583C535.251 76.5568 543.854 50.7355 544 38C546.654 71.0344 573.106 78.4032 586 77.9583Z" fill="#14F0B9" stroke="black" stroke-width="3"/>
<defs>
<filter id="filter0_d_1277_173" x="119.455" y="32.9922" width="354.199" height="100.416" filterUnits="userSpaceOnUse" color-interpolation-filters="sRGB">
<feFlood flood-opacity="0" result="BackgroundImageFix"/>
<feColorMatrix in="SourceAlpha" type="matrix" values="0 0 0 0 0 0 0 0 0 0 0 0 0 0 0 0 0 0 127 0" result="hardAlpha"/>
<feOffset dx="4" dy="8"/>
<feComposite in2="hardAlpha" operator="out"/>
<feColorMatrix type="matrix" values="0 0 0 0 0 0 0 0 0 0 0 0 0 0 0 0 0 0 1 0"/>
<feBlend mode="normal" in2="BackgroundImageFix" result="effect1_dropShadow_1277_173"/>
<feBlend mode="normal" in="SourceGraphic" in2="effect1_dropShadow_1277_173" result="shape"/>
</filter>
</defs>
</svg>
