<svg width="558" height="558" viewBox="0 0 558 558" fill="none" xmlns="http://www.w3.org/2000/svg">
<path d="M196.583 531.552C190.578 531.552 184.74 531.284 179.067 530.748C140.766 527.216 110.483 512.117 90.345 491.035C79.6922 480.048 71.6363 466.814 66.7695 452.305C62.1855 438.569 60.8485 423.957 62.8635 409.618C76.78 310.773 193.659 358.84 144.661 298.721C95.6627 238.602 191.583 162.139 228.389 180.235C265.194 198.331 224.605 237.034 315.559 218.737C406.513 200.44 387.692 280.831 387.692 280.831" stroke="#CCDDE2" stroke-width="2.68956" stroke-miterlimit="10"/>
<path d="M441.461 446.244C441.461 446.244 483.116 416.374 499.197 449.408C499.197 449.408 482.284 389.468 424.598 368.029C424.598 368.029 408.109 358.856 407.384 364.397C406.659 369.938 401.876 372.767 399.784 372.7C397.691 372.633 380.025 373.738 379.411 371.098C378.798 368.459 379.969 360.552 371.209 360.496C362.448 360.44 314.912 372.119 301.319 384.462C301.319 384.462 324.979 413.026 312.329 444.52L322.986 441.936C322.986 441.936 316.413 498.852 325.375 531.959H480.164C480.164 531.959 464.691 533.906 448.821 522.584L425.776 493.01C425.776 493.01 415.67 477.699 395.024 475.511C395.024 475.511 383.273 474.228 383.384 468.642C383.496 463.057 379.149 472.219 373.34 464.145C372.632 464.145 358.514 464.959 358.514 464.959C358.514 464.959 347.912 465.953 345.92 456.489C343.928 447.025 336.585 380.601 339.224 376.611C341.864 372.622 342.874 372.571 365.149 372.705C387.424 372.839 406.999 368.398 409.834 379.479C412.668 390.561 415.944 432.551 415.944 432.551C415.944 432.551 428.499 435.837 438.063 449.436C438.029 449.43 441.461 456.059 441.461 446.244Z" fill="#2E2E2E"/>
<path d="M441.461 426.072V452.22" stroke="black" stroke-width="2.68956" stroke-miterlimit="10"/>
<path d="M323.701 439.147C299.121 452.204 231.19 478.882 228.78 376.272C228.78 376.272 231.704 349.326 224.081 345.81C216.459 342.295 204.166 331.163 219.997 304.212L209.668 293.905C208.273 292.469 207.505 290.537 207.533 288.535C207.562 286.532 208.385 284.624 209.822 283.228C211.258 281.832 213.19 281.065 215.192 281.093C217.195 281.122 219.104 281.945 220.499 283.381L241.028 305.143C241.028 305.143 244.002 299.563 249.275 302.471C254.548 305.378 273.889 317.715 265.106 343.478L287.95 409.099" stroke="black" stroke-width="2.68956" stroke-miterlimit="10"/>
<path d="M241.055 305.13C241.055 305.13 235.581 313.461 247.232 321.976" stroke="black" stroke-width="2.68956" stroke-miterlimit="10"/>
<path d="M216.626 310.684C216.626 310.684 213.217 321.392 226.971 328.3C231.837 330.744 237.177 325.599 234.878 320.661C234.839 320.589 234.806 320.51 234.767 320.432" stroke="black" stroke-width="2.68956" stroke-miterlimit="10"/>
<path d="M212.464 323.908C212.464 323.908 215.471 334.365 223.702 334.867C230.984 335.308 229.762 327.881 229.762 327.881" stroke="black" stroke-width="2.68956" stroke-miterlimit="10"/>
<path d="M353.269 317.358C353.827 317.503 354.179 317.04 354.698 317.129C362.158 315.768 367.705 309.875 368.33 307.041C368.118 308.586 365.283 308.43 365.763 310.009C365.852 310.311 366.031 310.193 366.176 310.484C366.41 311.042 366.405 310.277 366.734 310.779C368.564 308.073 369.624 306.728 369.948 305.238C369.728 306.838 369.858 308.465 370.328 310.009C370.413 310.311 370.527 310.605 370.668 310.885C371.784 313.519 374.111 315.746 378 316.298C378.975 316.421 379.96 316.453 380.941 316.393C383.731 316.231 386.141 316.069 388.195 315.98C395.058 315.673 397.519 316.192 396.749 320.622C396.324 322.626 395.723 324.589 394.952 326.487C393.591 330.069 392.642 336.274 394.037 343.032V343.071C395.655 350.939 400.778 357.021 411.753 362.735C413.698 363.739 415.703 364.62 417.758 365.374C436.802 372.438 482.357 390.333 501.24 455.954C503.249 462.946 504.75 469.307 505.81 475.116L506.329 474.815C519.224 467.086 527.633 449.749 525.078 434.834C523.805 427.429 518.984 422.262 512.802 418.373C508.46 415.683 503.818 413.479 499.929 410.159C487.039 399.15 497.345 382.03 490.208 368.867C482.162 354.058 469.562 344.929 453.112 344.176C448.972 344.354 444.313 344.84 439.793 344.622C433.231 344.856 426.524 344.321 421.719 340.019C417.936 336.671 417.149 331.213 415.715 326.66C414.1 321.525 412.754 316.31 411.681 311.036C410.699 306.035 408.869 301.24 406.268 296.857C403.461 292.108 399.502 288.143 394.757 285.329C390.618 282.993 386.002 281.624 381.259 281.328C376.939 281.583 372.736 282.836 368.983 284.989C367.701 285.746 366.489 286.616 365.361 287.589C357.053 294.676 353.074 306.672 353.269 317.358Z" fill="#00CCF5"/>
<path d="M227.206 334.242C227.206 334.242 229.867 337.546 228.411 340.681C226.955 343.817 223.339 344.548 219.823 343.176" stroke="black" stroke-width="2.68956" stroke-miterlimit="10"/>
<path d="M220.008 304.21L227.362 311.559" stroke="black" stroke-width="2.68956" stroke-miterlimit="10"/>
<path d="M415.916 431.831L409.929 380.217C409.687 378.128 408.685 376.202 407.115 374.803C405.545 373.405 403.516 372.633 401.414 372.633H346.428C345.225 372.633 344.036 372.886 342.936 373.375C341.838 373.864 340.854 374.58 340.05 375.475C339.245 376.37 338.639 377.424 338.269 378.568C337.899 379.713 337.774 380.923 337.902 382.119L345.915 456.495C346.142 458.598 347.138 460.543 348.712 461.956C350.286 463.369 352.326 464.151 354.441 464.151H374.116" stroke="black" stroke-width="2.68956" stroke-miterlimit="10"/>
<path d="M350.926 385.779C349.687 385.779 348.683 384.775 348.683 383.536C348.683 382.297 349.687 381.293 350.926 381.293C352.165 381.293 353.169 382.297 353.169 383.536C353.169 384.775 352.165 385.779 350.926 385.779Z" fill="black"/>
<path d="M387.954 443.807C382.151 445.112 380.99 445.135 375.36 445.972C371.811 446.502 363.698 446.942 363.553 441.435C363.419 436.597 368.848 433.757 372.682 432.211C377.106 430.528 381.736 429.446 386.448 428.992C388.389 428.768 390.341 428.616 392.301 428.534C405.888 427.976 421.563 431.263 430.92 441.893C452.599 466.489 481.425 482.303 481.425 482.303" stroke="black" stroke-width="2.68956" stroke-miterlimit="10"/>
<path d="M372.414 446.243C369.624 447.426 364.898 449.948 366.834 454.781C367.716 457.013 369.317 457.805 371.516 458.129C376.264 458.815 381.359 457.805 386.024 456.828C387.748 456.466 390.806 455.802 392.508 455.333" stroke="black" stroke-width="2.68956" stroke-miterlimit="10"/>
<path d="M377.375 458.24C377.375 458.24 372.302 458.179 373.524 462.894C375.539 470.706 391.191 467.168 398.512 465.528" stroke="black" stroke-width="2.68956" stroke-miterlimit="10"/>
<path d="M377.062 360.919C353.214 361.963 316.871 368.955 283.916 397.463" stroke="black" stroke-width="2.68956" stroke-miterlimit="10"/>
<path d="M196.583 531.556L480.164 531.98" stroke="black" stroke-width="2.68956" stroke-miterlimit="10"/>
<path d="M323.701 428.477C323.701 428.477 318.121 480.41 323.701 531.556" stroke="black" stroke-width="2.68956" stroke-miterlimit="10"/>
<path opacity="0.54" d="M77.444 404.757L28.4014 279.09C27.7932 276.658 27.7473 274.12 28.2674 271.668C28.7869 269.216 29.8583 266.915 31.4006 264.939C32.9429 262.964 34.9149 261.365 37.167 260.266C39.4196 259.166 41.8927 258.595 44.3992 258.594H239.225C243.599 258.594 247.847 260.066 251.282 262.774C254.718 265.481 257.142 269.267 258.163 273.521L311.865 399.16C312.448 401.585 312.474 404.11 311.94 406.546C311.406 408.983 310.326 411.266 308.783 413.225C307.24 415.184 305.271 416.767 303.028 417.856C300.784 418.944 298.322 419.51 295.828 419.51H96.3434C91.9988 419.51 87.7792 418.059 84.3548 415.386C80.9303 412.712 78.498 408.971 77.444 404.757Z" fill="white"/>
<path d="M77.444 404.757L28.4014 279.09C27.7932 276.658 27.7473 274.12 28.2674 271.668C28.7869 269.216 29.8583 266.915 31.4006 264.939C32.9429 262.964 34.9149 261.365 37.167 260.266C39.4196 259.166 41.8927 258.595 44.3992 258.594H239.225C243.599 258.594 247.847 260.066 251.282 262.774C254.718 265.481 257.142 269.267 258.163 273.521L311.865 399.16C312.448 401.585 312.474 404.11 311.94 406.546C311.406 408.983 310.326 411.266 308.783 413.225C307.24 415.184 305.271 416.767 303.028 417.856C300.784 418.944 298.322 419.51 295.828 419.51H96.3434C91.9988 419.51 87.7792 418.059 84.3548 415.386C80.9303 412.712 78.498 408.971 77.444 404.757Z" fill="#00CCF5"/>
<path d="M77.444 404.757L28.4014 279.09C27.7931 276.658 27.7474 274.12 28.2674 271.668C28.7869 269.216 29.8583 266.915 31.4006 264.939C32.9429 262.964 34.9149 261.365 37.167 260.266C39.4196 259.166 41.8927 258.595 44.3992 258.594H239.225C243.599 258.594 247.847 260.066 251.282 262.774C254.718 265.481 257.142 269.267 258.163 273.521L311.865 399.16C312.448 401.585 312.474 404.11 311.94 406.546C311.406 408.983 310.326 411.266 308.783 413.225C307.24 415.184 305.271 416.767 303.028 417.856C300.784 418.944 298.322 419.51 295.828 419.51H96.3434C91.9988 419.51 87.7792 418.059 84.3548 415.386C80.9303 412.712 78.498 408.971 77.444 404.757Z" stroke="black" stroke-width="2.68956" stroke-linecap="square" stroke-linejoin="round"/>
<path d="M84.6199 399.669L39.3717 283.733C38.8115 281.491 38.7696 279.15 39.249 276.889C39.7283 274.627 40.7165 272.505 42.1382 270.683C43.5606 268.861 45.3791 267.386 47.456 266.372C49.5329 265.357 51.814 264.829 54.1252 264.828H233.874C237.91 264.827 241.828 266.185 244.998 268.683C248.167 271.182 250.403 274.675 251.345 278.6L300.89 394.507C301.427 396.744 301.45 399.074 300.957 401.322C300.464 403.569 299.468 405.675 298.044 407.482C296.619 409.289 294.803 410.75 292.733 411.753C290.663 412.757 288.392 413.278 286.091 413.278H102.052C98.0454 413.276 94.1539 411.936 90.9956 409.471C87.8379 407.005 85.5936 403.555 84.6199 399.669Z" fill="#00CCF5"/>
<path d="M220.906 286.142C218.523 282.566 214.623 280.975 212.196 282.588C209.768 284.201 209.735 288.413 212.117 291.99C212.487 292.54 212.905 293.055 213.367 293.53L195.707 330.816C192.917 328.935 189.792 328.472 187.571 329.951C186.137 330.905 185.339 332.529 185.088 334.415L173.024 330.342L162.472 326.815C161.356 326.43 160.179 326.062 159.029 325.699C158.596 324.403 157.994 323.171 157.238 322.033C153.89 317.011 148.416 314.779 145.012 317.011C141.609 319.243 141.564 325.085 144.817 330.079L124.729 357.55C120.349 353.956 115.187 352.846 111.61 355.223C106.745 358.459 106.672 366.907 111.449 374.089C111.638 374.373 111.856 374.608 112.057 374.881L98.6648 393.178C98.6258 393.234 98.5755 393.301 98.5421 393.356C98.2034 393.867 97.969 394.44 97.8518 395.041C97.7341 395.642 97.7369 396.261 97.8585 396.861C97.9802 397.462 98.219 398.033 98.5616 398.541C98.9037 399.049 99.3428 399.485 99.8534 399.824C100.364 400.162 100.936 400.397 101.538 400.514C102.139 400.631 102.758 400.629 103.359 400.507C103.959 400.386 104.53 400.147 105.038 399.804C105.546 399.462 105.982 399.023 106.321 398.512L118.212 380.573C121.972 382.755 125.968 383.173 128.897 381.22C133.551 378.129 133.774 370.294 129.628 363.364L148.885 334.309C151.725 336.24 154.861 336.731 157.11 335.241C158.366 334.355 159.222 333.009 159.492 331.497C159.972 331.625 160.447 331.764 160.926 331.898L171.657 334.828L185.389 338.527C185.81 340.174 186.504 341.737 187.443 343.153C190.791 348.175 196.259 350.407 199.668 348.147C203.078 345.887 203.128 339.967 199.786 334.939C199.287 334.21 198.727 333.525 198.112 332.892L214.924 294.875C216.95 296.253 219.187 296.61 220.789 295.545C223.249 293.938 223.289 289.725 220.906 286.142Z" fill="white"/>
<path d="M93.0127 288.201H66.9597C65.7678 288.201 64.6016 287.853 63.6039 287.202C62.6062 286.549 61.8194 285.621 61.3406 284.529C61.1877 284.195 61.1057 283.832 61.1007 283.464C61.1063 282.752 61.3931 282.072 61.8975 281.57C62.4019 281.069 63.0844 280.787 63.7958 280.785H91.5117C90.1892 282.989 90.8477 286.036 93.0127 288.201Z" fill="#D7E8F0"/>
<path d="M109.858 285.528C109.857 286.238 109.574 286.918 109.072 287.419C108.57 287.92 107.889 288.201 107.18 288.201H93.0124C90.8473 286.036 90.1889 282.989 91.489 280.785H103.999C105.19 280.785 106.355 281.131 107.353 281.78C108.351 282.43 109.138 283.356 109.618 284.446C109.77 284.787 109.852 285.155 109.858 285.528Z" fill="#00CCF5"/>
<path d="M103.341 288.201C103.267 288.344 103.181 288.481 103.084 288.608C101.226 291.147 97.1971 291.398 94.0611 289.099C93.69 288.826 93.3396 288.526 93.0121 288.201C90.847 286.036 90.1886 282.989 91.4887 280.785C91.5624 280.644 91.6483 280.51 91.7454 280.383C93.5868 277.828 97.6156 277.593 100.752 279.876C101.128 280.154 101.484 280.458 101.817 280.785C103.966 282.956 104.624 285.986 103.341 288.201Z" fill="white"/>
<path d="M116.409 301.879C116.404 302.59 116.117 303.27 115.612 303.77C115.107 304.271 114.425 304.552 113.714 304.552H86.372C87.6945 302.32 87.0361 299.307 84.8655 297.142H110.533C111.725 297.142 112.892 297.489 113.889 298.141C114.887 298.793 115.674 299.722 116.152 300.813C116.309 301.147 116.396 301.51 116.409 301.879Z" fill="#00CCF5"/>
<path d="M86.3785 304.552H73.5445C72.3543 304.553 71.1898 304.208 70.192 303.559C69.1943 302.91 68.407 301.985 67.9254 300.897C67.7714 300.557 67.6894 300.188 67.6855 299.814C67.6849 299.463 67.7536 299.115 67.8875 298.79C68.0214 298.466 68.2184 298.171 68.4667 297.923C68.715 297.674 69.0102 297.478 69.335 297.344C69.6592 297.209 70.0074 297.14 70.3583 297.142H84.8719C87.0481 299.307 87.701 302.337 86.3785 304.552Z" fill="#D7E8F0"/>
<path d="M86.3785 304.552C86.321 304.698 86.2418 304.835 86.1442 304.959C84.2972 307.515 80.2684 307.749 77.138 305.467C76.7586 305.191 76.402 304.885 76.0723 304.552C73.924 302.386 73.2822 299.357 74.5489 297.141C74.6203 296.998 74.7046 296.862 74.8 296.734C76.6637 294.195 80.6925 293.944 83.8229 296.243C84.1962 296.514 84.5471 296.814 84.8719 297.141C87.0481 299.306 87.701 302.336 86.3785 304.552Z" fill="white"/>
<path d="M95.4844 320.79H79.1182C77.9275 320.79 76.7624 320.444 75.7647 319.794C74.767 319.145 73.9796 318.219 73.4992 317.129C73.3452 316.795 73.2631 316.431 73.2592 316.064C73.262 315.35 73.5472 314.667 74.0522 314.163C74.5571 313.659 75.2413 313.375 75.9544 313.374H93.961C92.6776 315.589 93.3361 318.619 95.4844 320.79Z" fill="#00CCF5"/>
<path d="M122.012 318.128C122.009 318.836 121.725 319.514 121.223 320.013C120.721 320.512 120.041 320.791 119.333 320.79H95.4844C93.3361 318.619 92.6944 315.589 93.9611 313.374H116.153C117.345 313.374 118.511 313.722 119.509 314.373C120.507 315.026 121.293 315.954 121.772 317.046C121.925 317.386 122.007 317.754 122.012 318.128Z" fill="#D7E8F0"/>
<path d="M105.814 320.788C105.74 320.93 105.654 321.064 105.557 321.19C103.715 323.746 99.6867 323.98 96.5507 321.698C96.1746 321.42 95.8186 321.116 95.4849 320.788C93.3366 318.618 92.6949 315.588 93.9616 313.372C94.0353 313.229 94.1212 313.093 94.2183 312.965C96.0764 310.426 100.105 310.209 103.241 312.474C103.612 312.748 103.963 313.048 104.29 313.372C106.455 315.538 107.136 318.584 105.814 320.788Z" fill="white"/>
<path d="M201.293 397.373H184.927C183.736 397.374 182.571 397.028 181.573 396.378C180.576 395.728 179.789 394.802 179.308 393.712C179.121 393.305 179.041 392.857 179.074 392.41C179.107 391.963 179.253 391.532 179.499 391.157C179.744 390.782 180.08 390.475 180.476 390.265C180.872 390.055 181.315 389.949 181.763 389.957H199.764C198.486 392.172 199.145 395.202 201.293 397.373Z" fill="#00CCF5"/>
<path d="M266.266 394.714C266.265 395.064 266.195 395.411 266.06 395.734C265.926 396.057 265.729 396.351 265.481 396.598C265.232 396.845 264.938 397.041 264.614 397.174C264.29 397.308 263.943 397.376 263.593 397.375H201.292C199.144 395.205 198.502 392.175 199.769 389.959H260.407C261.599 389.959 262.765 390.307 263.762 390.959C264.761 391.611 265.547 392.539 266.026 393.631C266.179 393.972 266.261 394.34 266.266 394.714Z" fill="#D7E8F0"/>
<path d="M211.621 397.374C211.548 397.515 211.462 397.65 211.365 397.776C209.523 400.337 205.494 400.566 202.358 398.284C201.982 398.006 201.626 397.702 201.293 397.374C199.144 395.204 198.503 392.174 199.769 389.958C199.842 389.815 199.928 389.679 200.026 389.551C201.89 387.012 205.919 386.795 209.049 389.06C209.42 389.333 209.77 389.634 210.098 389.958C212.263 392.123 212.921 395.17 211.621 397.374Z" fill="white"/>
<path d="M504.878 477.749C506.956 476.929 508.966 475.946 510.888 474.808C523.794 467.08 532.203 449.748 529.642 434.827C528.364 427.423 523.543 422.261 517.338 418.366C513.003 415.677 508.338 413.478 504.465 410.158C491.575 399.149 501.887 382.024 494.75 368.866C486.073 352.907 472.123 343.55 453.743 344.158C444.921 344.448 433.465 346.474 426.261 340.018C422.478 336.67 421.686 331.212 420.252 326.659C418.635 321.524 417.287 316.309 416.212 311.035C415.246 306.035 413.426 301.239 410.833 296.856C408.026 292.102 404.067 288.132 399.321 285.311C390.393 280.161 377.944 279.687 368.972 284.982C367.694 285.741 366.485 286.61 365.356 287.577C357.053 294.697 353.08 306.688 353.269 317.379" stroke="black" stroke-width="2.68956" stroke-miterlimit="10"/>
<path d="M370.132 304.293C369.669 307.44 367.755 310.342 364.357 311.212C360.518 312.189 358.481 315.927 357.398 319.683C355.86 325.192 356.254 331.062 358.514 336.317C360.612 341.26 364.351 346.919 370.673 347.806C382.24 349.48 387.999 344.581 387.999 344.581" stroke="black" stroke-width="2.68956" stroke-miterlimit="10"/>
<path d="M379.768 321.107C378.671 321.107 377.782 320.217 377.782 319.12C377.782 318.023 378.671 317.134 379.768 317.134C380.865 317.134 381.755 318.023 381.755 319.12C381.755 320.217 380.865 321.107 379.768 321.107Z" fill="black"/>
<path d="M362.298 319.79C361.201 319.79 360.311 318.901 360.311 317.803C360.311 316.706 361.201 315.817 362.298 315.817C363.395 315.817 364.284 316.706 364.284 317.803C364.284 318.901 363.395 319.79 362.298 319.79Z" fill="black"/>
<path d="M384.378 467.742C381.488 469.517 383.82 472.441 385.918 473.428C389.523 475.102 394.182 475.398 398.111 475.867C427.98 479.382 437.952 520.384 456.701 528.006C475.449 535.629 525.764 541.197 501.224 455.946C482.33 390.337 436.775 372.441 417.73 365.377C415.68 364.624 413.679 363.744 411.737 362.743C400.761 357.041 395.622 350.936 394.009 343.063C394.009 343.063 394.009 343.063 394.009 343.029C392.614 336.272 393.552 330.067 394.919 326.479C395.703 324.584 396.312 322.621 396.738 320.614C397.754 314.906 393.345 315.71 380.969 316.39C375.288 316.725 372.074 314.158 370.691 310.889C370.555 310.605 370.444 310.31 370.361 310.007C369.779 308.155 369.71 306.181 370.16 304.293" stroke="black" stroke-width="2.68956" stroke-miterlimit="10"/>
<path d="M371.209 319.602C371.209 319.602 369.122 327.229 369.334 328.357C369.546 329.484 372.219 328.613 372.219 328.613" stroke="black" stroke-width="2.68956" stroke-miterlimit="10"/>
<path d="M372.648 335.598C376.649 337.752 381.275 336.396 383.083 332.808" stroke="black" stroke-width="2.68956" stroke-miterlimit="10"/>
<path d="M376.579 327.237C372.853 323.719 372.615 317.918 376.048 314.281C379.482 310.644 385.286 310.548 389.013 314.066C392.739 317.584 392.977 323.385 389.543 327.022C386.11 330.659 380.306 330.755 376.579 327.237Z" stroke="black" stroke-width="2.68956" stroke-miterlimit="10"/>
<path d="M353.405 325.123C349.678 321.605 349.44 315.804 352.874 312.167C356.307 308.53 362.112 308.434 365.838 311.952C369.565 315.47 369.803 321.27 366.37 324.907C362.936 328.544 357.131 328.641 353.405 325.123Z" stroke="black" stroke-width="2.68956" stroke-miterlimit="10"/>
<path d="M359.43 312.173C357.862 312.163 356.349 312.754 355.202 313.823C354.056 314.893 353.362 316.361 353.264 317.926C353.164 319.631 353.729 321.307 354.841 322.603C355.952 323.899 357.524 324.713 359.223 324.873C359.419 324.873 359.62 324.873 359.815 324.873C361.374 324.885 362.879 324.302 364.024 323.244C365.169 322.185 365.869 320.731 365.981 319.176C366.088 317.467 365.527 315.784 364.414 314.482C363.302 313.179 361.726 312.362 360.021 312.201C359.826 312.201 359.625 312.201 359.43 312.201V312.173ZM359.43 310.856C359.664 310.856 359.904 310.856 360.144 310.89C362.192 311.085 364.084 312.065 365.423 313.626C366.763 315.187 367.444 317.206 367.326 319.26C367.201 321.164 366.354 322.949 364.959 324.25C363.562 325.551 361.723 326.271 359.815 326.263C359.581 326.263 359.341 326.263 359.101 326.229C357.052 326.038 355.159 325.058 353.82 323.496C352.481 321.934 351.801 319.913 351.925 317.859C352.036 315.947 352.876 314.15 354.272 312.838C355.668 311.526 357.514 310.799 359.43 310.806V310.856Z" fill="white"/>
<path d="M373.642 319.823L368.776 319.376" stroke="black" stroke-width="2.68956" stroke-miterlimit="10"/>
<path d="M382.598 314.11C380.982 314.094 379.422 314.7 378.24 315.802C377.058 316.903 376.345 318.417 376.247 320.03C376.143 321.786 376.725 323.515 377.87 324.85C379.015 326.186 380.634 327.025 382.385 327.19C382.586 327.19 382.793 327.19 382.994 327.19C384.611 327.204 386.172 326.597 387.354 325.494C388.536 324.392 389.251 322.877 389.349 321.264C389.453 319.508 388.871 317.782 387.726 316.447C386.581 315.113 384.962 314.275 383.211 314.11C383.008 314.089 382.802 314.08 382.598 314.082V314.11ZM382.598 312.737C382.843 312.737 383.089 312.748 383.334 312.771C385.444 312.967 387.395 313.98 388.768 315.594C390.143 317.207 390.831 319.294 390.689 321.409C390.561 323.359 389.694 325.189 388.263 326.522C386.834 327.855 384.949 328.593 382.994 328.585C382.754 328.585 382.508 328.585 382.263 328.551C380.162 328.354 378.221 327.347 376.848 325.745C375.476 324.142 374.781 322.069 374.908 319.963C375.035 318.013 375.901 316.184 377.33 314.85C378.759 313.517 380.643 312.779 382.598 312.788V312.737Z" fill="white"/>
<path d="M354.285 324.188C351.09 321.171 350.888 316.195 353.835 313.074C356.782 309.952 361.761 309.867 364.957 312.883C368.153 315.9 368.354 320.876 365.407 323.997C362.461 327.12 357.481 327.204 354.285 324.188Z" fill="#00CCF5"/>
<path d="M375.785 326.63C372.562 323.583 372.36 318.561 375.334 315.414C378.309 312.267 383.334 312.186 386.558 315.233C389.782 318.28 389.983 323.302 387.009 326.449C384.034 329.596 379.009 329.677 375.785 326.63Z" fill="#00CCF5"/>
<path d="M402.468 372.699C404.923 370.138 407.054 366.371 408.455 360.919" stroke="black" stroke-width="2.68956" stroke-miterlimit="10"/>
<path d="M379.769 372.633L377.062 360.92L374.122 348.298" stroke="black" stroke-width="2.68956" stroke-miterlimit="10"/>
<path d="M368.707 419.268C367.666 414.165 370.48 409.282 374.992 408.363C379.503 407.443 384.004 410.835 385.044 415.938C386.084 421.042 383.27 425.924 378.758 426.843C374.247 427.763 369.747 424.371 368.707 419.268Z" fill="#D7E8F0"/>
<path d="M196.098 502.301L200.674 527.868C200.802 528.586 201.178 529.236 201.738 529.704C202.296 530.172 203.002 530.429 203.731 530.43H227.664C228.401 530.43 229.114 530.169 229.676 529.692C230.238 529.216 230.612 528.556 230.733 527.829L234.918 502.301H196.098Z" stroke="#CCDDE2" stroke-width="2.68956" stroke-miterlimit="10"/>
<path d="M191.745 499.442C191.809 500.22 192.164 500.945 192.737 501.474C193.31 502.004 194.062 502.298 194.842 502.299H236.134C236.904 502.299 237.646 502.014 238.218 501.499C238.79 500.984 239.151 500.275 239.231 499.509C239.272 499.078 239.223 498.643 239.086 498.231C238.949 497.82 238.728 497.442 238.436 497.122C238.145 496.801 237.789 496.545 237.392 496.371C236.996 496.195 236.568 496.105 236.134 496.105H194.842C194.415 496.106 193.992 496.194 193.601 496.366C193.209 496.536 192.857 496.786 192.567 497.099C192.276 497.412 192.053 497.782 191.912 498.185C191.77 498.589 191.714 499.017 191.745 499.442Z" stroke="#CCDDE2" stroke-width="2.68956" stroke-miterlimit="10"/>
<path d="M214.188 496.062C214.188 494.751 210.84 478.418 213.63 463.938C215.148 455.992 218.496 448.61 225.236 444.564" stroke="#CCDDE2" stroke-width="2.68956" stroke-miterlimit="10"/>
<path d="M213.619 463.961C213.619 463.961 212.855 452.957 203.346 452.198" stroke="#CCDDE2" stroke-width="2.68956" stroke-miterlimit="10"/>
<path d="M212.598 480.751C209.892 478.856 206.634 477.913 203.335 478.072" stroke="#CCDDE2" stroke-width="2.68956" stroke-miterlimit="10"/>
<path d="M212.598 472.933C212.598 472.933 219.506 464.752 230.543 471.225" stroke="#CCDDE2" stroke-width="2.68956" stroke-miterlimit="10"/>
<path d="M217.469 469.64C217.469 469.64 233.026 455.433 236.072 474.662C236.072 474.662 231.692 477.513 225.225 474.662C218.758 471.811 217.469 469.64 217.469 469.64Z" stroke="#CCDDE2" stroke-width="2.68956" stroke-miterlimit="10"/>
<path d="M210.198 455.546C210.198 455.546 210.756 449.151 203.346 447.059C195.936 444.966 191.734 453.721 191.734 453.721C191.734 453.721 197.454 460.044 210.198 455.546Z" stroke="#CCDDE2" stroke-width="2.68956" stroke-miterlimit="10"/>
<path d="M208.48 478.067C208.48 478.067 208.736 471.6 200.11 472.934C191.483 474.267 190.066 481.627 190.066 481.627C190.066 481.627 204.194 486.805 208.48 478.748" stroke="#CCDDE2" stroke-width="2.68956" stroke-miterlimit="10"/>
<path d="M218.875 450.569C218.875 451.026 225.359 450.011 225.772 449.866C228.913 448.928 231.145 446.752 232.613 443.873C233.065 442.98 235.682 437.975 234.94 437.104C234.917 437.104 219.505 432.138 218.875 450.569Z" stroke="#CCDDE2" stroke-width="2.68956" stroke-miterlimit="10"/>
<path d="M66.7591 452.303C71.6255 466.814 79.6813 480.05 90.3346 491.039C110.484 512.12 140.767 527.22 179.057 530.752V452.303H66.7591Z" stroke="#CCDDE2" stroke-width="2.68956" stroke-miterlimit="10"/>
<path d="M90.3346 491.04C110.484 512.121 140.767 527.221 179.057 530.753V491.04H90.3346Z" stroke="#CCDDE2" stroke-width="2.68956" stroke-miterlimit="10"/>
<path d="M101.99 472.444C101.99 469.315 104.527 466.778 107.657 466.778C110.786 466.778 113.323 469.315 113.323 472.444C113.323 475.574 110.786 478.111 107.657 478.111C104.527 478.111 101.99 475.574 101.99 472.444Z" stroke="#CCDDE2" stroke-width="2.68956" stroke-miterlimit="10"/>
</svg>
