<svg width="64" height="64" viewBox="0 0 64 64" fill="none" xmlns="http://www.w3.org/2000/svg">
<circle r="30.5" transform="matrix(-1 0 0 1 32 32)" fill="white" stroke="black" stroke-width="3"/>
<path d="M48.5586 29.9863C49.6632 29.9863 50.5586 30.8818 50.5586 31.9863C50.5586 33.0909 49.6632 33.9863 48.5586 33.9863V29.9863ZM12.9526 33.4005C12.1716 32.6195 12.1716 31.3532 12.9526 30.5721L25.6805 17.8442C26.4616 17.0631 27.7279 17.0631 28.5089 17.8442C29.29 18.6252 29.29 19.8916 28.5089 20.6726L17.1952 31.9863L28.5089 43.3C29.29 44.0811 29.29 45.3474 28.5089 46.1285C27.7279 46.9095 26.4616 46.9095 25.6805 46.1285L12.9526 33.4005ZM48.5586 33.9863H14.3668V29.9863H48.5586V33.9863Z" fill="black"/>
</svg>
