<svg width="723" height="156" viewBox="0 0 723 156" fill="none" xmlns="http://www.w3.org/2000/svg">
<path d="M85 77.9583C50.9809 80.4943 42.8836 105.709 43.0873 118C40.5027 85.9666 13.9522 77.9583 1 77.9583C34.2507 76.5568 42.8545 50.7355 43 38C45.6545 71.0344 72.106 78.4032 85 77.9583Z" fill="#14F0B9" stroke="black" stroke-width="3"/>
<g filter="url(#filter0_d_1277_348)">
<path d="M151.872 34.4C163.307 34.4 172.139 37.1307 178.368 42.592C184.597 47.968 187.712 55.6053 187.712 65.504C187.712 75.9147 184.555 84.0213 178.24 89.824C172.011 95.5413 163.221 98.4 151.872 98.4H134.08V124H113.856V34.4H151.872ZM150.848 81.504C156.565 81.504 160.917 80.224 163.904 77.664C166.976 75.0187 168.512 71.1787 168.512 66.144C168.512 61.1947 166.976 57.4827 163.904 55.008C160.917 52.448 156.565 51.168 150.848 51.168H134.08V81.504H150.848ZM260.407 124L253.367 106.592H211.895L204.855 124H183.991L222.903 34.4H243.767L282.039 124H260.407ZM218.551 90.336H246.839L232.759 55.52L218.551 90.336ZM349.864 59.36C345.256 56.544 340.349 54.3253 335.144 52.704C330.024 50.9973 325.629 50.144 321.96 50.144C318.461 50.144 315.688 50.784 313.64 52.064C311.592 53.344 310.568 55.2213 310.568 57.696C310.568 60.8533 312.019 63.2853 314.92 64.992C317.907 66.6133 322.472 68.32 328.616 70.112C334.76 71.904 339.795 73.696 343.72 75.488C347.731 77.28 351.144 79.968 353.96 83.552C356.776 87.136 358.184 91.872 358.184 97.76C358.184 103.477 356.648 108.427 353.576 112.608C350.589 116.704 346.451 119.819 341.16 121.952C335.869 124.085 329.853 125.152 323.112 125.152C315.859 125.152 308.733 123.872 301.736 121.312C294.739 118.752 288.68 115.253 283.56 110.816L291.624 94.304C296.147 98.4 301.352 101.685 307.24 104.16C313.128 106.635 318.504 107.872 323.368 107.872C327.549 107.872 330.792 107.104 333.096 105.568C335.485 104.032 336.68 101.813 336.68 98.912C336.68 96.608 335.869 94.7307 334.248 93.28C332.712 91.744 330.707 90.5067 328.232 89.568C325.843 88.6293 322.515 87.5627 318.248 86.368C312.104 84.6613 307.069 82.9547 303.144 81.248C299.304 79.5413 295.976 76.9387 293.16 73.44C290.344 69.9413 288.936 65.2907 288.936 59.488C288.936 54.112 290.387 49.4187 293.288 45.408C296.189 41.312 300.243 38.1973 305.448 36.064C310.653 33.8453 316.712 32.736 323.624 32.736C329.768 32.736 335.827 33.632 341.8 35.424C347.773 37.216 353.064 39.6053 357.672 42.592L349.864 59.36ZM431.364 59.36C426.756 56.544 421.849 54.3253 416.644 52.704C411.524 50.9973 407.129 50.144 403.46 50.144C399.961 50.144 397.188 50.784 395.14 52.064C393.092 53.344 392.068 55.2213 392.068 57.696C392.068 60.8533 393.519 63.2853 396.42 64.992C399.407 66.6133 403.972 68.32 410.116 70.112C416.26 71.904 421.295 73.696 425.22 75.488C429.231 77.28 432.644 79.968 435.46 83.552C438.276 87.136 439.684 91.872 439.684 97.76C439.684 103.477 438.148 108.427 435.076 112.608C432.089 116.704 427.951 119.819 422.66 121.952C417.369 124.085 411.353 125.152 404.612 125.152C397.359 125.152 390.233 123.872 383.236 121.312C376.239 118.752 370.18 115.253 365.06 110.816L373.124 94.304C377.647 98.4 382.852 101.685 388.74 104.16C394.628 106.635 400.004 107.872 404.868 107.872C409.049 107.872 412.292 107.104 414.596 105.568C416.985 104.032 418.18 101.813 418.18 98.912C418.18 96.608 417.369 94.7307 415.748 93.28C414.212 91.744 412.207 90.5067 409.732 89.568C407.343 88.6293 404.015 87.5627 399.748 86.368C393.604 84.6613 388.569 82.9547 384.644 81.248C380.804 79.5413 377.476 76.9387 374.66 73.44C371.844 69.9413 370.436 65.2907 370.436 59.488C370.436 54.112 371.887 49.4187 374.788 45.408C377.689 41.312 381.743 38.1973 386.948 36.064C392.153 33.8453 398.212 32.736 405.124 32.736C411.268 32.736 417.327 33.632 423.3 35.424C429.273 37.216 434.564 39.6053 439.172 42.592L431.364 59.36ZM453.856 34.4H522.08V51.168H474.08V70.624H517.216V87.392H474.08V107.232H523.488V124H453.856V34.4ZM598.364 59.36C593.756 56.544 588.849 54.3253 583.644 52.704C578.524 50.9973 574.129 50.144 570.46 50.144C566.961 50.144 564.188 50.784 562.14 52.064C560.092 53.344 559.068 55.2213 559.068 57.696C559.068 60.8533 560.519 63.2853 563.42 64.992C566.407 66.6133 570.972 68.32 577.116 70.112C583.26 71.904 588.295 73.696 592.22 75.488C596.231 77.28 599.644 79.968 602.46 83.552C605.276 87.136 606.684 91.872 606.684 97.76C606.684 103.477 605.148 108.427 602.076 112.608C599.089 116.704 594.951 119.819 589.66 121.952C584.369 124.085 578.353 125.152 571.612 125.152C564.359 125.152 557.233 123.872 550.236 121.312C543.239 118.752 537.18 115.253 532.06 110.816L540.124 94.304C544.647 98.4 549.852 101.685 555.74 104.16C561.628 106.635 567.004 107.872 571.868 107.872C576.049 107.872 579.292 107.104 581.596 105.568C583.985 104.032 585.18 101.813 585.18 98.912C585.18 96.608 584.369 94.7307 582.748 93.28C581.212 91.744 579.207 90.5067 576.732 89.568C574.343 88.6293 571.015 87.5627 566.748 86.368C560.604 84.6613 555.569 82.9547 551.644 81.248C547.804 79.5413 544.476 76.9387 541.66 73.44C538.844 69.9413 537.436 65.2907 537.436 59.488C537.436 54.112 538.887 49.4187 541.788 45.408C544.689 41.312 548.743 38.1973 553.948 36.064C559.153 33.8453 565.212 32.736 572.124 32.736C578.268 32.736 584.327 33.632 590.3 35.424C596.273 37.216 601.564 39.6053 606.172 42.592L598.364 59.36Z" fill="white"/>
<path d="M178.368 42.592L176.39 44.8478L176.399 44.8555L176.408 44.8632L178.368 42.592ZM178.24 89.824L180.269 92.0342L180.27 92.033L178.24 89.824ZM134.08 98.4V95.4H131.08V98.4H134.08ZM134.08 124V127H137.08V124H134.08ZM113.856 124H110.856V127H113.856V124ZM113.856 34.4V31.4H110.856V34.4H113.856ZM163.904 77.664L165.856 79.9418L165.862 79.9373L163.904 77.664ZM163.904 55.008L161.952 57.2858L161.986 57.3155L162.022 57.3443L163.904 55.008ZM134.08 51.168V48.168H131.08V51.168H134.08ZM134.08 81.504H131.08V84.504H134.08V81.504ZM151.872 37.4C162.856 37.4 170.886 40.0218 176.39 44.8478L180.346 40.3362C173.392 34.2396 163.757 31.4 151.872 31.4V37.4ZM176.408 44.8632C181.843 49.5537 184.712 56.2836 184.712 65.504H190.712C190.712 54.9271 187.352 46.3823 180.328 40.3208L176.408 44.8632ZM184.712 65.504C184.712 75.2692 181.777 82.4998 176.21 87.615L180.27 92.033C187.333 85.5429 190.712 76.5601 190.712 65.504H184.712ZM176.211 87.6138C170.702 92.6703 162.732 95.4 151.872 95.4V101.4C163.711 101.4 173.319 98.4123 180.269 92.0342L176.211 87.6138ZM151.872 95.4H134.08V101.4H151.872V95.4ZM131.08 98.4V124H137.08V98.4H131.08ZM134.08 121H113.856V127H134.08V121ZM116.856 124V34.4H110.856V124H116.856ZM113.856 37.4H151.872V31.4H113.856V37.4ZM150.848 84.504C156.964 84.504 162.125 83.1397 165.856 79.9418L161.952 75.3862C159.709 77.3083 156.167 78.504 150.848 78.504V84.504ZM165.862 79.9373C169.751 76.5878 171.512 71.8229 171.512 66.144H165.512C165.512 70.5345 164.201 73.4495 161.946 75.3907L165.862 79.9373ZM171.512 66.144C171.512 60.5397 169.741 55.8576 165.786 52.6717L162.022 57.3443C164.211 59.1078 165.512 61.8496 165.512 66.144H171.512ZM165.856 52.7302C162.125 49.5323 156.964 48.168 150.848 48.168V54.168C156.167 54.168 159.709 55.3637 161.952 57.2858L165.856 52.7302ZM150.848 48.168H134.08V54.168H150.848V48.168ZM131.08 51.168V81.504H137.08V51.168H131.08ZM134.08 84.504H150.848V78.504H134.08V84.504ZM260.407 124L257.626 125.125L258.384 127H260.407V124ZM253.367 106.592L256.148 105.467L255.39 103.592H253.367V106.592ZM211.895 106.592V103.592H209.872L209.114 105.467L211.895 106.592ZM204.855 124V127H206.878L207.636 125.125L204.855 124ZM183.991 124L181.239 122.805L179.417 127H183.991V124ZM222.903 34.4V31.4H220.935L220.151 33.205L222.903 34.4ZM243.767 34.4L246.526 33.2216L245.748 31.4H243.767V34.4ZM282.039 124V127H286.583L284.798 122.822L282.039 124ZM218.551 90.336L215.773 89.2025L214.087 93.336H218.551V90.336ZM246.839 90.336V93.336H251.288L249.62 89.2113L246.839 90.336ZM232.759 55.52L235.54 54.3953L232.772 47.5493L229.981 54.3865L232.759 55.52ZM263.188 122.875L256.148 105.467L250.586 107.717L257.626 125.125L263.188 122.875ZM253.367 103.592H211.895V109.592H253.367V103.592ZM209.114 105.467L202.074 122.875L207.636 125.125L214.676 107.717L209.114 105.467ZM204.855 121H183.991V127H204.855V121ZM186.743 125.195L225.655 35.595L220.151 33.205L181.239 122.805L186.743 125.195ZM222.903 37.4H243.767V31.4H222.903V37.4ZM241.008 35.5784L279.28 125.178L284.798 122.822L246.526 33.2216L241.008 35.5784ZM282.039 121H260.407V127H282.039V121ZM218.551 93.336H246.839V87.336H218.551V93.336ZM249.62 89.2113L235.54 54.3953L229.978 56.6447L244.058 91.4607L249.62 89.2113ZM229.981 54.3865L215.773 89.2025L221.329 91.4695L235.537 56.6535L229.981 54.3865ZM349.864 59.36L348.3 61.9198L351.166 63.6713L352.584 60.6264L349.864 59.36ZM335.144 52.704L334.195 55.55L334.223 55.5594L334.252 55.5683L335.144 52.704ZM313.64 52.064L315.23 54.608L313.64 52.064ZM314.92 64.992L313.399 67.5778L313.443 67.604L313.489 67.6286L314.92 64.992ZM328.616 70.112L329.456 67.232H329.456L328.616 70.112ZM343.72 75.488L342.474 78.2171L342.485 78.2221L342.496 78.227L343.72 75.488ZM353.96 83.552L356.319 81.6985L353.96 83.552ZM353.576 112.608L351.158 110.832L351.152 110.84L353.576 112.608ZM341.16 121.952L342.282 124.734L341.16 121.952ZM301.736 121.312L300.705 124.129L301.736 121.312ZM283.56 110.816L280.864 109.499L279.852 111.572L281.595 113.083L283.56 110.816ZM291.624 94.304L293.638 92.0804L290.68 89.4013L288.928 92.9875L291.624 94.304ZM307.24 104.16L306.078 106.926L307.24 104.16ZM333.096 105.568L331.474 103.044L331.453 103.058L331.432 103.072L333.096 105.568ZM334.248 93.28L332.127 95.4013L332.186 95.4602L332.248 95.5157L334.248 93.28ZM328.232 89.568L327.135 92.3603L327.152 92.3667L327.168 92.373L328.232 89.568ZM318.248 86.368L319.057 83.4791L319.051 83.4774L318.248 86.368ZM303.144 81.248L301.926 83.9894L301.937 83.9944L301.948 83.9992L303.144 81.248ZM293.16 73.44L295.497 71.559L293.16 73.44ZM293.288 45.408L295.719 47.1664L295.727 47.1542L295.736 47.142L293.288 45.408ZM305.448 36.064L306.586 38.8399L306.605 38.832L306.624 38.8238L305.448 36.064ZM357.672 42.592L360.392 43.8584L361.493 41.4934L359.304 40.0745L357.672 42.592ZM351.428 56.8002C346.608 53.8542 341.475 51.5338 336.036 49.8397L334.252 55.5683C339.224 57.1169 343.904 59.2338 348.3 61.9198L351.428 56.8002ZM336.093 49.8579C330.797 48.0927 326.065 47.144 321.96 47.144V53.144C325.194 53.144 329.251 53.902 334.195 55.55L336.093 49.8579ZM321.96 47.144C318.137 47.144 314.743 47.8369 312.05 49.52L315.23 54.608C316.633 53.7311 318.785 53.144 321.96 53.144V47.144ZM312.05 49.52C309.099 51.3645 307.568 54.218 307.568 57.696H313.568C313.568 56.2246 314.085 55.3235 315.23 54.608L312.05 49.52ZM307.568 57.696C307.568 61.9994 309.655 65.3756 313.399 67.5778L316.441 62.4062C314.382 61.1951 313.568 59.7073 313.568 57.696H307.568ZM313.489 67.6286C316.762 69.4052 321.573 71.1828 327.776 72.992L329.456 67.232C323.371 65.4572 319.052 63.8214 316.351 62.3554L313.489 67.6286ZM327.776 72.992C333.841 74.7609 338.727 76.5063 342.474 78.2171L344.966 72.7589C340.863 70.8857 335.679 69.0471 329.456 67.232L327.776 72.992ZM342.496 78.227C346.045 79.8128 349.074 82.1895 351.601 85.4055L356.319 81.6985C353.214 77.7465 349.416 74.7472 344.944 72.749L342.496 78.227ZM351.601 85.4055C353.894 88.3238 355.184 92.3461 355.184 97.76H361.184C361.184 91.3979 359.658 85.9482 356.319 81.6985L351.601 85.4055ZM355.184 97.76C355.184 102.907 353.813 107.218 351.158 110.832L355.994 114.384C359.483 109.635 361.184 104.048 361.184 97.76H355.184ZM351.152 110.84C348.536 114.428 344.875 117.219 340.038 119.17L342.282 124.734C348.026 122.418 352.643 118.98 356 114.376L351.152 110.84ZM340.038 119.17C335.163 121.136 329.537 122.152 323.112 122.152V128.152C330.169 128.152 336.576 127.035 342.282 124.734L340.038 119.17ZM323.112 122.152C316.22 122.152 309.443 120.937 302.767 118.495L300.705 124.129C308.024 126.807 315.497 128.152 323.112 128.152V122.152ZM302.767 118.495C296.077 116.047 290.343 112.725 285.525 108.549L281.595 113.083C287.017 117.782 293.4 121.457 300.705 124.129L302.767 118.495ZM286.256 112.133L294.32 95.6205L288.928 92.9875L280.864 109.499L286.256 112.133ZM289.61 96.5276C294.396 100.862 299.892 104.326 306.078 106.926L308.402 101.394C302.812 99.0448 297.898 95.9384 293.638 92.0804L289.61 96.5276ZM306.078 106.926C312.224 109.509 318.001 110.872 323.368 110.872V104.872C319.007 104.872 314.032 103.76 308.402 101.394L306.078 106.926ZM323.368 110.872C327.859 110.872 331.771 110.057 334.76 108.064L331.432 103.072C329.813 104.151 327.24 104.872 323.368 104.872V110.872ZM334.718 108.092C337.988 105.989 339.68 102.808 339.68 98.912H333.68C333.68 100.819 332.982 102.075 331.474 103.044L334.718 108.092ZM339.68 98.912C339.68 95.8115 338.547 93.101 336.248 91.0443L332.248 95.5157C333.192 96.3604 333.68 97.4045 333.68 98.912H339.68ZM336.369 91.1587C334.475 89.2644 332.083 87.82 329.296 86.763L327.168 92.373C329.331 93.1933 330.949 94.2235 332.127 95.4013L336.369 91.1587ZM329.329 86.7757C326.802 85.7829 323.362 84.6846 319.057 83.4791L317.439 89.2569C321.667 90.4408 324.884 91.4758 327.135 92.3603L329.329 86.7757ZM319.051 83.4774C312.983 81.7919 308.092 80.1282 304.34 78.4968L301.948 83.9992C306.046 85.7812 311.225 87.5308 317.445 89.2586L319.051 83.4774ZM304.362 78.5066C300.988 77.0069 298.035 74.7122 295.497 71.559L290.823 75.321C293.917 79.1651 297.62 82.0758 301.926 83.9894L304.362 78.5066ZM295.497 71.559C293.222 68.7321 291.936 64.8088 291.936 59.488H285.936C285.936 65.7726 287.466 71.1505 290.823 75.321L295.497 71.559ZM291.936 59.488C291.936 54.6861 293.22 50.6209 295.719 47.1664L290.857 43.6496C287.554 48.2165 285.936 53.5379 285.936 59.488H291.936ZM295.736 47.142C298.27 43.5653 301.842 40.7842 306.586 38.8399L304.31 33.2881C298.644 35.6104 294.109 39.0587 290.84 43.6739L295.736 47.142ZM306.624 38.8238C311.385 36.7946 317.029 35.736 323.624 35.736V29.736C316.395 29.736 309.922 30.8961 304.272 33.3042L306.624 38.8238ZM323.624 35.736C329.472 35.736 335.24 36.5881 340.938 38.2975L342.662 32.5505C336.413 30.6759 330.064 29.736 323.624 29.736V35.736ZM340.938 38.2975C346.675 40.0187 351.7 42.2966 356.04 45.1095L359.304 40.0745C354.428 36.9141 348.871 34.4133 342.662 32.5505L340.938 38.2975ZM354.952 41.3256L347.144 58.0936L352.584 60.6264L360.392 43.8584L354.952 41.3256ZM431.364 59.36L429.8 61.9198L432.666 63.6713L434.084 60.6264L431.364 59.36ZM416.644 52.704L415.695 55.55L415.723 55.5594L415.752 55.5683L416.644 52.704ZM395.14 52.064L396.73 54.608L395.14 52.064ZM396.42 64.992L394.899 67.5778L394.943 67.604L394.989 67.6286L396.42 64.992ZM410.116 70.112L410.956 67.232L410.116 70.112ZM425.22 75.488L423.974 78.2171L423.985 78.2221L423.996 78.227L425.22 75.488ZM435.46 83.552L437.819 81.6985L435.46 83.552ZM435.076 112.608L432.658 110.832L432.652 110.84L435.076 112.608ZM422.66 121.952L423.782 124.734L422.66 121.952ZM383.236 121.312L382.205 124.129L383.236 121.312ZM365.06 110.816L362.364 109.499L361.352 111.572L363.095 113.083L365.06 110.816ZM373.124 94.304L375.138 92.0804L372.18 89.4013L370.428 92.9875L373.124 94.304ZM388.74 104.16L387.578 106.926L388.74 104.16ZM414.596 105.568L412.974 103.044L412.953 103.058L412.932 103.072L414.596 105.568ZM415.748 93.28L413.627 95.4013L413.686 95.4602L413.748 95.5157L415.748 93.28ZM409.732 89.568L408.635 92.3603L408.652 92.3667L408.668 92.373L409.732 89.568ZM399.748 86.368L400.557 83.4791L400.551 83.4774L399.748 86.368ZM384.644 81.248L383.426 83.9894L383.437 83.9944L383.448 83.9992L384.644 81.248ZM374.66 73.44L376.997 71.559L374.66 73.44ZM374.788 45.408L377.219 47.1664L377.227 47.1542L377.236 47.142L374.788 45.408ZM386.948 36.064L388.086 38.8399L388.105 38.832L388.124 38.8238L386.948 36.064ZM439.172 42.592L441.892 43.8584L442.993 41.4934L440.804 40.0745L439.172 42.592ZM432.928 56.8002C428.108 53.8542 422.975 51.5338 417.536 49.8397L415.752 55.5683C420.724 57.1169 425.404 59.2338 429.8 61.9198L432.928 56.8002ZM417.593 49.8579C412.297 48.0927 407.565 47.144 403.46 47.144V53.144C406.694 53.144 410.751 53.902 415.695 55.55L417.593 49.8579ZM403.46 47.144C399.637 47.144 396.243 47.8369 393.55 49.52L396.73 54.608C398.133 53.7311 400.285 53.144 403.46 53.144V47.144ZM393.55 49.52C390.599 51.3645 389.068 54.218 389.068 57.696H395.068C395.068 56.2246 395.585 55.3235 396.73 54.608L393.55 49.52ZM389.068 57.696C389.068 61.9994 391.155 65.3756 394.899 67.5778L397.941 62.4062C395.882 61.1951 395.068 59.7073 395.068 57.696H389.068ZM394.989 67.6286C398.262 69.4052 403.073 71.1828 409.276 72.992L410.956 67.232C404.871 65.4572 400.552 63.8214 397.851 62.3554L394.989 67.6286ZM409.276 72.992C415.341 74.7609 420.227 76.5063 423.974 78.2171L426.466 72.7589C422.363 70.8857 417.179 69.0471 410.956 67.232L409.276 72.992ZM423.996 78.227C427.545 79.8128 430.574 82.1895 433.101 85.4055L437.819 81.6985C434.714 77.7465 430.916 74.7472 426.444 72.749L423.996 78.227ZM433.101 85.4055C435.394 88.3238 436.684 92.3461 436.684 97.76H442.684C442.684 91.3979 441.158 85.9482 437.819 81.6985L433.101 85.4055ZM436.684 97.76C436.684 102.907 435.313 107.218 432.658 110.832L437.494 114.384C440.983 109.635 442.684 104.048 442.684 97.76H436.684ZM432.652 110.84C430.036 114.428 426.375 117.219 421.538 119.17L423.782 124.734C429.526 122.418 434.143 118.98 437.5 114.376L432.652 110.84ZM421.538 119.17C416.663 121.136 411.037 122.152 404.612 122.152V128.152C411.669 128.152 418.076 127.035 423.782 124.734L421.538 119.17ZM404.612 122.152C397.72 122.152 390.943 120.937 384.267 118.495L382.205 124.129C389.524 126.807 396.997 128.152 404.612 128.152V122.152ZM384.267 118.495C377.577 116.047 371.843 112.725 367.025 108.549L363.095 113.083C368.517 117.782 374.9 121.457 382.205 124.129L384.267 118.495ZM367.756 112.133L375.82 95.6205L370.428 92.9875L362.364 109.499L367.756 112.133ZM371.11 96.5276C375.896 100.862 381.392 104.326 387.578 106.926L389.902 101.394C384.312 99.0448 379.398 95.9384 375.138 92.0804L371.11 96.5276ZM387.578 106.926C393.724 109.509 399.501 110.872 404.868 110.872V104.872C400.507 104.872 395.532 103.76 389.902 101.394L387.578 106.926ZM404.868 110.872C409.359 110.872 413.271 110.057 416.26 108.064L412.932 103.072C411.313 104.151 408.74 104.872 404.868 104.872V110.872ZM416.218 108.092C419.488 105.989 421.18 102.808 421.18 98.912H415.18C415.18 100.819 414.482 102.075 412.974 103.044L416.218 108.092ZM421.18 98.912C421.18 95.8115 420.047 93.101 417.748 91.0443L413.748 95.5157C414.692 96.3604 415.18 97.4045 415.18 98.912H421.18ZM417.869 91.1587C415.975 89.2644 413.583 87.82 410.796 86.763L408.668 92.373C410.831 93.1933 412.449 94.2235 413.627 95.4013L417.869 91.1587ZM410.829 86.7757C408.302 85.7829 404.862 84.6846 400.557 83.4791L398.939 89.2569C403.167 90.4408 406.384 91.4758 408.635 92.3603L410.829 86.7757ZM400.551 83.4774C394.483 81.7919 389.592 80.1282 385.84 78.4968L383.448 83.9992C387.546 85.7812 392.725 87.5308 398.945 89.2586L400.551 83.4774ZM385.862 78.5066C382.488 77.0069 379.535 74.7122 376.997 71.559L372.323 75.321C375.417 79.1651 379.12 82.0758 383.426 83.9894L385.862 78.5066ZM376.997 71.559C374.722 68.7321 373.436 64.8088 373.436 59.488H367.436C367.436 65.7726 368.966 71.1505 372.323 75.321L376.997 71.559ZM373.436 59.488C373.436 54.6861 374.72 50.6209 377.219 47.1664L372.357 43.6496C369.054 48.2165 367.436 53.5379 367.436 59.488H373.436ZM377.236 47.142C379.77 43.5653 383.342 40.7842 388.086 38.8399L385.81 33.2881C380.144 35.6104 375.609 39.0587 372.34 43.6739L377.236 47.142ZM388.124 38.8238C392.885 36.7946 398.529 35.736 405.124 35.736V29.736C397.895 29.736 391.422 30.8961 385.772 33.3042L388.124 38.8238ZM405.124 35.736C410.972 35.736 416.74 36.5881 422.438 38.2975L424.162 32.5505C417.913 30.6759 411.564 29.736 405.124 29.736V35.736ZM422.438 38.2975C428.175 40.0187 433.201 42.2966 437.54 45.1095L440.804 40.0745C435.928 36.9141 430.371 34.4133 424.162 32.5505L422.438 38.2975ZM436.452 41.3256L428.644 58.0936L434.084 60.6264L441.892 43.8584L436.452 41.3256ZM453.856 34.4V31.4H450.856V34.4H453.856ZM522.08 34.4H525.08V31.4H522.08V34.4ZM522.08 51.168V54.168H525.08V51.168H522.08ZM474.08 51.168V48.168H471.08V51.168H474.08ZM474.08 70.624H471.08V73.624H474.08V70.624ZM517.216 70.624H520.216V67.624H517.216V70.624ZM517.216 87.392V90.392H520.216V87.392H517.216ZM474.08 87.392V84.392H471.08V87.392H474.08ZM474.08 107.232H471.08V110.232H474.08V107.232ZM523.488 107.232H526.488V104.232H523.488V107.232ZM523.488 124V127H526.488V124H523.488ZM453.856 124H450.856V127H453.856V124ZM453.856 37.4H522.08V31.4H453.856V37.4ZM519.08 34.4V51.168H525.08V34.4H519.08ZM522.08 48.168H474.08V54.168H522.08V48.168ZM471.08 51.168V70.624H477.08V51.168H471.08ZM474.08 73.624H517.216V67.624H474.08V73.624ZM514.216 70.624V87.392H520.216V70.624H514.216ZM517.216 84.392H474.08V90.392H517.216V84.392ZM471.08 87.392V107.232H477.08V87.392H471.08ZM474.08 110.232H523.488V104.232H474.08V110.232ZM520.488 107.232V124H526.488V107.232H520.488ZM523.488 121H453.856V127H523.488V121ZM456.856 124V34.4H450.856V124H456.856ZM598.364 59.36L596.8 61.9198L599.666 63.6713L601.084 60.6264L598.364 59.36ZM583.644 52.704L582.695 55.55L582.723 55.5594L582.752 55.5683L583.644 52.704ZM562.14 52.064L563.73 54.608L562.14 52.064ZM563.42 64.992L561.899 67.5778L561.943 67.604L561.989 67.6286L563.42 64.992ZM577.116 70.112L577.956 67.232L577.116 70.112ZM592.22 75.488L590.974 78.2171L590.985 78.2221L590.996 78.227L592.22 75.488ZM602.46 83.552L604.819 81.6985L602.46 83.552ZM602.076 112.608L599.658 110.832L599.652 110.84L602.076 112.608ZM589.66 121.952L590.782 124.734L589.66 121.952ZM550.236 121.312L549.205 124.129L550.236 121.312ZM532.06 110.816L529.364 109.499L528.352 111.572L530.095 113.083L532.06 110.816ZM540.124 94.304L542.138 92.0804L539.18 89.4013L537.428 92.9875L540.124 94.304ZM555.74 104.16L554.578 106.926L555.74 104.16ZM581.596 105.568L579.974 103.044L579.953 103.058L579.932 103.072L581.596 105.568ZM582.748 93.28L580.627 95.4013L580.686 95.4602L580.748 95.5157L582.748 93.28ZM576.732 89.568L575.635 92.3603L575.652 92.3667L575.668 92.373L576.732 89.568ZM566.748 86.368L567.557 83.4791L567.551 83.4774L566.748 86.368ZM551.644 81.248L550.426 83.9894L550.437 83.9944L550.448 83.9992L551.644 81.248ZM541.66 73.44L543.997 71.559L541.66 73.44ZM541.788 45.408L544.219 47.1664L544.227 47.1542L544.236 47.142L541.788 45.408ZM553.948 36.064L555.086 38.8399L555.105 38.832L555.124 38.8238L553.948 36.064ZM606.172 42.592L608.892 43.8584L609.993 41.4934L607.804 40.0745L606.172 42.592ZM599.928 56.8002C595.108 53.8542 589.975 51.5338 584.536 49.8397L582.752 55.5683C587.724 57.1169 592.404 59.2338 596.8 61.9198L599.928 56.8002ZM584.593 49.8579C579.297 48.0927 574.565 47.144 570.46 47.144V53.144C573.694 53.144 577.751 53.902 582.695 55.55L584.593 49.8579ZM570.46 47.144C566.637 47.144 563.243 47.8369 560.55 49.52L563.73 54.608C565.133 53.7311 567.285 53.144 570.46 53.144V47.144ZM560.55 49.52C557.599 51.3645 556.068 54.218 556.068 57.696H562.068C562.068 56.2246 562.585 55.3235 563.73 54.608L560.55 49.52ZM556.068 57.696C556.068 61.9994 558.155 65.3756 561.899 67.5778L564.941 62.4062C562.882 61.1951 562.068 59.7073 562.068 57.696H556.068ZM561.989 67.6286C565.262 69.4052 570.073 71.1828 576.276 72.992L577.956 67.232C571.871 65.4572 567.552 63.8214 564.851 62.3554L561.989 67.6286ZM576.276 72.992C582.341 74.7609 587.227 76.5063 590.974 78.2171L593.466 72.7589C589.363 70.8857 584.179 69.0471 577.956 67.232L576.276 72.992ZM590.996 78.227C594.545 79.8128 597.574 82.1895 600.101 85.4055L604.819 81.6985C601.714 77.7465 597.916 74.7472 593.444 72.749L590.996 78.227ZM600.101 85.4055C602.394 88.3238 603.684 92.3461 603.684 97.76H609.684C609.684 91.3979 608.158 85.9482 604.819 81.6985L600.101 85.4055ZM603.684 97.76C603.684 102.907 602.313 107.218 599.658 110.832L604.494 114.384C607.983 109.635 609.684 104.048 609.684 97.76H603.684ZM599.652 110.84C597.036 114.428 593.375 117.219 588.538 119.17L590.782 124.734C596.526 122.418 601.143 118.98 604.5 114.376L599.652 110.84ZM588.538 119.17C583.663 121.136 578.037 122.152 571.612 122.152V128.152C578.669 128.152 585.076 127.035 590.782 124.734L588.538 119.17ZM571.612 122.152C564.72 122.152 557.943 120.937 551.267 118.495L549.205 124.129C556.524 126.807 563.997 128.152 571.612 128.152V122.152ZM551.267 118.495C544.577 116.047 538.843 112.725 534.025 108.549L530.095 113.083C535.517 117.782 541.9 121.457 549.205 124.129L551.267 118.495ZM534.756 112.133L542.82 95.6205L537.428 92.9875L529.364 109.499L534.756 112.133ZM538.11 96.5276C542.896 100.862 548.392 104.326 554.578 106.926L556.902 101.394C551.312 99.0448 546.398 95.9384 542.138 92.0804L538.11 96.5276ZM554.578 106.926C560.724 109.509 566.501 110.872 571.868 110.872V104.872C567.507 104.872 562.532 103.76 556.902 101.394L554.578 106.926ZM571.868 110.872C576.359 110.872 580.271 110.057 583.26 108.064L579.932 103.072C578.313 104.151 575.74 104.872 571.868 104.872V110.872ZM583.218 108.092C586.488 105.989 588.18 102.808 588.18 98.912H582.18C582.18 100.819 581.482 102.075 579.974 103.044L583.218 108.092ZM588.18 98.912C588.18 95.8115 587.047 93.101 584.748 91.0443L580.748 95.5157C581.692 96.3604 582.18 97.4045 582.18 98.912H588.18ZM584.869 91.1587C582.975 89.2644 580.583 87.82 577.796 86.763L575.668 92.373C577.831 93.1933 579.449 94.2235 580.627 95.4013L584.869 91.1587ZM577.829 86.7757C575.302 85.7829 571.862 84.6846 567.557 83.4791L565.939 89.2569C570.167 90.4408 573.384 91.4758 575.635 92.3603L577.829 86.7757ZM567.551 83.4774C561.483 81.7919 556.592 80.1282 552.84 78.4968L550.448 83.9992C554.546 85.7812 559.725 87.5308 565.945 89.2586L567.551 83.4774ZM552.862 78.5066C549.488 77.0069 546.535 74.7122 543.997 71.559L539.323 75.321C542.417 79.1651 546.12 82.0758 550.426 83.9894L552.862 78.5066ZM543.997 71.559C541.722 68.7321 540.436 64.8088 540.436 59.488H534.436C534.436 65.7726 535.966 71.1505 539.323 75.321L543.997 71.559ZM540.436 59.488C540.436 54.6861 541.72 50.6209 544.219 47.1664L539.357 43.6496C536.054 48.2165 534.436 53.5379 534.436 59.488H540.436ZM544.236 47.142C546.77 43.5653 550.342 40.7842 555.086 38.8399L552.81 33.2881C547.144 35.6104 542.609 39.0587 539.34 43.6739L544.236 47.142ZM555.124 38.8238C559.885 36.7946 565.529 35.736 572.124 35.736V29.736C564.895 29.736 558.422 30.8961 552.772 33.3042L555.124 38.8238ZM572.124 35.736C577.972 35.736 583.74 36.5881 589.438 38.2975L591.162 32.5505C584.913 30.6759 578.564 29.736 572.124 29.736V35.736ZM589.438 38.2975C595.175 40.0187 600.201 42.2966 604.54 45.1095L607.804 40.0745C602.928 36.9141 597.371 34.4133 591.162 32.5505L589.438 38.2975ZM603.452 41.3256L595.644 58.0936L601.084 60.6264L608.892 43.8584L603.452 41.3256Z" fill="black"/>
</g>
<path d="M722 77.9583C687.981 80.4943 679.884 105.709 680.087 118C677.503 85.9666 650.952 77.9583 638 77.9583C671.251 76.5568 679.854 50.7355 680 38C682.654 71.0344 709.106 78.4032 722 77.9583Z" fill="#FCC907" stroke="black" stroke-width="3"/>
<defs>
<filter id="filter0_d_1277_348" x="113.855" y="32.7363" width="496.828" height="100.416" filterUnits="userSpaceOnUse" color-interpolation-filters="sRGB">
<feFlood flood-opacity="0" result="BackgroundImageFix"/>
<feColorMatrix in="SourceAlpha" type="matrix" values="0 0 0 0 0 0 0 0 0 0 0 0 0 0 0 0 0 0 127 0" result="hardAlpha"/>
<feOffset dx="4" dy="8"/>
<feComposite in2="hardAlpha" operator="out"/>
<feColorMatrix type="matrix" values="0 0 0 0 0 0 0 0 0 0 0 0 0 0 0 0 0 0 1 0"/>
<feBlend mode="normal" in2="BackgroundImageFix" result="effect1_dropShadow_1277_348"/>
<feBlend mode="normal" in="SourceGraphic" in2="effect1_dropShadow_1277_348" result="shape"/>
</filter>
</defs>
</svg>
