<svg width="47" height="47" viewBox="0 0 54 67" fill="none" xmlns="http://www.w3.org/2000/svg">
<path d="M21.5872 50.176L21.5872 3.54982C21.5872 1.58931 23.1765 -2.43241e-06 25.137 -2.26102e-06C27.0975 -2.08962e-06 28.6868 1.58931 28.6868 3.54982L28.6868 50.176L43.3689 35.3525C44.7787 33.9292 47.0789 33.9292 48.4887 35.3525C49.8795 36.7567 49.8795 39.0193 48.4887 40.4235L27.2684 61.848C26.0946 63.0332 24.1794 63.0332 23.0055 61.848L1.78526 40.4235C0.394434 39.0193 0.394434 36.7567 1.78526 35.3525C3.19506 33.9291 5.49523 33.9292 6.90502 35.3525L21.5872 50.176Z" fill="black"/>
</svg>
